<?xml version="1.0" encoding="UTF-8" standalone="no"?>
<!DOCTYPE svg PUBLIC "-//W3C//DTD SVG 1.1//EN"
 "http://www.w3.org/Graphics/SVG/1.1/DTD/svg11.dtd">
<!-- Generated by graphviz version 2.40.1 (20161225.0304)
 -->
<!-- Title: jkr.v_tyhjennysvalit Pages: 1 -->
<svg width="326pt" height="345pt"
 viewBox="0.00 0.00 326.00 345.00" xmlns="http://www.w3.org/2000/svg" xmlns:xlink="http://www.w3.org/1999/xlink">
<g id="graph0" class="graph" transform="scale(1 1) rotate(0) translate(4 341)">
<title>jkr.v_tyhjennysvalit</title>
<polygon fill="#ffffff" stroke="transparent" points="-4,4 -4,-341 322,-341 322,4 -4,4"/>
<!-- jkr.v_tyhjennysvalit -->
<g id="node1" class="node">
<title>jkr.v_tyhjennysvalit</title>
<polygon fill="#efefef" stroke="transparent" points="46,-255.5 46,-290.5 272,-290.5 272,-255.5 46,-255.5"/>
<polygon fill="none" stroke="#000000" points="46,-255.5 46,-290.5 272,-290.5 272,-255.5 46,-255.5"/>
<text text-anchor="start" x="59.7685" y="-268.3" font-family="Arial Bold" font-size="18.00" fill="#000000">jkr.v_tyhjennysvalit</text>
<text text-anchor="start" x="210.7813" y="-268.3" font-family="Arial" font-size="14.00" fill="#000000"> </text>
<text text-anchor="start" x="214.6719" y="-268.3" font-family="Arial" font-size="14.00" fill="#666666">[VIEW]</text>
<polygon fill="none" stroke="#000000" points="46,-225.5 46,-255.5 272,-255.5 272,-225.5 46,-225.5"/>
<text text-anchor="start" x="53" y="-236.9" font-family="Arial" font-size="14.00" fill="#000000">kohde_id </text>
<text text-anchor="start" x="113.6928" y="-236.9" font-family="Arial" font-size="14.00" fill="#666666">[integer]</text>
<polygon fill="none" stroke="#000000" points="46,-195.5 46,-225.5 272,-225.5 272,-195.5 46,-195.5"/>
<text text-anchor="start" x="53" y="-206.9" font-family="Arial" font-size="14.00" fill="#000000">sopimus_id </text>
<text text-anchor="start" x="127.6774" y="-206.9" font-family="Arial" font-size="14.00" fill="#666666">[integer]</text>
<polygon fill="none" stroke="#000000" points="46,-165.5 46,-195.5 272,-195.5 272,-165.5 46,-165.5"/>
<text text-anchor="start" x="52.8072" y="-176.9" font-family="Arial" font-size="14.00" fill="#000000">sopimus_voimassaolo </text>
<text text-anchor="start" x="194.3822" y="-176.9" font-family="Arial" font-size="14.00" fill="#666666">[daterange]</text>
<polygon fill="none" stroke="#000000" points="46,-135.5 46,-165.5 272,-165.5 272,-135.5 46,-135.5"/>
<text text-anchor="start" x="53" y="-146.9" font-family="Arial" font-size="14.00" fill="#000000">jatetyyppi_selite </text>
<text text-anchor="start" x="156.467" y="-146.9" font-family="Arial" font-size="14.00" fill="#666666">[text]</text>
<polygon fill="none" stroke="#000000" points="46,-105.5 46,-135.5 272,-135.5 272,-105.5 46,-105.5"/>
<text text-anchor="start" x="53" y="-116.9" font-family="Arial" font-size="14.00" fill="#000000">alkuvko </text>
<text text-anchor="start" x="104.345" y="-116.9" font-family="Arial" font-size="14.00" fill="#666666">[smallint]</text>
<polygon fill="none" stroke="#000000" points="46,-75.5 46,-105.5 272,-105.5 272,-75.5 46,-75.5"/>
<text text-anchor="start" x="53" y="-86.9" font-family="Arial" font-size="14.00" fill="#000000">loppuvko </text>
<text text-anchor="start" x="112.9102" y="-86.9" font-family="Arial" font-size="14.00" fill="#666666">[smallint]</text>
<polygon fill="none" stroke="#000000" points="46,-45.5 46,-75.5 272,-75.5 272,-45.5 46,-45.5"/>
<text text-anchor="start" x="53" y="-56.9" font-family="Arial" font-size="14.00" fill="#000000">tyhjennysvali </text>
<text text-anchor="start" x="137.014" y="-56.9" font-family="Arial" font-size="14.00" fill="#666666">[smallint]</text>
<polygon fill="none" stroke="#000000" stroke-width="3" points="44.5,-44.5 44.5,-292.5 273.5,-292.5 273.5,-44.5 44.5,-44.5"/>
</g>
</g>
</svg>
