<?xml version="1.0" encoding="UTF-8" standalone="no"?>
<!DOCTYPE svg PUBLIC "-//W3C//DTD SVG 1.1//EN"
 "http://www.w3.org/Graphics/SVG/1.1/DTD/svg11.dtd">
<!-- Generated by graphviz version 2.40.1 (20161225.0304)
 -->
<!-- Title: jkr.kiinteisto Pages: 1 -->
<svg width="855pt" height="442pt"
 viewBox="0.00 0.00 854.50 442.00" xmlns="http://www.w3.org/2000/svg" xmlns:xlink="http://www.w3.org/1999/xlink">
<g id="graph0" class="graph" transform="scale(1 1) rotate(0) translate(4 438)">
<title>jkr.kiinteisto</title>
<polygon fill="#ffffff" stroke="transparent" points="-4,4 -4,-438 850.5,-438 850.5,4 -4,4"/>
<!-- jkr.kiinteisto -->
<g id="node1" class="node">
<title>jkr.kiinteisto</title>
<polygon fill="#efefef" stroke="transparent" points="534,-135.5 534,-170.5 777,-170.5 777,-135.5 534,-135.5"/>
<polygon fill="none" stroke="#000000" points="534,-135.5 534,-170.5 777,-170.5 777,-135.5 534,-135.5"/>
<text text-anchor="start" x="559.876" y="-148.3" font-family="Arial Bold" font-size="18.00" fill="#000000">jkr.kiinteisto</text>
<text text-anchor="start" x="653.8702" y="-148.3" font-family="Arial" font-size="14.00" fill="#000000"> </text>
<text text-anchor="start" x="657.7608" y="-148.3" font-family="Arial" font-size="14.00" fill="#666666">[BASE TABLE]</text>
<polygon fill="none" stroke="#000000" points="534,-105.5 534,-135.5 777,-135.5 777,-105.5 534,-105.5"/>
<text text-anchor="start" x="541" y="-116.9" font-family="Arial" font-size="14.00" fill="#000000">id </text>
<text text-anchor="start" x="555.7798" y="-116.9" font-family="Arial" font-size="14.00" fill="#666666">[integer]</text>
<polygon fill="none" stroke="#000000" points="534,-75.5 534,-105.5 777,-105.5 777,-75.5 534,-75.5"/>
<text text-anchor="start" x="541" y="-86.9" font-family="Arial" font-size="14.00" fill="#000000">kiinteistotunnus </text>
<text text-anchor="start" x="641.3604" y="-86.9" font-family="Arial" font-size="14.00" fill="#666666">[text]</text>
<polygon fill="none" stroke="#000000" points="534,-45.5 534,-75.5 777,-75.5 777,-45.5 534,-45.5"/>
<text text-anchor="start" x="540.7574" y="-56.9" font-family="Arial" font-size="14.00" fill="#000000">geom </text>
<text text-anchor="start" x="579.6564" y="-56.9" font-family="Arial" font-size="14.00" fill="#666666">[geometry(MultiPolygon,3067)]</text>
<polygon fill="none" stroke="#000000" stroke-width="3" points="532,-44.5 532,-172.5 778,-172.5 778,-44.5 532,-44.5"/>
</g>
<!-- jkr.kiinteiston_omistajat -->
<g id="node2" class="node">
<title>jkr.kiinteiston_omistajat</title>
<polygon fill="#efefef" stroke="transparent" points="507,-355.5 507,-390.5 804,-390.5 804,-355.5 507,-355.5"/>
<polygon fill="none" stroke="#000000" points="507,-355.5 507,-390.5 804,-390.5 804,-355.5 507,-355.5"/>
<text text-anchor="start" x="513.868" y="-368.3" font-family="Arial Bold" font-size="18.00" fill="#000000">jkr.kiinteiston_omistajat</text>
<text text-anchor="start" x="699.8782" y="-368.3" font-family="Arial" font-size="14.00" fill="#000000"> </text>
<text text-anchor="start" x="703.7688" y="-368.3" font-family="Arial" font-size="14.00" fill="#666666">[BASE TABLE]</text>
<polygon fill="none" stroke="#000000" points="507,-325.5 507,-355.5 804,-355.5 804,-325.5 507,-325.5"/>
<text text-anchor="start" x="514" y="-336.9" font-family="Arial" font-size="14.00" fill="#000000">kiinteisto_id </text>
<text text-anchor="start" x="591.0112" y="-336.9" font-family="Arial" font-size="14.00" fill="#666666">[integer]</text>
<polygon fill="none" stroke="#000000" points="507,-295.5 507,-325.5 804,-325.5 804,-295.5 507,-295.5"/>
<text text-anchor="start" x="514" y="-306.9" font-family="Arial" font-size="14.00" fill="#000000">osapuoli_id </text>
<text text-anchor="start" x="588.6886" y="-306.9" font-family="Arial" font-size="14.00" fill="#666666">[integer]</text>
</g>
<!-- jkr.kiinteiston_omistajat&#45;&gt;jkr.kiinteisto -->
<g id="edge1" class="edge">
<title>jkr.kiinteiston_omistajat:kiinteisto_id&#45;&gt;jkr.kiinteisto:id</title>
<path fill="none" stroke="#000000" d="M496.8106,-339.6591C410.5331,-324.8888 439.0481,-120.5 534,-120.5"/>
<polygon fill="#000000" stroke="#000000" points="497.0339,-339.6774 506.6298,-344.9848 502.0169,-340.0887 507,-340.5 507,-340.5 507,-340.5 502.0169,-340.0887 507.3702,-336.0152 497.0339,-339.6774 497.0339,-339.6774"/>
<text text-anchor="start" x="7.334" y="-350.5" font-family="Arial" font-size="10.00" fill="#000000">FOREIGN KEY (kiinteisto_id) REFERENCES jkr.kiinteisto(id) ON UPDATE CASCADE ON DELETE CASCADE</text>
</g>
</g>
</svg>
