<?xml version="1.0" encoding="UTF-8" standalone="no"?>
<!DOCTYPE svg PUBLIC "-//W3C//DTD SVG 1.1//EN"
 "http://www.w3.org/Graphics/SVG/1.1/DTD/svg11.dtd">
<!-- Generated by graphviz version 2.40.1 (20161225.0304)
 -->
<!-- Title: jkr.rakennuksen_omistajat Pages: 1 -->
<svg width="1474pt" height="652pt"
 viewBox="0.00 0.00 1474.00 652.00" xmlns="http://www.w3.org/2000/svg" xmlns:xlink="http://www.w3.org/1999/xlink">
<g id="graph0" class="graph" transform="scale(1 1) rotate(0) translate(4 648)">
<title>jkr.rakennuksen_omistajat</title>
<polygon fill="#ffffff" stroke="transparent" points="-4,4 -4,-648 1470,-648 1470,4 -4,4"/>
<!-- jkr.rakennuksen_omistajat -->
<g id="node1" class="node">
<title>jkr.rakennuksen_omistajat</title>
<polygon fill="#efefef" stroke="transparent" points="577,-562.5 577,-597.5 897,-597.5 897,-562.5 577,-562.5"/>
<polygon fill="none" stroke="#000000" points="577,-562.5 577,-597.5 897,-597.5 897,-562.5 577,-562.5"/>
<text text-anchor="start" x="583.8561" y="-575.3" font-family="Arial Bold" font-size="18.00" fill="#000000">jkr.rakennuksen_omistajat</text>
<text text-anchor="start" x="792.8901" y="-575.3" font-family="Arial" font-size="14.00" fill="#000000"> </text>
<text text-anchor="start" x="796.7807" y="-575.3" font-family="Arial" font-size="14.00" fill="#666666">[BASE TABLE]</text>
<polygon fill="none" stroke="#000000" points="577,-532.5 577,-562.5 897,-562.5 897,-532.5 577,-532.5"/>
<text text-anchor="start" x="584" y="-543.9" font-family="Arial" font-size="14.00" fill="#000000">rakennus_id </text>
<text text-anchor="start" x="664.136" y="-543.9" font-family="Arial" font-size="14.00" fill="#666666">[integer]</text>
<polygon fill="none" stroke="#000000" points="577,-502.5 577,-532.5 897,-532.5 897,-502.5 577,-502.5"/>
<text text-anchor="start" x="584" y="-513.9" font-family="Arial" font-size="14.00" fill="#000000">osapuoli_id </text>
<text text-anchor="start" x="658.6886" y="-513.9" font-family="Arial" font-size="14.00" fill="#666666">[integer]</text>
<polygon fill="none" stroke="#000000" stroke-width="3" points="575.5,-501.5 575.5,-599.5 898.5,-599.5 898.5,-501.5 575.5,-501.5"/>
</g>
<!-- jkr.rakennus -->
<g id="node2" class="node">
<title>jkr.rakennus</title>
<polygon fill="#efefef" stroke="transparent" points="440,-342.5 440,-377.5 699,-377.5 699,-342.5 440,-342.5"/>
<polygon fill="none" stroke="#000000" points="440,-342.5 440,-377.5 699,-377.5 699,-342.5 440,-342.5"/>
<text text-anchor="start" x="471.8672" y="-355.3" font-family="Arial Bold" font-size="18.00" fill="#000000">jkr.rakennus</text>
<text text-anchor="start" x="569.879" y="-355.3" font-family="Arial" font-size="14.00" fill="#000000"> </text>
<text text-anchor="start" x="573.7696" y="-355.3" font-family="Arial" font-size="14.00" fill="#666666">[BASE TABLE]</text>
<polygon fill="none" stroke="#000000" points="440,-312.5 440,-342.5 699,-342.5 699,-312.5 440,-312.5"/>
<text text-anchor="start" x="447" y="-323.9" font-family="Arial" font-size="14.00" fill="#000000">id </text>
<text text-anchor="start" x="461.7798" y="-323.9" font-family="Arial" font-size="14.00" fill="#666666">[integer]</text>
<polygon fill="none" stroke="#000000" points="440,-282.5 440,-312.5 699,-312.5 699,-282.5 440,-282.5"/>
<text text-anchor="start" x="447" y="-293.9" font-family="Arial" font-size="14.00" fill="#000000">prt </text>
<text text-anchor="start" x="467.2244" y="-293.9" font-family="Arial" font-size="14.00" fill="#666666">[character(10)]</text>
<polygon fill="none" stroke="#000000" points="440,-252.5 440,-282.5 699,-282.5 699,-252.5 440,-252.5"/>
<text text-anchor="start" x="447" y="-263.9" font-family="Arial" font-size="14.00" fill="#000000">huoneistomaara </text>
<text text-anchor="start" x="551.2524" y="-263.9" font-family="Arial" font-size="14.00" fill="#666666">[smallint]</text>
<polygon fill="none" stroke="#000000" points="440,-222.5 440,-252.5 699,-252.5 699,-222.5 440,-222.5"/>
<text text-anchor="start" x="447" y="-233.9" font-family="Arial" font-size="14.00" fill="#000000">kiinteistotunnus </text>
<text text-anchor="start" x="547.3604" y="-233.9" font-family="Arial" font-size="14.00" fill="#666666">[text]</text>
<polygon fill="none" stroke="#000000" points="440,-192.5 440,-222.5 699,-222.5 699,-192.5 440,-192.5"/>
<text text-anchor="start" x="447" y="-203.9" font-family="Arial" font-size="14.00" fill="#000000">onko_viemari </text>
<text text-anchor="start" x="534.1206" y="-203.9" font-family="Arial" font-size="14.00" fill="#666666">[boolean]</text>
<polygon fill="none" stroke="#000000" points="440,-162.5 440,-192.5 699,-192.5 699,-162.5 440,-162.5"/>
<text text-anchor="start" x="447" y="-173.9" font-family="Arial" font-size="14.00" fill="#000000">geom </text>
<text text-anchor="start" x="485.899" y="-173.9" font-family="Arial" font-size="14.00" fill="#666666">[geometry(Point,3067)]</text>
<polygon fill="none" stroke="#000000" points="440,-132.5 440,-162.5 699,-162.5 699,-132.5 440,-132.5"/>
<text text-anchor="start" x="446.573" y="-143.9" font-family="Arial" font-size="14.00" fill="#000000">rakennuksenkayttotarkoitus_koodi </text>
<text text-anchor="start" x="662.082" y="-143.9" font-family="Arial" font-size="14.00" fill="#666666">[text]</text>
<polygon fill="none" stroke="#000000" points="440,-102.5 440,-132.5 699,-132.5 699,-102.5 440,-102.5"/>
<text text-anchor="start" x="447" y="-113.9" font-family="Arial" font-size="14.00" fill="#000000">rakennuksenolotila_koodi </text>
<text text-anchor="start" x="608.8246" y="-113.9" font-family="Arial" font-size="14.00" fill="#666666">[text]</text>
<polygon fill="none" stroke="#000000" points="440,-72.5 440,-102.5 699,-102.5 699,-72.5 440,-72.5"/>
<text text-anchor="start" x="447" y="-83.9" font-family="Arial" font-size="14.00" fill="#000000">kayttoonotto_pvm </text>
<text text-anchor="start" x="561.3744" y="-83.9" font-family="Arial" font-size="14.00" fill="#666666">[date]</text>
<polygon fill="none" stroke="#000000" points="440,-42.5 440,-72.5 699,-72.5 699,-42.5 440,-42.5"/>
<text text-anchor="start" x="447" y="-53.9" font-family="Arial" font-size="14.00" fill="#000000">kaytostapoisto_pvm </text>
<text text-anchor="start" x="574.5904" y="-53.9" font-family="Arial" font-size="14.00" fill="#666666">[date]</text>
</g>
<!-- jkr.rakennuksen_omistajat&#45;&gt;jkr.rakennus -->
<g id="edge1" class="edge">
<title>jkr.rakennuksen_omistajat:rakennus_id&#45;&gt;jkr.rakennus:id</title>
<path fill="none" stroke="#000000" d="M566.7836,-545.911C540.0058,-536.365 555.2691,-486.0696 577,-457 610.849,-411.7198 665.151,-466.2802 699,-421 723.881,-387.7164 740.5556,-327.5 699,-327.5"/>
<polygon fill="#000000" stroke="#000000" points="567.1188,-545.9631 576.3084,-551.9465 572.0594,-546.7315 577,-547.5 577,-547.5 577,-547.5 572.0594,-546.7315 577.6916,-543.0535 567.1188,-545.9631 567.1188,-545.9631"/>
<text text-anchor="start" x="7.3275" y="-557.5" font-family="Arial" font-size="10.00" fill="#000000">FOREIGN KEY (rakennus_id) REFERENCES jkr.rakennus(id) MATCH FULL ON UPDATE CASCADE ON DELETE CASCADE</text>
</g>
<!-- jkr.osapuoli -->
<g id="node3" class="node">
<title>jkr.osapuoli</title>
<polygon fill="#efefef" stroke="transparent" points="803,-342.5 803,-377.5 1005,-377.5 1005,-342.5 803,-342.5"/>
<polygon fill="none" stroke="#000000" points="803,-342.5 803,-377.5 1005,-377.5 1005,-342.5 803,-342.5"/>
<text text-anchor="start" x="809.8691" y="-355.3" font-family="Arial Bold" font-size="18.00" fill="#000000">jkr.osapuoli</text>
<text text-anchor="start" x="900.8771" y="-355.3" font-family="Arial" font-size="14.00" fill="#000000"> </text>
<text text-anchor="start" x="904.7677" y="-355.3" font-family="Arial" font-size="14.00" fill="#666666">[BASE TABLE]</text>
<polygon fill="none" stroke="#000000" points="803,-312.5 803,-342.5 1005,-342.5 1005,-312.5 803,-312.5"/>
<text text-anchor="start" x="810" y="-323.9" font-family="Arial" font-size="14.00" fill="#000000">id </text>
<text text-anchor="start" x="824.7798" y="-323.9" font-family="Arial" font-size="14.00" fill="#666666">[integer]</text>
<polygon fill="none" stroke="#000000" points="803,-282.5 803,-312.5 1005,-312.5 1005,-282.5 803,-282.5"/>
<text text-anchor="start" x="810" y="-293.9" font-family="Arial" font-size="14.00" fill="#000000">katuosoite </text>
<text text-anchor="start" x="877.6914" y="-293.9" font-family="Arial" font-size="14.00" fill="#666666">[text]</text>
<polygon fill="none" stroke="#000000" points="803,-252.5 803,-282.5 1005,-282.5 1005,-252.5 803,-252.5"/>
<text text-anchor="start" x="810" y="-263.9" font-family="Arial" font-size="14.00" fill="#000000">postitoimipaikka </text>
<text text-anchor="start" x="913.4544" y="-263.9" font-family="Arial" font-size="14.00" fill="#666666">[text]</text>
<polygon fill="none" stroke="#000000" points="803,-222.5 803,-252.5 1005,-252.5 1005,-222.5 803,-222.5"/>
<text text-anchor="start" x="810" y="-233.9" font-family="Arial" font-size="14.00" fill="#000000">erikoisosoite </text>
<text text-anchor="start" x="891.6746" y="-233.9" font-family="Arial" font-size="14.00" fill="#666666">[text]</text>
<polygon fill="none" stroke="#000000" points="803,-192.5 803,-222.5 1005,-222.5 1005,-192.5 803,-192.5"/>
<text text-anchor="start" x="810" y="-203.9" font-family="Arial" font-size="14.00" fill="#000000">ytunnus </text>
<text text-anchor="start" x="862.9116" y="-203.9" font-family="Arial" font-size="14.00" fill="#666666">[text]</text>
<polygon fill="none" stroke="#000000" points="803,-162.5 803,-192.5 1005,-192.5 1005,-162.5 803,-162.5"/>
<text text-anchor="start" x="810" y="-173.9" font-family="Arial" font-size="14.00" fill="#000000">ulkoinen_id </text>
<text text-anchor="start" x="884.6886" y="-173.9" font-family="Arial" font-size="14.00" fill="#666666">[bigint]</text>
<polygon fill="none" stroke="#000000" points="803,-132.5 803,-162.5 1005,-162.5 1005,-132.5 803,-132.5"/>
<text text-anchor="start" x="810" y="-143.9" font-family="Arial" font-size="14.00" fill="#000000">postinumero </text>
<text text-anchor="start" x="890.9046" y="-143.9" font-family="Arial" font-size="14.00" fill="#666666">[text]</text>
<polygon fill="none" stroke="#000000" points="803,-102.5 803,-132.5 1005,-132.5 1005,-102.5 803,-102.5"/>
<text text-anchor="start" x="810" y="-113.9" font-family="Arial" font-size="14.00" fill="#000000">osapuolenlaji_koodi </text>
<text text-anchor="start" x="936.8148" y="-113.9" font-family="Arial" font-size="14.00" fill="#666666">[text]</text>
<polygon fill="none" stroke="#000000" points="803,-72.5 803,-102.5 1005,-102.5 1005,-72.5 803,-72.5"/>
<text text-anchor="start" x="810" y="-83.9" font-family="Arial" font-size="14.00" fill="#000000">nimi </text>
<text text-anchor="start" x="839.547" y="-83.9" font-family="Arial" font-size="14.00" fill="#666666">[text]</text>
<polygon fill="none" stroke="#000000" points="803,-42.5 803,-72.5 1005,-72.5 1005,-42.5 803,-42.5"/>
<text text-anchor="start" x="810" y="-53.9" font-family="Arial" font-size="14.00" fill="#000000">kunta </text>
<text text-anchor="start" x="848.129" y="-53.9" font-family="Arial" font-size="14.00" fill="#666666">[text]</text>
</g>
<!-- jkr.rakennuksen_omistajat&#45;&gt;jkr.osapuoli -->
<g id="edge2" class="edge">
<title>jkr.rakennuksen_omistajat:osapuoli_id&#45;&gt;jkr.osapuoli:id</title>
<path fill="none" stroke="#000000" d="M906.9148,-514.8995C920.1606,-505.9122 909.8576,-475.6924 897,-457 871.6466,-420.141 828.3534,-457.859 803,-421 779.4495,-386.7621 761.4444,-327.5 803,-327.5"/>
<polygon fill="#000000" stroke="#000000" points="906.6728,-514.9629 895.8583,-513.1472 901.8364,-516.2314 897,-517.5 897,-517.5 897,-517.5 901.8364,-516.2314 898.1417,-521.8528 906.6728,-514.9629 906.6728,-514.9629"/>
<text text-anchor="start" x="904.2185" y="-527.5" font-family="Arial" font-size="10.00" fill="#000000">FOREIGN KEY (osapuoli_id) REFERENCES jkr.osapuoli(id) MATCH FULL ON UPDATE CASCADE ON DELETE CASCADE</text>
</g>
</g>
</svg>
