<?xml version="1.0" encoding="UTF-8" standalone="no"?>
<!DOCTYPE svg PUBLIC "-//W3C//DTD SVG 1.1//EN"
 "http://www.w3.org/Graphics/SVG/1.1/DTD/svg11.dtd">
<!-- Generated by graphviz version 2.40.1 (20161225.0304)
 -->
<!-- Title: jkr.keraysvaline Pages: 1 -->
<svg width="1517pt" height="742pt"
 viewBox="0.00 0.00 1517.00 742.00" xmlns="http://www.w3.org/2000/svg" xmlns:xlink="http://www.w3.org/1999/xlink">
<g id="graph0" class="graph" transform="scale(1 1) rotate(0) translate(4 738)">
<title>jkr.keraysvaline</title>
<polygon fill="#ffffff" stroke="transparent" points="-4,4 -4,-738 1513,-738 1513,4 -4,4"/>
<!-- jkr.keraysvaline -->
<g id="node1" class="node">
<title>jkr.keraysvaline</title>
<polygon fill="#efefef" stroke="transparent" points="569,-652.5 569,-687.5 804,-687.5 804,-652.5 569,-652.5"/>
<polygon fill="none" stroke="#000000" points="569,-652.5 569,-687.5 804,-687.5 804,-652.5 569,-652.5"/>
<text text-anchor="start" x="575.873" y="-665.3" font-family="Arial Bold" font-size="18.00" fill="#000000">jkr.keraysvaline</text>
<text text-anchor="start" x="699.8732" y="-665.3" font-family="Arial" font-size="14.00" fill="#000000"> </text>
<text text-anchor="start" x="703.7638" y="-665.3" font-family="Arial" font-size="14.00" fill="#666666">[BASE TABLE]</text>
<polygon fill="none" stroke="#000000" points="569,-622.5 569,-652.5 804,-652.5 804,-622.5 569,-622.5"/>
<text text-anchor="start" x="576" y="-633.9" font-family="Arial" font-size="14.00" fill="#000000">id </text>
<text text-anchor="start" x="590.7798" y="-633.9" font-family="Arial" font-size="14.00" fill="#666666">[integer]</text>
<polygon fill="none" stroke="#000000" points="569,-592.5 569,-622.5 804,-622.5 804,-592.5 569,-592.5"/>
<text text-anchor="start" x="576" y="-603.9" font-family="Arial" font-size="14.00" fill="#000000">pvm </text>
<text text-anchor="start" x="606.3338" y="-603.9" font-family="Arial" font-size="14.00" fill="#666666">[date]</text>
<polygon fill="none" stroke="#000000" points="569,-562.5 569,-592.5 804,-592.5 804,-562.5 569,-562.5"/>
<text text-anchor="start" x="576" y="-573.9" font-family="Arial" font-size="14.00" fill="#000000">tilavuus </text>
<text text-anchor="start" x="627.3422" y="-573.9" font-family="Arial" font-size="14.00" fill="#666666">[integer]</text>
<polygon fill="none" stroke="#000000" points="569,-532.5 569,-562.5 804,-562.5 804,-532.5 569,-532.5"/>
<text text-anchor="start" x="576" y="-543.9" font-family="Arial" font-size="14.00" fill="#000000">maara </text>
<text text-anchor="start" x="619.5596" y="-543.9" font-family="Arial" font-size="14.00" fill="#666666">[smallint]</text>
<polygon fill="none" stroke="#000000" points="569,-502.5 569,-532.5 804,-532.5 804,-502.5 569,-502.5"/>
<text text-anchor="start" x="576" y="-513.9" font-family="Arial" font-size="14.00" fill="#000000">sopimus_id </text>
<text text-anchor="start" x="650.6774" y="-513.9" font-family="Arial" font-size="14.00" fill="#666666">[integer]</text>
<polygon fill="none" stroke="#000000" points="569,-472.5 569,-502.5 804,-502.5 804,-472.5 569,-472.5"/>
<text text-anchor="start" x="576" y="-483.9" font-family="Arial" font-size="14.00" fill="#000000">keraysvalinetyyppi_id </text>
<text text-anchor="start" x="712.9116" y="-483.9" font-family="Arial" font-size="14.00" fill="#666666">[smallint]</text>
<polygon fill="none" stroke="#000000" stroke-width="3" points="567,-471.5 567,-689.5 805,-689.5 805,-471.5 567,-471.5"/>
</g>
<!-- jkr.sopimus -->
<g id="node2" class="node">
<title>jkr.sopimus</title>
<polygon fill="#efefef" stroke="transparent" points="383,-312.5 383,-347.5 598,-347.5 598,-312.5 383,-312.5"/>
<polygon fill="none" stroke="#000000" points="383,-312.5 383,-347.5 598,-347.5 598,-312.5 383,-312.5"/>
<text text-anchor="start" x="396.3763" y="-325.3" font-family="Arial Bold" font-size="18.00" fill="#000000">jkr.sopimus</text>
<text text-anchor="start" x="487.3699" y="-325.3" font-family="Arial" font-size="14.00" fill="#000000"> </text>
<text text-anchor="start" x="491.2605" y="-325.3" font-family="Arial" font-size="14.00" fill="#666666">[BASE TABLE]</text>
<polygon fill="none" stroke="#000000" points="383,-282.5 383,-312.5 598,-312.5 598,-282.5 383,-282.5"/>
<text text-anchor="start" x="390" y="-293.9" font-family="Arial" font-size="14.00" fill="#000000">id </text>
<text text-anchor="start" x="404.7798" y="-293.9" font-family="Arial" font-size="14.00" fill="#666666">[integer]</text>
<polygon fill="none" stroke="#000000" points="383,-252.5 383,-282.5 598,-282.5 598,-252.5 383,-252.5"/>
<text text-anchor="start" x="390" y="-263.9" font-family="Arial" font-size="14.00" fill="#000000">alkupvm </text>
<text text-anchor="start" x="446.0056" y="-263.9" font-family="Arial" font-size="14.00" fill="#666666">[date]</text>
<polygon fill="none" stroke="#000000" points="383,-222.5 383,-252.5 598,-252.5 598,-222.5 383,-222.5"/>
<text text-anchor="start" x="390" y="-233.9" font-family="Arial" font-size="14.00" fill="#000000">loppupvm </text>
<text text-anchor="start" x="454.5708" y="-233.9" font-family="Arial" font-size="14.00" fill="#666666">[date]</text>
<polygon fill="none" stroke="#000000" points="383,-192.5 383,-222.5 598,-222.5 598,-192.5 383,-192.5"/>
<text text-anchor="start" x="389.7476" y="-203.9" font-family="Arial" font-size="14.00" fill="#000000">kimppaisanta_kohde_id </text>
<text text-anchor="start" x="540.683" y="-203.9" font-family="Arial" font-size="14.00" fill="#666666">[integer]</text>
<polygon fill="none" stroke="#000000" points="383,-162.5 383,-192.5 598,-192.5 598,-162.5 383,-162.5"/>
<text text-anchor="start" x="390" y="-173.9" font-family="Arial" font-size="14.00" fill="#000000">kohde_id </text>
<text text-anchor="start" x="450.6928" y="-173.9" font-family="Arial" font-size="14.00" fill="#666666">[integer]</text>
<polygon fill="none" stroke="#000000" points="383,-132.5 383,-162.5 598,-162.5 598,-132.5 383,-132.5"/>
<text text-anchor="start" x="390" y="-143.9" font-family="Arial" font-size="14.00" fill="#000000">jatetyyppi_id </text>
<text text-anchor="start" x="471.6872" y="-143.9" font-family="Arial" font-size="14.00" fill="#666666">[integer]</text>
<polygon fill="none" stroke="#000000" points="383,-102.5 383,-132.5 598,-132.5 598,-102.5 383,-102.5"/>
<text text-anchor="start" x="390" y="-113.9" font-family="Arial" font-size="14.00" fill="#000000">voimassaolo </text>
<text text-anchor="start" x="471.6774" y="-113.9" font-family="Arial" font-size="14.00" fill="#666666">[daterange]</text>
<polygon fill="none" stroke="#000000" points="383,-72.5 383,-102.5 598,-102.5 598,-72.5 383,-72.5"/>
<text text-anchor="start" x="390" y="-83.9" font-family="Arial" font-size="14.00" fill="#000000">sopimustyyppi_id </text>
<text text-anchor="start" x="501.2398" y="-83.9" font-family="Arial" font-size="14.00" fill="#666666">[smallint]</text>
<polygon fill="none" stroke="#000000" points="383,-42.5 383,-72.5 598,-72.5 598,-42.5 383,-42.5"/>
<text text-anchor="start" x="390" y="-53.9" font-family="Arial" font-size="14.00" fill="#000000">tiedontuottaja_tunnus </text>
<text text-anchor="start" x="527.7306" y="-53.9" font-family="Arial" font-size="14.00" fill="#666666">[text]</text>
</g>
<!-- jkr.keraysvaline&#45;&gt;jkr.sopimus -->
<g id="edge1" class="edge">
<title>jkr.keraysvaline:sopimus_id&#45;&gt;jkr.sopimus:id</title>
<path fill="none" stroke="#000000" d="M559.0599,-516.0586C533.8924,-507.3724 556.9285,-461.228 569,-427 575.8335,-407.6241 591.1665,-410.3759 598,-391 611.8214,-351.8103 639.5556,-297.5 598,-297.5"/>
<polygon fill="#000000" stroke="#000000" points="559.1035,-516.0648 568.3542,-521.9534 564.0518,-516.7824 569,-517.5 569,-517.5 569,-517.5 564.0518,-516.7824 569.6458,-513.0466 559.1035,-516.0648 559.1035,-516.0648"/>
<text text-anchor="start" x="7.2265" y="-527.5" font-family="Arial" font-size="10.00" fill="#000000">FOREIGN KEY (sopimus_id) REFERENCES jkr.sopimus(id) MATCH FULL ON UPDATE CASCADE ON DELETE CASCADE</text>
</g>
<!-- jkr_koodistot.keraysvalinetyyppi -->
<g id="node3" class="node">
<title>jkr_koodistot.keraysvalinetyyppi</title>
<polygon fill="#efefef" stroke="transparent" points="702,-207.5 702,-242.5 1066,-242.5 1066,-207.5 702,-207.5"/>
<polygon fill="none" stroke="#000000" points="702,-207.5 702,-242.5 1066,-242.5 1066,-207.5 702,-207.5"/>
<text text-anchor="start" x="708.8538" y="-220.3" font-family="Arial Bold" font-size="18.00" fill="#000000">jkr_koodistot.keraysvalinetyyppi</text>
<text text-anchor="start" x="961.8924" y="-220.3" font-family="Arial" font-size="14.00" fill="#000000"> </text>
<text text-anchor="start" x="965.783" y="-220.3" font-family="Arial" font-size="14.00" fill="#666666">[BASE TABLE]</text>
<polygon fill="none" stroke="#000000" points="702,-177.5 702,-207.5 1066,-207.5 1066,-177.5 702,-177.5"/>
<text text-anchor="start" x="709" y="-188.9" font-family="Arial" font-size="14.00" fill="#000000">id </text>
<text text-anchor="start" x="723.7798" y="-188.9" font-family="Arial" font-size="14.00" fill="#666666">[smallint]</text>
<polygon fill="none" stroke="#000000" points="702,-147.5 702,-177.5 1066,-177.5 1066,-147.5 702,-147.5"/>
<text text-anchor="start" x="709" y="-158.9" font-family="Arial" font-size="14.00" fill="#000000">selite </text>
<text text-anchor="start" x="745.5596" y="-158.9" font-family="Arial" font-size="14.00" fill="#666666">[text]</text>
</g>
<!-- jkr.keraysvaline&#45;&gt;jkr_koodistot.keraysvalinetyyppi -->
<g id="edge2" class="edge">
<title>jkr.keraysvaline:keraysvalinetyyppi_id&#45;&gt;jkr_koodistot.keraysvalinetyyppi:id</title>
<path fill="none" stroke="#000000" d="M813.8072,-484.8758C825.0616,-476.2937 810.9239,-448.3844 804,-427 780.1748,-353.4162 725.8252,-359.5838 702,-286 689.1993,-246.4651 660.4444,-192.5 702,-192.5"/>
<polygon fill="#000000" stroke="#000000" points="813.6601,-484.915 802.8368,-483.1529 808.8301,-486.2075 804,-487.5 804,-487.5 804,-487.5 808.8301,-486.2075 805.1632,-491.8471 813.6601,-484.915 813.6601,-484.915"/>
<text text-anchor="start" x="811.158" y="-497.5" font-family="Arial" font-size="10.00" fill="#000000">FOREIGN KEY (keraysvalinetyyppi_id) REFERENCES jkr_koodistot.keraysvalinetyyppi(id) MATCH FULL ON UPDATE CASCADE ON DELETE RESTRICT</text>
</g>
</g>
</svg>
