<?xml version="1.0" encoding="UTF-8" standalone="no"?>
<!DOCTYPE svg PUBLIC "-//W3C//DTD SVG 1.1//EN"
 "http://www.w3.org/Graphics/SVG/1.1/DTD/svg11.dtd">
<!-- Generated by graphviz version 2.40.1 (20161225.0304)
 -->
<!-- Title: jkr.v_velvoitteita_rikkovat Pages: 1 -->
<svg width="361pt" height="495pt"
 viewBox="0.00 0.00 361.00 495.00" xmlns="http://www.w3.org/2000/svg" xmlns:xlink="http://www.w3.org/1999/xlink">
<g id="graph0" class="graph" transform="scale(1 1) rotate(0) translate(4 491)">
<title>jkr.v_velvoitteita_rikkovat</title>
<polygon fill="#ffffff" stroke="transparent" points="-4,4 -4,-491 357,-491 357,4 -4,4"/>
<!-- jkr.v_velvoitteita_rikkovat -->
<g id="node1" class="node">
<title>jkr.v_velvoitteita_rikkovat</title>
<polygon fill="#efefef" stroke="transparent" points="46.5,-405.5 46.5,-440.5 307.5,-440.5 307.5,-405.5 46.5,-405.5"/>
<polygon fill="none" stroke="#000000" points="46.5,-405.5 46.5,-440.5 307.5,-440.5 307.5,-405.5 46.5,-405.5"/>
<text text-anchor="start" x="53.2669" y="-418.3" font-family="Arial Bold" font-size="18.00" fill="#000000">jkr.v_velvoitteita_rikkovat</text>
<text text-anchor="start" x="253.2829" y="-418.3" font-family="Arial" font-size="14.00" fill="#000000"> </text>
<text text-anchor="start" x="257.1735" y="-418.3" font-family="Arial" font-size="14.00" fill="#666666">[VIEW]</text>
<polygon fill="none" stroke="#000000" points="46.5,-375.5 46.5,-405.5 307.5,-405.5 307.5,-375.5 46.5,-375.5"/>
<text text-anchor="start" x="53.5" y="-386.9" font-family="Arial" font-size="14.00" fill="#000000">kohde_id </text>
<text text-anchor="start" x="114.1928" y="-386.9" font-family="Arial" font-size="14.00" fill="#666666">[integer]</text>
<polygon fill="none" stroke="#000000" points="46.5,-345.5 46.5,-375.5 307.5,-375.5 307.5,-345.5 46.5,-345.5"/>
<text text-anchor="start" x="53.5" y="-356.9" font-family="Arial" font-size="14.00" fill="#000000">geom </text>
<text text-anchor="start" x="92.399" y="-356.9" font-family="Arial" font-size="14.00" fill="#666666">[geometry(Polygon,3067)]</text>
<polygon fill="none" stroke="#000000" points="46.5,-315.5 46.5,-345.5 307.5,-345.5 307.5,-315.5 46.5,-315.5"/>
<text text-anchor="start" x="53.5" y="-326.9" font-family="Arial" font-size="14.00" fill="#000000">selite </text>
<text text-anchor="start" x="90.0596" y="-326.9" font-family="Arial" font-size="14.00" fill="#666666">[text]</text>
<polygon fill="none" stroke="#000000" points="46.5,-285.5 46.5,-315.5 307.5,-315.5 307.5,-285.5 46.5,-285.5"/>
<text text-anchor="start" x="53.5" y="-296.9" font-family="Arial" font-size="14.00" fill="#000000">pvm </text>
<text text-anchor="start" x="83.8338" y="-296.9" font-family="Arial" font-size="14.00" fill="#666666">[date]</text>
<polygon fill="none" stroke="#000000" points="46.5,-255.5 46.5,-285.5 307.5,-285.5 307.5,-255.5 46.5,-255.5"/>
<text text-anchor="start" x="53.5" y="-266.9" font-family="Arial" font-size="14.00" fill="#000000">ok </text>
<text text-anchor="start" x="72.1732" y="-266.9" font-family="Arial" font-size="14.00" fill="#666666">[boolean]</text>
<polygon fill="none" stroke="#000000" points="46.5,-225.5 46.5,-255.5 307.5,-255.5 307.5,-225.5 46.5,-225.5"/>
<text text-anchor="start" x="53.5" y="-236.9" font-family="Arial" font-size="14.00" fill="#000000">kiinteistotunnus </text>
<text text-anchor="start" x="153.8604" y="-236.9" font-family="Arial" font-size="14.00" fill="#666666">[text]</text>
<polygon fill="none" stroke="#000000" points="46.5,-195.5 46.5,-225.5 307.5,-225.5 307.5,-195.5 46.5,-195.5"/>
<text text-anchor="start" x="53.5" y="-206.9" font-family="Arial" font-size="14.00" fill="#000000">prt </text>
<text text-anchor="start" x="73.7244" y="-206.9" font-family="Arial" font-size="14.00" fill="#666666">[text]</text>
<polygon fill="none" stroke="#000000" points="46.5,-165.5 46.5,-195.5 307.5,-195.5 307.5,-165.5 46.5,-165.5"/>
<text text-anchor="start" x="53.5" y="-176.9" font-family="Arial" font-size="14.00" fill="#000000">yhteyshenkilo </text>
<text text-anchor="start" x="142.19" y="-176.9" font-family="Arial" font-size="14.00" fill="#666666">[text]</text>
<polygon fill="none" stroke="#000000" points="46.5,-135.5 46.5,-165.5 307.5,-165.5 307.5,-135.5 46.5,-135.5"/>
<text text-anchor="start" x="53.5" y="-146.9" font-family="Arial" font-size="14.00" fill="#000000">katuosoite </text>
<text text-anchor="start" x="121.1914" y="-146.9" font-family="Arial" font-size="14.00" fill="#666666">[text]</text>
<polygon fill="none" stroke="#000000" points="46.5,-105.5 46.5,-135.5 307.5,-135.5 307.5,-105.5 46.5,-105.5"/>
<text text-anchor="start" x="53.5" y="-116.9" font-family="Arial" font-size="14.00" fill="#000000">postitoimipaikka </text>
<text text-anchor="start" x="156.9544" y="-116.9" font-family="Arial" font-size="14.00" fill="#666666">[text]</text>
<polygon fill="none" stroke="#000000" points="46.5,-75.5 46.5,-105.5 307.5,-105.5 307.5,-75.5 46.5,-75.5"/>
<text text-anchor="start" x="53.5" y="-86.9" font-family="Arial" font-size="14.00" fill="#000000">postinumero </text>
<text text-anchor="start" x="134.4046" y="-86.9" font-family="Arial" font-size="14.00" fill="#666666">[text]</text>
<polygon fill="none" stroke="#000000" points="46.5,-45.5 46.5,-75.5 307.5,-75.5 307.5,-45.5 46.5,-45.5"/>
<text text-anchor="start" x="53.5" y="-56.9" font-family="Arial" font-size="14.00" fill="#000000">erikoisosoite </text>
<text text-anchor="start" x="135.1746" y="-56.9" font-family="Arial" font-size="14.00" fill="#666666">[text]</text>
<polygon fill="none" stroke="#000000" stroke-width="3" points="44.5,-44.5 44.5,-442.5 308.5,-442.5 308.5,-44.5 44.5,-44.5"/>
</g>
</g>
</svg>
