<?xml version="1.0" encoding="UTF-8" standalone="no"?>
<!DOCTYPE svg PUBLIC "-//W3C//DTD SVG 1.1//EN"
 "http://www.w3.org/Graphics/SVG/1.1/DTD/svg11.dtd">
<!-- Generated by graphviz version 2.40.1 (20161225.0304)
 -->
<!-- Title: jkr.kuljetus Pages: 1 -->
<svg width="1534pt" height="802pt"
 viewBox="0.00 0.00 1534.00 802.00" xmlns="http://www.w3.org/2000/svg" xmlns:xlink="http://www.w3.org/1999/xlink">
<g id="graph0" class="graph" transform="scale(1 1) rotate(0) translate(4 798)">
<title>jkr.kuljetus</title>
<polygon fill="#ffffff" stroke="transparent" points="-4,4 -4,-798 1530,-798 1530,4 -4,4"/>
<!-- jkr.kuljetus -->
<g id="node1" class="node">
<title>jkr.kuljetus</title>
<polygon fill="#efefef" stroke="transparent" points="625,-712.5 625,-747.5 821,-747.5 821,-712.5 625,-712.5"/>
<polygon fill="none" stroke="#000000" points="625,-712.5 625,-747.5 821,-747.5 821,-712.5 625,-712.5"/>
<text text-anchor="start" x="631.8742" y="-725.3" font-family="Arial Bold" font-size="18.00" fill="#000000">jkr.kuljetus</text>
<text text-anchor="start" x="716.872" y="-725.3" font-family="Arial" font-size="14.00" fill="#000000"> </text>
<text text-anchor="start" x="720.7626" y="-725.3" font-family="Arial" font-size="14.00" fill="#666666">[BASE TABLE]</text>
<polygon fill="none" stroke="#000000" points="625,-682.5 625,-712.5 821,-712.5 821,-682.5 625,-682.5"/>
<text text-anchor="start" x="632" y="-693.9" font-family="Arial" font-size="14.00" fill="#000000">id </text>
<text text-anchor="start" x="646.7798" y="-693.9" font-family="Arial" font-size="14.00" fill="#666666">[integer]</text>
<polygon fill="none" stroke="#000000" points="625,-652.5 625,-682.5 821,-682.5 821,-652.5 625,-652.5"/>
<text text-anchor="start" x="632" y="-663.9" font-family="Arial" font-size="14.00" fill="#000000">alkupvm </text>
<text text-anchor="start" x="688.0056" y="-663.9" font-family="Arial" font-size="14.00" fill="#666666">[date]</text>
<polygon fill="none" stroke="#000000" points="625,-622.5 625,-652.5 821,-652.5 821,-622.5 625,-622.5"/>
<text text-anchor="start" x="632" y="-633.9" font-family="Arial" font-size="14.00" fill="#000000">loppupvm </text>
<text text-anchor="start" x="696.5708" y="-633.9" font-family="Arial" font-size="14.00" fill="#666666">[date]</text>
<polygon fill="none" stroke="#000000" points="625,-592.5 625,-622.5 821,-622.5 821,-592.5 625,-592.5"/>
<text text-anchor="start" x="632" y="-603.9" font-family="Arial" font-size="14.00" fill="#000000">tyhjennyskerrat </text>
<text text-anchor="start" x="730.7952" y="-603.9" font-family="Arial" font-size="14.00" fill="#666666">[smallint]</text>
<polygon fill="none" stroke="#000000" points="625,-562.5 625,-592.5 821,-592.5 821,-562.5 625,-562.5"/>
<text text-anchor="start" x="632" y="-573.9" font-family="Arial" font-size="14.00" fill="#000000">massa </text>
<text text-anchor="start" x="677.1164" y="-573.9" font-family="Arial" font-size="14.00" fill="#666666">[integer]</text>
<polygon fill="none" stroke="#000000" points="625,-532.5 625,-562.5 821,-562.5 821,-532.5 625,-532.5"/>
<text text-anchor="start" x="632" y="-543.9" font-family="Arial" font-size="14.00" fill="#000000">tilavuus </text>
<text text-anchor="start" x="683.3422" y="-543.9" font-family="Arial" font-size="14.00" fill="#666666">[integer]</text>
<polygon fill="none" stroke="#000000" points="625,-502.5 625,-532.5 821,-532.5 821,-502.5 625,-502.5"/>
<text text-anchor="start" x="632" y="-513.9" font-family="Arial" font-size="14.00" fill="#000000">aikavali </text>
<text text-anchor="start" x="682.5582" y="-513.9" font-family="Arial" font-size="14.00" fill="#666666">[daterange]</text>
<polygon fill="none" stroke="#000000" points="625,-472.5 625,-502.5 821,-502.5 821,-472.5 625,-472.5"/>
<text text-anchor="start" x="632" y="-483.9" font-family="Arial" font-size="14.00" fill="#000000">kohde_id </text>
<text text-anchor="start" x="692.6928" y="-483.9" font-family="Arial" font-size="14.00" fill="#666666">[integer]</text>
<polygon fill="none" stroke="#000000" points="625,-442.5 625,-472.5 821,-472.5 821,-442.5 625,-442.5"/>
<text text-anchor="start" x="632" y="-453.9" font-family="Arial" font-size="14.00" fill="#000000">jatetyyppi_id </text>
<text text-anchor="start" x="713.6872" y="-453.9" font-family="Arial" font-size="14.00" fill="#666666">[integer]</text>
<polygon fill="none" stroke="#000000" points="625,-412.5 625,-442.5 821,-442.5 821,-412.5 625,-412.5"/>
<text text-anchor="start" x="632" y="-423.9" font-family="Arial" font-size="14.00" fill="#000000">tiedontuottaja_tunnus </text>
<text text-anchor="start" x="769.7306" y="-423.9" font-family="Arial" font-size="14.00" fill="#666666">[text]</text>
<polygon fill="none" stroke="#000000" stroke-width="3" points="623.5,-411.5 623.5,-749.5 822.5,-749.5 822.5,-411.5 623.5,-411.5"/>
</g>
<!-- jkr.kohde -->
<g id="node2" class="node">
<title>jkr.kohde</title>
<polygon fill="#efefef" stroke="transparent" points="259,-252.5 259,-287.5 472,-287.5 472,-252.5 259,-252.5"/>
<polygon fill="none" stroke="#000000" points="259,-252.5 259,-287.5 472,-287.5 472,-252.5 259,-252.5"/>
<text text-anchor="start" x="280.3664" y="-265.3" font-family="Arial Bold" font-size="18.00" fill="#000000">jkr.kohde</text>
<text text-anchor="start" x="353.3798" y="-265.3" font-family="Arial" font-size="14.00" fill="#000000"> </text>
<text text-anchor="start" x="357.2704" y="-265.3" font-family="Arial" font-size="14.00" fill="#666666">[BASE TABLE]</text>
<polygon fill="none" stroke="#000000" points="259,-222.5 259,-252.5 472,-252.5 472,-222.5 259,-222.5"/>
<text text-anchor="start" x="266" y="-233.9" font-family="Arial" font-size="14.00" fill="#000000">id </text>
<text text-anchor="start" x="280.7798" y="-233.9" font-family="Arial" font-size="14.00" fill="#666666">[integer]</text>
<polygon fill="none" stroke="#000000" points="259,-192.5 259,-222.5 472,-222.5 472,-192.5 259,-192.5"/>
<text text-anchor="start" x="266" y="-203.9" font-family="Arial" font-size="14.00" fill="#000000">nimi </text>
<text text-anchor="start" x="295.547" y="-203.9" font-family="Arial" font-size="14.00" fill="#666666">[text]</text>
<polygon fill="none" stroke="#000000" points="259,-162.5 259,-192.5 472,-192.5 472,-162.5 259,-162.5"/>
<text text-anchor="start" x="265.5309" y="-173.9" font-family="Arial" font-size="14.00" fill="#000000">geom </text>
<text text-anchor="start" x="304.4299" y="-173.9" font-family="Arial" font-size="14.00" fill="#666666">[geometry(Polygon,3067)]</text>
<polygon fill="none" stroke="#000000" points="259,-132.5 259,-162.5 472,-162.5 472,-132.5 259,-132.5"/>
<text text-anchor="start" x="266" y="-143.9" font-family="Arial" font-size="14.00" fill="#000000">alkupvm </text>
<text text-anchor="start" x="322.0056" y="-143.9" font-family="Arial" font-size="14.00" fill="#666666">[date]</text>
<polygon fill="none" stroke="#000000" points="259,-102.5 259,-132.5 472,-132.5 472,-102.5 259,-102.5"/>
<text text-anchor="start" x="266" y="-113.9" font-family="Arial" font-size="14.00" fill="#000000">loppupvm </text>
<text text-anchor="start" x="330.5708" y="-113.9" font-family="Arial" font-size="14.00" fill="#666666">[date]</text>
<polygon fill="none" stroke="#000000" points="259,-72.5 259,-102.5 472,-102.5 472,-72.5 259,-72.5"/>
<text text-anchor="start" x="266" y="-83.9" font-family="Arial" font-size="14.00" fill="#000000">voimassaolo </text>
<text text-anchor="start" x="347.6774" y="-83.9" font-family="Arial" font-size="14.00" fill="#666666">[daterange]</text>
<polygon fill="none" stroke="#000000" points="259,-42.5 259,-72.5 472,-72.5 472,-42.5 259,-42.5"/>
<text text-anchor="start" x="266" y="-53.9" font-family="Arial" font-size="14.00" fill="#000000">kohdetyyppi_id </text>
<text text-anchor="start" x="363.2552" y="-53.9" font-family="Arial" font-size="14.00" fill="#666666">[integer]</text>
</g>
<!-- jkr.kuljetus&#45;&gt;jkr.kohde -->
<g id="edge1" class="edge">
<title>jkr.kuljetus:kohde_id&#45;&gt;jkr.kohde:id</title>
<path fill="none" stroke="#000000" d="M614.8745,-487.0358C543.8815,-480.2018 563.748,-399.2132 523,-331 498.725,-290.363 519.3354,-237.5 472,-237.5"/>
<polygon fill="#000000" stroke="#000000" points="615.0105,-487.042 624.7939,-491.9953 620.0052,-487.271 625,-487.5 625,-487.5 625,-487.5 620.0052,-487.271 625.2061,-483.0047 615.0105,-487.042 615.0105,-487.042"/>
<text text-anchor="start" x="83.2155" y="-497.5" font-family="Arial" font-size="10.00" fill="#000000">FOREIGN KEY (kohde_id) REFERENCES jkr.kohde(id) MATCH FULL ON UPDATE CASCADE ON DELETE CASCADE</text>
</g>
<!-- jkr_koodistot.jatetyyppi -->
<g id="node3" class="node">
<title>jkr_koodistot.jatetyyppi</title>
<polygon fill="#efefef" stroke="transparent" points="576,-192.5 576,-227.5 869,-227.5 869,-192.5 576,-192.5"/>
<polygon fill="none" stroke="#000000" points="576,-192.5 576,-227.5 869,-227.5 869,-192.5 576,-192.5"/>
<text text-anchor="start" x="582.8552" y="-205.3" font-family="Arial Bold" font-size="18.00" fill="#000000">jkr_koodistot.jatetyyppi</text>
<text text-anchor="start" x="764.891" y="-205.3" font-family="Arial" font-size="14.00" fill="#000000"> </text>
<text text-anchor="start" x="768.7816" y="-205.3" font-family="Arial" font-size="14.00" fill="#666666">[BASE TABLE]</text>
<polygon fill="none" stroke="#000000" points="576,-162.5 576,-192.5 869,-192.5 869,-162.5 576,-162.5"/>
<text text-anchor="start" x="583" y="-173.9" font-family="Arial" font-size="14.00" fill="#000000">id </text>
<text text-anchor="start" x="597.7798" y="-173.9" font-family="Arial" font-size="14.00" fill="#666666">[integer]</text>
<polygon fill="none" stroke="#000000" points="576,-132.5 576,-162.5 869,-162.5 869,-132.5 576,-132.5"/>
<text text-anchor="start" x="583" y="-143.9" font-family="Arial" font-size="14.00" fill="#000000">selite </text>
<text text-anchor="start" x="619.5596" y="-143.9" font-family="Arial" font-size="14.00" fill="#666666">[text]</text>
<polygon fill="none" stroke="#000000" points="576,-102.5 576,-132.5 869,-132.5 869,-102.5 576,-102.5"/>
<text text-anchor="start" x="583" y="-113.9" font-family="Arial" font-size="14.00" fill="#000000">ewc </text>
<text text-anchor="start" x="611.7798" y="-113.9" font-family="Arial" font-size="14.00" fill="#666666">[character(6)]</text>
</g>
<!-- jkr.kuljetus&#45;&gt;jkr_koodistot.jatetyyppi -->
<g id="edge2" class="edge">
<title>jkr.kuljetus:jatetyyppi_id&#45;&gt;jkr_koodistot.jatetyyppi:id</title>
<path fill="none" stroke="#000000" d="M614.8207,-455.9375C588.2593,-446.546 604.5673,-396.9963 625,-367 690.6066,-270.6858 803.3934,-367.3142 869,-271 892.3946,-236.6553 910.5556,-177.5 869,-177.5"/>
<polygon fill="#000000" stroke="#000000" points="615.1158,-455.9828 624.3172,-461.9479 620.0579,-456.7414 625,-457.5 625,-457.5 625,-457.5 620.0579,-456.7414 625.6828,-453.0521 615.1158,-455.9828 615.1158,-455.9828"/>
<text text-anchor="start" x="7.4335" y="-467.5" font-family="Arial" font-size="10.00" fill="#000000">FOREIGN KEY (jatetyyppi_id) REFERENCES jkr_koodistot.jatetyyppi(id) MATCH FULL ON UPDATE CASCADE ON DELETE CASCADE</text>
</g>
<!-- jkr_koodistot.tiedontuottaja -->
<g id="node4" class="node">
<title>jkr_koodistot.tiedontuottaja</title>
<polygon fill="#efefef" stroke="transparent" points="973,-177.5 973,-212.5 1298,-212.5 1298,-177.5 973,-177.5"/>
<polygon fill="none" stroke="#000000" points="973,-177.5 973,-212.5 1298,-212.5 1298,-177.5 973,-177.5"/>
<text text-anchor="start" x="979.8406" y="-190.3" font-family="Arial Bold" font-size="18.00" fill="#000000">jkr_koodistot.tiedontuottaja</text>
<text text-anchor="start" x="1193.9056" y="-190.3" font-family="Arial" font-size="14.00" fill="#000000"> </text>
<text text-anchor="start" x="1197.7962" y="-190.3" font-family="Arial" font-size="14.00" fill="#666666">[BASE TABLE]</text>
<polygon fill="none" stroke="#000000" points="973,-147.5 973,-177.5 1298,-177.5 1298,-147.5 973,-147.5"/>
<text text-anchor="start" x="980" y="-158.9" font-family="Arial" font-size="14.00" fill="#000000">tunnus </text>
<text text-anchor="start" x="1025.9116" y="-158.9" font-family="Arial" font-size="14.00" fill="#666666">[text]</text>
<polygon fill="none" stroke="#000000" points="973,-117.5 973,-147.5 1298,-147.5 1298,-117.5 973,-117.5"/>
<text text-anchor="start" x="980" y="-128.9" font-family="Arial" font-size="14.00" fill="#000000">nimi </text>
<text text-anchor="start" x="1009.547" y="-128.9" font-family="Arial" font-size="14.00" fill="#666666">[text]</text>
</g>
<!-- jkr.kuljetus&#45;&gt;jkr_koodistot.tiedontuottaja -->
<g id="edge3" class="edge">
<title>jkr.kuljetus:tiedontuottaja_tunnus&#45;&gt;jkr_koodistot.tiedontuottaja:tunnus</title>
<path fill="none" stroke="#000000" d="M831.298,-427.0551C883.5444,-422.3272 890.5455,-380.5312 921,-331 962.0499,-264.2364 894.6261,-162.5 973,-162.5"/>
<polygon fill="#000000" stroke="#000000" points="830.9907,-427.0682 820.8057,-423.0042 825.9953,-427.2841 821,-427.5 821,-427.5 821,-427.5 825.9953,-427.2841 821.1943,-431.9958 830.9907,-427.0682 830.9907,-427.0682"/>
<text text-anchor="start" x="828.4025" y="-437.5" font-family="Arial" font-size="10.00" fill="#000000">FOREIGN KEY (tiedontuottaja_tunnus) REFERENCES jkr_koodistot.tiedontuottaja(tunnus) MATCH FULL ON UPDATE CASCADE ON DELETE CASCADE</text>
</g>
</g>
</svg>
