<?xml version="1.0" encoding="UTF-8" standalone="no"?>
<!DOCTYPE svg PUBLIC "-//W3C//DTD SVG 1.1//EN"
 "http://www.w3.org/Graphics/SVG/1.1/DTD/svg11.dtd">
<!-- Generated by graphviz version 2.40.1 (20161225.0304)
 -->
<!-- Title: jkr.v_kohteet_ilman_rakennuksia Pages: 1 -->
<svg width="423pt" height="345pt"
 viewBox="0.00 0.00 423.00 345.00" xmlns="http://www.w3.org/2000/svg" xmlns:xlink="http://www.w3.org/1999/xlink">
<g id="graph0" class="graph" transform="scale(1 1) rotate(0) translate(4 341)">
<title>jkr.v_kohteet_ilman_rakennuksia</title>
<polygon fill="#ffffff" stroke="transparent" points="-4,4 -4,-341 419,-341 419,4 -4,4"/>
<!-- jkr.v_kohteet_ilman_rakennuksia -->
<g id="node1" class="node">
<title>jkr.v_kohteet_ilman_rakennuksia</title>
<polygon fill="#efefef" stroke="transparent" points="46.5,-255.5 46.5,-290.5 369.5,-290.5 369.5,-255.5 46.5,-255.5"/>
<polygon fill="none" stroke="#000000" points="46.5,-255.5 46.5,-290.5 369.5,-290.5 369.5,-255.5 46.5,-255.5"/>
<text text-anchor="start" x="53.2484" y="-268.3" font-family="Arial Bold" font-size="18.00" fill="#000000">jkr.v_kohteet_ilman_rakennuksia</text>
<text text-anchor="start" x="315.3014" y="-268.3" font-family="Arial" font-size="14.00" fill="#000000"> </text>
<text text-anchor="start" x="319.192" y="-268.3" font-family="Arial" font-size="14.00" fill="#666666">[VIEW]</text>
<polygon fill="none" stroke="#000000" points="46.5,-225.5 46.5,-255.5 369.5,-255.5 369.5,-225.5 46.5,-225.5"/>
<text text-anchor="start" x="53.5" y="-236.9" font-family="Arial" font-size="14.00" fill="#000000">id </text>
<text text-anchor="start" x="68.2798" y="-236.9" font-family="Arial" font-size="14.00" fill="#666666">[integer]</text>
<polygon fill="none" stroke="#000000" points="46.5,-195.5 46.5,-225.5 369.5,-225.5 369.5,-195.5 46.5,-195.5"/>
<text text-anchor="start" x="53.5" y="-206.9" font-family="Arial" font-size="14.00" fill="#000000">nimi </text>
<text text-anchor="start" x="83.047" y="-206.9" font-family="Arial" font-size="14.00" fill="#666666">[text]</text>
<polygon fill="none" stroke="#000000" points="46.5,-165.5 46.5,-195.5 369.5,-195.5 369.5,-165.5 46.5,-165.5"/>
<text text-anchor="start" x="53.5" y="-176.9" font-family="Arial" font-size="14.00" fill="#000000">geom </text>
<text text-anchor="start" x="92.399" y="-176.9" font-family="Arial" font-size="14.00" fill="#666666">[geometry(Polygon,3067)]</text>
<polygon fill="none" stroke="#000000" points="46.5,-135.5 46.5,-165.5 369.5,-165.5 369.5,-135.5 46.5,-135.5"/>
<text text-anchor="start" x="53.5" y="-146.9" font-family="Arial" font-size="14.00" fill="#000000">alkupvm </text>
<text text-anchor="start" x="109.5056" y="-146.9" font-family="Arial" font-size="14.00" fill="#666666">[date]</text>
<polygon fill="none" stroke="#000000" points="46.5,-105.5 46.5,-135.5 369.5,-135.5 369.5,-105.5 46.5,-105.5"/>
<text text-anchor="start" x="53.5" y="-116.9" font-family="Arial" font-size="14.00" fill="#000000">loppupvm </text>
<text text-anchor="start" x="118.0708" y="-116.9" font-family="Arial" font-size="14.00" fill="#666666">[date]</text>
<polygon fill="none" stroke="#000000" points="46.5,-75.5 46.5,-105.5 369.5,-105.5 369.5,-75.5 46.5,-75.5"/>
<text text-anchor="start" x="53.5" y="-86.9" font-family="Arial" font-size="14.00" fill="#000000">voimassaolo </text>
<text text-anchor="start" x="135.1774" y="-86.9" font-family="Arial" font-size="14.00" fill="#666666">[daterange]</text>
<polygon fill="none" stroke="#000000" points="46.5,-45.5 46.5,-75.5 369.5,-75.5 369.5,-45.5 46.5,-45.5"/>
<text text-anchor="start" x="53.5" y="-56.9" font-family="Arial" font-size="14.00" fill="#000000">kohdetyyppi_id </text>
<text text-anchor="start" x="150.7552" y="-56.9" font-family="Arial" font-size="14.00" fill="#666666">[integer]</text>
<polygon fill="none" stroke="#000000" stroke-width="3" points="44.5,-44.5 44.5,-292.5 370.5,-292.5 370.5,-44.5 44.5,-44.5"/>
</g>
</g>
</svg>
