<?xml version="1.0" encoding="UTF-8" standalone="no"?>
<!DOCTYPE svg PUBLIC "-//W3C//DTD SVG 1.1//EN"
 "http://www.w3.org/Graphics/SVG/1.1/DTD/svg11.dtd">
<!-- Generated by graphviz version 2.40.1 (20161225.0304)
 -->
<!-- Title: jkr.tyhjennysvali Pages: 1 -->
<svg width="742pt" height="712pt"
 viewBox="0.00 0.00 742.00 712.00" xmlns="http://www.w3.org/2000/svg" xmlns:xlink="http://www.w3.org/1999/xlink">
<g id="graph0" class="graph" transform="scale(1 1) rotate(0) translate(4 708)">
<title>jkr.tyhjennysvali</title>
<polygon fill="#ffffff" stroke="transparent" points="-4,4 -4,-708 738,-708 738,4 -4,4"/>
<!-- jkr.tyhjennysvali -->
<g id="node1" class="node">
<title>jkr.tyhjennysvali</title>
<polygon fill="#efefef" stroke="transparent" points="450,-622.5 450,-657.5 688,-657.5 688,-622.5 450,-622.5"/>
<polygon fill="none" stroke="#000000" points="450,-622.5 450,-657.5 688,-657.5 688,-622.5 450,-622.5"/>
<text text-anchor="start" x="456.8709" y="-635.3" font-family="Arial Bold" font-size="18.00" fill="#000000">jkr.tyhjennysvali</text>
<text text-anchor="start" x="583.8753" y="-635.3" font-family="Arial" font-size="14.00" fill="#000000"> </text>
<text text-anchor="start" x="587.7659" y="-635.3" font-family="Arial" font-size="14.00" fill="#666666">[BASE TABLE]</text>
<polygon fill="none" stroke="#000000" points="450,-592.5 450,-622.5 688,-622.5 688,-592.5 450,-592.5"/>
<text text-anchor="start" x="457" y="-603.9" font-family="Arial" font-size="14.00" fill="#000000">id </text>
<text text-anchor="start" x="471.7798" y="-603.9" font-family="Arial" font-size="14.00" fill="#666666">[integer]</text>
<polygon fill="none" stroke="#000000" points="450,-562.5 450,-592.5 688,-592.5 688,-562.5 450,-562.5"/>
<text text-anchor="start" x="457" y="-573.9" font-family="Arial" font-size="14.00" fill="#000000">alkuvko </text>
<text text-anchor="start" x="508.345" y="-573.9" font-family="Arial" font-size="14.00" fill="#666666">[smallint]</text>
<polygon fill="none" stroke="#000000" points="450,-532.5 450,-562.5 688,-562.5 688,-532.5 450,-532.5"/>
<text text-anchor="start" x="457" y="-543.9" font-family="Arial" font-size="14.00" fill="#000000">loppuvko </text>
<text text-anchor="start" x="516.9102" y="-543.9" font-family="Arial" font-size="14.00" fill="#666666">[smallint]</text>
<polygon fill="none" stroke="#000000" points="450,-502.5 450,-532.5 688,-532.5 688,-502.5 450,-502.5"/>
<text text-anchor="start" x="457" y="-513.9" font-family="Arial" font-size="14.00" fill="#000000">tyhjennysvali </text>
<text text-anchor="start" x="541.014" y="-513.9" font-family="Arial" font-size="14.00" fill="#666666">[smallint]</text>
<polygon fill="none" stroke="#000000" points="450,-472.5 450,-502.5 688,-502.5 688,-472.5 450,-472.5"/>
<text text-anchor="start" x="457" y="-483.9" font-family="Arial" font-size="14.00" fill="#000000">sopimus_id </text>
<text text-anchor="start" x="531.6774" y="-483.9" font-family="Arial" font-size="14.00" fill="#666666">[integer]</text>
<polygon fill="none" stroke="#000000" stroke-width="3" points="448.5,-471.5 448.5,-659.5 689.5,-659.5 689.5,-471.5 448.5,-471.5"/>
</g>
<!-- jkr.sopimus -->
<g id="node2" class="node">
<title>jkr.sopimus</title>
<polygon fill="#efefef" stroke="transparent" points="461,-312.5 461,-347.5 676,-347.5 676,-312.5 461,-312.5"/>
<polygon fill="none" stroke="#000000" points="461,-312.5 461,-347.5 676,-347.5 676,-312.5 461,-312.5"/>
<text text-anchor="start" x="474.3763" y="-325.3" font-family="Arial Bold" font-size="18.00" fill="#000000">jkr.sopimus</text>
<text text-anchor="start" x="565.3699" y="-325.3" font-family="Arial" font-size="14.00" fill="#000000"> </text>
<text text-anchor="start" x="569.2605" y="-325.3" font-family="Arial" font-size="14.00" fill="#666666">[BASE TABLE]</text>
<polygon fill="none" stroke="#000000" points="461,-282.5 461,-312.5 676,-312.5 676,-282.5 461,-282.5"/>
<text text-anchor="start" x="468" y="-293.9" font-family="Arial" font-size="14.00" fill="#000000">id </text>
<text text-anchor="start" x="482.7798" y="-293.9" font-family="Arial" font-size="14.00" fill="#666666">[integer]</text>
<polygon fill="none" stroke="#000000" points="461,-252.5 461,-282.5 676,-282.5 676,-252.5 461,-252.5"/>
<text text-anchor="start" x="468" y="-263.9" font-family="Arial" font-size="14.00" fill="#000000">alkupvm </text>
<text text-anchor="start" x="524.0056" y="-263.9" font-family="Arial" font-size="14.00" fill="#666666">[date]</text>
<polygon fill="none" stroke="#000000" points="461,-222.5 461,-252.5 676,-252.5 676,-222.5 461,-222.5"/>
<text text-anchor="start" x="468" y="-233.9" font-family="Arial" font-size="14.00" fill="#000000">loppupvm </text>
<text text-anchor="start" x="532.5708" y="-233.9" font-family="Arial" font-size="14.00" fill="#666666">[date]</text>
<polygon fill="none" stroke="#000000" points="461,-192.5 461,-222.5 676,-222.5 676,-192.5 461,-192.5"/>
<text text-anchor="start" x="467.7476" y="-203.9" font-family="Arial" font-size="14.00" fill="#000000">kimppaisanta_kohde_id </text>
<text text-anchor="start" x="618.683" y="-203.9" font-family="Arial" font-size="14.00" fill="#666666">[integer]</text>
<polygon fill="none" stroke="#000000" points="461,-162.5 461,-192.5 676,-192.5 676,-162.5 461,-162.5"/>
<text text-anchor="start" x="468" y="-173.9" font-family="Arial" font-size="14.00" fill="#000000">kohde_id </text>
<text text-anchor="start" x="528.6928" y="-173.9" font-family="Arial" font-size="14.00" fill="#666666">[integer]</text>
<polygon fill="none" stroke="#000000" points="461,-132.5 461,-162.5 676,-162.5 676,-132.5 461,-132.5"/>
<text text-anchor="start" x="468" y="-143.9" font-family="Arial" font-size="14.00" fill="#000000">jatetyyppi_id </text>
<text text-anchor="start" x="549.6872" y="-143.9" font-family="Arial" font-size="14.00" fill="#666666">[integer]</text>
<polygon fill="none" stroke="#000000" points="461,-102.5 461,-132.5 676,-132.5 676,-102.5 461,-102.5"/>
<text text-anchor="start" x="468" y="-113.9" font-family="Arial" font-size="14.00" fill="#000000">voimassaolo </text>
<text text-anchor="start" x="549.6774" y="-113.9" font-family="Arial" font-size="14.00" fill="#666666">[daterange]</text>
<polygon fill="none" stroke="#000000" points="461,-72.5 461,-102.5 676,-102.5 676,-72.5 461,-72.5"/>
<text text-anchor="start" x="468" y="-83.9" font-family="Arial" font-size="14.00" fill="#000000">sopimustyyppi_id </text>
<text text-anchor="start" x="579.2398" y="-83.9" font-family="Arial" font-size="14.00" fill="#666666">[smallint]</text>
<polygon fill="none" stroke="#000000" points="461,-42.5 461,-72.5 676,-72.5 676,-42.5 461,-42.5"/>
<text text-anchor="start" x="468" y="-53.9" font-family="Arial" font-size="14.00" fill="#000000">tiedontuottaja_tunnus </text>
<text text-anchor="start" x="605.7306" y="-53.9" font-family="Arial" font-size="14.00" fill="#666666">[text]</text>
</g>
<!-- jkr.tyhjennysvali&#45;&gt;jkr.sopimus -->
<g id="edge1" class="edge">
<title>jkr.tyhjennysvali:sopimus_id&#45;&gt;jkr.sopimus:id</title>
<path fill="none" stroke="#000000" d="M569.9101,-462.3219C578.8474,-416.3678 651.1232,-441.2194 676,-391 694.4459,-353.7628 717.5556,-297.5 676,-297.5"/>
<polygon fill="#000000" stroke="#000000" points="569.8907,-462.5397 564.5179,-472.0992 569.4454,-467.5199 569,-472.5 569,-472.5 569,-472.5 569.4454,-467.5199 573.4821,-472.9008 569.8907,-462.5397 569.8907,-462.5397"/>
<text text-anchor="start" x="7.2265" y="-482.5" font-family="Arial" font-size="10.00" fill="#000000">FOREIGN KEY (sopimus_id) REFERENCES jkr.sopimus(id) MATCH FULL ON UPDATE CASCADE ON DELETE CASCADE</text>
</g>
</g>
</svg>
