<?xml version="1.0" encoding="UTF-8" standalone="no"?>
<!DOCTYPE svg PUBLIC "-//W3C//DTD SVG 1.1//EN"
 "http://www.w3.org/Graphics/SVG/1.1/DTD/svg11.dtd">
<!-- Generated by graphviz version 2.40.1 (20161225.0304)
 -->
<!-- Title: jkr.kohteen_osapuolet Pages: 1 -->
<svg width="1514pt" height="682pt"
 viewBox="0.00 0.00 1514.00 682.00" xmlns="http://www.w3.org/2000/svg" xmlns:xlink="http://www.w3.org/1999/xlink">
<g id="graph0" class="graph" transform="scale(1 1) rotate(0) translate(4 678)">
<title>jkr.kohteen_osapuolet</title>
<polygon fill="#ffffff" stroke="transparent" points="-4,4 -4,-678 1510,-678 1510,4 -4,4"/>
<!-- jkr.kohteen_osapuolet -->
<g id="node1" class="node">
<title>jkr.kohteen_osapuolet</title>
<polygon fill="#efefef" stroke="transparent" points="549,-592.5 549,-627.5 836,-627.5 836,-592.5 549,-592.5"/>
<polygon fill="none" stroke="#000000" points="549,-592.5 549,-627.5 836,-627.5 836,-592.5 549,-592.5"/>
<text text-anchor="start" x="555.8423" y="-605.3" font-family="Arial Bold" font-size="18.00" fill="#000000">jkr.kohteen_osapuolet</text>
<text text-anchor="start" x="731.9039" y="-605.3" font-family="Arial" font-size="14.00" fill="#000000"> </text>
<text text-anchor="start" x="735.7945" y="-605.3" font-family="Arial" font-size="14.00" fill="#666666">[BASE TABLE]</text>
<polygon fill="none" stroke="#000000" points="549,-562.5 549,-592.5 836,-592.5 836,-562.5 549,-562.5"/>
<text text-anchor="start" x="556" y="-573.9" font-family="Arial" font-size="14.00" fill="#000000">kohde_id </text>
<text text-anchor="start" x="616.6928" y="-573.9" font-family="Arial" font-size="14.00" fill="#666666">[integer]</text>
<polygon fill="none" stroke="#000000" points="549,-532.5 549,-562.5 836,-562.5 836,-532.5 549,-532.5"/>
<text text-anchor="start" x="556" y="-543.9" font-family="Arial" font-size="14.00" fill="#000000">osapuoli_id </text>
<text text-anchor="start" x="630.6886" y="-543.9" font-family="Arial" font-size="14.00" fill="#666666">[integer]</text>
<polygon fill="none" stroke="#000000" points="549,-502.5 549,-532.5 836,-532.5 836,-502.5 549,-502.5"/>
<text text-anchor="start" x="556" y="-513.9" font-family="Arial" font-size="14.00" fill="#000000">osapuolenrooli_id </text>
<text text-anchor="start" x="669.5862" y="-513.9" font-family="Arial" font-size="14.00" fill="#666666">[smallint]</text>
<polygon fill="none" stroke="#000000" stroke-width="3" points="547,-501.5 547,-629.5 837,-629.5 837,-501.5 547,-501.5"/>
</g>
<!-- jkr.kohde -->
<g id="node2" class="node">
<title>jkr.kohde</title>
<polygon fill="#efefef" stroke="transparent" points="275,-297.5 275,-332.5 488,-332.5 488,-297.5 275,-297.5"/>
<polygon fill="none" stroke="#000000" points="275,-297.5 275,-332.5 488,-332.5 488,-297.5 275,-297.5"/>
<text text-anchor="start" x="296.3664" y="-310.3" font-family="Arial Bold" font-size="18.00" fill="#000000">jkr.kohde</text>
<text text-anchor="start" x="369.3798" y="-310.3" font-family="Arial" font-size="14.00" fill="#000000"> </text>
<text text-anchor="start" x="373.2704" y="-310.3" font-family="Arial" font-size="14.00" fill="#666666">[BASE TABLE]</text>
<polygon fill="none" stroke="#000000" points="275,-267.5 275,-297.5 488,-297.5 488,-267.5 275,-267.5"/>
<text text-anchor="start" x="282" y="-278.9" font-family="Arial" font-size="14.00" fill="#000000">id </text>
<text text-anchor="start" x="296.7798" y="-278.9" font-family="Arial" font-size="14.00" fill="#666666">[integer]</text>
<polygon fill="none" stroke="#000000" points="275,-237.5 275,-267.5 488,-267.5 488,-237.5 275,-237.5"/>
<text text-anchor="start" x="282" y="-248.9" font-family="Arial" font-size="14.00" fill="#000000">nimi </text>
<text text-anchor="start" x="311.547" y="-248.9" font-family="Arial" font-size="14.00" fill="#666666">[text]</text>
<polygon fill="none" stroke="#000000" points="275,-207.5 275,-237.5 488,-237.5 488,-207.5 275,-207.5"/>
<text text-anchor="start" x="281.5309" y="-218.9" font-family="Arial" font-size="14.00" fill="#000000">geom </text>
<text text-anchor="start" x="320.4299" y="-218.9" font-family="Arial" font-size="14.00" fill="#666666">[geometry(Polygon,3067)]</text>
<polygon fill="none" stroke="#000000" points="275,-177.5 275,-207.5 488,-207.5 488,-177.5 275,-177.5"/>
<text text-anchor="start" x="282" y="-188.9" font-family="Arial" font-size="14.00" fill="#000000">alkupvm </text>
<text text-anchor="start" x="338.0056" y="-188.9" font-family="Arial" font-size="14.00" fill="#666666">[date]</text>
<polygon fill="none" stroke="#000000" points="275,-147.5 275,-177.5 488,-177.5 488,-147.5 275,-147.5"/>
<text text-anchor="start" x="282" y="-158.9" font-family="Arial" font-size="14.00" fill="#000000">loppupvm </text>
<text text-anchor="start" x="346.5708" y="-158.9" font-family="Arial" font-size="14.00" fill="#666666">[date]</text>
<polygon fill="none" stroke="#000000" points="275,-117.5 275,-147.5 488,-147.5 488,-117.5 275,-117.5"/>
<text text-anchor="start" x="282" y="-128.9" font-family="Arial" font-size="14.00" fill="#000000">voimassaolo </text>
<text text-anchor="start" x="363.6774" y="-128.9" font-family="Arial" font-size="14.00" fill="#666666">[daterange]</text>
<polygon fill="none" stroke="#000000" points="275,-87.5 275,-117.5 488,-117.5 488,-87.5 275,-87.5"/>
<text text-anchor="start" x="282" y="-98.9" font-family="Arial" font-size="14.00" fill="#000000">kohdetyyppi_id </text>
<text text-anchor="start" x="379.2552" y="-98.9" font-family="Arial" font-size="14.00" fill="#666666">[integer]</text>
</g>
<!-- jkr.kohteen_osapuolet&#45;&gt;jkr.kohde -->
<g id="edge1" class="edge">
<title>jkr.kohteen_osapuolet:kohde_id&#45;&gt;jkr.kohde:id</title>
<path fill="none" stroke="#000000" d="M538.7674,-576.8504C426.1682,-561.5878 618.2239,-282.5 488,-282.5"/>
<polygon fill="#000000" stroke="#000000" points="539.0201,-576.8663 548.7148,-581.991 544.01,-577.1832 549,-577.5 549,-577.5 549,-577.5 544.01,-577.1832 549.2852,-573.009 539.0201,-576.8663 539.0201,-576.8663"/>
<text text-anchor="start" x="7.2155" y="-587.5" font-family="Arial" font-size="10.00" fill="#000000">FOREIGN KEY (kohde_id) REFERENCES jkr.kohde(id) MATCH FULL ON UPDATE CASCADE ON DELETE CASCADE</text>
</g>
<!-- jkr.osapuoli -->
<g id="node3" class="node">
<title>jkr.osapuoli</title>
<polygon fill="#efefef" stroke="transparent" points="592,-342.5 592,-377.5 794,-377.5 794,-342.5 592,-342.5"/>
<polygon fill="none" stroke="#000000" points="592,-342.5 592,-377.5 794,-377.5 794,-342.5 592,-342.5"/>
<text text-anchor="start" x="598.8691" y="-355.3" font-family="Arial Bold" font-size="18.00" fill="#000000">jkr.osapuoli</text>
<text text-anchor="start" x="689.8771" y="-355.3" font-family="Arial" font-size="14.00" fill="#000000"> </text>
<text text-anchor="start" x="693.7677" y="-355.3" font-family="Arial" font-size="14.00" fill="#666666">[BASE TABLE]</text>
<polygon fill="none" stroke="#000000" points="592,-312.5 592,-342.5 794,-342.5 794,-312.5 592,-312.5"/>
<text text-anchor="start" x="599" y="-323.9" font-family="Arial" font-size="14.00" fill="#000000">id </text>
<text text-anchor="start" x="613.7798" y="-323.9" font-family="Arial" font-size="14.00" fill="#666666">[integer]</text>
<polygon fill="none" stroke="#000000" points="592,-282.5 592,-312.5 794,-312.5 794,-282.5 592,-282.5"/>
<text text-anchor="start" x="599" y="-293.9" font-family="Arial" font-size="14.00" fill="#000000">katuosoite </text>
<text text-anchor="start" x="666.6914" y="-293.9" font-family="Arial" font-size="14.00" fill="#666666">[text]</text>
<polygon fill="none" stroke="#000000" points="592,-252.5 592,-282.5 794,-282.5 794,-252.5 592,-252.5"/>
<text text-anchor="start" x="599" y="-263.9" font-family="Arial" font-size="14.00" fill="#000000">postitoimipaikka </text>
<text text-anchor="start" x="702.4544" y="-263.9" font-family="Arial" font-size="14.00" fill="#666666">[text]</text>
<polygon fill="none" stroke="#000000" points="592,-222.5 592,-252.5 794,-252.5 794,-222.5 592,-222.5"/>
<text text-anchor="start" x="599" y="-233.9" font-family="Arial" font-size="14.00" fill="#000000">erikoisosoite </text>
<text text-anchor="start" x="680.6746" y="-233.9" font-family="Arial" font-size="14.00" fill="#666666">[text]</text>
<polygon fill="none" stroke="#000000" points="592,-192.5 592,-222.5 794,-222.5 794,-192.5 592,-192.5"/>
<text text-anchor="start" x="599" y="-203.9" font-family="Arial" font-size="14.00" fill="#000000">ytunnus </text>
<text text-anchor="start" x="651.9116" y="-203.9" font-family="Arial" font-size="14.00" fill="#666666">[text]</text>
<polygon fill="none" stroke="#000000" points="592,-162.5 592,-192.5 794,-192.5 794,-162.5 592,-162.5"/>
<text text-anchor="start" x="599" y="-173.9" font-family="Arial" font-size="14.00" fill="#000000">ulkoinen_id </text>
<text text-anchor="start" x="673.6886" y="-173.9" font-family="Arial" font-size="14.00" fill="#666666">[bigint]</text>
<polygon fill="none" stroke="#000000" points="592,-132.5 592,-162.5 794,-162.5 794,-132.5 592,-132.5"/>
<text text-anchor="start" x="599" y="-143.9" font-family="Arial" font-size="14.00" fill="#000000">postinumero </text>
<text text-anchor="start" x="679.9046" y="-143.9" font-family="Arial" font-size="14.00" fill="#666666">[text]</text>
<polygon fill="none" stroke="#000000" points="592,-102.5 592,-132.5 794,-132.5 794,-102.5 592,-102.5"/>
<text text-anchor="start" x="599" y="-113.9" font-family="Arial" font-size="14.00" fill="#000000">osapuolenlaji_koodi </text>
<text text-anchor="start" x="725.8148" y="-113.9" font-family="Arial" font-size="14.00" fill="#666666">[text]</text>
<polygon fill="none" stroke="#000000" points="592,-72.5 592,-102.5 794,-102.5 794,-72.5 592,-72.5"/>
<text text-anchor="start" x="599" y="-83.9" font-family="Arial" font-size="14.00" fill="#000000">nimi </text>
<text text-anchor="start" x="628.547" y="-83.9" font-family="Arial" font-size="14.00" fill="#666666">[text]</text>
<polygon fill="none" stroke="#000000" points="592,-42.5 592,-72.5 794,-72.5 794,-42.5 592,-42.5"/>
<text text-anchor="start" x="599" y="-53.9" font-family="Arial" font-size="14.00" fill="#000000">kunta </text>
<text text-anchor="start" x="637.129" y="-53.9" font-family="Arial" font-size="14.00" fill="#666666">[text]</text>
</g>
<!-- jkr.kohteen_osapuolet&#45;&gt;jkr.osapuoli -->
<g id="edge2" class="edge">
<title>jkr.kohteen_osapuolet:osapuoli_id&#45;&gt;jkr.osapuoli:id</title>
<path fill="none" stroke="#000000" d="M845.9189,-545.9904C873.5003,-536.5002 859.8198,-484.5921 836,-457 764.3679,-374.0238 663.6321,-503.9762 592,-421 564.8448,-389.5443 550.4444,-327.5 592,-327.5"/>
<polygon fill="#000000" stroke="#000000" points="845.8862,-545.9953 835.3229,-543.0512 840.9431,-546.7477 836,-547.5 836,-547.5 836,-547.5 840.9431,-546.7477 836.6771,-551.9488 845.8862,-545.9953 845.8862,-545.9953"/>
<text text-anchor="start" x="843.2185" y="-557.5" font-family="Arial" font-size="10.00" fill="#000000">FOREIGN KEY (osapuoli_id) REFERENCES jkr.osapuoli(id) MATCH FULL ON UPDATE CASCADE ON DELETE CASCADE</text>
</g>
<!-- jkr_koodistot.osapuolenrooli -->
<g id="node4" class="node">
<title>jkr_koodistot.osapuolenrooli</title>
<polygon fill="#efefef" stroke="transparent" points="898,-222.5 898,-257.5 1232,-257.5 1232,-222.5 898,-222.5"/>
<polygon fill="none" stroke="#000000" points="898,-222.5 898,-257.5 1232,-257.5 1232,-222.5 898,-222.5"/>
<text text-anchor="start" x="904.8487" y="-235.3" font-family="Arial Bold" font-size="18.00" fill="#000000">jkr_koodistot.osapuolenrooli</text>
<text text-anchor="start" x="1127.8975" y="-235.3" font-family="Arial" font-size="14.00" fill="#000000"> </text>
<text text-anchor="start" x="1131.7881" y="-235.3" font-family="Arial" font-size="14.00" fill="#666666">[BASE TABLE]</text>
<polygon fill="none" stroke="#000000" points="898,-192.5 898,-222.5 1232,-222.5 1232,-192.5 898,-192.5"/>
<text text-anchor="start" x="905" y="-203.9" font-family="Arial" font-size="14.00" fill="#000000">id </text>
<text text-anchor="start" x="919.7798" y="-203.9" font-family="Arial" font-size="14.00" fill="#666666">[smallint]</text>
<polygon fill="none" stroke="#000000" points="898,-162.5 898,-192.5 1232,-192.5 1232,-162.5 898,-162.5"/>
<text text-anchor="start" x="905" y="-173.9" font-family="Arial" font-size="14.00" fill="#000000">selite </text>
<text text-anchor="start" x="941.5596" y="-173.9" font-family="Arial" font-size="14.00" fill="#666666">[text]</text>
</g>
<!-- jkr.kohteen_osapuolet&#45;&gt;jkr_koodistot.osapuolenrooli -->
<g id="edge3" class="edge">
<title>jkr.kohteen_osapuolet:osapuolenrooli_id&#45;&gt;jkr_koodistot.osapuolenrooli:id</title>
<path fill="none" stroke="#000000" d="M846.0191,-516.9106C965.6164,-501.9577 761.0612,-207.5 898,-207.5"/>
<polygon fill="#000000" stroke="#000000" points="845.9827,-516.9126 835.7357,-513.0078 840.9914,-517.2063 836,-517.5 836,-517.5 836,-517.5 840.9914,-517.2063 836.2643,-521.9922 845.9827,-516.9126 845.9827,-516.9126"/>
<text text-anchor="start" x="842.6485" y="-527.5" font-family="Arial" font-size="10.00" fill="#000000">FOREIGN KEY (osapuolenrooli_id) REFERENCES jkr_koodistot.osapuolenrooli(id) MATCH FULL ON UPDATE CASCADE ON DELETE CASCADE</text>
</g>
</g>
</svg>
