<?xml version="1.0" encoding="UTF-8" standalone="no"?>
<!DOCTYPE svg PUBLIC "-//W3C//DTD SVG 1.1//EN"
 "http://www.w3.org/Graphics/SVG/1.1/DTD/svg11.dtd">
<!-- Generated by graphviz version 2.40.1 (20161225.0304)
 -->
<!-- Title: jkr.keskeytys Pages: 1 -->
<svg width="837pt" height="742pt"
 viewBox="0.00 0.00 837.00 742.00" xmlns="http://www.w3.org/2000/svg" xmlns:xlink="http://www.w3.org/1999/xlink">
<g id="graph0" class="graph" transform="scale(1 1) rotate(0) translate(4 738)">
<title>jkr.keskeytys</title>
<polygon fill="#ffffff" stroke="transparent" points="-4,4 -4,-738 833,-738 833,4 -4,4"/>
<!-- jkr.keskeytys -->
<g id="node1" class="node">
<title>jkr.keskeytys</title>
<polygon fill="#efefef" stroke="transparent" points="569,-652.5 569,-687.5 783,-687.5 783,-652.5 569,-652.5"/>
<polygon fill="none" stroke="#000000" points="569,-652.5 569,-687.5 783,-687.5 783,-652.5 569,-652.5"/>
<text text-anchor="start" x="575.8715" y="-665.3" font-family="Arial Bold" font-size="18.00" fill="#000000">jkr.keskeytys</text>
<text text-anchor="start" x="678.8747" y="-665.3" font-family="Arial" font-size="14.00" fill="#000000"> </text>
<text text-anchor="start" x="682.7653" y="-665.3" font-family="Arial" font-size="14.00" fill="#666666">[BASE TABLE]</text>
<polygon fill="none" stroke="#000000" points="569,-622.5 569,-652.5 783,-652.5 783,-622.5 569,-622.5"/>
<text text-anchor="start" x="576" y="-633.9" font-family="Arial" font-size="14.00" fill="#000000">id </text>
<text text-anchor="start" x="590.7798" y="-633.9" font-family="Arial" font-size="14.00" fill="#666666">[integer]</text>
<polygon fill="none" stroke="#000000" points="569,-592.5 569,-622.5 783,-622.5 783,-592.5 569,-592.5"/>
<text text-anchor="start" x="576" y="-603.9" font-family="Arial" font-size="14.00" fill="#000000">alkupvm </text>
<text text-anchor="start" x="632.0056" y="-603.9" font-family="Arial" font-size="14.00" fill="#666666">[date]</text>
<polygon fill="none" stroke="#000000" points="569,-562.5 569,-592.5 783,-592.5 783,-562.5 569,-562.5"/>
<text text-anchor="start" x="576" y="-573.9" font-family="Arial" font-size="14.00" fill="#000000">loppupvm </text>
<text text-anchor="start" x="640.5708" y="-573.9" font-family="Arial" font-size="14.00" fill="#666666">[date]</text>
<polygon fill="none" stroke="#000000" points="569,-532.5 569,-562.5 783,-562.5 783,-532.5 569,-532.5"/>
<text text-anchor="start" x="576" y="-543.9" font-family="Arial" font-size="14.00" fill="#000000">selite </text>
<text text-anchor="start" x="612.5596" y="-543.9" font-family="Arial" font-size="14.00" fill="#666666">[text]</text>
<polygon fill="none" stroke="#000000" points="569,-502.5 569,-532.5 783,-532.5 783,-502.5 569,-502.5"/>
<text text-anchor="start" x="576" y="-513.9" font-family="Arial" font-size="14.00" fill="#000000">sopimus_id </text>
<text text-anchor="start" x="650.6774" y="-513.9" font-family="Arial" font-size="14.00" fill="#666666">[integer]</text>
<polygon fill="none" stroke="#000000" points="569,-472.5 569,-502.5 783,-502.5 783,-472.5 569,-472.5"/>
<text text-anchor="start" x="576" y="-483.9" font-family="Arial" font-size="14.00" fill="#000000">voimassaolo </text>
<text text-anchor="start" x="657.6774" y="-483.9" font-family="Arial" font-size="14.00" fill="#666666">[daterange]</text>
<polygon fill="none" stroke="#000000" stroke-width="3" points="567.5,-471.5 567.5,-689.5 784.5,-689.5 784.5,-471.5 567.5,-471.5"/>
</g>
<!-- jkr.sopimus -->
<g id="node2" class="node">
<title>jkr.sopimus</title>
<polygon fill="#efefef" stroke="transparent" points="568,-312.5 568,-347.5 783,-347.5 783,-312.5 568,-312.5"/>
<polygon fill="none" stroke="#000000" points="568,-312.5 568,-347.5 783,-347.5 783,-312.5 568,-312.5"/>
<text text-anchor="start" x="581.3763" y="-325.3" font-family="Arial Bold" font-size="18.00" fill="#000000">jkr.sopimus</text>
<text text-anchor="start" x="672.3699" y="-325.3" font-family="Arial" font-size="14.00" fill="#000000"> </text>
<text text-anchor="start" x="676.2605" y="-325.3" font-family="Arial" font-size="14.00" fill="#666666">[BASE TABLE]</text>
<polygon fill="none" stroke="#000000" points="568,-282.5 568,-312.5 783,-312.5 783,-282.5 568,-282.5"/>
<text text-anchor="start" x="575" y="-293.9" font-family="Arial" font-size="14.00" fill="#000000">id </text>
<text text-anchor="start" x="589.7798" y="-293.9" font-family="Arial" font-size="14.00" fill="#666666">[integer]</text>
<polygon fill="none" stroke="#000000" points="568,-252.5 568,-282.5 783,-282.5 783,-252.5 568,-252.5"/>
<text text-anchor="start" x="575" y="-263.9" font-family="Arial" font-size="14.00" fill="#000000">alkupvm </text>
<text text-anchor="start" x="631.0056" y="-263.9" font-family="Arial" font-size="14.00" fill="#666666">[date]</text>
<polygon fill="none" stroke="#000000" points="568,-222.5 568,-252.5 783,-252.5 783,-222.5 568,-222.5"/>
<text text-anchor="start" x="575" y="-233.9" font-family="Arial" font-size="14.00" fill="#000000">loppupvm </text>
<text text-anchor="start" x="639.5708" y="-233.9" font-family="Arial" font-size="14.00" fill="#666666">[date]</text>
<polygon fill="none" stroke="#000000" points="568,-192.5 568,-222.5 783,-222.5 783,-192.5 568,-192.5"/>
<text text-anchor="start" x="574.7476" y="-203.9" font-family="Arial" font-size="14.00" fill="#000000">kimppaisanta_kohde_id </text>
<text text-anchor="start" x="725.683" y="-203.9" font-family="Arial" font-size="14.00" fill="#666666">[integer]</text>
<polygon fill="none" stroke="#000000" points="568,-162.5 568,-192.5 783,-192.5 783,-162.5 568,-162.5"/>
<text text-anchor="start" x="575" y="-173.9" font-family="Arial" font-size="14.00" fill="#000000">kohde_id </text>
<text text-anchor="start" x="635.6928" y="-173.9" font-family="Arial" font-size="14.00" fill="#666666">[integer]</text>
<polygon fill="none" stroke="#000000" points="568,-132.5 568,-162.5 783,-162.5 783,-132.5 568,-132.5"/>
<text text-anchor="start" x="575" y="-143.9" font-family="Arial" font-size="14.00" fill="#000000">jatetyyppi_id </text>
<text text-anchor="start" x="656.6872" y="-143.9" font-family="Arial" font-size="14.00" fill="#666666">[integer]</text>
<polygon fill="none" stroke="#000000" points="568,-102.5 568,-132.5 783,-132.5 783,-102.5 568,-102.5"/>
<text text-anchor="start" x="575" y="-113.9" font-family="Arial" font-size="14.00" fill="#000000">voimassaolo </text>
<text text-anchor="start" x="656.6774" y="-113.9" font-family="Arial" font-size="14.00" fill="#666666">[daterange]</text>
<polygon fill="none" stroke="#000000" points="568,-72.5 568,-102.5 783,-102.5 783,-72.5 568,-72.5"/>
<text text-anchor="start" x="575" y="-83.9" font-family="Arial" font-size="14.00" fill="#000000">sopimustyyppi_id </text>
<text text-anchor="start" x="686.2398" y="-83.9" font-family="Arial" font-size="14.00" fill="#666666">[smallint]</text>
<polygon fill="none" stroke="#000000" points="568,-42.5 568,-72.5 783,-72.5 783,-42.5 568,-42.5"/>
<text text-anchor="start" x="575" y="-53.9" font-family="Arial" font-size="14.00" fill="#000000">tiedontuottaja_tunnus </text>
<text text-anchor="start" x="712.7306" y="-53.9" font-family="Arial" font-size="14.00" fill="#666666">[text]</text>
</g>
<!-- jkr.keskeytys&#45;&gt;jkr.sopimus -->
<g id="edge1" class="edge">
<title>jkr.keskeytys:sopimus_id&#45;&gt;jkr.sopimus:id</title>
<path fill="none" stroke="#000000" d="M559.0885,-515.9967C531.5521,-506.545 545.4598,-454.831 569,-427 631.2855,-353.3614 720.7145,-464.6386 783,-391 809.8364,-359.2719 824.5556,-297.5 783,-297.5"/>
<polygon fill="#000000" stroke="#000000" points="559.1131,-516.0004 568.3252,-521.9491 564.0565,-516.7502 569,-517.5 569,-517.5 569,-517.5 564.0565,-516.7502 569.6748,-513.0509 559.1131,-516.0004 559.1131,-516.0004"/>
<text text-anchor="start" x="7.2265" y="-527.5" font-family="Arial" font-size="10.00" fill="#000000">FOREIGN KEY (sopimus_id) REFERENCES jkr.sopimus(id) MATCH FULL ON UPDATE CASCADE ON DELETE CASCADE</text>
</g>
</g>
</svg>
