<?xml version="1.0" encoding="UTF-8" standalone="no"?>
<!DOCTYPE svg PUBLIC "-//W3C//DTD SVG 1.1//EN"
 "http://www.w3.org/Graphics/SVG/1.1/DTD/svg11.dtd">
<!-- Generated by graphviz version 2.40.1 (20161225.0304)
 -->
<!-- Title: jkr.velvoitemalli Pages: 1 -->
<svg width="940pt" height="869pt"
 viewBox="0.00 0.00 939.50 869.00" xmlns="http://www.w3.org/2000/svg" xmlns:xlink="http://www.w3.org/1999/xlink">
<g id="graph0" class="graph" transform="scale(1 1) rotate(0) translate(4 865)">
<title>jkr.velvoitemalli</title>
<polygon fill="#ffffff" stroke="transparent" points="-4,4 -4,-865 935.5,-865 935.5,4 -4,4"/>
<!-- jkr.velvoitemalli -->
<g id="node1" class="node">
<title>jkr.velvoitemalli</title>
<polygon fill="#efefef" stroke="transparent" points="626,-532.5 626,-567.5 859,-567.5 859,-532.5 626,-532.5"/>
<polygon fill="none" stroke="#000000" points="626,-532.5 626,-567.5 859,-567.5 859,-532.5 626,-532.5"/>
<text text-anchor="start" x="632.8837" y="-545.3" font-family="Arial Bold" font-size="18.00" fill="#000000">jkr.velvoitemalli</text>
<text text-anchor="start" x="754.8625" y="-545.3" font-family="Arial" font-size="14.00" fill="#000000"> </text>
<text text-anchor="start" x="758.7531" y="-545.3" font-family="Arial" font-size="14.00" fill="#666666">[BASE TABLE]</text>
<polygon fill="none" stroke="#000000" points="626,-502.5 626,-532.5 859,-532.5 859,-502.5 626,-502.5"/>
<text text-anchor="start" x="633" y="-513.9" font-family="Arial" font-size="14.00" fill="#000000">id </text>
<text text-anchor="start" x="647.7798" y="-513.9" font-family="Arial" font-size="14.00" fill="#666666">[integer]</text>
<polygon fill="none" stroke="#000000" points="626,-472.5 626,-502.5 859,-502.5 859,-472.5 626,-472.5"/>
<text text-anchor="start" x="633" y="-483.9" font-family="Arial" font-size="14.00" fill="#000000">selite </text>
<text text-anchor="start" x="669.5596" y="-483.9" font-family="Arial" font-size="14.00" fill="#666666">[text]</text>
<polygon fill="none" stroke="#000000" points="626,-442.5 626,-472.5 859,-472.5 859,-442.5 626,-442.5"/>
<text text-anchor="start" x="633" y="-453.9" font-family="Arial" font-size="14.00" fill="#000000">saanto </text>
<text text-anchor="start" x="678.9116" y="-453.9" font-family="Arial" font-size="14.00" fill="#666666">[text]</text>
<polygon fill="none" stroke="#000000" points="626,-412.5 626,-442.5 859,-442.5 859,-412.5 626,-412.5"/>
<text text-anchor="start" x="633" y="-423.9" font-family="Arial" font-size="14.00" fill="#000000">tayttymissaanto </text>
<text text-anchor="start" x="734.1332" y="-423.9" font-family="Arial" font-size="14.00" fill="#666666">[text]</text>
<polygon fill="none" stroke="#000000" points="626,-382.5 626,-412.5 859,-412.5 859,-382.5 626,-382.5"/>
<text text-anchor="start" x="633" y="-393.9" font-family="Arial" font-size="14.00" fill="#000000">jatetyyppi_id </text>
<text text-anchor="start" x="714.6872" y="-393.9" font-family="Arial" font-size="14.00" fill="#666666">[integer]</text>
<polygon fill="none" stroke="#000000" points="626,-352.5 626,-382.5 859,-382.5 859,-352.5 626,-352.5"/>
<text text-anchor="start" x="633" y="-363.9" font-family="Arial" font-size="14.00" fill="#000000">alkupvm </text>
<text text-anchor="start" x="689.0056" y="-363.9" font-family="Arial" font-size="14.00" fill="#666666">[date]</text>
<polygon fill="none" stroke="#000000" points="626,-322.5 626,-352.5 859,-352.5 859,-322.5 626,-322.5"/>
<text text-anchor="start" x="633" y="-333.9" font-family="Arial" font-size="14.00" fill="#000000">loppupvm </text>
<text text-anchor="start" x="697.5708" y="-333.9" font-family="Arial" font-size="14.00" fill="#666666">[date]</text>
<polygon fill="none" stroke="#000000" points="626,-292.5 626,-322.5 859,-322.5 859,-292.5 626,-292.5"/>
<text text-anchor="start" x="633" y="-303.9" font-family="Arial" font-size="14.00" fill="#000000">voimassaolo </text>
<text text-anchor="start" x="714.6774" y="-303.9" font-family="Arial" font-size="14.00" fill="#666666">[daterange]</text>
<polygon fill="none" stroke="#000000" stroke-width="3" points="624,-291.5 624,-569.5 860,-569.5 860,-291.5 624,-291.5"/>
</g>
<!-- jkr_koodistot.jatetyyppi -->
<g id="node3" class="node">
<title>jkr_koodistot.jatetyyppi</title>
<polygon fill="#efefef" stroke="transparent" points="596,-132.5 596,-167.5 889,-167.5 889,-132.5 596,-132.5"/>
<polygon fill="none" stroke="#000000" points="596,-132.5 596,-167.5 889,-167.5 889,-132.5 596,-132.5"/>
<text text-anchor="start" x="602.8552" y="-145.3" font-family="Arial Bold" font-size="18.00" fill="#000000">jkr_koodistot.jatetyyppi</text>
<text text-anchor="start" x="784.891" y="-145.3" font-family="Arial" font-size="14.00" fill="#000000"> </text>
<text text-anchor="start" x="788.7816" y="-145.3" font-family="Arial" font-size="14.00" fill="#666666">[BASE TABLE]</text>
<polygon fill="none" stroke="#000000" points="596,-102.5 596,-132.5 889,-132.5 889,-102.5 596,-102.5"/>
<text text-anchor="start" x="603" y="-113.9" font-family="Arial" font-size="14.00" fill="#000000">id </text>
<text text-anchor="start" x="617.7798" y="-113.9" font-family="Arial" font-size="14.00" fill="#666666">[integer]</text>
<polygon fill="none" stroke="#000000" points="596,-72.5 596,-102.5 889,-102.5 889,-72.5 596,-72.5"/>
<text text-anchor="start" x="603" y="-83.9" font-family="Arial" font-size="14.00" fill="#000000">selite </text>
<text text-anchor="start" x="639.5596" y="-83.9" font-family="Arial" font-size="14.00" fill="#666666">[text]</text>
<polygon fill="none" stroke="#000000" points="596,-42.5 596,-72.5 889,-72.5 889,-42.5 596,-42.5"/>
<text text-anchor="start" x="603" y="-53.9" font-family="Arial" font-size="14.00" fill="#000000">ewc </text>
<text text-anchor="start" x="631.7798" y="-53.9" font-family="Arial" font-size="14.00" fill="#666666">[character(6)]</text>
</g>
<!-- jkr.velvoitemalli&#45;&gt;jkr_koodistot.jatetyyppi -->
<g id="edge2" class="edge">
<title>jkr.velvoitemalli:jatetyyppi_id&#45;&gt;jkr_koodistot.jatetyyppi:id</title>
<path fill="none" stroke="#000000" d="M616.0354,-395.0794C560.4173,-367.7124 536.8439,-117.5 596,-117.5"/>
<polygon fill="#000000" stroke="#000000" points="616.2826,-395.1394 624.9377,-401.8728 621.1413,-396.3197 626,-397.5 626,-397.5 626,-397.5 621.1413,-396.3197 627.0623,-393.1272 616.2826,-395.1394 616.2826,-395.1394"/>
<text text-anchor="start" x="6.604" y="-407.5" font-family="Arial" font-size="10.00" fill="#000000">FOREIGN KEY (jatetyyppi_id) REFERENCES jkr_koodistot.jatetyyppi(id) MATCH FULL ON UPDATE CASCADE ON DELETE RESTRICT</text>
</g>
<!-- jkr.velvoite -->
<g id="node2" class="node">
<title>jkr.velvoite</title>
<polygon fill="#efefef" stroke="transparent" points="645,-782.5 645,-817.5 841,-817.5 841,-782.5 645,-782.5"/>
<polygon fill="none" stroke="#000000" points="645,-782.5 645,-817.5 841,-817.5 841,-782.5 645,-782.5"/>
<text text-anchor="start" x="651.8742" y="-795.3" font-family="Arial Bold" font-size="18.00" fill="#000000">jkr.velvoite</text>
<text text-anchor="start" x="736.872" y="-795.3" font-family="Arial" font-size="14.00" fill="#000000"> </text>
<text text-anchor="start" x="740.7626" y="-795.3" font-family="Arial" font-size="14.00" fill="#666666">[BASE TABLE]</text>
<polygon fill="none" stroke="#000000" points="645,-752.5 645,-782.5 841,-782.5 841,-752.5 645,-752.5"/>
<text text-anchor="start" x="652" y="-763.9" font-family="Arial" font-size="14.00" fill="#000000">id </text>
<text text-anchor="start" x="666.7798" y="-763.9" font-family="Arial" font-size="14.00" fill="#666666">[integer]</text>
<polygon fill="none" stroke="#000000" points="645,-722.5 645,-752.5 841,-752.5 841,-722.5 645,-722.5"/>
<text text-anchor="start" x="652" y="-733.9" font-family="Arial" font-size="14.00" fill="#000000">kohde_id </text>
<text text-anchor="start" x="712.6928" y="-733.9" font-family="Arial" font-size="14.00" fill="#666666">[integer]</text>
<polygon fill="none" stroke="#000000" points="645,-692.5 645,-722.5 841,-722.5 841,-692.5 645,-692.5"/>
<text text-anchor="start" x="652" y="-703.9" font-family="Arial" font-size="14.00" fill="#000000">velvoitemalli_id </text>
<text text-anchor="start" x="750.777" y="-703.9" font-family="Arial" font-size="14.00" fill="#666666">[integer]</text>
</g>
<!-- jkr.velvoite&#45;&gt;jkr.velvoitemalli -->
<g id="edge1" class="edge">
<title>jkr.velvoite:velvoitemalli_id&#45;&gt;jkr.velvoitemalli:id</title>
<path fill="none" stroke="#000000" d="M743.9227,-682.2601C753.3017,-634.5961 831.5836,-665.6575 859,-614 879.1063,-576.1161 901.8889,-517.5 859,-517.5"/>
<polygon fill="#000000" stroke="#000000" points="743.8976,-682.5404 738.5182,-692.0961 743.4488,-687.5202 743,-692.5 743,-692.5 743,-692.5 743.4488,-687.5202 747.4818,-692.9039 743.8976,-682.5404 743.8976,-682.5404"/>
<text text-anchor="start" x="145.183" y="-702.5" font-family="Arial" font-size="10.00" fill="#000000">FOREIGN KEY (velvoitemalli_id) REFERENCES jkr.velvoitemalli(id) MATCH FULL ON UPDATE CASCADE ON DELETE RESTRICT</text>
</g>
</g>
</svg>
