<?xml version="1.0" encoding="UTF-8" standalone="no"?>
<!DOCTYPE svg PUBLIC "-//W3C//DTD SVG 1.1//EN"
 "http://www.w3.org/Graphics/SVG/1.1/DTD/svg11.dtd">
<!-- Generated by graphviz version 2.40.1 (20161225.0304)
 -->
<!-- Title: jkr.osapuoli Pages: 1 -->
<svg width="1631pt" height="899pt"
 viewBox="0.00 0.00 1631.00 899.00" xmlns="http://www.w3.org/2000/svg" xmlns:xlink="http://www.w3.org/1999/xlink">
<g id="graph0" class="graph" transform="scale(1 1) rotate(0) translate(4 895)">
<title>jkr.osapuoli</title>
<polygon fill="#ffffff" stroke="transparent" points="-4,4 -4,-895 1627,-895 1627,4 -4,4"/>
<!-- jkr.osapuoli -->
<g id="node1" class="node">
<title>jkr.osapuoli</title>
<polygon fill="#efefef" stroke="transparent" points="732,-562.5 732,-597.5 934,-597.5 934,-562.5 732,-562.5"/>
<polygon fill="none" stroke="#000000" points="732,-562.5 732,-597.5 934,-597.5 934,-562.5 732,-562.5"/>
<text text-anchor="start" x="738.8691" y="-575.3" font-family="Arial Bold" font-size="18.00" fill="#000000">jkr.osapuoli</text>
<text text-anchor="start" x="829.8771" y="-575.3" font-family="Arial" font-size="14.00" fill="#000000"> </text>
<text text-anchor="start" x="833.7677" y="-575.3" font-family="Arial" font-size="14.00" fill="#666666">[BASE TABLE]</text>
<polygon fill="none" stroke="#000000" points="732,-532.5 732,-562.5 934,-562.5 934,-532.5 732,-532.5"/>
<text text-anchor="start" x="739" y="-543.9" font-family="Arial" font-size="14.00" fill="#000000">id </text>
<text text-anchor="start" x="753.7798" y="-543.9" font-family="Arial" font-size="14.00" fill="#666666">[integer]</text>
<polygon fill="none" stroke="#000000" points="732,-502.5 732,-532.5 934,-532.5 934,-502.5 732,-502.5"/>
<text text-anchor="start" x="739" y="-513.9" font-family="Arial" font-size="14.00" fill="#000000">katuosoite </text>
<text text-anchor="start" x="806.6914" y="-513.9" font-family="Arial" font-size="14.00" fill="#666666">[text]</text>
<polygon fill="none" stroke="#000000" points="732,-472.5 732,-502.5 934,-502.5 934,-472.5 732,-472.5"/>
<text text-anchor="start" x="739" y="-483.9" font-family="Arial" font-size="14.00" fill="#000000">postitoimipaikka </text>
<text text-anchor="start" x="842.4544" y="-483.9" font-family="Arial" font-size="14.00" fill="#666666">[text]</text>
<polygon fill="none" stroke="#000000" points="732,-442.5 732,-472.5 934,-472.5 934,-442.5 732,-442.5"/>
<text text-anchor="start" x="739" y="-453.9" font-family="Arial" font-size="14.00" fill="#000000">erikoisosoite </text>
<text text-anchor="start" x="820.6746" y="-453.9" font-family="Arial" font-size="14.00" fill="#666666">[text]</text>
<polygon fill="none" stroke="#000000" points="732,-412.5 732,-442.5 934,-442.5 934,-412.5 732,-412.5"/>
<text text-anchor="start" x="739" y="-423.9" font-family="Arial" font-size="14.00" fill="#000000">ytunnus </text>
<text text-anchor="start" x="791.9116" y="-423.9" font-family="Arial" font-size="14.00" fill="#666666">[text]</text>
<polygon fill="none" stroke="#000000" points="732,-382.5 732,-412.5 934,-412.5 934,-382.5 732,-382.5"/>
<text text-anchor="start" x="739" y="-393.9" font-family="Arial" font-size="14.00" fill="#000000">ulkoinen_id </text>
<text text-anchor="start" x="813.6886" y="-393.9" font-family="Arial" font-size="14.00" fill="#666666">[bigint]</text>
<polygon fill="none" stroke="#000000" points="732,-352.5 732,-382.5 934,-382.5 934,-352.5 732,-352.5"/>
<text text-anchor="start" x="739" y="-363.9" font-family="Arial" font-size="14.00" fill="#000000">postinumero </text>
<text text-anchor="start" x="819.9046" y="-363.9" font-family="Arial" font-size="14.00" fill="#666666">[text]</text>
<polygon fill="none" stroke="#000000" points="732,-322.5 732,-352.5 934,-352.5 934,-322.5 732,-322.5"/>
<text text-anchor="start" x="739" y="-333.9" font-family="Arial" font-size="14.00" fill="#000000">osapuolenlaji_koodi </text>
<text text-anchor="start" x="865.8148" y="-333.9" font-family="Arial" font-size="14.00" fill="#666666">[text]</text>
<polygon fill="none" stroke="#000000" points="732,-292.5 732,-322.5 934,-322.5 934,-292.5 732,-292.5"/>
<text text-anchor="start" x="739" y="-303.9" font-family="Arial" font-size="14.00" fill="#000000">nimi </text>
<text text-anchor="start" x="768.547" y="-303.9" font-family="Arial" font-size="14.00" fill="#666666">[text]</text>
<polygon fill="none" stroke="#000000" points="732,-262.5 732,-292.5 934,-292.5 934,-262.5 732,-262.5"/>
<text text-anchor="start" x="739" y="-273.9" font-family="Arial" font-size="14.00" fill="#000000">kunta </text>
<text text-anchor="start" x="777.129" y="-273.9" font-family="Arial" font-size="14.00" fill="#666666">[text]</text>
<polygon fill="none" stroke="#000000" stroke-width="3" points="730.5,-261.5 730.5,-599.5 935.5,-599.5 935.5,-261.5 730.5,-261.5"/>
</g>
<!-- jkr_koodistot.osapuolenlaji -->
<g id="node5" class="node">
<title>jkr_koodistot.osapuolenlaji</title>
<polygon fill="#efefef" stroke="transparent" points="672,-102.5 672,-137.5 994,-137.5 994,-102.5 672,-102.5"/>
<polygon fill="none" stroke="#000000" points="672,-102.5 672,-137.5 994,-137.5 994,-102.5 672,-102.5"/>
<text text-anchor="start" x="678.8508" y="-115.3" font-family="Arial Bold" font-size="18.00" fill="#000000">jkr_koodistot.osapuolenlaji</text>
<text text-anchor="start" x="889.8954" y="-115.3" font-family="Arial" font-size="14.00" fill="#000000"> </text>
<text text-anchor="start" x="893.786" y="-115.3" font-family="Arial" font-size="14.00" fill="#666666">[BASE TABLE]</text>
<polygon fill="none" stroke="#000000" points="672,-72.5 672,-102.5 994,-102.5 994,-72.5 672,-72.5"/>
<text text-anchor="start" x="679" y="-83.9" font-family="Arial" font-size="14.00" fill="#000000">koodi </text>
<text text-anchor="start" x="716.345" y="-83.9" font-family="Arial" font-size="14.00" fill="#666666">[text]</text>
<polygon fill="none" stroke="#000000" points="672,-42.5 672,-72.5 994,-72.5 994,-42.5 672,-42.5"/>
<text text-anchor="start" x="679" y="-53.9" font-family="Arial" font-size="14.00" fill="#000000">selite </text>
<text text-anchor="start" x="715.5596" y="-53.9" font-family="Arial" font-size="14.00" fill="#666666">[text]</text>
</g>
<!-- jkr.osapuoli&#45;&gt;jkr_koodistot.osapuolenlaji -->
<g id="edge4" class="edge">
<title>jkr.osapuoli:osapuolenlaji_koodi&#45;&gt;jkr_koodistot.osapuolenlaji:koodi</title>
<path fill="none" stroke="#000000" d="M944.2252,-336.8265C1051.7394,-322.5924 1104.8071,-87.5 994,-87.5"/>
<polygon fill="#000000" stroke="#000000" points="943.9784,-336.8427 933.7042,-333.0097 938.9892,-337.1713 934,-337.5 934,-337.5 934,-337.5 938.9892,-337.1713 934.2958,-341.9903 943.9784,-336.8427 943.9784,-336.8427"/>
<text text-anchor="start" x="941.1995" y="-347.5" font-family="Arial" font-size="10.00" fill="#000000">FOREIGN KEY (osapuolenlaji_koodi) REFERENCES jkr_koodistot.osapuolenlaji(koodi) MATCH FULL ON UPDATE CASCADE ON DELETE CASCADE</text>
</g>
<!-- jkr.kohteen_osapuolet -->
<g id="node2" class="node">
<title>jkr.kohteen_osapuolet</title>
<polygon fill="#efefef" stroke="transparent" points="282,-812.5 282,-847.5 569,-847.5 569,-812.5 282,-812.5"/>
<polygon fill="none" stroke="#000000" points="282,-812.5 282,-847.5 569,-847.5 569,-812.5 282,-812.5"/>
<text text-anchor="start" x="288.8423" y="-825.3" font-family="Arial Bold" font-size="18.00" fill="#000000">jkr.kohteen_osapuolet</text>
<text text-anchor="start" x="464.9039" y="-825.3" font-family="Arial" font-size="14.00" fill="#000000"> </text>
<text text-anchor="start" x="468.7945" y="-825.3" font-family="Arial" font-size="14.00" fill="#666666">[BASE TABLE]</text>
<polygon fill="none" stroke="#000000" points="282,-782.5 282,-812.5 569,-812.5 569,-782.5 282,-782.5"/>
<text text-anchor="start" x="289" y="-793.9" font-family="Arial" font-size="14.00" fill="#000000">kohde_id </text>
<text text-anchor="start" x="349.6928" y="-793.9" font-family="Arial" font-size="14.00" fill="#666666">[integer]</text>
<polygon fill="none" stroke="#000000" points="282,-752.5 282,-782.5 569,-782.5 569,-752.5 282,-752.5"/>
<text text-anchor="start" x="289" y="-763.9" font-family="Arial" font-size="14.00" fill="#000000">osapuoli_id </text>
<text text-anchor="start" x="363.6886" y="-763.9" font-family="Arial" font-size="14.00" fill="#666666">[integer]</text>
<polygon fill="none" stroke="#000000" points="282,-722.5 282,-752.5 569,-752.5 569,-722.5 282,-722.5"/>
<text text-anchor="start" x="289" y="-733.9" font-family="Arial" font-size="14.00" fill="#000000">osapuolenrooli_id </text>
<text text-anchor="start" x="402.5862" y="-733.9" font-family="Arial" font-size="14.00" fill="#666666">[smallint]</text>
</g>
<!-- jkr.kohteen_osapuolet&#45;&gt;jkr.osapuoli -->
<g id="edge1" class="edge">
<title>jkr.kohteen_osapuolet:osapuoli_id&#45;&gt;jkr.osapuoli:id</title>
<path fill="none" stroke="#000000" d="M579.3007,-766.4198C611.2395,-758.9048 597.0829,-713.7316 621,-680 665.4343,-617.332 655.1776,-547.5 732,-547.5"/>
<polygon fill="#000000" stroke="#000000" points="578.9455,-766.4569 568.5306,-763.0245 573.9727,-766.9785 569,-767.5 569,-767.5 569,-767.5 573.9727,-766.9785 569.4694,-771.9755 578.9455,-766.4569 578.9455,-766.4569"/>
<text text-anchor="start" x="7.2185" y="-777.5" font-family="Arial" font-size="10.00" fill="#000000">FOREIGN KEY (osapuoli_id) REFERENCES jkr.osapuoli(id) MATCH FULL ON UPDATE CASCADE ON DELETE CASCADE</text>
</g>
<!-- jkr.rakennuksen_omistajat -->
<g id="node3" class="node">
<title>jkr.rakennuksen_omistajat</title>
<polygon fill="#efefef" stroke="transparent" points="673,-797.5 673,-832.5 993,-832.5 993,-797.5 673,-797.5"/>
<polygon fill="none" stroke="#000000" points="673,-797.5 673,-832.5 993,-832.5 993,-797.5 673,-797.5"/>
<text text-anchor="start" x="679.8561" y="-810.3" font-family="Arial Bold" font-size="18.00" fill="#000000">jkr.rakennuksen_omistajat</text>
<text text-anchor="start" x="888.8901" y="-810.3" font-family="Arial" font-size="14.00" fill="#000000"> </text>
<text text-anchor="start" x="892.7807" y="-810.3" font-family="Arial" font-size="14.00" fill="#666666">[BASE TABLE]</text>
<polygon fill="none" stroke="#000000" points="673,-767.5 673,-797.5 993,-797.5 993,-767.5 673,-767.5"/>
<text text-anchor="start" x="680" y="-778.9" font-family="Arial" font-size="14.00" fill="#000000">rakennus_id </text>
<text text-anchor="start" x="760.136" y="-778.9" font-family="Arial" font-size="14.00" fill="#666666">[integer]</text>
<polygon fill="none" stroke="#000000" points="673,-737.5 673,-767.5 993,-767.5 993,-737.5 673,-737.5"/>
<text text-anchor="start" x="680" y="-748.9" font-family="Arial" font-size="14.00" fill="#000000">osapuoli_id </text>
<text text-anchor="start" x="754.6886" y="-748.9" font-family="Arial" font-size="14.00" fill="#666666">[integer]</text>
</g>
<!-- jkr.rakennuksen_omistajat&#45;&gt;jkr.osapuoli -->
<g id="edge2" class="edge">
<title>jkr.rakennuksen_omistajat:osapuoli_id&#45;&gt;jkr.osapuoli:id</title>
<path fill="none" stroke="#000000" d="M833.8129,-727.286C842.0738,-678.9095 910.9893,-696.6591 934,-644 951.1734,-604.6995 976.8889,-547.5 934,-547.5"/>
<polygon fill="#000000" stroke="#000000" points="833.7934,-727.5315 828.5142,-737.143 833.3967,-732.5158 833,-737.5 833,-737.5 833,-737.5 833.3967,-732.5158 837.4858,-737.857 833.7934,-727.5315 833.7934,-727.5315"/>
<text text-anchor="start" x="697.9685" y="-721.5" font-family="Arial" font-size="10.00" fill="#000000">FOREIGN KEY (osapuoli_id) REFERENCES jkr.osapuoli(id) MATCH FULL ON UPDATE CASCADE ON DELETE CASCADE</text>
</g>
<!-- jkr.kiinteiston_omistajat -->
<g id="node4" class="node">
<title>jkr.kiinteiston_omistajat</title>
<polygon fill="#efefef" stroke="transparent" points="1098,-797.5 1098,-832.5 1395,-832.5 1395,-797.5 1098,-797.5"/>
<polygon fill="none" stroke="#000000" points="1098,-797.5 1098,-832.5 1395,-832.5 1395,-797.5 1098,-797.5"/>
<text text-anchor="start" x="1104.868" y="-810.3" font-family="Arial Bold" font-size="18.00" fill="#000000">jkr.kiinteiston_omistajat</text>
<text text-anchor="start" x="1290.8782" y="-810.3" font-family="Arial" font-size="14.00" fill="#000000"> </text>
<text text-anchor="start" x="1294.7688" y="-810.3" font-family="Arial" font-size="14.00" fill="#666666">[BASE TABLE]</text>
<polygon fill="none" stroke="#000000" points="1098,-767.5 1098,-797.5 1395,-797.5 1395,-767.5 1098,-767.5"/>
<text text-anchor="start" x="1105" y="-778.9" font-family="Arial" font-size="14.00" fill="#000000">kiinteisto_id </text>
<text text-anchor="start" x="1182.0112" y="-778.9" font-family="Arial" font-size="14.00" fill="#666666">[integer]</text>
<polygon fill="none" stroke="#000000" points="1098,-737.5 1098,-767.5 1395,-767.5 1395,-737.5 1098,-737.5"/>
<text text-anchor="start" x="1105" y="-748.9" font-family="Arial" font-size="14.00" fill="#000000">osapuoli_id </text>
<text text-anchor="start" x="1179.6886" y="-748.9" font-family="Arial" font-size="14.00" fill="#666666">[integer]</text>
</g>
<!-- jkr.kiinteiston_omistajat&#45;&gt;jkr.osapuoli -->
<g id="edge3" class="edge">
<title>jkr.kiinteiston_omistajat:osapuoli_id&#45;&gt;jkr.osapuoli:id</title>
<path fill="none" stroke="#000000" d="M1087.6964,-751.3721C1059.9916,-744.5698 1067.2041,-708.3575 1045,-680 997.6389,-619.5136 1010.8224,-547.5 934,-547.5"/>
<polygon fill="#000000" stroke="#000000" points="1088.0594,-751.4118 1097.5103,-756.9733 1093.0297,-751.9559 1098,-752.5 1098,-752.5 1098,-752.5 1093.0297,-751.9559 1098.4897,-748.0267 1088.0594,-751.4118 1088.0594,-751.4118"/>
<text text-anchor="start" x="1104.993" y="-762.5" font-family="Arial" font-size="10.00" fill="#000000">FOREIGN KEY (osapuoli_id) REFERENCES jkr.osapuoli(id) ON UPDATE CASCADE ON DELETE CASCADE</text>
</g>
</g>
</svg>
