<?xml version="1.0" encoding="UTF-8" standalone="no"?>
<!DOCTYPE svg PUBLIC "-//W3C//DTD SVG 1.1//EN"
 "http://www.w3.org/Graphics/SVG/1.1/DTD/svg11.dtd">
<!-- Generated by graphviz version 2.40.1 (20161225.0304)
 -->
<!-- Title: jkr.velvoite Pages: 1 -->
<svg width="1360pt" height="929pt"
 viewBox="0.00 0.00 1360.00 929.00" xmlns="http://www.w3.org/2000/svg" xmlns:xlink="http://www.w3.org/1999/xlink">
<g id="graph0" class="graph" transform="scale(1 1) rotate(0) translate(4 925)">
<title>jkr.velvoite</title>
<polygon fill="#ffffff" stroke="transparent" points="-4,4 -4,-925 1356,-925 1356,4 -4,4"/>
<!-- jkr.velvoite -->
<g id="node1" class="node">
<title>jkr.velvoite</title>
<polygon fill="#efefef" stroke="transparent" points="551,-532.5 551,-567.5 747,-567.5 747,-532.5 551,-532.5"/>
<polygon fill="none" stroke="#000000" points="551,-532.5 551,-567.5 747,-567.5 747,-532.5 551,-532.5"/>
<text text-anchor="start" x="557.8742" y="-545.3" font-family="Arial Bold" font-size="18.00" fill="#000000">jkr.velvoite</text>
<text text-anchor="start" x="642.872" y="-545.3" font-family="Arial" font-size="14.00" fill="#000000"> </text>
<text text-anchor="start" x="646.7626" y="-545.3" font-family="Arial" font-size="14.00" fill="#666666">[BASE TABLE]</text>
<polygon fill="none" stroke="#000000" points="551,-502.5 551,-532.5 747,-532.5 747,-502.5 551,-502.5"/>
<text text-anchor="start" x="558" y="-513.9" font-family="Arial" font-size="14.00" fill="#000000">id </text>
<text text-anchor="start" x="572.7798" y="-513.9" font-family="Arial" font-size="14.00" fill="#666666">[integer]</text>
<polygon fill="none" stroke="#000000" points="551,-472.5 551,-502.5 747,-502.5 747,-472.5 551,-472.5"/>
<text text-anchor="start" x="558" y="-483.9" font-family="Arial" font-size="14.00" fill="#000000">kohde_id </text>
<text text-anchor="start" x="618.6928" y="-483.9" font-family="Arial" font-size="14.00" fill="#666666">[integer]</text>
<polygon fill="none" stroke="#000000" points="551,-442.5 551,-472.5 747,-472.5 747,-442.5 551,-442.5"/>
<text text-anchor="start" x="558" y="-453.9" font-family="Arial" font-size="14.00" fill="#000000">velvoitemalli_id </text>
<text text-anchor="start" x="656.777" y="-453.9" font-family="Arial" font-size="14.00" fill="#666666">[integer]</text>
<polygon fill="none" stroke="#000000" stroke-width="3" points="549.5,-441.5 549.5,-569.5 748.5,-569.5 748.5,-441.5 549.5,-441.5"/>
</g>
<!-- jkr.kohde -->
<g id="node3" class="node">
<title>jkr.kohde</title>
<polygon fill="#efefef" stroke="transparent" points="379,-267.5 379,-302.5 592,-302.5 592,-267.5 379,-267.5"/>
<polygon fill="none" stroke="#000000" points="379,-267.5 379,-302.5 592,-302.5 592,-267.5 379,-267.5"/>
<text text-anchor="start" x="400.3664" y="-280.3" font-family="Arial Bold" font-size="18.00" fill="#000000">jkr.kohde</text>
<text text-anchor="start" x="473.3798" y="-280.3" font-family="Arial" font-size="14.00" fill="#000000"> </text>
<text text-anchor="start" x="477.2704" y="-280.3" font-family="Arial" font-size="14.00" fill="#666666">[BASE TABLE]</text>
<polygon fill="none" stroke="#000000" points="379,-237.5 379,-267.5 592,-267.5 592,-237.5 379,-237.5"/>
<text text-anchor="start" x="386" y="-248.9" font-family="Arial" font-size="14.00" fill="#000000">id </text>
<text text-anchor="start" x="400.7798" y="-248.9" font-family="Arial" font-size="14.00" fill="#666666">[integer]</text>
<polygon fill="none" stroke="#000000" points="379,-207.5 379,-237.5 592,-237.5 592,-207.5 379,-207.5"/>
<text text-anchor="start" x="386" y="-218.9" font-family="Arial" font-size="14.00" fill="#000000">nimi </text>
<text text-anchor="start" x="415.547" y="-218.9" font-family="Arial" font-size="14.00" fill="#666666">[text]</text>
<polygon fill="none" stroke="#000000" points="379,-177.5 379,-207.5 592,-207.5 592,-177.5 379,-177.5"/>
<text text-anchor="start" x="385.5309" y="-188.9" font-family="Arial" font-size="14.00" fill="#000000">geom </text>
<text text-anchor="start" x="424.4299" y="-188.9" font-family="Arial" font-size="14.00" fill="#666666">[geometry(Polygon,3067)]</text>
<polygon fill="none" stroke="#000000" points="379,-147.5 379,-177.5 592,-177.5 592,-147.5 379,-147.5"/>
<text text-anchor="start" x="386" y="-158.9" font-family="Arial" font-size="14.00" fill="#000000">alkupvm </text>
<text text-anchor="start" x="442.0056" y="-158.9" font-family="Arial" font-size="14.00" fill="#666666">[date]</text>
<polygon fill="none" stroke="#000000" points="379,-117.5 379,-147.5 592,-147.5 592,-117.5 379,-117.5"/>
<text text-anchor="start" x="386" y="-128.9" font-family="Arial" font-size="14.00" fill="#000000">loppupvm </text>
<text text-anchor="start" x="450.5708" y="-128.9" font-family="Arial" font-size="14.00" fill="#666666">[date]</text>
<polygon fill="none" stroke="#000000" points="379,-87.5 379,-117.5 592,-117.5 592,-87.5 379,-87.5"/>
<text text-anchor="start" x="386" y="-98.9" font-family="Arial" font-size="14.00" fill="#000000">voimassaolo </text>
<text text-anchor="start" x="467.6774" y="-98.9" font-family="Arial" font-size="14.00" fill="#666666">[daterange]</text>
<polygon fill="none" stroke="#000000" points="379,-57.5 379,-87.5 592,-87.5 592,-57.5 379,-57.5"/>
<text text-anchor="start" x="386" y="-68.9" font-family="Arial" font-size="14.00" fill="#000000">kohdetyyppi_id </text>
<text text-anchor="start" x="483.2552" y="-68.9" font-family="Arial" font-size="14.00" fill="#666666">[integer]</text>
</g>
<!-- jkr.velvoite&#45;&gt;jkr.kohde -->
<g id="edge2" class="edge">
<title>jkr.velvoite:kohde_id&#45;&gt;jkr.kohde:id</title>
<path fill="none" stroke="#000000" d="M541.0604,-486.0588C515.8957,-477.3736 538.9455,-431.2339 551,-397 560.6595,-369.5679 582.3405,-373.4321 592,-346 605.802,-306.8034 633.5556,-252.5 592,-252.5"/>
<polygon fill="#000000" stroke="#000000" points="541.1035,-486.0649 550.3542,-491.9534 546.0517,-486.7825 551,-487.5 551,-487.5 551,-487.5 546.0517,-486.7825 551.6458,-483.0466 541.1035,-486.0649 541.1035,-486.0649"/>
<text text-anchor="start" x="7.386" y="-497.5" font-family="Arial" font-size="10.00" fill="#000000">FOREIGN KEY (kohde_id) REFERENCES jkr.kohde(id) MATCH FULL ON UPDATE CASCADE ON DELETE RESTRICT</text>
</g>
<!-- jkr.velvoitemalli -->
<g id="node4" class="node">
<title>jkr.velvoitemalli</title>
<polygon fill="#efefef" stroke="transparent" points="696,-282.5 696,-317.5 929,-317.5 929,-282.5 696,-282.5"/>
<polygon fill="none" stroke="#000000" points="696,-282.5 696,-317.5 929,-317.5 929,-282.5 696,-282.5"/>
<text text-anchor="start" x="702.8837" y="-295.3" font-family="Arial Bold" font-size="18.00" fill="#000000">jkr.velvoitemalli</text>
<text text-anchor="start" x="824.8625" y="-295.3" font-family="Arial" font-size="14.00" fill="#000000"> </text>
<text text-anchor="start" x="828.7531" y="-295.3" font-family="Arial" font-size="14.00" fill="#666666">[BASE TABLE]</text>
<polygon fill="none" stroke="#000000" points="696,-252.5 696,-282.5 929,-282.5 929,-252.5 696,-252.5"/>
<text text-anchor="start" x="703" y="-263.9" font-family="Arial" font-size="14.00" fill="#000000">id </text>
<text text-anchor="start" x="717.7798" y="-263.9" font-family="Arial" font-size="14.00" fill="#666666">[integer]</text>
<polygon fill="none" stroke="#000000" points="696,-222.5 696,-252.5 929,-252.5 929,-222.5 696,-222.5"/>
<text text-anchor="start" x="703" y="-233.9" font-family="Arial" font-size="14.00" fill="#000000">selite </text>
<text text-anchor="start" x="739.5596" y="-233.9" font-family="Arial" font-size="14.00" fill="#666666">[text]</text>
<polygon fill="none" stroke="#000000" points="696,-192.5 696,-222.5 929,-222.5 929,-192.5 696,-192.5"/>
<text text-anchor="start" x="703" y="-203.9" font-family="Arial" font-size="14.00" fill="#000000">saanto </text>
<text text-anchor="start" x="748.9116" y="-203.9" font-family="Arial" font-size="14.00" fill="#666666">[text]</text>
<polygon fill="none" stroke="#000000" points="696,-162.5 696,-192.5 929,-192.5 929,-162.5 696,-162.5"/>
<text text-anchor="start" x="703" y="-173.9" font-family="Arial" font-size="14.00" fill="#000000">tayttymissaanto </text>
<text text-anchor="start" x="804.1332" y="-173.9" font-family="Arial" font-size="14.00" fill="#666666">[text]</text>
<polygon fill="none" stroke="#000000" points="696,-132.5 696,-162.5 929,-162.5 929,-132.5 696,-132.5"/>
<text text-anchor="start" x="703" y="-143.9" font-family="Arial" font-size="14.00" fill="#000000">jatetyyppi_id </text>
<text text-anchor="start" x="784.6872" y="-143.9" font-family="Arial" font-size="14.00" fill="#666666">[integer]</text>
<polygon fill="none" stroke="#000000" points="696,-102.5 696,-132.5 929,-132.5 929,-102.5 696,-102.5"/>
<text text-anchor="start" x="703" y="-113.9" font-family="Arial" font-size="14.00" fill="#000000">alkupvm </text>
<text text-anchor="start" x="759.0056" y="-113.9" font-family="Arial" font-size="14.00" fill="#666666">[date]</text>
<polygon fill="none" stroke="#000000" points="696,-72.5 696,-102.5 929,-102.5 929,-72.5 696,-72.5"/>
<text text-anchor="start" x="703" y="-83.9" font-family="Arial" font-size="14.00" fill="#000000">loppupvm </text>
<text text-anchor="start" x="767.5708" y="-83.9" font-family="Arial" font-size="14.00" fill="#666666">[date]</text>
<polygon fill="none" stroke="#000000" points="696,-42.5 696,-72.5 929,-72.5 929,-42.5 696,-42.5"/>
<text text-anchor="start" x="703" y="-53.9" font-family="Arial" font-size="14.00" fill="#000000">voimassaolo </text>
<text text-anchor="start" x="784.6774" y="-53.9" font-family="Arial" font-size="14.00" fill="#666666">[daterange]</text>
</g>
<!-- jkr.velvoite&#45;&gt;jkr.velvoitemalli -->
<g id="edge3" class="edge">
<title>jkr.velvoite:velvoitemalli_id&#45;&gt;jkr.velvoitemalli:id</title>
<path fill="none" stroke="#000000" d="M756.7376,-455.0058C769.4044,-446.3658 757.4377,-417.1439 747,-397 734.2356,-372.3657 708.7644,-385.6343 696,-361 676.8818,-324.1034 654.4444,-267.5 696,-267.5"/>
<polygon fill="#000000" stroke="#000000" points="756.6873,-455.0186 745.8834,-453.1407 751.8436,-456.2593 747,-457.5 747,-457.5 747,-457.5 751.8436,-456.2593 748.1166,-461.8593 756.6873,-455.0186 756.6873,-455.0186"/>
<text text-anchor="start" x="754.183" y="-467.5" font-family="Arial" font-size="10.00" fill="#000000">FOREIGN KEY (velvoitemalli_id) REFERENCES jkr.velvoitemalli(id) MATCH FULL ON UPDATE CASCADE ON DELETE RESTRICT</text>
</g>
<!-- jkr.velvoite_status -->
<g id="node2" class="node">
<title>jkr.velvoite_status</title>
<polygon fill="#efefef" stroke="transparent" points="522,-842.5 522,-877.5 776,-877.5 776,-842.5 522,-842.5"/>
<polygon fill="none" stroke="#000000" points="522,-842.5 522,-877.5 776,-877.5 776,-842.5 522,-842.5"/>
<text text-anchor="start" x="528.8627" y="-855.3" font-family="Arial Bold" font-size="18.00" fill="#000000">jkr.velvoite_status</text>
<text text-anchor="start" x="671.8835" y="-855.3" font-family="Arial" font-size="14.00" fill="#000000"> </text>
<text text-anchor="start" x="675.7741" y="-855.3" font-family="Arial" font-size="14.00" fill="#666666">[BASE TABLE]</text>
<polygon fill="none" stroke="#000000" points="522,-812.5 522,-842.5 776,-842.5 776,-812.5 522,-812.5"/>
<text text-anchor="start" x="529" y="-823.9" font-family="Arial" font-size="14.00" fill="#000000">id </text>
<text text-anchor="start" x="543.7798" y="-823.9" font-family="Arial" font-size="14.00" fill="#666666">[integer]</text>
<polygon fill="none" stroke="#000000" points="522,-782.5 522,-812.5 776,-812.5 776,-782.5 522,-782.5"/>
<text text-anchor="start" x="529" y="-793.9" font-family="Arial" font-size="14.00" fill="#000000">pvm </text>
<text text-anchor="start" x="559.3338" y="-793.9" font-family="Arial" font-size="14.00" fill="#666666">[date]</text>
<polygon fill="none" stroke="#000000" points="522,-752.5 522,-782.5 776,-782.5 776,-752.5 522,-752.5"/>
<text text-anchor="start" x="529" y="-763.9" font-family="Arial" font-size="14.00" fill="#000000">ok </text>
<text text-anchor="start" x="547.6732" y="-763.9" font-family="Arial" font-size="14.00" fill="#666666">[boolean]</text>
<polygon fill="none" stroke="#000000" points="522,-722.5 522,-752.5 776,-752.5 776,-722.5 522,-722.5"/>
<text text-anchor="start" x="529" y="-733.9" font-family="Arial" font-size="14.00" fill="#000000">velvoite_id </text>
<text text-anchor="start" x="599.014" y="-733.9" font-family="Arial" font-size="14.00" fill="#666666">[integer]</text>
<polygon fill="none" stroke="#000000" points="522,-692.5 522,-722.5 776,-722.5 776,-692.5 522,-692.5"/>
<text text-anchor="start" x="529" y="-703.9" font-family="Arial" font-size="14.00" fill="#000000">tallennuspvm </text>
<text text-anchor="start" x="615.3506" y="-703.9" font-family="Arial" font-size="14.00" fill="#666666">[date]</text>
</g>
<!-- jkr.velvoite_status&#45;&gt;jkr.velvoite -->
<g id="edge1" class="edge">
<title>jkr.velvoite_status:velvoite_id&#45;&gt;jkr.velvoite:id</title>
<path fill="none" stroke="#000000" d="M786.1935,-736.6591C872.437,-721.8888 842.0601,-517.5 747,-517.5"/>
<polygon fill="#000000" stroke="#000000" points="785.9661,-736.6777 775.63,-733.0152 780.9831,-737.0889 776,-737.5 776,-737.5 776,-737.5 780.9831,-737.0889 776.37,-741.9848 785.9661,-736.6777 785.9661,-736.6777"/>
<text text-anchor="start" x="782.5575" y="-747.5" font-family="Arial" font-size="10.00" fill="#000000">FOREIGN KEY (velvoite_id) REFERENCES jkr.velvoite(id) MATCH FULL ON UPDATE CASCADE ON DELETE CASCADE</text>
</g>
</g>
</svg>
