<?xml version="1.0" encoding="UTF-8" standalone="no"?>
<!DOCTYPE svg PUBLIC "-//W3C//DTD SVG 1.1//EN"
 "http://www.w3.org/Graphics/SVG/1.1/DTD/svg11.dtd">
<!-- Generated by graphviz version 2.40.1 (20161225.0304)
 -->
<!-- Title: jkr.toimialue Pages: 1 -->
<svg width="343pt" height="225pt"
 viewBox="0.00 0.00 343.00 225.00" xmlns="http://www.w3.org/2000/svg" xmlns:xlink="http://www.w3.org/1999/xlink">
<g id="graph0" class="graph" transform="scale(1 1) rotate(0) translate(4 221)">
<title>jkr.toimialue</title>
<polygon fill="#ffffff" stroke="transparent" points="-4,4 -4,-221 339,-221 339,4 -4,4"/>
<!-- jkr.toimialue -->
<g id="node1" class="node">
<title>jkr.toimialue</title>
<polygon fill="#efefef" stroke="transparent" points="46.5,-135.5 46.5,-170.5 289.5,-170.5 289.5,-135.5 46.5,-135.5"/>
<polygon fill="none" stroke="#000000" points="46.5,-135.5 46.5,-170.5 289.5,-170.5 289.5,-135.5 46.5,-135.5"/>
<text text-anchor="start" x="71.3779" y="-148.3" font-family="Arial Bold" font-size="18.00" fill="#000000">jkr.toimialue</text>
<text text-anchor="start" x="167.3683" y="-148.3" font-family="Arial" font-size="14.00" fill="#000000"> </text>
<text text-anchor="start" x="171.2589" y="-148.3" font-family="Arial" font-size="14.00" fill="#666666">[BASE TABLE]</text>
<polygon fill="none" stroke="#000000" points="46.5,-105.5 46.5,-135.5 289.5,-135.5 289.5,-105.5 46.5,-105.5"/>
<text text-anchor="start" x="53.5" y="-116.9" font-family="Arial" font-size="14.00" fill="#000000">id </text>
<text text-anchor="start" x="68.2798" y="-116.9" font-family="Arial" font-size="14.00" fill="#666666">[integer]</text>
<polygon fill="none" stroke="#000000" points="46.5,-75.5 46.5,-105.5 289.5,-105.5 289.5,-75.5 46.5,-75.5"/>
<text text-anchor="start" x="53.5" y="-86.9" font-family="Arial" font-size="14.00" fill="#000000">nimi </text>
<text text-anchor="start" x="83.047" y="-86.9" font-family="Arial" font-size="14.00" fill="#666666">[text]</text>
<polygon fill="none" stroke="#000000" points="46.5,-45.5 46.5,-75.5 289.5,-75.5 289.5,-45.5 46.5,-45.5"/>
<text text-anchor="start" x="53.2574" y="-56.9" font-family="Arial" font-size="14.00" fill="#000000">geom </text>
<text text-anchor="start" x="92.1564" y="-56.9" font-family="Arial" font-size="14.00" fill="#666666">[geometry(MultiPolygon,3067)]</text>
<polygon fill="none" stroke="#000000" stroke-width="3" points="44.5,-44.5 44.5,-172.5 290.5,-172.5 290.5,-44.5 44.5,-44.5"/>
</g>
</g>
</svg>
