<?xml version="1.0" encoding="UTF-8" standalone="no"?>
<!DOCTYPE svg PUBLIC "-//W3C//DTD SVG 1.1//EN"
 "http://www.w3.org/Graphics/SVG/1.1/DTD/svg11.dtd">
<!-- Generated by graphviz version 2.40.1 (20161225.0304)
 -->
<!-- Title: jkr.velvoite_status Pages: 1 -->
<svg width="870pt" height="532pt"
 viewBox="0.00 0.00 870.00 532.00" xmlns="http://www.w3.org/2000/svg" xmlns:xlink="http://www.w3.org/1999/xlink">
<g id="graph0" class="graph" transform="scale(1 1) rotate(0) translate(4 528)">
<title>jkr.velvoite_status</title>
<polygon fill="#ffffff" stroke="transparent" points="-4,4 -4,-528 866,-528 866,4 -4,4"/>
<!-- jkr.velvoite_status -->
<g id="node1" class="node">
<title>jkr.velvoite_status</title>
<polygon fill="#efefef" stroke="transparent" points="46,-442.5 46,-477.5 300,-477.5 300,-442.5 46,-442.5"/>
<polygon fill="none" stroke="#000000" points="46,-442.5 46,-477.5 300,-477.5 300,-442.5 46,-442.5"/>
<text text-anchor="start" x="52.8627" y="-455.3" font-family="Arial Bold" font-size="18.00" fill="#000000">jkr.velvoite_status</text>
<text text-anchor="start" x="195.8835" y="-455.3" font-family="Arial" font-size="14.00" fill="#000000"> </text>
<text text-anchor="start" x="199.7741" y="-455.3" font-family="Arial" font-size="14.00" fill="#666666">[BASE TABLE]</text>
<polygon fill="none" stroke="#000000" points="46,-412.5 46,-442.5 300,-442.5 300,-412.5 46,-412.5"/>
<text text-anchor="start" x="53" y="-423.9" font-family="Arial" font-size="14.00" fill="#000000">id </text>
<text text-anchor="start" x="67.7798" y="-423.9" font-family="Arial" font-size="14.00" fill="#666666">[integer]</text>
<polygon fill="none" stroke="#000000" points="46,-382.5 46,-412.5 300,-412.5 300,-382.5 46,-382.5"/>
<text text-anchor="start" x="53" y="-393.9" font-family="Arial" font-size="14.00" fill="#000000">pvm </text>
<text text-anchor="start" x="83.3338" y="-393.9" font-family="Arial" font-size="14.00" fill="#666666">[date]</text>
<polygon fill="none" stroke="#000000" points="46,-352.5 46,-382.5 300,-382.5 300,-352.5 46,-352.5"/>
<text text-anchor="start" x="53" y="-363.9" font-family="Arial" font-size="14.00" fill="#000000">ok </text>
<text text-anchor="start" x="71.6732" y="-363.9" font-family="Arial" font-size="14.00" fill="#666666">[boolean]</text>
<polygon fill="none" stroke="#000000" points="46,-322.5 46,-352.5 300,-352.5 300,-322.5 46,-322.5"/>
<text text-anchor="start" x="53" y="-333.9" font-family="Arial" font-size="14.00" fill="#000000">velvoite_id </text>
<text text-anchor="start" x="123.014" y="-333.9" font-family="Arial" font-size="14.00" fill="#666666">[integer]</text>
<polygon fill="none" stroke="#000000" points="46,-292.5 46,-322.5 300,-322.5 300,-292.5 46,-292.5"/>
<text text-anchor="start" x="53" y="-303.9" font-family="Arial" font-size="14.00" fill="#000000">tallennuspvm </text>
<text text-anchor="start" x="139.3506" y="-303.9" font-family="Arial" font-size="14.00" fill="#666666">[date]</text>
<polygon fill="none" stroke="#000000" stroke-width="3" points="44.5,-291.5 44.5,-479.5 301.5,-479.5 301.5,-291.5 44.5,-291.5"/>
</g>
<!-- jkr.velvoite -->
<g id="node2" class="node">
<title>jkr.velvoite</title>
<polygon fill="#efefef" stroke="transparent" points="75,-132.5 75,-167.5 271,-167.5 271,-132.5 75,-132.5"/>
<polygon fill="none" stroke="#000000" points="75,-132.5 75,-167.5 271,-167.5 271,-132.5 75,-132.5"/>
<text text-anchor="start" x="81.8742" y="-145.3" font-family="Arial Bold" font-size="18.00" fill="#000000">jkr.velvoite</text>
<text text-anchor="start" x="166.872" y="-145.3" font-family="Arial" font-size="14.00" fill="#000000"> </text>
<text text-anchor="start" x="170.7626" y="-145.3" font-family="Arial" font-size="14.00" fill="#666666">[BASE TABLE]</text>
<polygon fill="none" stroke="#000000" points="75,-102.5 75,-132.5 271,-132.5 271,-102.5 75,-102.5"/>
<text text-anchor="start" x="82" y="-113.9" font-family="Arial" font-size="14.00" fill="#000000">id </text>
<text text-anchor="start" x="96.7798" y="-113.9" font-family="Arial" font-size="14.00" fill="#666666">[integer]</text>
<polygon fill="none" stroke="#000000" points="75,-72.5 75,-102.5 271,-102.5 271,-72.5 75,-72.5"/>
<text text-anchor="start" x="82" y="-83.9" font-family="Arial" font-size="14.00" fill="#000000">kohde_id </text>
<text text-anchor="start" x="142.6928" y="-83.9" font-family="Arial" font-size="14.00" fill="#666666">[integer]</text>
<polygon fill="none" stroke="#000000" points="75,-42.5 75,-72.5 271,-72.5 271,-42.5 75,-42.5"/>
<text text-anchor="start" x="82" y="-53.9" font-family="Arial" font-size="14.00" fill="#000000">velvoitemalli_id </text>
<text text-anchor="start" x="180.777" y="-53.9" font-family="Arial" font-size="14.00" fill="#666666">[integer]</text>
</g>
<!-- jkr.velvoite_status&#45;&gt;jkr.velvoite -->
<g id="edge1" class="edge">
<title>jkr.velvoite_status:velvoite_id&#45;&gt;jkr.velvoite:id</title>
<path fill="none" stroke="#000000" d="M310.1935,-336.6591C396.437,-321.8888 366.0601,-117.5 271,-117.5"/>
<polygon fill="#000000" stroke="#000000" points="309.9661,-336.6777 299.63,-333.0152 304.9831,-337.0889 300,-337.5 300,-337.5 300,-337.5 304.9831,-337.0889 300.37,-341.9848 309.9661,-336.6777 309.9661,-336.6777"/>
<text text-anchor="start" x="306.5575" y="-347.5" font-family="Arial" font-size="10.00" fill="#000000">FOREIGN KEY (velvoite_id) REFERENCES jkr.velvoite(id) MATCH FULL ON UPDATE CASCADE ON DELETE CASCADE</text>
</g>
</g>
</svg>
