<?xml version="1.0" encoding="UTF-8" standalone="no"?>
<!DOCTYPE svg PUBLIC "-//W3C//DTD SVG 1.1//EN"
 "http://www.w3.org/Graphics/SVG/1.1/DTD/svg11.dtd">
<!-- Generated by graphviz version 2.40.1 (20161225.0304)
 -->
<!-- Title: jkr.v_velvoite_status_current_date Pages: 1 -->
<svg width="434pt" height="225pt"
 viewBox="0.00 0.00 434.00 225.00" xmlns="http://www.w3.org/2000/svg" xmlns:xlink="http://www.w3.org/1999/xlink">
<g id="graph0" class="graph" transform="scale(1 1) rotate(0) translate(4 221)">
<title>jkr.v_velvoite_status_current_date</title>
<polygon fill="#ffffff" stroke="transparent" points="-4,4 -4,-221 430,-221 430,4 -4,4"/>
<!-- jkr.v_velvoite_status_current_date -->
<g id="node1" class="node">
<title>jkr.v_velvoite_status_current_date</title>
<polygon fill="#efefef" stroke="transparent" points="46,-135.5 46,-170.5 380,-170.5 380,-135.5 46,-135.5"/>
<polygon fill="none" stroke="#000000" points="46,-135.5 46,-170.5 380,-170.5 380,-135.5 46,-135.5"/>
<text text-anchor="start" x="52.7422" y="-148.3" font-family="Arial Bold" font-size="18.00" fill="#000000">jkr.v_velvoite_status_current_date</text>
<text text-anchor="start" x="325.8076" y="-148.3" font-family="Arial" font-size="14.00" fill="#000000"> </text>
<text text-anchor="start" x="329.6982" y="-148.3" font-family="Arial" font-size="14.00" fill="#666666">[VIEW]</text>
<polygon fill="none" stroke="#000000" points="46,-105.5 46,-135.5 380,-135.5 380,-105.5 46,-105.5"/>
<text text-anchor="start" x="53" y="-116.9" font-family="Arial" font-size="14.00" fill="#000000">velvoite_id </text>
<text text-anchor="start" x="123.014" y="-116.9" font-family="Arial" font-size="14.00" fill="#666666">[integer]</text>
<polygon fill="none" stroke="#000000" points="46,-75.5 46,-105.5 380,-105.5 380,-75.5 46,-75.5"/>
<text text-anchor="start" x="53" y="-86.9" font-family="Arial" font-size="14.00" fill="#000000">pvm </text>
<text text-anchor="start" x="83.3338" y="-86.9" font-family="Arial" font-size="14.00" fill="#666666">[date]</text>
<polygon fill="none" stroke="#000000" points="46,-45.5 46,-75.5 380,-75.5 380,-45.5 46,-45.5"/>
<text text-anchor="start" x="53" y="-56.9" font-family="Arial" font-size="14.00" fill="#000000">ok </text>
<text text-anchor="start" x="71.6732" y="-56.9" font-family="Arial" font-size="14.00" fill="#666666">[boolean]</text>
<polygon fill="none" stroke="#000000" stroke-width="3" points="44.5,-44.5 44.5,-172.5 381.5,-172.5 381.5,-44.5 44.5,-44.5"/>
</g>
</g>
</svg>
