<?xml version="1.0" encoding="UTF-8" standalone="no"?>
<!DOCTYPE svg PUBLIC "-//W3C//DTD SVG 1.1//EN"
 "http://www.w3.org/Graphics/SVG/1.1/DTD/svg11.dtd">
<!-- Generated by graphviz version 2.40.1 (20161225.0304)
 -->
<!-- Title: jkr.kiinteiston_omistajat Pages: 1 -->
<svg width="1316pt" height="652pt"
 viewBox="0.00 0.00 1316.00 652.00" xmlns="http://www.w3.org/2000/svg" xmlns:xlink="http://www.w3.org/1999/xlink">
<g id="graph0" class="graph" transform="scale(1 1) rotate(0) translate(4 648)">
<title>jkr.kiinteiston_omistajat</title>
<polygon fill="#ffffff" stroke="transparent" points="-4,4 -4,-648 1312,-648 1312,4 -4,4"/>
<!-- jkr.kiinteiston_omistajat -->
<g id="node1" class="node">
<title>jkr.kiinteiston_omistajat</title>
<polygon fill="#efefef" stroke="transparent" points="507,-562.5 507,-597.5 804,-597.5 804,-562.5 507,-562.5"/>
<polygon fill="none" stroke="#000000" points="507,-562.5 507,-597.5 804,-597.5 804,-562.5 507,-562.5"/>
<text text-anchor="start" x="513.868" y="-575.3" font-family="Arial Bold" font-size="18.00" fill="#000000">jkr.kiinteiston_omistajat</text>
<text text-anchor="start" x="699.8782" y="-575.3" font-family="Arial" font-size="14.00" fill="#000000"> </text>
<text text-anchor="start" x="703.7688" y="-575.3" font-family="Arial" font-size="14.00" fill="#666666">[BASE TABLE]</text>
<polygon fill="none" stroke="#000000" points="507,-532.5 507,-562.5 804,-562.5 804,-532.5 507,-532.5"/>
<text text-anchor="start" x="514" y="-543.9" font-family="Arial" font-size="14.00" fill="#000000">kiinteisto_id </text>
<text text-anchor="start" x="591.0112" y="-543.9" font-family="Arial" font-size="14.00" fill="#666666">[integer]</text>
<polygon fill="none" stroke="#000000" points="507,-502.5 507,-532.5 804,-532.5 804,-502.5 507,-502.5"/>
<text text-anchor="start" x="514" y="-513.9" font-family="Arial" font-size="14.00" fill="#000000">osapuoli_id </text>
<text text-anchor="start" x="588.6886" y="-513.9" font-family="Arial" font-size="14.00" fill="#666666">[integer]</text>
<polygon fill="none" stroke="#000000" stroke-width="3" points="505,-501.5 505,-599.5 805,-599.5 805,-501.5 505,-501.5"/>
</g>
<!-- jkr.kiinteisto -->
<g id="node2" class="node">
<title>jkr.kiinteisto</title>
<polygon fill="#efefef" stroke="transparent" points="371,-237.5 371,-272.5 614,-272.5 614,-237.5 371,-237.5"/>
<polygon fill="none" stroke="#000000" points="371,-237.5 371,-272.5 614,-272.5 614,-237.5 371,-237.5"/>
<text text-anchor="start" x="396.876" y="-250.3" font-family="Arial Bold" font-size="18.00" fill="#000000">jkr.kiinteisto</text>
<text text-anchor="start" x="490.8702" y="-250.3" font-family="Arial" font-size="14.00" fill="#000000"> </text>
<text text-anchor="start" x="494.7608" y="-250.3" font-family="Arial" font-size="14.00" fill="#666666">[BASE TABLE]</text>
<polygon fill="none" stroke="#000000" points="371,-207.5 371,-237.5 614,-237.5 614,-207.5 371,-207.5"/>
<text text-anchor="start" x="378" y="-218.9" font-family="Arial" font-size="14.00" fill="#000000">id </text>
<text text-anchor="start" x="392.7798" y="-218.9" font-family="Arial" font-size="14.00" fill="#666666">[integer]</text>
<polygon fill="none" stroke="#000000" points="371,-177.5 371,-207.5 614,-207.5 614,-177.5 371,-177.5"/>
<text text-anchor="start" x="378" y="-188.9" font-family="Arial" font-size="14.00" fill="#000000">kiinteistotunnus </text>
<text text-anchor="start" x="478.3604" y="-188.9" font-family="Arial" font-size="14.00" fill="#666666">[text]</text>
<polygon fill="none" stroke="#000000" points="371,-147.5 371,-177.5 614,-177.5 614,-147.5 371,-147.5"/>
<text text-anchor="start" x="377.7574" y="-158.9" font-family="Arial" font-size="14.00" fill="#000000">geom </text>
<text text-anchor="start" x="416.6564" y="-158.9" font-family="Arial" font-size="14.00" fill="#666666">[geometry(MultiPolygon,3067)]</text>
</g>
<!-- jkr.kiinteiston_omistajat&#45;&gt;jkr.kiinteisto -->
<g id="edge1" class="edge">
<title>jkr.kiinteiston_omistajat:kiinteisto_id&#45;&gt;jkr.kiinteisto:id</title>
<path fill="none" stroke="#000000" d="M497.0742,-546.0635C471.9895,-537.4059 495.4255,-491.3992 507,-457 532.0877,-382.4396 588.9123,-390.5604 614,-316 627.2523,-276.6142 655.5556,-222.5 614,-222.5"/>
<polygon fill="#000000" stroke="#000000" points="497.1031,-546.0676 506.3554,-551.9536 502.0516,-546.7838 507,-547.5 507,-547.5 507,-547.5 502.0516,-546.7838 507.6446,-543.0464 497.1031,-546.0676 497.1031,-546.0676"/>
<text text-anchor="start" x="7.334" y="-557.5" font-family="Arial" font-size="10.00" fill="#000000">FOREIGN KEY (kiinteisto_id) REFERENCES jkr.kiinteisto(id) ON UPDATE CASCADE ON DELETE CASCADE</text>
</g>
<!-- jkr.osapuoli -->
<g id="node3" class="node">
<title>jkr.osapuoli</title>
<polygon fill="#efefef" stroke="transparent" points="718,-342.5 718,-377.5 920,-377.5 920,-342.5 718,-342.5"/>
<polygon fill="none" stroke="#000000" points="718,-342.5 718,-377.5 920,-377.5 920,-342.5 718,-342.5"/>
<text text-anchor="start" x="724.8691" y="-355.3" font-family="Arial Bold" font-size="18.00" fill="#000000">jkr.osapuoli</text>
<text text-anchor="start" x="815.8771" y="-355.3" font-family="Arial" font-size="14.00" fill="#000000"> </text>
<text text-anchor="start" x="819.7677" y="-355.3" font-family="Arial" font-size="14.00" fill="#666666">[BASE TABLE]</text>
<polygon fill="none" stroke="#000000" points="718,-312.5 718,-342.5 920,-342.5 920,-312.5 718,-312.5"/>
<text text-anchor="start" x="725" y="-323.9" font-family="Arial" font-size="14.00" fill="#000000">id </text>
<text text-anchor="start" x="739.7798" y="-323.9" font-family="Arial" font-size="14.00" fill="#666666">[integer]</text>
<polygon fill="none" stroke="#000000" points="718,-282.5 718,-312.5 920,-312.5 920,-282.5 718,-282.5"/>
<text text-anchor="start" x="725" y="-293.9" font-family="Arial" font-size="14.00" fill="#000000">katuosoite </text>
<text text-anchor="start" x="792.6914" y="-293.9" font-family="Arial" font-size="14.00" fill="#666666">[text]</text>
<polygon fill="none" stroke="#000000" points="718,-252.5 718,-282.5 920,-282.5 920,-252.5 718,-252.5"/>
<text text-anchor="start" x="725" y="-263.9" font-family="Arial" font-size="14.00" fill="#000000">postitoimipaikka </text>
<text text-anchor="start" x="828.4544" y="-263.9" font-family="Arial" font-size="14.00" fill="#666666">[text]</text>
<polygon fill="none" stroke="#000000" points="718,-222.5 718,-252.5 920,-252.5 920,-222.5 718,-222.5"/>
<text text-anchor="start" x="725" y="-233.9" font-family="Arial" font-size="14.00" fill="#000000">erikoisosoite </text>
<text text-anchor="start" x="806.6746" y="-233.9" font-family="Arial" font-size="14.00" fill="#666666">[text]</text>
<polygon fill="none" stroke="#000000" points="718,-192.5 718,-222.5 920,-222.5 920,-192.5 718,-192.5"/>
<text text-anchor="start" x="725" y="-203.9" font-family="Arial" font-size="14.00" fill="#000000">ytunnus </text>
<text text-anchor="start" x="777.9116" y="-203.9" font-family="Arial" font-size="14.00" fill="#666666">[text]</text>
<polygon fill="none" stroke="#000000" points="718,-162.5 718,-192.5 920,-192.5 920,-162.5 718,-162.5"/>
<text text-anchor="start" x="725" y="-173.9" font-family="Arial" font-size="14.00" fill="#000000">ulkoinen_id </text>
<text text-anchor="start" x="799.6886" y="-173.9" font-family="Arial" font-size="14.00" fill="#666666">[bigint]</text>
<polygon fill="none" stroke="#000000" points="718,-132.5 718,-162.5 920,-162.5 920,-132.5 718,-132.5"/>
<text text-anchor="start" x="725" y="-143.9" font-family="Arial" font-size="14.00" fill="#000000">postinumero </text>
<text text-anchor="start" x="805.9046" y="-143.9" font-family="Arial" font-size="14.00" fill="#666666">[text]</text>
<polygon fill="none" stroke="#000000" points="718,-102.5 718,-132.5 920,-132.5 920,-102.5 718,-102.5"/>
<text text-anchor="start" x="725" y="-113.9" font-family="Arial" font-size="14.00" fill="#000000">osapuolenlaji_koodi </text>
<text text-anchor="start" x="851.8148" y="-113.9" font-family="Arial" font-size="14.00" fill="#666666">[text]</text>
<polygon fill="none" stroke="#000000" points="718,-72.5 718,-102.5 920,-102.5 920,-72.5 718,-72.5"/>
<text text-anchor="start" x="725" y="-83.9" font-family="Arial" font-size="14.00" fill="#000000">nimi </text>
<text text-anchor="start" x="754.547" y="-83.9" font-family="Arial" font-size="14.00" fill="#666666">[text]</text>
<polygon fill="none" stroke="#000000" points="718,-42.5 718,-72.5 920,-72.5 920,-42.5 718,-42.5"/>
<text text-anchor="start" x="725" y="-53.9" font-family="Arial" font-size="14.00" fill="#000000">kunta </text>
<text text-anchor="start" x="763.129" y="-53.9" font-family="Arial" font-size="14.00" fill="#666666">[text]</text>
</g>
<!-- jkr.kiinteiston_omistajat&#45;&gt;jkr.osapuoli -->
<g id="edge2" class="edge">
<title>jkr.kiinteiston_omistajat:osapuoli_id&#45;&gt;jkr.osapuoli:id</title>
<path fill="none" stroke="#000000" d="M813.8937,-514.9138C827.0704,-505.9732 816.5692,-475.8875 804,-457 781.0439,-422.5043 740.9561,-455.4957 718,-421 694.9777,-386.4047 676.4444,-327.5 718,-327.5"/>
<polygon fill="#000000" stroke="#000000" points="813.6749,-514.9709 802.8619,-513.1463 808.8375,-516.2355 804,-517.5 804,-517.5 804,-517.5 808.8375,-516.2355 805.1381,-521.8537 813.6749,-514.9709 813.6749,-514.9709"/>
<text text-anchor="start" x="810.993" y="-527.5" font-family="Arial" font-size="10.00" fill="#000000">FOREIGN KEY (osapuoli_id) REFERENCES jkr.osapuoli(id) ON UPDATE CASCADE ON DELETE CASCADE</text>
</g>
</g>
</svg>
