<?xml version="1.0" encoding="UTF-8" standalone="no"?>
<!DOCTYPE svg PUBLIC "-//W3C//DTD SVG 1.1//EN"
 "http://www.w3.org/Graphics/SVG/1.1/DTD/svg11.dtd">
<!-- Generated by graphviz version 2.40.1 (20161225.0304)
 -->
<!-- Title: jkr.osoite Pages: 1 -->
<svg width="1391pt" height="742pt"
 viewBox="0.00 0.00 1391.00 742.00" xmlns="http://www.w3.org/2000/svg" xmlns:xlink="http://www.w3.org/1999/xlink">
<g id="graph0" class="graph" transform="scale(1 1) rotate(0) translate(4 738)">
<title>jkr.osoite</title>
<polygon fill="#ffffff" stroke="transparent" points="-4,4 -4,-738 1387,-738 1387,4 -4,4"/>
<!-- jkr.osoite -->
<g id="node1" class="node">
<title>jkr.osoite</title>
<polygon fill="#efefef" stroke="transparent" points="577,-652.5 577,-687.5 762,-687.5 762,-652.5 577,-652.5"/>
<polygon fill="none" stroke="#000000" points="577,-652.5 577,-687.5 762,-687.5 762,-652.5 577,-652.5"/>
<text text-anchor="start" x="584.8713" y="-665.3" font-family="Arial Bold" font-size="18.00" fill="#000000">jkr.osoite</text>
<text text-anchor="start" x="656.8749" y="-665.3" font-family="Arial" font-size="14.00" fill="#000000"> </text>
<text text-anchor="start" x="660.7655" y="-665.3" font-family="Arial" font-size="14.00" fill="#666666">[BASE TABLE]</text>
<polygon fill="none" stroke="#000000" points="577,-622.5 577,-652.5 762,-652.5 762,-622.5 577,-622.5"/>
<text text-anchor="start" x="584" y="-633.9" font-family="Arial" font-size="14.00" fill="#000000">id </text>
<text text-anchor="start" x="598.7798" y="-633.9" font-family="Arial" font-size="14.00" fill="#666666">[integer]</text>
<polygon fill="none" stroke="#000000" points="577,-592.5 577,-622.5 762,-622.5 762,-592.5 577,-592.5"/>
<text text-anchor="start" x="584" y="-603.9" font-family="Arial" font-size="14.00" fill="#000000">osoitenumero </text>
<text text-anchor="start" x="672.6872" y="-603.9" font-family="Arial" font-size="14.00" fill="#666666">[text]</text>
<polygon fill="none" stroke="#000000" points="577,-562.5 577,-592.5 762,-592.5 762,-562.5 577,-562.5"/>
<text text-anchor="start" x="584" y="-573.9" font-family="Arial" font-size="14.00" fill="#000000">katu_id </text>
<text text-anchor="start" x="633.0182" y="-573.9" font-family="Arial" font-size="14.00" fill="#666666">[integer]</text>
<polygon fill="none" stroke="#000000" points="577,-532.5 577,-562.5 762,-562.5 762,-532.5 577,-532.5"/>
<text text-anchor="start" x="584" y="-543.9" font-family="Arial" font-size="14.00" fill="#000000">rakennus_id </text>
<text text-anchor="start" x="664.136" y="-543.9" font-family="Arial" font-size="14.00" fill="#666666">[integer]</text>
<polygon fill="none" stroke="#000000" points="577,-502.5 577,-532.5 762,-532.5 762,-502.5 577,-502.5"/>
<text text-anchor="start" x="583.5428" y="-513.9" font-family="Arial" font-size="14.00" fill="#000000">posti_numero </text>
<text text-anchor="start" x="672.23" y="-513.9" font-family="Arial" font-size="14.00" fill="#666666">[character(5)]</text>
<polygon fill="none" stroke="#000000" stroke-width="3" points="575,-501.5 575,-689.5 763,-689.5 763,-501.5 575,-501.5"/>
</g>
<!-- jkr_osoite.katu -->
<g id="node2" class="node">
<title>jkr_osoite.katu</title>
<polygon fill="#efefef" stroke="transparent" points="209,-252.5 209,-287.5 436,-287.5 436,-252.5 209,-252.5"/>
<polygon fill="none" stroke="#000000" points="209,-252.5 209,-287.5 436,-287.5 436,-252.5 209,-252.5"/>
<text text-anchor="start" x="215.8609" y="-265.3" font-family="Arial Bold" font-size="18.00" fill="#000000">jkr_osoite.katu</text>
<text text-anchor="start" x="331.8853" y="-265.3" font-family="Arial" font-size="14.00" fill="#000000"> </text>
<text text-anchor="start" x="335.7759" y="-265.3" font-family="Arial" font-size="14.00" fill="#666666">[BASE TABLE]</text>
<polygon fill="none" stroke="#000000" points="209,-222.5 209,-252.5 436,-252.5 436,-222.5 209,-222.5"/>
<text text-anchor="start" x="216" y="-233.9" font-family="Arial" font-size="14.00" fill="#000000">id </text>
<text text-anchor="start" x="230.7798" y="-233.9" font-family="Arial" font-size="14.00" fill="#666666">[integer]</text>
<polygon fill="none" stroke="#000000" points="209,-192.5 209,-222.5 436,-222.5 436,-192.5 209,-192.5"/>
<text text-anchor="start" x="216" y="-203.9" font-family="Arial" font-size="14.00" fill="#000000">katunimi_fi </text>
<text text-anchor="start" x="286.7826" y="-203.9" font-family="Arial" font-size="14.00" fill="#666666">[text]</text>
<polygon fill="none" stroke="#000000" points="209,-162.5 209,-192.5 436,-192.5 436,-162.5 209,-162.5"/>
<text text-anchor="start" x="216" y="-173.9" font-family="Arial" font-size="14.00" fill="#000000">katunimi_sv </text>
<text text-anchor="start" x="293.7854" y="-173.9" font-family="Arial" font-size="14.00" fill="#666666">[text]</text>
<polygon fill="none" stroke="#000000" points="209,-132.5 209,-162.5 436,-162.5 436,-132.5 209,-132.5"/>
<text text-anchor="start" x="216" y="-143.9" font-family="Arial" font-size="14.00" fill="#000000">kunta_koodi </text>
<text text-anchor="start" x="295.366" y="-143.9" font-family="Arial" font-size="14.00" fill="#666666">[character(3)]</text>
</g>
<!-- jkr.osoite&#45;&gt;jkr_osoite.katu -->
<g id="edge1" class="edge">
<title>jkr.osoite:katu_id&#45;&gt;jkr_osoite.katu:id</title>
<path fill="none" stroke="#000000" d="M566.7871,-577.0089C498.5644,-570.1061 516.5943,-491.6876 487,-421 454.3108,-342.9199 520.6468,-237.5 436,-237.5"/>
<polygon fill="#000000" stroke="#000000" points="567.0115,-577.0196 576.7838,-581.9948 572.0058,-577.2598 577,-577.5 577,-577.5 577,-577.5 572.0058,-577.2598 577.2162,-573.0052 567.0115,-577.0196 567.0115,-577.0196"/>
<text text-anchor="start" x="17.608" y="-587.5" font-family="Arial" font-size="10.00" fill="#000000">FOREIGN KEY (katu_id) REFERENCES jkr_osoite.katu(id) MATCH FULL ON UPDATE CASCADE ON DELETE RESTRICT</text>
</g>
<!-- jkr.rakennus -->
<g id="node3" class="node">
<title>jkr.rakennus</title>
<polygon fill="#efefef" stroke="transparent" points="540,-342.5 540,-377.5 799,-377.5 799,-342.5 540,-342.5"/>
<polygon fill="none" stroke="#000000" points="540,-342.5 540,-377.5 799,-377.5 799,-342.5 540,-342.5"/>
<text text-anchor="start" x="571.8672" y="-355.3" font-family="Arial Bold" font-size="18.00" fill="#000000">jkr.rakennus</text>
<text text-anchor="start" x="669.879" y="-355.3" font-family="Arial" font-size="14.00" fill="#000000"> </text>
<text text-anchor="start" x="673.7696" y="-355.3" font-family="Arial" font-size="14.00" fill="#666666">[BASE TABLE]</text>
<polygon fill="none" stroke="#000000" points="540,-312.5 540,-342.5 799,-342.5 799,-312.5 540,-312.5"/>
<text text-anchor="start" x="547" y="-323.9" font-family="Arial" font-size="14.00" fill="#000000">id </text>
<text text-anchor="start" x="561.7798" y="-323.9" font-family="Arial" font-size="14.00" fill="#666666">[integer]</text>
<polygon fill="none" stroke="#000000" points="540,-282.5 540,-312.5 799,-312.5 799,-282.5 540,-282.5"/>
<text text-anchor="start" x="547" y="-293.9" font-family="Arial" font-size="14.00" fill="#000000">prt </text>
<text text-anchor="start" x="567.2244" y="-293.9" font-family="Arial" font-size="14.00" fill="#666666">[character(10)]</text>
<polygon fill="none" stroke="#000000" points="540,-252.5 540,-282.5 799,-282.5 799,-252.5 540,-252.5"/>
<text text-anchor="start" x="547" y="-263.9" font-family="Arial" font-size="14.00" fill="#000000">huoneistomaara </text>
<text text-anchor="start" x="651.2524" y="-263.9" font-family="Arial" font-size="14.00" fill="#666666">[smallint]</text>
<polygon fill="none" stroke="#000000" points="540,-222.5 540,-252.5 799,-252.5 799,-222.5 540,-222.5"/>
<text text-anchor="start" x="547" y="-233.9" font-family="Arial" font-size="14.00" fill="#000000">kiinteistotunnus </text>
<text text-anchor="start" x="647.3604" y="-233.9" font-family="Arial" font-size="14.00" fill="#666666">[text]</text>
<polygon fill="none" stroke="#000000" points="540,-192.5 540,-222.5 799,-222.5 799,-192.5 540,-192.5"/>
<text text-anchor="start" x="547" y="-203.9" font-family="Arial" font-size="14.00" fill="#000000">onko_viemari </text>
<text text-anchor="start" x="634.1206" y="-203.9" font-family="Arial" font-size="14.00" fill="#666666">[boolean]</text>
<polygon fill="none" stroke="#000000" points="540,-162.5 540,-192.5 799,-192.5 799,-162.5 540,-162.5"/>
<text text-anchor="start" x="547" y="-173.9" font-family="Arial" font-size="14.00" fill="#000000">geom </text>
<text text-anchor="start" x="585.899" y="-173.9" font-family="Arial" font-size="14.00" fill="#666666">[geometry(Point,3067)]</text>
<polygon fill="none" stroke="#000000" points="540,-132.5 540,-162.5 799,-162.5 799,-132.5 540,-132.5"/>
<text text-anchor="start" x="546.573" y="-143.9" font-family="Arial" font-size="14.00" fill="#000000">rakennuksenkayttotarkoitus_koodi </text>
<text text-anchor="start" x="762.082" y="-143.9" font-family="Arial" font-size="14.00" fill="#666666">[text]</text>
<polygon fill="none" stroke="#000000" points="540,-102.5 540,-132.5 799,-132.5 799,-102.5 540,-102.5"/>
<text text-anchor="start" x="547" y="-113.9" font-family="Arial" font-size="14.00" fill="#000000">rakennuksenolotila_koodi </text>
<text text-anchor="start" x="708.8246" y="-113.9" font-family="Arial" font-size="14.00" fill="#666666">[text]</text>
<polygon fill="none" stroke="#000000" points="540,-72.5 540,-102.5 799,-102.5 799,-72.5 540,-72.5"/>
<text text-anchor="start" x="547" y="-83.9" font-family="Arial" font-size="14.00" fill="#000000">kayttoonotto_pvm </text>
<text text-anchor="start" x="661.3744" y="-83.9" font-family="Arial" font-size="14.00" fill="#666666">[date]</text>
<polygon fill="none" stroke="#000000" points="540,-42.5 540,-72.5 799,-72.5 799,-42.5 540,-42.5"/>
<text text-anchor="start" x="547" y="-53.9" font-family="Arial" font-size="14.00" fill="#000000">kaytostapoisto_pvm </text>
<text text-anchor="start" x="674.5904" y="-53.9" font-family="Arial" font-size="14.00" fill="#666666">[date]</text>
</g>
<!-- jkr.osoite&#45;&gt;jkr.rakennus -->
<g id="edge2" class="edge">
<title>jkr.osoite:rakennus_id&#45;&gt;jkr.rakennus:id</title>
<path fill="none" stroke="#000000" d="M567.3117,-544.7184C522.8922,-519.2514 493.7166,-327.5 540,-327.5"/>
<polygon fill="#000000" stroke="#000000" points="567.3883,-544.7403 575.7581,-551.8253 572.1942,-546.1202 577,-547.5 577,-547.5 577,-547.5 572.1942,-546.1202 578.2419,-543.1747 567.3883,-544.7403 567.3883,-544.7403"/>
<text text-anchor="start" x="7.3275" y="-557.5" font-family="Arial" font-size="10.00" fill="#000000">FOREIGN KEY (rakennus_id) REFERENCES jkr.rakennus(id) MATCH FULL ON UPDATE CASCADE ON DELETE CASCADE</text>
</g>
<!-- jkr_osoite.posti -->
<g id="node4" class="node">
<title>jkr_osoite.posti</title>
<polygon fill="#efefef" stroke="transparent" points="903,-252.5 903,-287.5 1134,-287.5 1134,-252.5 903,-252.5"/>
<polygon fill="none" stroke="#000000" points="903,-252.5 903,-287.5 1134,-287.5 1134,-252.5 903,-252.5"/>
<text text-anchor="start" x="909.8638" y="-265.3" font-family="Arial Bold" font-size="18.00" fill="#000000">jkr_osoite.posti</text>
<text text-anchor="start" x="1029.8824" y="-265.3" font-family="Arial" font-size="14.00" fill="#000000"> </text>
<text text-anchor="start" x="1033.773" y="-265.3" font-family="Arial" font-size="14.00" fill="#666666">[BASE TABLE]</text>
<polygon fill="none" stroke="#000000" points="903,-222.5 903,-252.5 1134,-252.5 1134,-222.5 903,-222.5"/>
<text text-anchor="start" x="910" y="-233.9" font-family="Arial" font-size="14.00" fill="#000000">numero </text>
<text text-anchor="start" x="961.3422" y="-233.9" font-family="Arial" font-size="14.00" fill="#666666">[character(5)]</text>
<polygon fill="none" stroke="#000000" points="903,-192.5 903,-222.5 1134,-222.5 1134,-192.5 903,-192.5"/>
<text text-anchor="start" x="910" y="-203.9" font-family="Arial" font-size="14.00" fill="#000000">nimi_fi </text>
<text text-anchor="start" x="954.3268" y="-203.9" font-family="Arial" font-size="14.00" fill="#666666">[text]</text>
<polygon fill="none" stroke="#000000" points="903,-162.5 903,-192.5 1134,-192.5 1134,-162.5 903,-162.5"/>
<text text-anchor="start" x="910" y="-173.9" font-family="Arial" font-size="14.00" fill="#000000">nimi_se </text>
<text text-anchor="start" x="962.1122" y="-173.9" font-family="Arial" font-size="14.00" fill="#666666">[text]</text>
<polygon fill="none" stroke="#000000" points="903,-132.5 903,-162.5 1134,-162.5 1134,-132.5 903,-132.5"/>
<text text-anchor="start" x="910" y="-143.9" font-family="Arial" font-size="14.00" fill="#000000">kunta_koodi </text>
<text text-anchor="start" x="989.366" y="-143.9" font-family="Arial" font-size="14.00" fill="#666666">[character(3)]</text>
</g>
<!-- jkr.osoite&#45;&gt;jkr_osoite.posti -->
<g id="edge3" class="edge">
<title>jkr.osoite:posti_numero&#45;&gt;jkr_osoite.posti:numero</title>
<path fill="none" stroke="#000000" d="M771.998,-517.0075C820.701,-511.9591 824.215,-468.8218 851,-421 892.423,-347.0435 818.2331,-237.5 903,-237.5"/>
<polygon fill="#000000" stroke="#000000" points="771.9879,-517.0079 761.7786,-513.0055 766.9939,-517.2539 762,-517.5 762,-517.5 762,-517.5 766.9939,-517.2539 762.2214,-521.9945 771.9879,-517.0079 771.9879,-517.0079"/>
<text text-anchor="start" x="769.1025" y="-527.5" font-family="Arial" font-size="10.00" fill="#000000">FOREIGN KEY (posti_numero) REFERENCES jkr_osoite.posti(numero) MATCH FULL ON UPDATE CASCADE ON DELETE CASCADE</text>
</g>
</g>
</svg>
