<?xml version="1.0" encoding="UTF-8" standalone="no"?>
<!DOCTYPE svg PUBLIC "-//W3C//DTD SVG 1.1//EN"
 "http://www.w3.org/Graphics/SVG/1.1/DTD/svg11.dtd">
<!-- Generated by graphviz version 2.40.1 (20161225.0304)
 -->
<!-- Title: jkr.kohteen_rakennukset Pages: 1 -->
<svg width="1441pt" height="652pt"
 viewBox="0.00 0.00 1441.00 652.00" xmlns="http://www.w3.org/2000/svg" xmlns:xlink="http://www.w3.org/1999/xlink">
<g id="graph0" class="graph" transform="scale(1 1) rotate(0) translate(4 648)">
<title>jkr.kohteen_rakennukset</title>
<polygon fill="#ffffff" stroke="transparent" points="-4,4 -4,-648 1437,-648 1437,4 -4,4"/>
<!-- jkr.kohteen_rakennukset -->
<g id="node1" class="node">
<title>jkr.kohteen_rakennukset</title>
<polygon fill="#efefef" stroke="transparent" points="577,-562.5 577,-597.5 884,-597.5 884,-562.5 577,-562.5"/>
<polygon fill="none" stroke="#000000" points="577,-562.5 577,-597.5 884,-597.5 884,-562.5 577,-562.5"/>
<text text-anchor="start" x="583.8433" y="-575.3" font-family="Arial Bold" font-size="18.00" fill="#000000">jkr.kohteen_rakennukset</text>
<text text-anchor="start" x="779.9029" y="-575.3" font-family="Arial" font-size="14.00" fill="#000000"> </text>
<text text-anchor="start" x="783.7935" y="-575.3" font-family="Arial" font-size="14.00" fill="#666666">[BASE TABLE]</text>
<polygon fill="none" stroke="#000000" points="577,-532.5 577,-562.5 884,-562.5 884,-532.5 577,-532.5"/>
<text text-anchor="start" x="584" y="-543.9" font-family="Arial" font-size="14.00" fill="#000000">rakennus_id </text>
<text text-anchor="start" x="664.136" y="-543.9" font-family="Arial" font-size="14.00" fill="#666666">[integer]</text>
<polygon fill="none" stroke="#000000" points="577,-502.5 577,-532.5 884,-532.5 884,-502.5 577,-502.5"/>
<text text-anchor="start" x="584" y="-513.9" font-family="Arial" font-size="14.00" fill="#000000">kohde_id </text>
<text text-anchor="start" x="644.6928" y="-513.9" font-family="Arial" font-size="14.00" fill="#666666">[integer]</text>
<polygon fill="none" stroke="#000000" stroke-width="3" points="575,-501.5 575,-599.5 885,-599.5 885,-501.5 575,-501.5"/>
</g>
<!-- jkr.rakennus -->
<g id="node2" class="node">
<title>jkr.rakennus</title>
<polygon fill="#efefef" stroke="transparent" points="431,-342.5 431,-377.5 690,-377.5 690,-342.5 431,-342.5"/>
<polygon fill="none" stroke="#000000" points="431,-342.5 431,-377.5 690,-377.5 690,-342.5 431,-342.5"/>
<text text-anchor="start" x="462.8672" y="-355.3" font-family="Arial Bold" font-size="18.00" fill="#000000">jkr.rakennus</text>
<text text-anchor="start" x="560.879" y="-355.3" font-family="Arial" font-size="14.00" fill="#000000"> </text>
<text text-anchor="start" x="564.7696" y="-355.3" font-family="Arial" font-size="14.00" fill="#666666">[BASE TABLE]</text>
<polygon fill="none" stroke="#000000" points="431,-312.5 431,-342.5 690,-342.5 690,-312.5 431,-312.5"/>
<text text-anchor="start" x="438" y="-323.9" font-family="Arial" font-size="14.00" fill="#000000">id </text>
<text text-anchor="start" x="452.7798" y="-323.9" font-family="Arial" font-size="14.00" fill="#666666">[integer]</text>
<polygon fill="none" stroke="#000000" points="431,-282.5 431,-312.5 690,-312.5 690,-282.5 431,-282.5"/>
<text text-anchor="start" x="438" y="-293.9" font-family="Arial" font-size="14.00" fill="#000000">prt </text>
<text text-anchor="start" x="458.2244" y="-293.9" font-family="Arial" font-size="14.00" fill="#666666">[character(10)]</text>
<polygon fill="none" stroke="#000000" points="431,-252.5 431,-282.5 690,-282.5 690,-252.5 431,-252.5"/>
<text text-anchor="start" x="438" y="-263.9" font-family="Arial" font-size="14.00" fill="#000000">huoneistomaara </text>
<text text-anchor="start" x="542.2524" y="-263.9" font-family="Arial" font-size="14.00" fill="#666666">[smallint]</text>
<polygon fill="none" stroke="#000000" points="431,-222.5 431,-252.5 690,-252.5 690,-222.5 431,-222.5"/>
<text text-anchor="start" x="438" y="-233.9" font-family="Arial" font-size="14.00" fill="#000000">kiinteistotunnus </text>
<text text-anchor="start" x="538.3604" y="-233.9" font-family="Arial" font-size="14.00" fill="#666666">[text]</text>
<polygon fill="none" stroke="#000000" points="431,-192.5 431,-222.5 690,-222.5 690,-192.5 431,-192.5"/>
<text text-anchor="start" x="438" y="-203.9" font-family="Arial" font-size="14.00" fill="#000000">onko_viemari </text>
<text text-anchor="start" x="525.1206" y="-203.9" font-family="Arial" font-size="14.00" fill="#666666">[boolean]</text>
<polygon fill="none" stroke="#000000" points="431,-162.5 431,-192.5 690,-192.5 690,-162.5 431,-162.5"/>
<text text-anchor="start" x="438" y="-173.9" font-family="Arial" font-size="14.00" fill="#000000">geom </text>
<text text-anchor="start" x="476.899" y="-173.9" font-family="Arial" font-size="14.00" fill="#666666">[geometry(Point,3067)]</text>
<polygon fill="none" stroke="#000000" points="431,-132.5 431,-162.5 690,-162.5 690,-132.5 431,-132.5"/>
<text text-anchor="start" x="437.573" y="-143.9" font-family="Arial" font-size="14.00" fill="#000000">rakennuksenkayttotarkoitus_koodi </text>
<text text-anchor="start" x="653.082" y="-143.9" font-family="Arial" font-size="14.00" fill="#666666">[text]</text>
<polygon fill="none" stroke="#000000" points="431,-102.5 431,-132.5 690,-132.5 690,-102.5 431,-102.5"/>
<text text-anchor="start" x="438" y="-113.9" font-family="Arial" font-size="14.00" fill="#000000">rakennuksenolotila_koodi </text>
<text text-anchor="start" x="599.8246" y="-113.9" font-family="Arial" font-size="14.00" fill="#666666">[text]</text>
<polygon fill="none" stroke="#000000" points="431,-72.5 431,-102.5 690,-102.5 690,-72.5 431,-72.5"/>
<text text-anchor="start" x="438" y="-83.9" font-family="Arial" font-size="14.00" fill="#000000">kayttoonotto_pvm </text>
<text text-anchor="start" x="552.3744" y="-83.9" font-family="Arial" font-size="14.00" fill="#666666">[date]</text>
<polygon fill="none" stroke="#000000" points="431,-42.5 431,-72.5 690,-72.5 690,-42.5 431,-42.5"/>
<text text-anchor="start" x="438" y="-53.9" font-family="Arial" font-size="14.00" fill="#000000">kaytostapoisto_pvm </text>
<text text-anchor="start" x="565.5904" y="-53.9" font-family="Arial" font-size="14.00" fill="#666666">[date]</text>
</g>
<!-- jkr.kohteen_rakennukset&#45;&gt;jkr.rakennus -->
<g id="edge1" class="edge">
<title>jkr.kohteen_rakennukset:rakennus_id&#45;&gt;jkr.rakennus:id</title>
<path fill="none" stroke="#000000" d="M566.7925,-545.9177C540.067,-536.4102 555.5826,-486.3013 577,-457 608.104,-414.4464 658.896,-463.5536 690,-421 714.5221,-387.4511 731.5556,-327.5 690,-327.5"/>
<polygon fill="#000000" stroke="#000000" points="567.118,-545.968 576.3106,-551.9469 572.059,-546.734 577,-547.5 577,-547.5 577,-547.5 572.059,-546.734 577.6894,-543.0531 567.118,-545.968 567.118,-545.968"/>
<text text-anchor="start" x="7.3275" y="-557.5" font-family="Arial" font-size="10.00" fill="#000000">FOREIGN KEY (rakennus_id) REFERENCES jkr.rakennus(id) MATCH FULL ON UPDATE CASCADE ON DELETE CASCADE</text>
</g>
<!-- jkr.kohde -->
<g id="node3" class="node">
<title>jkr.kohde</title>
<polygon fill="#efefef" stroke="transparent" points="794,-297.5 794,-332.5 1007,-332.5 1007,-297.5 794,-297.5"/>
<polygon fill="none" stroke="#000000" points="794,-297.5 794,-332.5 1007,-332.5 1007,-297.5 794,-297.5"/>
<text text-anchor="start" x="815.3664" y="-310.3" font-family="Arial Bold" font-size="18.00" fill="#000000">jkr.kohde</text>
<text text-anchor="start" x="888.3798" y="-310.3" font-family="Arial" font-size="14.00" fill="#000000"> </text>
<text text-anchor="start" x="892.2704" y="-310.3" font-family="Arial" font-size="14.00" fill="#666666">[BASE TABLE]</text>
<polygon fill="none" stroke="#000000" points="794,-267.5 794,-297.5 1007,-297.5 1007,-267.5 794,-267.5"/>
<text text-anchor="start" x="801" y="-278.9" font-family="Arial" font-size="14.00" fill="#000000">id </text>
<text text-anchor="start" x="815.7798" y="-278.9" font-family="Arial" font-size="14.00" fill="#666666">[integer]</text>
<polygon fill="none" stroke="#000000" points="794,-237.5 794,-267.5 1007,-267.5 1007,-237.5 794,-237.5"/>
<text text-anchor="start" x="801" y="-248.9" font-family="Arial" font-size="14.00" fill="#000000">nimi </text>
<text text-anchor="start" x="830.547" y="-248.9" font-family="Arial" font-size="14.00" fill="#666666">[text]</text>
<polygon fill="none" stroke="#000000" points="794,-207.5 794,-237.5 1007,-237.5 1007,-207.5 794,-207.5"/>
<text text-anchor="start" x="800.5309" y="-218.9" font-family="Arial" font-size="14.00" fill="#000000">geom </text>
<text text-anchor="start" x="839.4299" y="-218.9" font-family="Arial" font-size="14.00" fill="#666666">[geometry(Polygon,3067)]</text>
<polygon fill="none" stroke="#000000" points="794,-177.5 794,-207.5 1007,-207.5 1007,-177.5 794,-177.5"/>
<text text-anchor="start" x="801" y="-188.9" font-family="Arial" font-size="14.00" fill="#000000">alkupvm </text>
<text text-anchor="start" x="857.0056" y="-188.9" font-family="Arial" font-size="14.00" fill="#666666">[date]</text>
<polygon fill="none" stroke="#000000" points="794,-147.5 794,-177.5 1007,-177.5 1007,-147.5 794,-147.5"/>
<text text-anchor="start" x="801" y="-158.9" font-family="Arial" font-size="14.00" fill="#000000">loppupvm </text>
<text text-anchor="start" x="865.5708" y="-158.9" font-family="Arial" font-size="14.00" fill="#666666">[date]</text>
<polygon fill="none" stroke="#000000" points="794,-117.5 794,-147.5 1007,-147.5 1007,-117.5 794,-117.5"/>
<text text-anchor="start" x="801" y="-128.9" font-family="Arial" font-size="14.00" fill="#000000">voimassaolo </text>
<text text-anchor="start" x="882.6774" y="-128.9" font-family="Arial" font-size="14.00" fill="#666666">[daterange]</text>
<polygon fill="none" stroke="#000000" points="794,-87.5 794,-117.5 1007,-117.5 1007,-87.5 794,-87.5"/>
<text text-anchor="start" x="801" y="-98.9" font-family="Arial" font-size="14.00" fill="#000000">kohdetyyppi_id </text>
<text text-anchor="start" x="898.2552" y="-98.9" font-family="Arial" font-size="14.00" fill="#666666">[integer]</text>
</g>
<!-- jkr.kohteen_rakennukset&#45;&gt;jkr.kohde -->
<g id="edge2" class="edge">
<title>jkr.kohteen_rakennukset:kohde_id&#45;&gt;jkr.kohde:id</title>
<path fill="none" stroke="#000000" d="M893.9865,-514.807C905.7903,-506.0143 893.1447,-477.5331 884,-457 862.1062,-407.8405 815.8938,-425.1595 794,-376 777.0936,-338.039 752.4444,-282.5 794,-282.5"/>
<polygon fill="#000000" stroke="#000000" points="893.6551,-514.8963 882.8283,-513.1552 888.8276,-516.1982 884,-517.5 884,-517.5 884,-517.5 888.8276,-516.1982 885.1717,-521.8448 893.6551,-514.8963 893.6551,-514.8963"/>
<text text-anchor="start" x="891.2155" y="-527.5" font-family="Arial" font-size="10.00" fill="#000000">FOREIGN KEY (kohde_id) REFERENCES jkr.kohde(id) MATCH FULL ON UPDATE CASCADE ON DELETE CASCADE</text>
</g>
</g>
</svg>
