<?xml version="1.0" encoding="UTF-8" standalone="no"?>
<!DOCTYPE svg PUBLIC "-//W3C//DTD SVG 1.1//EN"
 "http://www.w3.org/Graphics/SVG/1.1/DTD/svg11.dtd">
<!-- Generated by graphviz version 2.40.1 (20161225.0304)
 -->
<!-- Title: jkr.kohteen_rakennusehdokkaat Pages: 1 -->
<svg width="1500pt" height="652pt"
 viewBox="0.00 0.00 1500.00 652.00" xmlns="http://www.w3.org/2000/svg" xmlns:xlink="http://www.w3.org/1999/xlink">
<g id="graph0" class="graph" transform="scale(1 1) rotate(0) translate(4 648)">
<title>jkr.kohteen_rakennusehdokkaat</title>
<polygon fill="#ffffff" stroke="transparent" points="-4,4 -4,-648 1496,-648 1496,4 -4,4"/>
<!-- jkr.kohteen_rakennusehdokkaat -->
<g id="node1" class="node">
<title>jkr.kohteen_rakennusehdokkaat</title>
<polygon fill="#efefef" stroke="transparent" points="549,-562.5 549,-597.5 915,-597.5 915,-562.5 549,-562.5"/>
<polygon fill="none" stroke="#000000" points="549,-562.5 549,-597.5 915,-597.5 915,-562.5 549,-562.5"/>
<text text-anchor="start" x="555.8278" y="-575.3" font-family="Arial Bold" font-size="18.00" fill="#000000">jkr.kohteen_rakennusehdokkaat</text>
<text text-anchor="start" x="810.9184" y="-575.3" font-family="Arial" font-size="14.00" fill="#000000"> </text>
<text text-anchor="start" x="814.809" y="-575.3" font-family="Arial" font-size="14.00" fill="#666666">[BASE TABLE]</text>
<polygon fill="none" stroke="#000000" points="549,-532.5 549,-562.5 915,-562.5 915,-532.5 549,-532.5"/>
<text text-anchor="start" x="556" y="-543.9" font-family="Arial" font-size="14.00" fill="#000000">kohde_id </text>
<text text-anchor="start" x="616.6928" y="-543.9" font-family="Arial" font-size="14.00" fill="#666666">[integer]</text>
<polygon fill="none" stroke="#000000" points="549,-502.5 549,-532.5 915,-532.5 915,-502.5 549,-502.5"/>
<text text-anchor="start" x="556" y="-513.9" font-family="Arial" font-size="14.00" fill="#000000">rakennus_id </text>
<text text-anchor="start" x="636.136" y="-513.9" font-family="Arial" font-size="14.00" fill="#666666">[integer]</text>
<polygon fill="none" stroke="#000000" stroke-width="3" points="547.5,-501.5 547.5,-599.5 916.5,-599.5 916.5,-501.5 547.5,-501.5"/>
</g>
<!-- jkr.kohde -->
<g id="node2" class="node">
<title>jkr.kohde</title>
<polygon fill="#efefef" stroke="transparent" points="455,-297.5 455,-332.5 668,-332.5 668,-297.5 455,-297.5"/>
<polygon fill="none" stroke="#000000" points="455,-297.5 455,-332.5 668,-332.5 668,-297.5 455,-297.5"/>
<text text-anchor="start" x="476.3664" y="-310.3" font-family="Arial Bold" font-size="18.00" fill="#000000">jkr.kohde</text>
<text text-anchor="start" x="549.3798" y="-310.3" font-family="Arial" font-size="14.00" fill="#000000"> </text>
<text text-anchor="start" x="553.2704" y="-310.3" font-family="Arial" font-size="14.00" fill="#666666">[BASE TABLE]</text>
<polygon fill="none" stroke="#000000" points="455,-267.5 455,-297.5 668,-297.5 668,-267.5 455,-267.5"/>
<text text-anchor="start" x="462" y="-278.9" font-family="Arial" font-size="14.00" fill="#000000">id </text>
<text text-anchor="start" x="476.7798" y="-278.9" font-family="Arial" font-size="14.00" fill="#666666">[integer]</text>
<polygon fill="none" stroke="#000000" points="455,-237.5 455,-267.5 668,-267.5 668,-237.5 455,-237.5"/>
<text text-anchor="start" x="462" y="-248.9" font-family="Arial" font-size="14.00" fill="#000000">nimi </text>
<text text-anchor="start" x="491.547" y="-248.9" font-family="Arial" font-size="14.00" fill="#666666">[text]</text>
<polygon fill="none" stroke="#000000" points="455,-207.5 455,-237.5 668,-237.5 668,-207.5 455,-207.5"/>
<text text-anchor="start" x="461.5309" y="-218.9" font-family="Arial" font-size="14.00" fill="#000000">geom </text>
<text text-anchor="start" x="500.4299" y="-218.9" font-family="Arial" font-size="14.00" fill="#666666">[geometry(Polygon,3067)]</text>
<polygon fill="none" stroke="#000000" points="455,-177.5 455,-207.5 668,-207.5 668,-177.5 455,-177.5"/>
<text text-anchor="start" x="462" y="-188.9" font-family="Arial" font-size="14.00" fill="#000000">alkupvm </text>
<text text-anchor="start" x="518.0056" y="-188.9" font-family="Arial" font-size="14.00" fill="#666666">[date]</text>
<polygon fill="none" stroke="#000000" points="455,-147.5 455,-177.5 668,-177.5 668,-147.5 455,-147.5"/>
<text text-anchor="start" x="462" y="-158.9" font-family="Arial" font-size="14.00" fill="#000000">loppupvm </text>
<text text-anchor="start" x="526.5708" y="-158.9" font-family="Arial" font-size="14.00" fill="#666666">[date]</text>
<polygon fill="none" stroke="#000000" points="455,-117.5 455,-147.5 668,-147.5 668,-117.5 455,-117.5"/>
<text text-anchor="start" x="462" y="-128.9" font-family="Arial" font-size="14.00" fill="#000000">voimassaolo </text>
<text text-anchor="start" x="543.6774" y="-128.9" font-family="Arial" font-size="14.00" fill="#666666">[daterange]</text>
<polygon fill="none" stroke="#000000" points="455,-87.5 455,-117.5 668,-117.5 668,-87.5 455,-87.5"/>
<text text-anchor="start" x="462" y="-98.9" font-family="Arial" font-size="14.00" fill="#000000">kohdetyyppi_id </text>
<text text-anchor="start" x="559.2552" y="-98.9" font-family="Arial" font-size="14.00" fill="#666666">[integer]</text>
</g>
<!-- jkr.kohteen_rakennusehdokkaat&#45;&gt;jkr.kohde -->
<g id="edge1" class="edge">
<title>jkr.kohteen_rakennusehdokkaat:kohde_id&#45;&gt;jkr.kohde:id</title>
<path fill="none" stroke="#000000" d="M538.9197,-545.9972C512.9354,-536.9533 532.0286,-489.0819 549,-457 578.9167,-400.4471 638.0833,-432.5529 668,-376 687.4316,-339.2675 709.5556,-282.5 668,-282.5"/>
<polygon fill="#000000" stroke="#000000" points="539.1093,-546.0254 548.3364,-551.9508 544.0547,-546.7627 549,-547.5 549,-547.5 549,-547.5 544.0547,-546.7627 549.6636,-543.0492 539.1093,-546.0254 539.1093,-546.0254"/>
<text text-anchor="start" x="7.2155" y="-557.5" font-family="Arial" font-size="10.00" fill="#000000">FOREIGN KEY (kohde_id) REFERENCES jkr.kohde(id) MATCH FULL ON UPDATE CASCADE ON DELETE CASCADE</text>
</g>
<!-- jkr.rakennus -->
<g id="node3" class="node">
<title>jkr.rakennus</title>
<polygon fill="#efefef" stroke="transparent" points="772,-342.5 772,-377.5 1031,-377.5 1031,-342.5 772,-342.5"/>
<polygon fill="none" stroke="#000000" points="772,-342.5 772,-377.5 1031,-377.5 1031,-342.5 772,-342.5"/>
<text text-anchor="start" x="803.8672" y="-355.3" font-family="Arial Bold" font-size="18.00" fill="#000000">jkr.rakennus</text>
<text text-anchor="start" x="901.879" y="-355.3" font-family="Arial" font-size="14.00" fill="#000000"> </text>
<text text-anchor="start" x="905.7696" y="-355.3" font-family="Arial" font-size="14.00" fill="#666666">[BASE TABLE]</text>
<polygon fill="none" stroke="#000000" points="772,-312.5 772,-342.5 1031,-342.5 1031,-312.5 772,-312.5"/>
<text text-anchor="start" x="779" y="-323.9" font-family="Arial" font-size="14.00" fill="#000000">id </text>
<text text-anchor="start" x="793.7798" y="-323.9" font-family="Arial" font-size="14.00" fill="#666666">[integer]</text>
<polygon fill="none" stroke="#000000" points="772,-282.5 772,-312.5 1031,-312.5 1031,-282.5 772,-282.5"/>
<text text-anchor="start" x="779" y="-293.9" font-family="Arial" font-size="14.00" fill="#000000">prt </text>
<text text-anchor="start" x="799.2244" y="-293.9" font-family="Arial" font-size="14.00" fill="#666666">[character(10)]</text>
<polygon fill="none" stroke="#000000" points="772,-252.5 772,-282.5 1031,-282.5 1031,-252.5 772,-252.5"/>
<text text-anchor="start" x="779" y="-263.9" font-family="Arial" font-size="14.00" fill="#000000">huoneistomaara </text>
<text text-anchor="start" x="883.2524" y="-263.9" font-family="Arial" font-size="14.00" fill="#666666">[smallint]</text>
<polygon fill="none" stroke="#000000" points="772,-222.5 772,-252.5 1031,-252.5 1031,-222.5 772,-222.5"/>
<text text-anchor="start" x="779" y="-233.9" font-family="Arial" font-size="14.00" fill="#000000">kiinteistotunnus </text>
<text text-anchor="start" x="879.3604" y="-233.9" font-family="Arial" font-size="14.00" fill="#666666">[text]</text>
<polygon fill="none" stroke="#000000" points="772,-192.5 772,-222.5 1031,-222.5 1031,-192.5 772,-192.5"/>
<text text-anchor="start" x="779" y="-203.9" font-family="Arial" font-size="14.00" fill="#000000">onko_viemari </text>
<text text-anchor="start" x="866.1206" y="-203.9" font-family="Arial" font-size="14.00" fill="#666666">[boolean]</text>
<polygon fill="none" stroke="#000000" points="772,-162.5 772,-192.5 1031,-192.5 1031,-162.5 772,-162.5"/>
<text text-anchor="start" x="779" y="-173.9" font-family="Arial" font-size="14.00" fill="#000000">geom </text>
<text text-anchor="start" x="817.899" y="-173.9" font-family="Arial" font-size="14.00" fill="#666666">[geometry(Point,3067)]</text>
<polygon fill="none" stroke="#000000" points="772,-132.5 772,-162.5 1031,-162.5 1031,-132.5 772,-132.5"/>
<text text-anchor="start" x="778.573" y="-143.9" font-family="Arial" font-size="14.00" fill="#000000">rakennuksenkayttotarkoitus_koodi </text>
<text text-anchor="start" x="994.082" y="-143.9" font-family="Arial" font-size="14.00" fill="#666666">[text]</text>
<polygon fill="none" stroke="#000000" points="772,-102.5 772,-132.5 1031,-132.5 1031,-102.5 772,-102.5"/>
<text text-anchor="start" x="779" y="-113.9" font-family="Arial" font-size="14.00" fill="#000000">rakennuksenolotila_koodi </text>
<text text-anchor="start" x="940.8246" y="-113.9" font-family="Arial" font-size="14.00" fill="#666666">[text]</text>
<polygon fill="none" stroke="#000000" points="772,-72.5 772,-102.5 1031,-102.5 1031,-72.5 772,-72.5"/>
<text text-anchor="start" x="779" y="-83.9" font-family="Arial" font-size="14.00" fill="#000000">kayttoonotto_pvm </text>
<text text-anchor="start" x="893.3744" y="-83.9" font-family="Arial" font-size="14.00" fill="#666666">[date]</text>
<polygon fill="none" stroke="#000000" points="772,-42.5 772,-72.5 1031,-72.5 1031,-42.5 772,-42.5"/>
<text text-anchor="start" x="779" y="-53.9" font-family="Arial" font-size="14.00" fill="#000000">kaytostapoisto_pvm </text>
<text text-anchor="start" x="906.5904" y="-53.9" font-family="Arial" font-size="14.00" fill="#666666">[date]</text>
</g>
<!-- jkr.kohteen_rakennusehdokkaat&#45;&gt;jkr.rakennus -->
<g id="edge2" class="edge">
<title>jkr.kohteen_rakennusehdokkaat:rakennus_id&#45;&gt;jkr.rakennus:id</title>
<path fill="none" stroke="#000000" d="M924.9946,-514.841C938.5012,-505.6626 928.9475,-474.8939 915,-457 874.7092,-405.309 812.2908,-472.691 772,-421 746.4531,-388.2247 730.4444,-327.5 772,-327.5"/>
<polygon fill="#000000" stroke="#000000" points="924.6639,-514.9289 913.843,-513.1513 919.8319,-516.2145 915,-517.5 915,-517.5 915,-517.5 919.8319,-516.2145 916.157,-521.8487 924.6639,-514.9289 924.6639,-514.9289"/>
<text text-anchor="start" x="922.3275" y="-527.5" font-family="Arial" font-size="10.00" fill="#000000">FOREIGN KEY (rakennus_id) REFERENCES jkr.rakennus(id) MATCH FULL ON UPDATE CASCADE ON DELETE CASCADE</text>
</g>
</g>
</svg>
