<?xml version="1.0" encoding="UTF-8" standalone="no"?>
<!DOCTYPE svg PUBLIC "-//W3C//DTD SVG 1.1//EN"
 "http://www.w3.org/Graphics/SVG/1.1/DTD/svg11.dtd">
<!-- Generated by graphviz version 2.40.1 (20161225.0304)
 -->
<!-- Title: jkr.rakennus Pages: 1 -->
<svg width="2101pt" height="959pt"
 viewBox="0.00 0.00 2101.00 959.00" xmlns="http://www.w3.org/2000/svg" xmlns:xlink="http://www.w3.org/1999/xlink">
<g id="graph0" class="graph" transform="scale(1 1) rotate(0) translate(4 955)">
<title>jkr.rakennus</title>
<polygon fill="#ffffff" stroke="transparent" points="-4,4 -4,-955 2097,-955 2097,4 -4,4"/>
<!-- jkr.rakennus -->
<g id="node1" class="node">
<title>jkr.rakennus</title>
<polygon fill="#efefef" stroke="transparent" points="913,-562.5 913,-597.5 1172,-597.5 1172,-562.5 913,-562.5"/>
<polygon fill="none" stroke="#000000" points="913,-562.5 913,-597.5 1172,-597.5 1172,-562.5 913,-562.5"/>
<text text-anchor="start" x="944.8672" y="-575.3" font-family="Arial Bold" font-size="18.00" fill="#000000">jkr.rakennus</text>
<text text-anchor="start" x="1042.879" y="-575.3" font-family="Arial" font-size="14.00" fill="#000000"> </text>
<text text-anchor="start" x="1046.7696" y="-575.3" font-family="Arial" font-size="14.00" fill="#666666">[BASE TABLE]</text>
<polygon fill="none" stroke="#000000" points="913,-532.5 913,-562.5 1172,-562.5 1172,-532.5 913,-532.5"/>
<text text-anchor="start" x="920" y="-543.9" font-family="Arial" font-size="14.00" fill="#000000">id </text>
<text text-anchor="start" x="934.7798" y="-543.9" font-family="Arial" font-size="14.00" fill="#666666">[integer]</text>
<polygon fill="none" stroke="#000000" points="913,-502.5 913,-532.5 1172,-532.5 1172,-502.5 913,-502.5"/>
<text text-anchor="start" x="920" y="-513.9" font-family="Arial" font-size="14.00" fill="#000000">prt </text>
<text text-anchor="start" x="940.2244" y="-513.9" font-family="Arial" font-size="14.00" fill="#666666">[character(10)]</text>
<polygon fill="none" stroke="#000000" points="913,-472.5 913,-502.5 1172,-502.5 1172,-472.5 913,-472.5"/>
<text text-anchor="start" x="920" y="-483.9" font-family="Arial" font-size="14.00" fill="#000000">huoneistomaara </text>
<text text-anchor="start" x="1024.2524" y="-483.9" font-family="Arial" font-size="14.00" fill="#666666">[smallint]</text>
<polygon fill="none" stroke="#000000" points="913,-442.5 913,-472.5 1172,-472.5 1172,-442.5 913,-442.5"/>
<text text-anchor="start" x="920" y="-453.9" font-family="Arial" font-size="14.00" fill="#000000">kiinteistotunnus </text>
<text text-anchor="start" x="1020.3604" y="-453.9" font-family="Arial" font-size="14.00" fill="#666666">[text]</text>
<polygon fill="none" stroke="#000000" points="913,-412.5 913,-442.5 1172,-442.5 1172,-412.5 913,-412.5"/>
<text text-anchor="start" x="920" y="-423.9" font-family="Arial" font-size="14.00" fill="#000000">onko_viemari </text>
<text text-anchor="start" x="1007.1206" y="-423.9" font-family="Arial" font-size="14.00" fill="#666666">[boolean]</text>
<polygon fill="none" stroke="#000000" points="913,-382.5 913,-412.5 1172,-412.5 1172,-382.5 913,-382.5"/>
<text text-anchor="start" x="920" y="-393.9" font-family="Arial" font-size="14.00" fill="#000000">geom </text>
<text text-anchor="start" x="958.899" y="-393.9" font-family="Arial" font-size="14.00" fill="#666666">[geometry(Point,3067)]</text>
<polygon fill="none" stroke="#000000" points="913,-352.5 913,-382.5 1172,-382.5 1172,-352.5 913,-352.5"/>
<text text-anchor="start" x="919.573" y="-363.9" font-family="Arial" font-size="14.00" fill="#000000">rakennuksenkayttotarkoitus_koodi </text>
<text text-anchor="start" x="1135.082" y="-363.9" font-family="Arial" font-size="14.00" fill="#666666">[text]</text>
<polygon fill="none" stroke="#000000" points="913,-322.5 913,-352.5 1172,-352.5 1172,-322.5 913,-322.5"/>
<text text-anchor="start" x="920" y="-333.9" font-family="Arial" font-size="14.00" fill="#000000">rakennuksenolotila_koodi </text>
<text text-anchor="start" x="1081.8246" y="-333.9" font-family="Arial" font-size="14.00" fill="#666666">[text]</text>
<polygon fill="none" stroke="#000000" points="913,-292.5 913,-322.5 1172,-322.5 1172,-292.5 913,-292.5"/>
<text text-anchor="start" x="920" y="-303.9" font-family="Arial" font-size="14.00" fill="#000000">kayttoonotto_pvm </text>
<text text-anchor="start" x="1034.3744" y="-303.9" font-family="Arial" font-size="14.00" fill="#666666">[date]</text>
<polygon fill="none" stroke="#000000" points="913,-262.5 913,-292.5 1172,-292.5 1172,-262.5 913,-262.5"/>
<text text-anchor="start" x="920" y="-273.9" font-family="Arial" font-size="14.00" fill="#000000">kaytostapoisto_pvm </text>
<text text-anchor="start" x="1047.5904" y="-273.9" font-family="Arial" font-size="14.00" fill="#666666">[date]</text>
<polygon fill="none" stroke="#000000" stroke-width="3" points="911,-261.5 911,-599.5 1173,-599.5 1173,-261.5 911,-261.5"/>
</g>
<!-- jkr_koodistot.rakennuksenkayttotarkoitus -->
<g id="node6" class="node">
<title>jkr_koodistot.rakennuksenkayttotarkoitus</title>
<polygon fill="#efefef" stroke="transparent" points="572,-102.5 572,-137.5 1008,-137.5 1008,-102.5 572,-102.5"/>
<polygon fill="none" stroke="#000000" points="572,-102.5 572,-137.5 1008,-137.5 1008,-102.5 572,-102.5"/>
<text text-anchor="start" x="578.8331" y="-115.3" font-family="Arial Bold" font-size="18.00" fill="#000000">jkr_koodistot.rakennuksenkayttotarkoitus</text>
<text text-anchor="start" x="903.9131" y="-115.3" font-family="Arial" font-size="14.00" fill="#000000"> </text>
<text text-anchor="start" x="907.8037" y="-115.3" font-family="Arial" font-size="14.00" fill="#666666">[BASE TABLE]</text>
<polygon fill="none" stroke="#000000" points="572,-72.5 572,-102.5 1008,-102.5 1008,-72.5 572,-72.5"/>
<text text-anchor="start" x="579" y="-83.9" font-family="Arial" font-size="14.00" fill="#000000">koodi </text>
<text text-anchor="start" x="616.345" y="-83.9" font-family="Arial" font-size="14.00" fill="#666666">[text]</text>
<polygon fill="none" stroke="#000000" points="572,-42.5 572,-72.5 1008,-72.5 1008,-42.5 572,-42.5"/>
<text text-anchor="start" x="579" y="-53.9" font-family="Arial" font-size="14.00" fill="#000000">selite </text>
<text text-anchor="start" x="615.5596" y="-53.9" font-family="Arial" font-size="14.00" fill="#666666">[text]</text>
</g>
<!-- jkr.rakennus&#45;&gt;jkr_koodistot.rakennuksenkayttotarkoitus -->
<g id="edge5" class="edge">
<title>jkr.rakennus:rakennuksenkayttotarkoitus_koodi&#45;&gt;jkr_koodistot.rakennuksenkayttotarkoitus:koodi</title>
<path fill="none" stroke="#000000" d="M902.8712,-366.6658C849.2976,-357.1803 877.0739,-269.0333 913,-217 938.6543,-179.8439 982.3457,-218.1561 1008,-181 1031.6108,-146.8036 1049.5556,-87.5 1008,-87.5"/>
<polygon fill="#000000" stroke="#000000" points="903.0337,-366.6791 912.6306,-371.9848 908.0169,-367.0895 913,-367.5 913,-367.5 913,-367.5 908.0169,-367.0895 913.3694,-363.0152 903.0337,-366.6791 903.0337,-366.6791"/>
<text text-anchor="start" x="103.8465" y="-377.5" font-family="Arial" font-size="10.00" fill="#000000">FOREIGN KEY (rakennuksenkayttotarkoitus_koodi) REFERENCES jkr_koodistot.rakennuksenkayttotarkoitus(koodi) MATCH FULL ON UPDATE CASCADE ON DELETE CASCADE</text>
</g>
<!-- jkr_koodistot.rakennuksenolotila -->
<g id="node7" class="node">
<title>jkr_koodistot.rakennuksenolotila</title>
<polygon fill="#efefef" stroke="transparent" points="1113,-102.5 1113,-137.5 1480,-137.5 1480,-102.5 1113,-102.5"/>
<polygon fill="none" stroke="#000000" points="1113,-102.5 1113,-137.5 1480,-137.5 1480,-102.5 1113,-102.5"/>
<text text-anchor="start" x="1119.8445" y="-115.3" font-family="Arial Bold" font-size="18.00" fill="#000000">jkr_koodistot.rakennuksenolotila</text>
<text text-anchor="start" x="1375.9017" y="-115.3" font-family="Arial" font-size="14.00" fill="#000000"> </text>
<text text-anchor="start" x="1379.7923" y="-115.3" font-family="Arial" font-size="14.00" fill="#666666">[BASE TABLE]</text>
<polygon fill="none" stroke="#000000" points="1113,-72.5 1113,-102.5 1480,-102.5 1480,-72.5 1113,-72.5"/>
<text text-anchor="start" x="1120" y="-83.9" font-family="Arial" font-size="14.00" fill="#000000">koodi </text>
<text text-anchor="start" x="1157.345" y="-83.9" font-family="Arial" font-size="14.00" fill="#666666">[text]</text>
<polygon fill="none" stroke="#000000" points="1113,-42.5 1113,-72.5 1480,-72.5 1480,-42.5 1113,-42.5"/>
<text text-anchor="start" x="1120" y="-53.9" font-family="Arial" font-size="14.00" fill="#000000">selite </text>
<text text-anchor="start" x="1156.5596" y="-53.9" font-family="Arial" font-size="14.00" fill="#666666">[text]</text>
</g>
<!-- jkr.rakennus&#45;&gt;jkr_koodistot.rakennuksenolotila -->
<g id="edge6" class="edge">
<title>jkr.rakennus:rakennuksenolotila_koodi&#45;&gt;jkr_koodistot.rakennuksenolotila:koodi</title>
<path fill="none" stroke="#000000" d="M1182.1255,-336.4405C1221.7161,-327.2561 1196.37,-260.4182 1172,-217 1156.9648,-190.2129 1128.0352,-207.7871 1113,-181 1092.6604,-144.7624 1071.4444,-87.5 1113,-87.5"/>
<polygon fill="#000000" stroke="#000000" points="1181.9457,-336.4593 1171.5317,-333.0244 1176.9729,-336.9796 1172,-337.5 1172,-337.5 1172,-337.5 1176.9729,-336.9796 1172.4683,-341.9756 1181.9457,-336.4593 1181.9457,-336.4593"/>
<text text-anchor="start" x="1179.1925" y="-347.5" font-family="Arial" font-size="10.00" fill="#000000">FOREIGN KEY (rakennuksenolotila_koodi) REFERENCES jkr_koodistot.rakennuksenolotila(koodi) MATCH FULL ON UPDATE CASCADE ON DELETE CASCADE</text>
</g>
<!-- jkr.osoite -->
<g id="node2" class="node">
<title>jkr.osoite</title>
<polygon fill="#efefef" stroke="transparent" points="392,-872.5 392,-907.5 577,-907.5 577,-872.5 392,-872.5"/>
<polygon fill="none" stroke="#000000" points="392,-872.5 392,-907.5 577,-907.5 577,-872.5 392,-872.5"/>
<text text-anchor="start" x="399.8713" y="-885.3" font-family="Arial Bold" font-size="18.00" fill="#000000">jkr.osoite</text>
<text text-anchor="start" x="471.8749" y="-885.3" font-family="Arial" font-size="14.00" fill="#000000"> </text>
<text text-anchor="start" x="475.7655" y="-885.3" font-family="Arial" font-size="14.00" fill="#666666">[BASE TABLE]</text>
<polygon fill="none" stroke="#000000" points="392,-842.5 392,-872.5 577,-872.5 577,-842.5 392,-842.5"/>
<text text-anchor="start" x="399" y="-853.9" font-family="Arial" font-size="14.00" fill="#000000">id </text>
<text text-anchor="start" x="413.7798" y="-853.9" font-family="Arial" font-size="14.00" fill="#666666">[integer]</text>
<polygon fill="none" stroke="#000000" points="392,-812.5 392,-842.5 577,-842.5 577,-812.5 392,-812.5"/>
<text text-anchor="start" x="399" y="-823.9" font-family="Arial" font-size="14.00" fill="#000000">osoitenumero </text>
<text text-anchor="start" x="487.6872" y="-823.9" font-family="Arial" font-size="14.00" fill="#666666">[text]</text>
<polygon fill="none" stroke="#000000" points="392,-782.5 392,-812.5 577,-812.5 577,-782.5 392,-782.5"/>
<text text-anchor="start" x="399" y="-793.9" font-family="Arial" font-size="14.00" fill="#000000">katu_id </text>
<text text-anchor="start" x="448.0182" y="-793.9" font-family="Arial" font-size="14.00" fill="#666666">[integer]</text>
<polygon fill="none" stroke="#000000" points="392,-752.5 392,-782.5 577,-782.5 577,-752.5 392,-752.5"/>
<text text-anchor="start" x="399" y="-763.9" font-family="Arial" font-size="14.00" fill="#000000">rakennus_id </text>
<text text-anchor="start" x="479.136" y="-763.9" font-family="Arial" font-size="14.00" fill="#666666">[integer]</text>
<polygon fill="none" stroke="#000000" points="392,-722.5 392,-752.5 577,-752.5 577,-722.5 392,-722.5"/>
<text text-anchor="start" x="398.5428" y="-733.9" font-family="Arial" font-size="14.00" fill="#000000">posti_numero </text>
<text text-anchor="start" x="487.23" y="-733.9" font-family="Arial" font-size="14.00" fill="#666666">[character(5)]</text>
</g>
<!-- jkr.osoite&#45;&gt;jkr.rakennus -->
<g id="edge1" class="edge">
<title>jkr.osoite:rakennus_id&#45;&gt;jkr.rakennus:id</title>
<path fill="none" stroke="#000000" d="M587.0874,-766.2865C617.771,-757.8709 597.5922,-707.7166 628,-680 731.2359,-585.9007 773.3134,-547.5 913,-547.5"/>
<polygon fill="#000000" stroke="#000000" points="586.9284,-766.3056 576.4625,-763.0322 581.9642,-766.9028 577,-767.5 577,-767.5 577,-767.5 581.9642,-766.9028 577.5375,-771.9678 586.9284,-766.3056 586.9284,-766.3056"/>
<text text-anchor="start" x="7.3275" y="-777.5" font-family="Arial" font-size="10.00" fill="#000000">FOREIGN KEY (rakennus_id) REFERENCES jkr.rakennus(id) MATCH FULL ON UPDATE CASCADE ON DELETE CASCADE</text>
</g>
<!-- jkr.kohteen_rakennukset -->
<g id="node3" class="node">
<title>jkr.kohteen_rakennukset</title>
<polygon fill="#efefef" stroke="transparent" points="681,-827.5 681,-862.5 988,-862.5 988,-827.5 681,-827.5"/>
<polygon fill="none" stroke="#000000" points="681,-827.5 681,-862.5 988,-862.5 988,-827.5 681,-827.5"/>
<text text-anchor="start" x="687.8433" y="-840.3" font-family="Arial Bold" font-size="18.00" fill="#000000">jkr.kohteen_rakennukset</text>
<text text-anchor="start" x="883.9029" y="-840.3" font-family="Arial" font-size="14.00" fill="#000000"> </text>
<text text-anchor="start" x="887.7935" y="-840.3" font-family="Arial" font-size="14.00" fill="#666666">[BASE TABLE]</text>
<polygon fill="none" stroke="#000000" points="681,-797.5 681,-827.5 988,-827.5 988,-797.5 681,-797.5"/>
<text text-anchor="start" x="688" y="-808.9" font-family="Arial" font-size="14.00" fill="#000000">rakennus_id </text>
<text text-anchor="start" x="768.136" y="-808.9" font-family="Arial" font-size="14.00" fill="#666666">[integer]</text>
<polygon fill="none" stroke="#000000" points="681,-767.5 681,-797.5 988,-797.5 988,-767.5 681,-767.5"/>
<text text-anchor="start" x="688" y="-778.9" font-family="Arial" font-size="14.00" fill="#000000">kohde_id </text>
<text text-anchor="start" x="748.6928" y="-778.9" font-family="Arial" font-size="14.00" fill="#666666">[integer]</text>
</g>
<!-- jkr.kohteen_rakennukset&#45;&gt;jkr.rakennus -->
<g id="edge2" class="edge">
<title>jkr.kohteen_rakennukset:rakennus_id&#45;&gt;jkr.rakennus:id</title>
<path fill="none" stroke="#000000" d="M997.9588,-810.9823C1021.9801,-802.2369 1000.7478,-757.5307 988,-725 970.0993,-679.3198 930.9007,-689.6802 913,-644 897.3517,-604.0677 870.1111,-547.5 913,-547.5"/>
<polygon fill="#000000" stroke="#000000" points="997.8859,-810.9934 987.322,-808.0514 992.9429,-811.7467 988,-812.5 988,-812.5 988,-812.5 992.9429,-811.7467 988.678,-816.9486 997.8859,-810.9934 997.8859,-810.9934"/>
<text text-anchor="start" x="995.3275" y="-822.5" font-family="Arial" font-size="10.00" fill="#000000">FOREIGN KEY (rakennus_id) REFERENCES jkr.rakennus(id) MATCH FULL ON UPDATE CASCADE ON DELETE CASCADE</text>
</g>
<!-- jkr.rakennuksen_omistajat -->
<g id="node4" class="node">
<title>jkr.rakennuksen_omistajat</title>
<polygon fill="#efefef" stroke="transparent" points="1092,-827.5 1092,-862.5 1412,-862.5 1412,-827.5 1092,-827.5"/>
<polygon fill="none" stroke="#000000" points="1092,-827.5 1092,-862.5 1412,-862.5 1412,-827.5 1092,-827.5"/>
<text text-anchor="start" x="1098.8561" y="-840.3" font-family="Arial Bold" font-size="18.00" fill="#000000">jkr.rakennuksen_omistajat</text>
<text text-anchor="start" x="1307.8901" y="-840.3" font-family="Arial" font-size="14.00" fill="#000000"> </text>
<text text-anchor="start" x="1311.7807" y="-840.3" font-family="Arial" font-size="14.00" fill="#666666">[BASE TABLE]</text>
<polygon fill="none" stroke="#000000" points="1092,-797.5 1092,-827.5 1412,-827.5 1412,-797.5 1092,-797.5"/>
<text text-anchor="start" x="1099" y="-808.9" font-family="Arial" font-size="14.00" fill="#000000">rakennus_id </text>
<text text-anchor="start" x="1179.136" y="-808.9" font-family="Arial" font-size="14.00" fill="#666666">[integer]</text>
<polygon fill="none" stroke="#000000" points="1092,-767.5 1092,-797.5 1412,-797.5 1412,-767.5 1092,-767.5"/>
<text text-anchor="start" x="1099" y="-778.9" font-family="Arial" font-size="14.00" fill="#000000">osapuoli_id </text>
<text text-anchor="start" x="1173.6886" y="-778.9" font-family="Arial" font-size="14.00" fill="#666666">[integer]</text>
</g>
<!-- jkr.rakennuksen_omistajat&#45;&gt;jkr.rakennus -->
<g id="edge3" class="edge">
<title>jkr.rakennuksen_omistajat:rakennus_id&#45;&gt;jkr.rakennus:id</title>
<path fill="none" stroke="#000000" d="M1082.025,-810.9758C1057.9137,-802.1943 1078.7296,-757.321 1092,-725 1111.2179,-678.1933 1152.7821,-690.8067 1172,-644 1188.2897,-604.3251 1214.8889,-547.5 1172,-547.5"/>
<polygon fill="#000000" stroke="#000000" points="1082.1147,-810.9895 1091.3203,-816.9484 1087.0574,-811.7447 1092,-812.5 1092,-812.5 1092,-812.5 1087.0574,-811.7447 1092.6797,-808.0516 1082.1147,-810.9895 1082.1147,-810.9895"/>
<text text-anchor="start" x="1099.3275" y="-796.5" font-family="Arial" font-size="10.00" fill="#000000">FOREIGN KEY (rakennus_id) REFERENCES jkr.rakennus(id) MATCH FULL ON UPDATE CASCADE ON DELETE CASCADE</text>
</g>
<!-- jkr.kohteen_rakennusehdokkaat -->
<g id="node5" class="node">
<title>jkr.kohteen_rakennusehdokkaat</title>
<polygon fill="#efefef" stroke="transparent" points="1516,-827.5 1516,-862.5 1882,-862.5 1882,-827.5 1516,-827.5"/>
<polygon fill="none" stroke="#000000" points="1516,-827.5 1516,-862.5 1882,-862.5 1882,-827.5 1516,-827.5"/>
<text text-anchor="start" x="1522.8278" y="-840.3" font-family="Arial Bold" font-size="18.00" fill="#000000">jkr.kohteen_rakennusehdokkaat</text>
<text text-anchor="start" x="1777.9184" y="-840.3" font-family="Arial" font-size="14.00" fill="#000000"> </text>
<text text-anchor="start" x="1781.809" y="-840.3" font-family="Arial" font-size="14.00" fill="#666666">[BASE TABLE]</text>
<polygon fill="none" stroke="#000000" points="1516,-797.5 1516,-827.5 1882,-827.5 1882,-797.5 1516,-797.5"/>
<text text-anchor="start" x="1523" y="-808.9" font-family="Arial" font-size="14.00" fill="#000000">kohde_id </text>
<text text-anchor="start" x="1583.6928" y="-808.9" font-family="Arial" font-size="14.00" fill="#666666">[integer]</text>
<polygon fill="none" stroke="#000000" points="1516,-767.5 1516,-797.5 1882,-797.5 1882,-767.5 1516,-767.5"/>
<text text-anchor="start" x="1523" y="-778.9" font-family="Arial" font-size="14.00" fill="#000000">rakennus_id </text>
<text text-anchor="start" x="1603.136" y="-778.9" font-family="Arial" font-size="14.00" fill="#666666">[integer]</text>
</g>
<!-- jkr.kohteen_rakennusehdokkaat&#45;&gt;jkr.rakennus -->
<g id="edge4" class="edge">
<title>jkr.kohteen_rakennusehdokkaat:rakennus_id&#45;&gt;jkr.rakennus:id</title>
<path fill="none" stroke="#000000" d="M1505.9995,-781.4304C1469.8568,-772.7044 1498.1594,-712.7048 1464,-680 1361.0597,-581.4431 1314.5138,-547.5 1172,-547.5"/>
<polygon fill="#000000" stroke="#000000" points="1506.0567,-781.4365 1515.5214,-786.9745 1511.0284,-781.9682 1516,-782.5 1516,-782.5 1516,-782.5 1511.0284,-781.9682 1516.4786,-778.0255 1506.0567,-781.4365 1506.0567,-781.4365"/>
<text text-anchor="start" x="1523.3275" y="-766.5" font-family="Arial" font-size="10.00" fill="#000000">FOREIGN KEY (rakennus_id) REFERENCES jkr.rakennus(id) MATCH FULL ON UPDATE CASCADE ON DELETE CASCADE</text>
</g>
</g>
</svg>
