<?xml version="1.0" encoding="UTF-8" standalone="no"?>
<!DOCTYPE svg PUBLIC "-//W3C//DTD SVG 1.1//EN"
 "http://www.w3.org/Graphics/SVG/1.1/DTD/svg11.dtd">
<!-- Generated by graphviz version 2.40.1 (20161225.0304)
 -->
<!-- Title: jkr.kohde Pages: 1 -->
<svg width="3045pt" height="1019pt"
 viewBox="0.00 0.00 3045.00 1019.00" xmlns="http://www.w3.org/2000/svg" xmlns:xlink="http://www.w3.org/1999/xlink">
<g id="graph0" class="graph" transform="scale(1 1) rotate(0) translate(4 1015)">
<title>jkr.kohde</title>
<polygon fill="#ffffff" stroke="transparent" points="-4,4 -4,-1015 3041,-1015 3041,4 -4,4"/>
<!-- jkr.kohde -->
<g id="node1" class="node">
<title>jkr.kohde</title>
<polygon fill="#efefef" stroke="transparent" points="1139,-472.5 1139,-507.5 1352,-507.5 1352,-472.5 1139,-472.5"/>
<polygon fill="none" stroke="#000000" points="1139,-472.5 1139,-507.5 1352,-507.5 1352,-472.5 1139,-472.5"/>
<text text-anchor="start" x="1160.3664" y="-485.3" font-family="Arial Bold" font-size="18.00" fill="#000000">jkr.kohde</text>
<text text-anchor="start" x="1233.3798" y="-485.3" font-family="Arial" font-size="14.00" fill="#000000"> </text>
<text text-anchor="start" x="1237.2704" y="-485.3" font-family="Arial" font-size="14.00" fill="#666666">[BASE TABLE]</text>
<polygon fill="none" stroke="#000000" points="1139,-442.5 1139,-472.5 1352,-472.5 1352,-442.5 1139,-442.5"/>
<text text-anchor="start" x="1146" y="-453.9" font-family="Arial" font-size="14.00" fill="#000000">id </text>
<text text-anchor="start" x="1160.7798" y="-453.9" font-family="Arial" font-size="14.00" fill="#666666">[integer]</text>
<polygon fill="none" stroke="#000000" points="1139,-412.5 1139,-442.5 1352,-442.5 1352,-412.5 1139,-412.5"/>
<text text-anchor="start" x="1146" y="-423.9" font-family="Arial" font-size="14.00" fill="#000000">nimi </text>
<text text-anchor="start" x="1175.547" y="-423.9" font-family="Arial" font-size="14.00" fill="#666666">[text]</text>
<polygon fill="none" stroke="#000000" points="1139,-382.5 1139,-412.5 1352,-412.5 1352,-382.5 1139,-382.5"/>
<text text-anchor="start" x="1145.5309" y="-393.9" font-family="Arial" font-size="14.00" fill="#000000">geom </text>
<text text-anchor="start" x="1184.4299" y="-393.9" font-family="Arial" font-size="14.00" fill="#666666">[geometry(Polygon,3067)]</text>
<polygon fill="none" stroke="#000000" points="1139,-352.5 1139,-382.5 1352,-382.5 1352,-352.5 1139,-352.5"/>
<text text-anchor="start" x="1146" y="-363.9" font-family="Arial" font-size="14.00" fill="#000000">alkupvm </text>
<text text-anchor="start" x="1202.0056" y="-363.9" font-family="Arial" font-size="14.00" fill="#666666">[date]</text>
<polygon fill="none" stroke="#000000" points="1139,-322.5 1139,-352.5 1352,-352.5 1352,-322.5 1139,-322.5"/>
<text text-anchor="start" x="1146" y="-333.9" font-family="Arial" font-size="14.00" fill="#000000">loppupvm </text>
<text text-anchor="start" x="1210.5708" y="-333.9" font-family="Arial" font-size="14.00" fill="#666666">[date]</text>
<polygon fill="none" stroke="#000000" points="1139,-292.5 1139,-322.5 1352,-322.5 1352,-292.5 1139,-292.5"/>
<text text-anchor="start" x="1146" y="-303.9" font-family="Arial" font-size="14.00" fill="#000000">voimassaolo </text>
<text text-anchor="start" x="1227.6774" y="-303.9" font-family="Arial" font-size="14.00" fill="#666666">[daterange]</text>
<polygon fill="none" stroke="#000000" points="1139,-262.5 1139,-292.5 1352,-292.5 1352,-262.5 1139,-262.5"/>
<text text-anchor="start" x="1146" y="-273.9" font-family="Arial" font-size="14.00" fill="#000000">kohdetyyppi_id </text>
<text text-anchor="start" x="1243.2552" y="-273.9" font-family="Arial" font-size="14.00" fill="#666666">[integer]</text>
<polygon fill="none" stroke="#000000" stroke-width="3" points="1137,-261.5 1137,-509.5 1353,-509.5 1353,-261.5 1137,-261.5"/>
</g>
<!-- jkr_koodistot.kohdetyyppi -->
<g id="node9" class="node">
<title>jkr_koodistot.kohdetyyppi</title>
<polygon fill="#efefef" stroke="transparent" points="1089,-102.5 1089,-137.5 1402,-137.5 1402,-102.5 1089,-102.5"/>
<polygon fill="none" stroke="#000000" points="1089,-102.5 1089,-137.5 1402,-137.5 1402,-102.5 1089,-102.5"/>
<text text-anchor="start" x="1095.8472" y="-115.3" font-family="Arial Bold" font-size="18.00" fill="#000000">jkr_koodistot.kohdetyyppi</text>
<text text-anchor="start" x="1297.899" y="-115.3" font-family="Arial" font-size="14.00" fill="#000000"> </text>
<text text-anchor="start" x="1301.7896" y="-115.3" font-family="Arial" font-size="14.00" fill="#666666">[BASE TABLE]</text>
<polygon fill="none" stroke="#000000" points="1089,-72.5 1089,-102.5 1402,-102.5 1402,-72.5 1089,-72.5"/>
<text text-anchor="start" x="1096" y="-83.9" font-family="Arial" font-size="14.00" fill="#000000">id </text>
<text text-anchor="start" x="1110.7798" y="-83.9" font-family="Arial" font-size="14.00" fill="#666666">[integer]</text>
<polygon fill="none" stroke="#000000" points="1089,-42.5 1089,-72.5 1402,-72.5 1402,-42.5 1089,-42.5"/>
<text text-anchor="start" x="1096" y="-53.9" font-family="Arial" font-size="14.00" fill="#000000">selite </text>
<text text-anchor="start" x="1132.5596" y="-53.9" font-family="Arial" font-size="14.00" fill="#666666">[text]</text>
</g>
<!-- jkr.kohde&#45;&gt;jkr_koodistot.kohdetyyppi -->
<g id="edge9" class="edge">
<title>jkr.kohde:kohdetyyppi_id&#45;&gt;jkr_koodistot.kohdetyyppi:id</title>
<path fill="none" stroke="#000000" d="M1245.2539,-252.3581C1235.2741,-189.6207 1127.9105,-245.0396 1089,-181 1067.4217,-145.486 1047.4444,-87.5 1089,-87.5"/>
<polygon fill="#000000" stroke="#000000" points="1245.2663,-252.5269 1241.5121,-262.8302 1245.6331,-257.5135 1246,-262.5 1246,-262.5 1246,-262.5 1245.6331,-257.5135 1250.4879,-262.1698 1245.2663,-252.5269 1245.2663,-252.5269"/>
<text text-anchor="start" x="1253.484" y="-272.5" font-family="Arial" font-size="10.00" fill="#000000">FOREIGN KEY (kohdetyyppi_id) REFERENCES jkr_koodistot.kohdetyyppi(id) MATCH FULL ON UPDATE CASCADE ON DELETE RESTRICT</text>
</g>
<!-- jkr.velvoite -->
<g id="node2" class="node">
<title>jkr.velvoite</title>
<polygon fill="#efefef" stroke="transparent" points="355,-827.5 355,-862.5 551,-862.5 551,-827.5 355,-827.5"/>
<polygon fill="none" stroke="#000000" points="355,-827.5 355,-862.5 551,-862.5 551,-827.5 355,-827.5"/>
<text text-anchor="start" x="361.8742" y="-840.3" font-family="Arial Bold" font-size="18.00" fill="#000000">jkr.velvoite</text>
<text text-anchor="start" x="446.872" y="-840.3" font-family="Arial" font-size="14.00" fill="#000000"> </text>
<text text-anchor="start" x="450.7626" y="-840.3" font-family="Arial" font-size="14.00" fill="#666666">[BASE TABLE]</text>
<polygon fill="none" stroke="#000000" points="355,-797.5 355,-827.5 551,-827.5 551,-797.5 355,-797.5"/>
<text text-anchor="start" x="362" y="-808.9" font-family="Arial" font-size="14.00" fill="#000000">id </text>
<text text-anchor="start" x="376.7798" y="-808.9" font-family="Arial" font-size="14.00" fill="#666666">[integer]</text>
<polygon fill="none" stroke="#000000" points="355,-767.5 355,-797.5 551,-797.5 551,-767.5 355,-767.5"/>
<text text-anchor="start" x="362" y="-778.9" font-family="Arial" font-size="14.00" fill="#000000">kohde_id </text>
<text text-anchor="start" x="422.6928" y="-778.9" font-family="Arial" font-size="14.00" fill="#666666">[integer]</text>
<polygon fill="none" stroke="#000000" points="355,-737.5 355,-767.5 551,-767.5 551,-737.5 355,-737.5"/>
<text text-anchor="start" x="362" y="-748.9" font-family="Arial" font-size="14.00" fill="#000000">velvoitemalli_id </text>
<text text-anchor="start" x="460.777" y="-748.9" font-family="Arial" font-size="14.00" fill="#666666">[integer]</text>
</g>
<!-- jkr.velvoite&#45;&gt;jkr.kohde -->
<g id="edge1" class="edge">
<title>jkr.velvoite:kohde_id&#45;&gt;jkr.kohde:id</title>
<path fill="none" stroke="#000000" d="M561.4073,-781.7929C631.3335,-771.4107 542.3864,-649.3248 603,-590 690.6867,-504.1777 1016.3035,-457.5 1139,-457.5"/>
<polygon fill="#000000" stroke="#000000" points="560.977,-781.822 550.6949,-778.0104 555.9885,-782.161 551,-782.5 551,-782.5 551,-782.5 555.9885,-782.161 551.3051,-786.9896 560.977,-781.822 560.977,-781.822"/>
<text text-anchor="start" x="7.386" y="-792.5" font-family="Arial" font-size="10.00" fill="#000000">FOREIGN KEY (kohde_id) REFERENCES jkr.kohde(id) MATCH FULL ON UPDATE CASCADE ON DELETE RESTRICT</text>
</g>
<!-- jkr.kuljetus -->
<g id="node3" class="node">
<title>jkr.kuljetus</title>
<polygon fill="#efefef" stroke="transparent" points="655,-932.5 655,-967.5 851,-967.5 851,-932.5 655,-932.5"/>
<polygon fill="none" stroke="#000000" points="655,-932.5 655,-967.5 851,-967.5 851,-932.5 655,-932.5"/>
<text text-anchor="start" x="661.8742" y="-945.3" font-family="Arial Bold" font-size="18.00" fill="#000000">jkr.kuljetus</text>
<text text-anchor="start" x="746.872" y="-945.3" font-family="Arial" font-size="14.00" fill="#000000"> </text>
<text text-anchor="start" x="750.7626" y="-945.3" font-family="Arial" font-size="14.00" fill="#666666">[BASE TABLE]</text>
<polygon fill="none" stroke="#000000" points="655,-902.5 655,-932.5 851,-932.5 851,-902.5 655,-902.5"/>
<text text-anchor="start" x="662" y="-913.9" font-family="Arial" font-size="14.00" fill="#000000">id </text>
<text text-anchor="start" x="676.7798" y="-913.9" font-family="Arial" font-size="14.00" fill="#666666">[integer]</text>
<polygon fill="none" stroke="#000000" points="655,-872.5 655,-902.5 851,-902.5 851,-872.5 655,-872.5"/>
<text text-anchor="start" x="662" y="-883.9" font-family="Arial" font-size="14.00" fill="#000000">alkupvm </text>
<text text-anchor="start" x="718.0056" y="-883.9" font-family="Arial" font-size="14.00" fill="#666666">[date]</text>
<polygon fill="none" stroke="#000000" points="655,-842.5 655,-872.5 851,-872.5 851,-842.5 655,-842.5"/>
<text text-anchor="start" x="662" y="-853.9" font-family="Arial" font-size="14.00" fill="#000000">loppupvm </text>
<text text-anchor="start" x="726.5708" y="-853.9" font-family="Arial" font-size="14.00" fill="#666666">[date]</text>
<polygon fill="none" stroke="#000000" points="655,-812.5 655,-842.5 851,-842.5 851,-812.5 655,-812.5"/>
<text text-anchor="start" x="662" y="-823.9" font-family="Arial" font-size="14.00" fill="#000000">tyhjennyskerrat </text>
<text text-anchor="start" x="760.7952" y="-823.9" font-family="Arial" font-size="14.00" fill="#666666">[smallint]</text>
<polygon fill="none" stroke="#000000" points="655,-782.5 655,-812.5 851,-812.5 851,-782.5 655,-782.5"/>
<text text-anchor="start" x="662" y="-793.9" font-family="Arial" font-size="14.00" fill="#000000">massa </text>
<text text-anchor="start" x="707.1164" y="-793.9" font-family="Arial" font-size="14.00" fill="#666666">[integer]</text>
<polygon fill="none" stroke="#000000" points="655,-752.5 655,-782.5 851,-782.5 851,-752.5 655,-752.5"/>
<text text-anchor="start" x="662" y="-763.9" font-family="Arial" font-size="14.00" fill="#000000">tilavuus </text>
<text text-anchor="start" x="713.3422" y="-763.9" font-family="Arial" font-size="14.00" fill="#666666">[integer]</text>
<polygon fill="none" stroke="#000000" points="655,-722.5 655,-752.5 851,-752.5 851,-722.5 655,-722.5"/>
<text text-anchor="start" x="662" y="-733.9" font-family="Arial" font-size="14.00" fill="#000000">aikavali </text>
<text text-anchor="start" x="712.5582" y="-733.9" font-family="Arial" font-size="14.00" fill="#666666">[daterange]</text>
<polygon fill="none" stroke="#000000" points="655,-692.5 655,-722.5 851,-722.5 851,-692.5 655,-692.5"/>
<text text-anchor="start" x="662" y="-703.9" font-family="Arial" font-size="14.00" fill="#000000">kohde_id </text>
<text text-anchor="start" x="722.6928" y="-703.9" font-family="Arial" font-size="14.00" fill="#666666">[integer]</text>
<polygon fill="none" stroke="#000000" points="655,-662.5 655,-692.5 851,-692.5 851,-662.5 655,-662.5"/>
<text text-anchor="start" x="662" y="-673.9" font-family="Arial" font-size="14.00" fill="#000000">jatetyyppi_id </text>
<text text-anchor="start" x="743.6872" y="-673.9" font-family="Arial" font-size="14.00" fill="#666666">[integer]</text>
<polygon fill="none" stroke="#000000" points="655,-632.5 655,-662.5 851,-662.5 851,-632.5 655,-632.5"/>
<text text-anchor="start" x="662" y="-643.9" font-family="Arial" font-size="14.00" fill="#000000">tiedontuottaja_tunnus </text>
<text text-anchor="start" x="799.7306" y="-643.9" font-family="Arial" font-size="14.00" fill="#666666">[text]</text>
</g>
<!-- jkr.kuljetus&#45;&gt;jkr.kohde -->
<g id="edge2" class="edge">
<title>jkr.kuljetus:kohde_id&#45;&gt;jkr.kohde:id</title>
<path fill="none" stroke="#000000" d="M861.099,-706.5362C902.6881,-697.6516 867.1318,-629.4461 903,-590 983.9256,-501.0021 1018.7104,-457.5 1139,-457.5"/>
<polygon fill="#000000" stroke="#000000" points="860.9548,-706.5499 850.5725,-703.0204 855.9774,-707.0249 851,-707.5 851,-707.5 851,-707.5 855.9774,-707.0249 851.4275,-711.9796 860.9548,-706.5499 860.9548,-706.5499"/>
<text text-anchor="start" x="309.2155" y="-691.5" font-family="Arial" font-size="10.00" fill="#000000">FOREIGN KEY (kohde_id) REFERENCES jkr.kohde(id) MATCH FULL ON UPDATE CASCADE ON DELETE CASCADE</text>
</g>
<!-- jkr.sopimus -->
<g id="node4" class="node">
<title>jkr.sopimus</title>
<polygon fill="#efefef" stroke="transparent" points="956,-917.5 956,-952.5 1171,-952.5 1171,-917.5 956,-917.5"/>
<polygon fill="none" stroke="#000000" points="956,-917.5 956,-952.5 1171,-952.5 1171,-917.5 956,-917.5"/>
<text text-anchor="start" x="969.3763" y="-930.3" font-family="Arial Bold" font-size="18.00" fill="#000000">jkr.sopimus</text>
<text text-anchor="start" x="1060.3699" y="-930.3" font-family="Arial" font-size="14.00" fill="#000000"> </text>
<text text-anchor="start" x="1064.2605" y="-930.3" font-family="Arial" font-size="14.00" fill="#666666">[BASE TABLE]</text>
<polygon fill="none" stroke="#000000" points="956,-887.5 956,-917.5 1171,-917.5 1171,-887.5 956,-887.5"/>
<text text-anchor="start" x="963" y="-898.9" font-family="Arial" font-size="14.00" fill="#000000">id </text>
<text text-anchor="start" x="977.7798" y="-898.9" font-family="Arial" font-size="14.00" fill="#666666">[integer]</text>
<polygon fill="none" stroke="#000000" points="956,-857.5 956,-887.5 1171,-887.5 1171,-857.5 956,-857.5"/>
<text text-anchor="start" x="963" y="-868.9" font-family="Arial" font-size="14.00" fill="#000000">alkupvm </text>
<text text-anchor="start" x="1019.0056" y="-868.9" font-family="Arial" font-size="14.00" fill="#666666">[date]</text>
<polygon fill="none" stroke="#000000" points="956,-827.5 956,-857.5 1171,-857.5 1171,-827.5 956,-827.5"/>
<text text-anchor="start" x="963" y="-838.9" font-family="Arial" font-size="14.00" fill="#000000">loppupvm </text>
<text text-anchor="start" x="1027.5708" y="-838.9" font-family="Arial" font-size="14.00" fill="#666666">[date]</text>
<polygon fill="none" stroke="#000000" points="956,-797.5 956,-827.5 1171,-827.5 1171,-797.5 956,-797.5"/>
<text text-anchor="start" x="962.7476" y="-808.9" font-family="Arial" font-size="14.00" fill="#000000">kimppaisanta_kohde_id </text>
<text text-anchor="start" x="1113.683" y="-808.9" font-family="Arial" font-size="14.00" fill="#666666">[integer]</text>
<polygon fill="none" stroke="#000000" points="956,-767.5 956,-797.5 1171,-797.5 1171,-767.5 956,-767.5"/>
<text text-anchor="start" x="963" y="-778.9" font-family="Arial" font-size="14.00" fill="#000000">kohde_id </text>
<text text-anchor="start" x="1023.6928" y="-778.9" font-family="Arial" font-size="14.00" fill="#666666">[integer]</text>
<polygon fill="none" stroke="#000000" points="956,-737.5 956,-767.5 1171,-767.5 1171,-737.5 956,-737.5"/>
<text text-anchor="start" x="963" y="-748.9" font-family="Arial" font-size="14.00" fill="#000000">jatetyyppi_id </text>
<text text-anchor="start" x="1044.6872" y="-748.9" font-family="Arial" font-size="14.00" fill="#666666">[integer]</text>
<polygon fill="none" stroke="#000000" points="956,-707.5 956,-737.5 1171,-737.5 1171,-707.5 956,-707.5"/>
<text text-anchor="start" x="963" y="-718.9" font-family="Arial" font-size="14.00" fill="#000000">voimassaolo </text>
<text text-anchor="start" x="1044.6774" y="-718.9" font-family="Arial" font-size="14.00" fill="#666666">[daterange]</text>
<polygon fill="none" stroke="#000000" points="956,-677.5 956,-707.5 1171,-707.5 1171,-677.5 956,-677.5"/>
<text text-anchor="start" x="963" y="-688.9" font-family="Arial" font-size="14.00" fill="#000000">sopimustyyppi_id </text>
<text text-anchor="start" x="1074.2398" y="-688.9" font-family="Arial" font-size="14.00" fill="#666666">[smallint]</text>
<polygon fill="none" stroke="#000000" points="956,-647.5 956,-677.5 1171,-677.5 1171,-647.5 956,-647.5"/>
<text text-anchor="start" x="963" y="-658.9" font-family="Arial" font-size="14.00" fill="#000000">tiedontuottaja_tunnus </text>
<text text-anchor="start" x="1100.7306" y="-658.9" font-family="Arial" font-size="14.00" fill="#666666">[text]</text>
</g>
<!-- jkr.sopimus&#45;&gt;jkr.kohde -->
<g id="edge3" class="edge">
<title>jkr.sopimus:kimppaisanta_kohde_id&#45;&gt;jkr.kohde:id</title>
<path fill="none" stroke="#000000" d="M1181.0916,-811.9647C1258.0726,-803.2591 1195.5059,-690.1641 1171,-605 1163.6003,-579.2844 1146.3997,-579.7156 1139,-554 1127.14,-512.7835 1096.1111,-457.5 1139,-457.5"/>
<polygon fill="#000000" stroke="#000000" points="1180.986,-811.9702 1170.7616,-808.0063 1175.993,-812.2351 1171,-812.5 1171,-812.5 1171,-812.5 1175.993,-812.2351 1171.2384,-816.9937 1180.986,-811.9702 1180.986,-811.9702"/>
<text text-anchor="start" x="563.986" y="-822.5" font-family="Arial" font-size="10.00" fill="#000000">FOREIGN KEY (kimppaisanta_kohde_id) REFERENCES jkr.kohde(id) MATCH FULL ON UPDATE CASCADE ON DELETE CASCADE</text>
</g>
<!-- jkr.sopimus&#45;&gt;jkr.kohde -->
<g id="edge4" class="edge">
<title>jkr.sopimus:kohde_id&#45;&gt;jkr.kohde:id</title>
<path fill="none" stroke="#000000" d="M1181.2151,-781.8428C1244.6157,-773.0237 1191.7925,-677.259 1171,-605 1163.6003,-579.2844 1146.3997,-579.7156 1139,-554 1127.14,-512.7835 1096.1111,-457.5 1139,-457.5"/>
<polygon fill="#000000" stroke="#000000" points="1180.9794,-781.8579 1170.7111,-778.0093 1175.9897,-782.179 1171,-782.5 1171,-782.5 1171,-782.5 1175.9897,-782.179 1171.2889,-786.9907 1180.9794,-781.8579 1180.9794,-781.8579"/>
<text text-anchor="start" x="629.2155" y="-792.5" font-family="Arial" font-size="10.00" fill="#000000">FOREIGN KEY (kohde_id) REFERENCES jkr.kohde(id) MATCH FULL ON UPDATE CASCADE ON DELETE CASCADE</text>
</g>
<!-- jkr.ulkoinen_asiakastieto -->
<g id="node5" class="node">
<title>jkr.ulkoinen_asiakastieto</title>
<polygon fill="#efefef" stroke="transparent" points="1275,-857.5 1275,-892.5 1582,-892.5 1582,-857.5 1275,-857.5"/>
<polygon fill="none" stroke="#000000" points="1275,-857.5 1275,-892.5 1582,-892.5 1582,-857.5 1275,-857.5"/>
<text text-anchor="start" x="1281.8541" y="-870.3" font-family="Arial Bold" font-size="18.00" fill="#000000">jkr.ulkoinen_asiakastieto</text>
<text text-anchor="start" x="1477.8921" y="-870.3" font-family="Arial" font-size="14.00" fill="#000000"> </text>
<text text-anchor="start" x="1481.7827" y="-870.3" font-family="Arial" font-size="14.00" fill="#666666">[BASE TABLE]</text>
<polygon fill="none" stroke="#000000" points="1275,-827.5 1275,-857.5 1582,-857.5 1582,-827.5 1275,-827.5"/>
<text text-anchor="start" x="1282" y="-838.9" font-family="Arial" font-size="14.00" fill="#000000">id </text>
<text text-anchor="start" x="1296.7798" y="-838.9" font-family="Arial" font-size="14.00" fill="#666666">[integer]</text>
<polygon fill="none" stroke="#000000" points="1275,-797.5 1275,-827.5 1582,-827.5 1582,-797.5 1275,-797.5"/>
<text text-anchor="start" x="1282" y="-808.9" font-family="Arial" font-size="14.00" fill="#000000">tiedontuottaja_tunnus </text>
<text text-anchor="start" x="1419.7306" y="-808.9" font-family="Arial" font-size="14.00" fill="#666666">[text]</text>
<polygon fill="none" stroke="#000000" points="1275,-767.5 1275,-797.5 1582,-797.5 1582,-767.5 1275,-767.5"/>
<text text-anchor="start" x="1282" y="-778.9" font-family="Arial" font-size="14.00" fill="#000000">ulkoinen_id </text>
<text text-anchor="start" x="1356.6886" y="-778.9" font-family="Arial" font-size="14.00" fill="#666666">[text]</text>
<polygon fill="none" stroke="#000000" points="1275,-737.5 1275,-767.5 1582,-767.5 1582,-737.5 1275,-737.5"/>
<text text-anchor="start" x="1282" y="-748.9" font-family="Arial" font-size="14.00" fill="#000000">kohde_id </text>
<text text-anchor="start" x="1342.6928" y="-748.9" font-family="Arial" font-size="14.00" fill="#666666">[integer]</text>
<polygon fill="none" stroke="#000000" points="1275,-707.5 1275,-737.5 1582,-737.5 1582,-707.5 1275,-707.5"/>
<text text-anchor="start" x="1282" y="-718.9" font-family="Arial" font-size="14.00" fill="#000000">ulkoinen_asiakastieto </text>
<text text-anchor="start" x="1419.7068" y="-718.9" font-family="Arial" font-size="14.00" fill="#666666">[jsonb]</text>
</g>
<!-- jkr.ulkoinen_asiakastieto&#45;&gt;jkr.kohde -->
<g id="edge5" class="edge">
<title>jkr.ulkoinen_asiakastieto:kohde_id&#45;&gt;jkr.kohde:id</title>
<path fill="none" stroke="#000000" d="M1264.8073,-750.8933C1241.6904,-742.0194 1264.612,-698.2001 1275,-665 1292.9291,-607.6983 1334.0709,-611.3017 1352,-554 1364.8072,-513.068 1394.8889,-457.5 1352,-457.5"/>
<polygon fill="#000000" stroke="#000000" points="1265.122,-750.9428 1274.2993,-756.9451 1270.061,-751.7214 1275,-752.5 1275,-752.5 1275,-752.5 1270.061,-751.7214 1275.7007,-748.0549 1265.122,-750.9428 1265.122,-750.9428"/>
<text text-anchor="start" x="1007.7155" y="-736.5" font-family="Arial" font-size="10.00" fill="#000000">FOREIGN KEY (kohde_id) REFERENCES jkr.kohde(id) MATCH FULL ON UPDATE CASCADE ON DELETE CASCADE</text>
</g>
<!-- jkr.kohteen_osapuolet -->
<g id="node6" class="node">
<title>jkr.kohteen_osapuolet</title>
<polygon fill="#efefef" stroke="transparent" points="1686,-827.5 1686,-862.5 1973,-862.5 1973,-827.5 1686,-827.5"/>
<polygon fill="none" stroke="#000000" points="1686,-827.5 1686,-862.5 1973,-862.5 1973,-827.5 1686,-827.5"/>
<text text-anchor="start" x="1692.8423" y="-840.3" font-family="Arial Bold" font-size="18.00" fill="#000000">jkr.kohteen_osapuolet</text>
<text text-anchor="start" x="1868.9039" y="-840.3" font-family="Arial" font-size="14.00" fill="#000000"> </text>
<text text-anchor="start" x="1872.7945" y="-840.3" font-family="Arial" font-size="14.00" fill="#666666">[BASE TABLE]</text>
<polygon fill="none" stroke="#000000" points="1686,-797.5 1686,-827.5 1973,-827.5 1973,-797.5 1686,-797.5"/>
<text text-anchor="start" x="1693" y="-808.9" font-family="Arial" font-size="14.00" fill="#000000">kohde_id </text>
<text text-anchor="start" x="1753.6928" y="-808.9" font-family="Arial" font-size="14.00" fill="#666666">[integer]</text>
<polygon fill="none" stroke="#000000" points="1686,-767.5 1686,-797.5 1973,-797.5 1973,-767.5 1686,-767.5"/>
<text text-anchor="start" x="1693" y="-778.9" font-family="Arial" font-size="14.00" fill="#000000">osapuoli_id </text>
<text text-anchor="start" x="1767.6886" y="-778.9" font-family="Arial" font-size="14.00" fill="#666666">[integer]</text>
<polygon fill="none" stroke="#000000" points="1686,-737.5 1686,-767.5 1973,-767.5 1973,-737.5 1686,-737.5"/>
<text text-anchor="start" x="1693" y="-748.9" font-family="Arial" font-size="14.00" fill="#000000">osapuolenrooli_id </text>
<text text-anchor="start" x="1806.5862" y="-748.9" font-family="Arial" font-size="14.00" fill="#666666">[smallint]</text>
</g>
<!-- jkr.kohteen_osapuolet&#45;&gt;jkr.kohde -->
<g id="edge6" class="edge">
<title>jkr.kohteen_osapuolet:kohde_id&#45;&gt;jkr.kohde:id</title>
<path fill="none" stroke="#000000" d="M1675.8154,-811.9475C1592.4137,-802.2091 1695.5922,-666.077 1634,-590 1546.8643,-482.3723 1490.4787,-457.5 1352,-457.5"/>
<polygon fill="#000000" stroke="#000000" points="1676.0147,-811.9582 1685.7562,-816.9934 1681.0073,-812.2291 1686,-812.5 1686,-812.5 1686,-812.5 1681.0073,-812.2291 1686.2438,-808.0066 1676.0147,-811.9582 1676.0147,-811.9582"/>
<text text-anchor="start" x="1418.7155" y="-796.5" font-family="Arial" font-size="10.00" fill="#000000">FOREIGN KEY (kohde_id) REFERENCES jkr.kohde(id) MATCH FULL ON UPDATE CASCADE ON DELETE CASCADE</text>
</g>
<!-- jkr.kohteen_rakennukset -->
<g id="node7" class="node">
<title>jkr.kohteen_rakennukset</title>
<polygon fill="#efefef" stroke="transparent" points="2077,-812.5 2077,-847.5 2384,-847.5 2384,-812.5 2077,-812.5"/>
<polygon fill="none" stroke="#000000" points="2077,-812.5 2077,-847.5 2384,-847.5 2384,-812.5 2077,-812.5"/>
<text text-anchor="start" x="2083.8433" y="-825.3" font-family="Arial Bold" font-size="18.00" fill="#000000">jkr.kohteen_rakennukset</text>
<text text-anchor="start" x="2279.9029" y="-825.3" font-family="Arial" font-size="14.00" fill="#000000"> </text>
<text text-anchor="start" x="2283.7935" y="-825.3" font-family="Arial" font-size="14.00" fill="#666666">[BASE TABLE]</text>
<polygon fill="none" stroke="#000000" points="2077,-782.5 2077,-812.5 2384,-812.5 2384,-782.5 2077,-782.5"/>
<text text-anchor="start" x="2084" y="-793.9" font-family="Arial" font-size="14.00" fill="#000000">rakennus_id </text>
<text text-anchor="start" x="2164.136" y="-793.9" font-family="Arial" font-size="14.00" fill="#666666">[integer]</text>
<polygon fill="none" stroke="#000000" points="2077,-752.5 2077,-782.5 2384,-782.5 2384,-752.5 2077,-752.5"/>
<text text-anchor="start" x="2084" y="-763.9" font-family="Arial" font-size="14.00" fill="#000000">kohde_id </text>
<text text-anchor="start" x="2144.6928" y="-763.9" font-family="Arial" font-size="14.00" fill="#666666">[integer]</text>
</g>
<!-- jkr.kohteen_rakennukset&#45;&gt;jkr.kohde -->
<g id="edge7" class="edge">
<title>jkr.kohteen_rakennukset:kohde_id&#45;&gt;jkr.kohde:id</title>
<path fill="none" stroke="#000000" d="M2066.9402,-766.7781C2002.6567,-756.6677 2082.973,-642.9455 2025,-590 1912.4484,-487.209 1504.4265,-457.5 1352,-457.5"/>
<polygon fill="#000000" stroke="#000000" points="2067.0256,-766.7842 2076.6779,-771.9885 2072.0128,-767.1421 2077,-767.5 2077,-767.5 2077,-767.5 2072.0128,-767.1421 2077.3221,-763.0115 2067.0256,-766.7842 2067.0256,-766.7842"/>
<text text-anchor="start" x="2084.2155" y="-777.5" font-family="Arial" font-size="10.00" fill="#000000">FOREIGN KEY (kohde_id) REFERENCES jkr.kohde(id) MATCH FULL ON UPDATE CASCADE ON DELETE CASCADE</text>
</g>
<!-- jkr.kohteen_rakennusehdokkaat -->
<g id="node8" class="node">
<title>jkr.kohteen_rakennusehdokkaat</title>
<polygon fill="#efefef" stroke="transparent" points="2488,-812.5 2488,-847.5 2854,-847.5 2854,-812.5 2488,-812.5"/>
<polygon fill="none" stroke="#000000" points="2488,-812.5 2488,-847.5 2854,-847.5 2854,-812.5 2488,-812.5"/>
<text text-anchor="start" x="2494.8278" y="-825.3" font-family="Arial Bold" font-size="18.00" fill="#000000">jkr.kohteen_rakennusehdokkaat</text>
<text text-anchor="start" x="2749.9184" y="-825.3" font-family="Arial" font-size="14.00" fill="#000000"> </text>
<text text-anchor="start" x="2753.809" y="-825.3" font-family="Arial" font-size="14.00" fill="#666666">[BASE TABLE]</text>
<polygon fill="none" stroke="#000000" points="2488,-782.5 2488,-812.5 2854,-812.5 2854,-782.5 2488,-782.5"/>
<text text-anchor="start" x="2495" y="-793.9" font-family="Arial" font-size="14.00" fill="#000000">kohde_id </text>
<text text-anchor="start" x="2555.6928" y="-793.9" font-family="Arial" font-size="14.00" fill="#666666">[integer]</text>
<polygon fill="none" stroke="#000000" points="2488,-752.5 2488,-782.5 2854,-782.5 2854,-752.5 2488,-752.5"/>
<text text-anchor="start" x="2495" y="-763.9" font-family="Arial" font-size="14.00" fill="#000000">rakennus_id </text>
<text text-anchor="start" x="2575.136" y="-763.9" font-family="Arial" font-size="14.00" fill="#666666">[integer]</text>
</g>
<!-- jkr.kohteen_rakennusehdokkaat&#45;&gt;jkr.kohde -->
<g id="edge8" class="edge">
<title>jkr.kohteen_rakennusehdokkaat:kohde_id&#45;&gt;jkr.kohde:id</title>
<path fill="none" stroke="#000000" d="M2477.7936,-796.8517C2401.5752,-786.3305 2504.4775,-650.4774 2436,-590 2345.051,-509.6764 1473.3409,-457.5 1352,-457.5"/>
<polygon fill="#000000" stroke="#000000" points="2478.0201,-796.866 2487.7147,-801.991 2483.0101,-797.183 2488,-797.5 2488,-797.5 2488,-797.5 2483.0101,-797.183 2488.2853,-793.009 2478.0201,-796.866 2478.0201,-796.866"/>
<text text-anchor="start" x="2495.2155" y="-807.5" font-family="Arial" font-size="10.00" fill="#000000">FOREIGN KEY (kohde_id) REFERENCES jkr.kohde(id) MATCH FULL ON UPDATE CASCADE ON DELETE CASCADE</text>
</g>
</g>
</svg>
