<?xml version="1.0" encoding="UTF-8" standalone="no"?>
<!DOCTYPE svg PUBLIC "-//W3C//DTD SVG 1.1//EN"
 "http://www.w3.org/Graphics/SVG/1.1/DTD/svg11.dtd">
<!-- Generated by graphviz version 2.40.1 (20161225.0304)
 -->
<!-- Title: jkr.sopimus Pages: 1 -->
<svg width="1841pt" height="1109pt"
 viewBox="0.00 0.00 1840.50 1109.00" xmlns="http://www.w3.org/2000/svg" xmlns:xlink="http://www.w3.org/1999/xlink">
<g id="graph0" class="graph" transform="scale(1 1) rotate(0) translate(4 1105)">
<title>jkr.sopimus</title>
<polygon fill="#ffffff" stroke="transparent" points="-4,4 -4,-1105 1836.5,-1105 1836.5,4 -4,4"/>
<!-- jkr.sopimus -->
<g id="node1" class="node">
<title>jkr.sopimus</title>
<polygon fill="#efefef" stroke="transparent" points="672,-682.5 672,-717.5 887,-717.5 887,-682.5 672,-682.5"/>
<polygon fill="none" stroke="#000000" points="672,-682.5 672,-717.5 887,-717.5 887,-682.5 672,-682.5"/>
<text text-anchor="start" x="685.3763" y="-695.3" font-family="Arial Bold" font-size="18.00" fill="#000000">jkr.sopimus</text>
<text text-anchor="start" x="776.3699" y="-695.3" font-family="Arial" font-size="14.00" fill="#000000"> </text>
<text text-anchor="start" x="780.2605" y="-695.3" font-family="Arial" font-size="14.00" fill="#666666">[BASE TABLE]</text>
<polygon fill="none" stroke="#000000" points="672,-652.5 672,-682.5 887,-682.5 887,-652.5 672,-652.5"/>
<text text-anchor="start" x="679" y="-663.9" font-family="Arial" font-size="14.00" fill="#000000">id </text>
<text text-anchor="start" x="693.7798" y="-663.9" font-family="Arial" font-size="14.00" fill="#666666">[integer]</text>
<polygon fill="none" stroke="#000000" points="672,-622.5 672,-652.5 887,-652.5 887,-622.5 672,-622.5"/>
<text text-anchor="start" x="679" y="-633.9" font-family="Arial" font-size="14.00" fill="#000000">alkupvm </text>
<text text-anchor="start" x="735.0056" y="-633.9" font-family="Arial" font-size="14.00" fill="#666666">[date]</text>
<polygon fill="none" stroke="#000000" points="672,-592.5 672,-622.5 887,-622.5 887,-592.5 672,-592.5"/>
<text text-anchor="start" x="679" y="-603.9" font-family="Arial" font-size="14.00" fill="#000000">loppupvm </text>
<text text-anchor="start" x="743.5708" y="-603.9" font-family="Arial" font-size="14.00" fill="#666666">[date]</text>
<polygon fill="none" stroke="#000000" points="672,-562.5 672,-592.5 887,-592.5 887,-562.5 672,-562.5"/>
<text text-anchor="start" x="678.7476" y="-573.9" font-family="Arial" font-size="14.00" fill="#000000">kimppaisanta_kohde_id </text>
<text text-anchor="start" x="829.683" y="-573.9" font-family="Arial" font-size="14.00" fill="#666666">[integer]</text>
<polygon fill="none" stroke="#000000" points="672,-532.5 672,-562.5 887,-562.5 887,-532.5 672,-532.5"/>
<text text-anchor="start" x="679" y="-543.9" font-family="Arial" font-size="14.00" fill="#000000">kohde_id </text>
<text text-anchor="start" x="739.6928" y="-543.9" font-family="Arial" font-size="14.00" fill="#666666">[integer]</text>
<polygon fill="none" stroke="#000000" points="672,-502.5 672,-532.5 887,-532.5 887,-502.5 672,-502.5"/>
<text text-anchor="start" x="679" y="-513.9" font-family="Arial" font-size="14.00" fill="#000000">jatetyyppi_id </text>
<text text-anchor="start" x="760.6872" y="-513.9" font-family="Arial" font-size="14.00" fill="#666666">[integer]</text>
<polygon fill="none" stroke="#000000" points="672,-472.5 672,-502.5 887,-502.5 887,-472.5 672,-472.5"/>
<text text-anchor="start" x="679" y="-483.9" font-family="Arial" font-size="14.00" fill="#000000">voimassaolo </text>
<text text-anchor="start" x="760.6774" y="-483.9" font-family="Arial" font-size="14.00" fill="#666666">[daterange]</text>
<polygon fill="none" stroke="#000000" points="672,-442.5 672,-472.5 887,-472.5 887,-442.5 672,-442.5"/>
<text text-anchor="start" x="679" y="-453.9" font-family="Arial" font-size="14.00" fill="#000000">sopimustyyppi_id </text>
<text text-anchor="start" x="790.2398" y="-453.9" font-family="Arial" font-size="14.00" fill="#666666">[smallint]</text>
<polygon fill="none" stroke="#000000" points="672,-412.5 672,-442.5 887,-442.5 887,-412.5 672,-412.5"/>
<text text-anchor="start" x="679" y="-423.9" font-family="Arial" font-size="14.00" fill="#000000">tiedontuottaja_tunnus </text>
<text text-anchor="start" x="816.7306" y="-423.9" font-family="Arial" font-size="14.00" fill="#666666">[text]</text>
<polygon fill="none" stroke="#000000" stroke-width="3" points="670,-411.5 670,-719.5 888,-719.5 888,-411.5 670,-411.5"/>
</g>
<!-- jkr.kohde -->
<g id="node5" class="node">
<title>jkr.kohde</title>
<polygon fill="#efefef" stroke="transparent" points="316,-252.5 316,-287.5 529,-287.5 529,-252.5 316,-252.5"/>
<polygon fill="none" stroke="#000000" points="316,-252.5 316,-287.5 529,-287.5 529,-252.5 316,-252.5"/>
<text text-anchor="start" x="337.3664" y="-265.3" font-family="Arial Bold" font-size="18.00" fill="#000000">jkr.kohde</text>
<text text-anchor="start" x="410.3798" y="-265.3" font-family="Arial" font-size="14.00" fill="#000000"> </text>
<text text-anchor="start" x="414.2704" y="-265.3" font-family="Arial" font-size="14.00" fill="#666666">[BASE TABLE]</text>
<polygon fill="none" stroke="#000000" points="316,-222.5 316,-252.5 529,-252.5 529,-222.5 316,-222.5"/>
<text text-anchor="start" x="323" y="-233.9" font-family="Arial" font-size="14.00" fill="#000000">id </text>
<text text-anchor="start" x="337.7798" y="-233.9" font-family="Arial" font-size="14.00" fill="#666666">[integer]</text>
<polygon fill="none" stroke="#000000" points="316,-192.5 316,-222.5 529,-222.5 529,-192.5 316,-192.5"/>
<text text-anchor="start" x="323" y="-203.9" font-family="Arial" font-size="14.00" fill="#000000">nimi </text>
<text text-anchor="start" x="352.547" y="-203.9" font-family="Arial" font-size="14.00" fill="#666666">[text]</text>
<polygon fill="none" stroke="#000000" points="316,-162.5 316,-192.5 529,-192.5 529,-162.5 316,-162.5"/>
<text text-anchor="start" x="322.5309" y="-173.9" font-family="Arial" font-size="14.00" fill="#000000">geom </text>
<text text-anchor="start" x="361.4299" y="-173.9" font-family="Arial" font-size="14.00" fill="#666666">[geometry(Polygon,3067)]</text>
<polygon fill="none" stroke="#000000" points="316,-132.5 316,-162.5 529,-162.5 529,-132.5 316,-132.5"/>
<text text-anchor="start" x="323" y="-143.9" font-family="Arial" font-size="14.00" fill="#000000">alkupvm </text>
<text text-anchor="start" x="379.0056" y="-143.9" font-family="Arial" font-size="14.00" fill="#666666">[date]</text>
<polygon fill="none" stroke="#000000" points="316,-102.5 316,-132.5 529,-132.5 529,-102.5 316,-102.5"/>
<text text-anchor="start" x="323" y="-113.9" font-family="Arial" font-size="14.00" fill="#000000">loppupvm </text>
<text text-anchor="start" x="387.5708" y="-113.9" font-family="Arial" font-size="14.00" fill="#666666">[date]</text>
<polygon fill="none" stroke="#000000" points="316,-72.5 316,-102.5 529,-102.5 529,-72.5 316,-72.5"/>
<text text-anchor="start" x="323" y="-83.9" font-family="Arial" font-size="14.00" fill="#000000">voimassaolo </text>
<text text-anchor="start" x="404.6774" y="-83.9" font-family="Arial" font-size="14.00" fill="#666666">[daterange]</text>
<polygon fill="none" stroke="#000000" points="316,-42.5 316,-72.5 529,-72.5 529,-42.5 316,-42.5"/>
<text text-anchor="start" x="323" y="-53.9" font-family="Arial" font-size="14.00" fill="#000000">kohdetyyppi_id </text>
<text text-anchor="start" x="420.2552" y="-53.9" font-family="Arial" font-size="14.00" fill="#666666">[integer]</text>
</g>
<!-- jkr.sopimus&#45;&gt;jkr.kohde -->
<g id="edge4" class="edge">
<title>jkr.sopimus:kimppaisanta_kohde_id&#45;&gt;jkr.kohde:id</title>
<path fill="none" stroke="#000000" d="M663.0717,-572.6937C622.5331,-531.3684 567.1015,-237.5 529,-237.5"/>
<polygon fill="#000000" stroke="#000000" points="663.1948,-572.7599 669.8669,-581.4623 667.5974,-575.1299 672,-577.5 672,-577.5 672,-577.5 667.5974,-575.1299 674.1331,-573.5377 663.1948,-572.7599 663.1948,-572.7599"/>
<text text-anchor="start" x="64.986" y="-587.5" font-family="Arial" font-size="10.00" fill="#000000">FOREIGN KEY (kimppaisanta_kohde_id) REFERENCES jkr.kohde(id) MATCH FULL ON UPDATE CASCADE ON DELETE CASCADE</text>
</g>
<!-- jkr.sopimus&#45;&gt;jkr.kohde -->
<g id="edge5" class="edge">
<title>jkr.sopimus:kohde_id&#45;&gt;jkr.kohde:id</title>
<path fill="none" stroke="#000000" d="M663.0954,-542.6306C624.263,-503.192 564.1172,-237.5 529,-237.5"/>
<polygon fill="#000000" stroke="#000000" points="663.2261,-542.7021 669.8409,-551.4482 667.6131,-545.101 672,-547.5 672,-547.5 672,-547.5 667.6131,-545.101 674.1591,-543.5518 663.2261,-542.7021 663.2261,-542.7021"/>
<text text-anchor="start" x="130.2155" y="-557.5" font-family="Arial" font-size="10.00" fill="#000000">FOREIGN KEY (kohde_id) REFERENCES jkr.kohde(id) MATCH FULL ON UPDATE CASCADE ON DELETE CASCADE</text>
</g>
<!-- jkr_koodistot.jatetyyppi -->
<g id="node6" class="node">
<title>jkr_koodistot.jatetyyppi</title>
<polygon fill="#efefef" stroke="transparent" points="633,-192.5 633,-227.5 926,-227.5 926,-192.5 633,-192.5"/>
<polygon fill="none" stroke="#000000" points="633,-192.5 633,-227.5 926,-227.5 926,-192.5 633,-192.5"/>
<text text-anchor="start" x="639.8552" y="-205.3" font-family="Arial Bold" font-size="18.00" fill="#000000">jkr_koodistot.jatetyyppi</text>
<text text-anchor="start" x="821.891" y="-205.3" font-family="Arial" font-size="14.00" fill="#000000"> </text>
<text text-anchor="start" x="825.7816" y="-205.3" font-family="Arial" font-size="14.00" fill="#666666">[BASE TABLE]</text>
<polygon fill="none" stroke="#000000" points="633,-162.5 633,-192.5 926,-192.5 926,-162.5 633,-162.5"/>
<text text-anchor="start" x="640" y="-173.9" font-family="Arial" font-size="14.00" fill="#000000">id </text>
<text text-anchor="start" x="654.7798" y="-173.9" font-family="Arial" font-size="14.00" fill="#666666">[integer]</text>
<polygon fill="none" stroke="#000000" points="633,-132.5 633,-162.5 926,-162.5 926,-132.5 633,-132.5"/>
<text text-anchor="start" x="640" y="-143.9" font-family="Arial" font-size="14.00" fill="#000000">selite </text>
<text text-anchor="start" x="676.5596" y="-143.9" font-family="Arial" font-size="14.00" fill="#666666">[text]</text>
<polygon fill="none" stroke="#000000" points="633,-102.5 633,-132.5 926,-132.5 926,-102.5 633,-102.5"/>
<text text-anchor="start" x="640" y="-113.9" font-family="Arial" font-size="14.00" fill="#000000">ewc </text>
<text text-anchor="start" x="668.7798" y="-113.9" font-family="Arial" font-size="14.00" fill="#666666">[character(6)]</text>
</g>
<!-- jkr.sopimus&#45;&gt;jkr_koodistot.jatetyyppi -->
<g id="edge6" class="edge">
<title>jkr.sopimus:jatetyyppi_id&#45;&gt;jkr_koodistot.jatetyyppi:id</title>
<path fill="none" stroke="#000000" d="M661.9823,-515.5033C592.6773,-487.6392 560.3654,-177.5 633,-177.5"/>
<polygon fill="#000000" stroke="#000000" points="662.1929,-515.5452 671.1203,-521.9132 667.0965,-516.5226 672,-517.5 672,-517.5 672,-517.5 667.0965,-516.5226 672.8797,-513.0868 662.1929,-515.5452 662.1929,-515.5452"/>
<text text-anchor="start" x="52.604" y="-527.5" font-family="Arial" font-size="10.00" fill="#000000">FOREIGN KEY (jatetyyppi_id) REFERENCES jkr_koodistot.jatetyyppi(id) MATCH FULL ON UPDATE CASCADE ON DELETE RESTRICT</text>
</g>
<!-- jkr_koodistot.sopimustyyppi -->
<g id="node7" class="node">
<title>jkr_koodistot.sopimustyyppi</title>
<polygon fill="#efefef" stroke="transparent" points="1030,-177.5 1030,-212.5 1361,-212.5 1361,-177.5 1030,-177.5"/>
<polygon fill="none" stroke="#000000" points="1030,-177.5 1030,-212.5 1361,-212.5 1361,-177.5 1030,-177.5"/>
<text text-anchor="start" x="1036.8571" y="-190.3" font-family="Arial Bold" font-size="18.00" fill="#000000">jkr_koodistot.sopimustyyppi</text>
<text text-anchor="start" x="1256.8891" y="-190.3" font-family="Arial" font-size="14.00" fill="#000000"> </text>
<text text-anchor="start" x="1260.7797" y="-190.3" font-family="Arial" font-size="14.00" fill="#666666">[BASE TABLE]</text>
<polygon fill="none" stroke="#000000" points="1030,-147.5 1030,-177.5 1361,-177.5 1361,-147.5 1030,-147.5"/>
<text text-anchor="start" x="1037" y="-158.9" font-family="Arial" font-size="14.00" fill="#000000">id </text>
<text text-anchor="start" x="1051.7798" y="-158.9" font-family="Arial" font-size="14.00" fill="#666666">[smallint]</text>
<polygon fill="none" stroke="#000000" points="1030,-117.5 1030,-147.5 1361,-147.5 1361,-117.5 1030,-117.5"/>
<text text-anchor="start" x="1037" y="-128.9" font-family="Arial" font-size="14.00" fill="#000000">selite </text>
<text text-anchor="start" x="1073.5596" y="-128.9" font-family="Arial" font-size="14.00" fill="#666666">[text]</text>
</g>
<!-- jkr.sopimus&#45;&gt;jkr_koodistot.sopimustyyppi -->
<g id="edge7" class="edge">
<title>jkr.sopimus:sopimustyyppi_id&#45;&gt;jkr_koodistot.sopimustyyppi:id</title>
<path fill="none" stroke="#000000" d="M897.3205,-456.9718C955.4098,-450.7056 948.788,-389.7434 978,-331 1012.8971,-260.8241 951.6261,-162.5 1030,-162.5"/>
<polygon fill="#000000" stroke="#000000" points="896.9869,-456.9888 886.77,-453.0059 891.9935,-457.2444 887,-457.5 887,-457.5 887,-457.5 891.9935,-457.2444 887.23,-461.9941 896.9869,-456.9888 896.9869,-456.9888"/>
<text text-anchor="start" x="894.3245" y="-467.5" font-family="Arial" font-size="10.00" fill="#000000">FOREIGN KEY (sopimustyyppi_id) REFERENCES jkr_koodistot.sopimustyyppi(id) MATCH FULL ON UPDATE CASCADE ON DELETE CASCADE</text>
</g>
<!-- jkr_koodistot.tiedontuottaja -->
<g id="node8" class="node">
<title>jkr_koodistot.tiedontuottaja</title>
<polygon fill="#efefef" stroke="transparent" points="1465,-177.5 1465,-212.5 1790,-212.5 1790,-177.5 1465,-177.5"/>
<polygon fill="none" stroke="#000000" points="1465,-177.5 1465,-212.5 1790,-212.5 1790,-177.5 1465,-177.5"/>
<text text-anchor="start" x="1471.8406" y="-190.3" font-family="Arial Bold" font-size="18.00" fill="#000000">jkr_koodistot.tiedontuottaja</text>
<text text-anchor="start" x="1685.9056" y="-190.3" font-family="Arial" font-size="14.00" fill="#000000"> </text>
<text text-anchor="start" x="1689.7962" y="-190.3" font-family="Arial" font-size="14.00" fill="#666666">[BASE TABLE]</text>
<polygon fill="none" stroke="#000000" points="1465,-147.5 1465,-177.5 1790,-177.5 1790,-147.5 1465,-147.5"/>
<text text-anchor="start" x="1472" y="-158.9" font-family="Arial" font-size="14.00" fill="#000000">tunnus </text>
<text text-anchor="start" x="1517.9116" y="-158.9" font-family="Arial" font-size="14.00" fill="#666666">[text]</text>
<polygon fill="none" stroke="#000000" points="1465,-117.5 1465,-147.5 1790,-147.5 1790,-117.5 1465,-117.5"/>
<text text-anchor="start" x="1472" y="-128.9" font-family="Arial" font-size="14.00" fill="#000000">nimi </text>
<text text-anchor="start" x="1501.547" y="-128.9" font-family="Arial" font-size="14.00" fill="#666666">[text]</text>
</g>
<!-- jkr.sopimus&#45;&gt;jkr_koodistot.tiedontuottaja -->
<g id="edge8" class="edge">
<title>jkr.sopimus:tiedontuottaja_tunnus&#45;&gt;jkr_koodistot.tiedontuottaja:tunnus</title>
<path fill="none" stroke="#000000" d="M897.1873,-427.4597C1023.0764,-426.4936 1326.5923,-407.7776 1413,-331 1471.5872,-278.9423 1386.6261,-162.5 1465,-162.5"/>
<polygon fill="#000000" stroke="#000000" points="896.9999,-427.4604 886.9822,-423 892,-427.4802 887,-427.5 887,-427.5 887,-427.5 892,-427.4802 887.0178,-432 896.9999,-427.4604 896.9999,-427.4604"/>
<text text-anchor="start" x="893.573" y="-437.5" font-family="Arial" font-size="10.00" fill="#000000">FOREIGN KEY (tiedontuottaja_tunnus) REFERENCES jkr_koodistot.tiedontuottaja(tunnus) MATCH FULL ON UPDATE CASCADE ON DELETE RESTRICT</text>
</g>
<!-- jkr.keraysvaline -->
<g id="node2" class="node">
<title>jkr.keraysvaline</title>
<polygon fill="#efefef" stroke="transparent" points="334,-1022.5 334,-1057.5 569,-1057.5 569,-1022.5 334,-1022.5"/>
<polygon fill="none" stroke="#000000" points="334,-1022.5 334,-1057.5 569,-1057.5 569,-1022.5 334,-1022.5"/>
<text text-anchor="start" x="340.873" y="-1035.3" font-family="Arial Bold" font-size="18.00" fill="#000000">jkr.keraysvaline</text>
<text text-anchor="start" x="464.8732" y="-1035.3" font-family="Arial" font-size="14.00" fill="#000000"> </text>
<text text-anchor="start" x="468.7638" y="-1035.3" font-family="Arial" font-size="14.00" fill="#666666">[BASE TABLE]</text>
<polygon fill="none" stroke="#000000" points="334,-992.5 334,-1022.5 569,-1022.5 569,-992.5 334,-992.5"/>
<text text-anchor="start" x="341" y="-1003.9" font-family="Arial" font-size="14.00" fill="#000000">id </text>
<text text-anchor="start" x="355.7798" y="-1003.9" font-family="Arial" font-size="14.00" fill="#666666">[integer]</text>
<polygon fill="none" stroke="#000000" points="334,-962.5 334,-992.5 569,-992.5 569,-962.5 334,-962.5"/>
<text text-anchor="start" x="341" y="-973.9" font-family="Arial" font-size="14.00" fill="#000000">pvm </text>
<text text-anchor="start" x="371.3338" y="-973.9" font-family="Arial" font-size="14.00" fill="#666666">[date]</text>
<polygon fill="none" stroke="#000000" points="334,-932.5 334,-962.5 569,-962.5 569,-932.5 334,-932.5"/>
<text text-anchor="start" x="341" y="-943.9" font-family="Arial" font-size="14.00" fill="#000000">tilavuus </text>
<text text-anchor="start" x="392.3422" y="-943.9" font-family="Arial" font-size="14.00" fill="#666666">[integer]</text>
<polygon fill="none" stroke="#000000" points="334,-902.5 334,-932.5 569,-932.5 569,-902.5 334,-902.5"/>
<text text-anchor="start" x="341" y="-913.9" font-family="Arial" font-size="14.00" fill="#000000">maara </text>
<text text-anchor="start" x="384.5596" y="-913.9" font-family="Arial" font-size="14.00" fill="#666666">[smallint]</text>
<polygon fill="none" stroke="#000000" points="334,-872.5 334,-902.5 569,-902.5 569,-872.5 334,-872.5"/>
<text text-anchor="start" x="341" y="-883.9" font-family="Arial" font-size="14.00" fill="#000000">sopimus_id </text>
<text text-anchor="start" x="415.6774" y="-883.9" font-family="Arial" font-size="14.00" fill="#666666">[integer]</text>
<polygon fill="none" stroke="#000000" points="334,-842.5 334,-872.5 569,-872.5 569,-842.5 334,-842.5"/>
<text text-anchor="start" x="341" y="-853.9" font-family="Arial" font-size="14.00" fill="#000000">keraysvalinetyyppi_id </text>
<text text-anchor="start" x="477.9116" y="-853.9" font-family="Arial" font-size="14.00" fill="#666666">[smallint]</text>
</g>
<!-- jkr.keraysvaline&#45;&gt;jkr.sopimus -->
<g id="edge1" class="edge">
<title>jkr.keraysvaline:sopimus_id&#45;&gt;jkr.sopimus:id</title>
<path fill="none" stroke="#000000" d="M579.0398,-886.7885C669.7079,-873.1332 567.6213,-667.5 672,-667.5"/>
<polygon fill="#000000" stroke="#000000" points="578.975,-886.793 568.6818,-883.0113 573.9875,-887.1465 569,-887.5 569,-887.5 569,-887.5 573.9875,-887.1465 569.3182,-891.9887 578.975,-886.793 578.975,-886.793"/>
<text text-anchor="start" x="7.2265" y="-897.5" font-family="Arial" font-size="10.00" fill="#000000">FOREIGN KEY (sopimus_id) REFERENCES jkr.sopimus(id) MATCH FULL ON UPDATE CASCADE ON DELETE CASCADE</text>
</g>
<!-- jkr.keskeytys -->
<g id="node3" class="node">
<title>jkr.keskeytys</title>
<polygon fill="#efefef" stroke="transparent" points="673,-1022.5 673,-1057.5 887,-1057.5 887,-1022.5 673,-1022.5"/>
<polygon fill="none" stroke="#000000" points="673,-1022.5 673,-1057.5 887,-1057.5 887,-1022.5 673,-1022.5"/>
<text text-anchor="start" x="679.8715" y="-1035.3" font-family="Arial Bold" font-size="18.00" fill="#000000">jkr.keskeytys</text>
<text text-anchor="start" x="782.8747" y="-1035.3" font-family="Arial" font-size="14.00" fill="#000000"> </text>
<text text-anchor="start" x="786.7653" y="-1035.3" font-family="Arial" font-size="14.00" fill="#666666">[BASE TABLE]</text>
<polygon fill="none" stroke="#000000" points="673,-992.5 673,-1022.5 887,-1022.5 887,-992.5 673,-992.5"/>
<text text-anchor="start" x="680" y="-1003.9" font-family="Arial" font-size="14.00" fill="#000000">id </text>
<text text-anchor="start" x="694.7798" y="-1003.9" font-family="Arial" font-size="14.00" fill="#666666">[integer]</text>
<polygon fill="none" stroke="#000000" points="673,-962.5 673,-992.5 887,-992.5 887,-962.5 673,-962.5"/>
<text text-anchor="start" x="680" y="-973.9" font-family="Arial" font-size="14.00" fill="#000000">alkupvm </text>
<text text-anchor="start" x="736.0056" y="-973.9" font-family="Arial" font-size="14.00" fill="#666666">[date]</text>
<polygon fill="none" stroke="#000000" points="673,-932.5 673,-962.5 887,-962.5 887,-932.5 673,-932.5"/>
<text text-anchor="start" x="680" y="-943.9" font-family="Arial" font-size="14.00" fill="#000000">loppupvm </text>
<text text-anchor="start" x="744.5708" y="-943.9" font-family="Arial" font-size="14.00" fill="#666666">[date]</text>
<polygon fill="none" stroke="#000000" points="673,-902.5 673,-932.5 887,-932.5 887,-902.5 673,-902.5"/>
<text text-anchor="start" x="680" y="-913.9" font-family="Arial" font-size="14.00" fill="#000000">selite </text>
<text text-anchor="start" x="716.5596" y="-913.9" font-family="Arial" font-size="14.00" fill="#666666">[text]</text>
<polygon fill="none" stroke="#000000" points="673,-872.5 673,-902.5 887,-902.5 887,-872.5 673,-872.5"/>
<text text-anchor="start" x="680" y="-883.9" font-family="Arial" font-size="14.00" fill="#000000">sopimus_id </text>
<text text-anchor="start" x="754.6774" y="-883.9" font-family="Arial" font-size="14.00" fill="#666666">[integer]</text>
<polygon fill="none" stroke="#000000" points="673,-842.5 673,-872.5 887,-872.5 887,-842.5 673,-842.5"/>
<text text-anchor="start" x="680" y="-853.9" font-family="Arial" font-size="14.00" fill="#000000">voimassaolo </text>
<text text-anchor="start" x="761.6774" y="-853.9" font-family="Arial" font-size="14.00" fill="#666666">[daterange]</text>
</g>
<!-- jkr.keskeytys&#45;&gt;jkr.sopimus -->
<g id="edge2" class="edge">
<title>jkr.keskeytys:sopimus_id&#45;&gt;jkr.sopimus:id</title>
<path fill="none" stroke="#000000" d="M663.075,-885.9261C636.9096,-876.4775 650.3383,-826.7924 673,-800 735.2855,-726.3614 824.7145,-837.6386 887,-764 914.6975,-731.2539 929.8889,-667.5 887,-667.5"/>
<polygon fill="#000000" stroke="#000000" points="663.1234,-885.9337 672.2952,-891.9445 668.0617,-886.7169 673,-887.5 673,-887.5 673,-887.5 668.0617,-886.7169 673.7048,-883.0555 663.1234,-885.9337 663.1234,-885.9337"/>
<text text-anchor="start" x="680.2265" y="-897.5" font-family="Arial" font-size="10.00" fill="#000000">FOREIGN KEY (sopimus_id) REFERENCES jkr.sopimus(id) MATCH FULL ON UPDATE CASCADE ON DELETE CASCADE</text>
</g>
<!-- jkr.tyhjennysvali -->
<g id="node4" class="node">
<title>jkr.tyhjennysvali</title>
<polygon fill="#efefef" stroke="transparent" points="991,-1007.5 991,-1042.5 1229,-1042.5 1229,-1007.5 991,-1007.5"/>
<polygon fill="none" stroke="#000000" points="991,-1007.5 991,-1042.5 1229,-1042.5 1229,-1007.5 991,-1007.5"/>
<text text-anchor="start" x="997.8709" y="-1020.3" font-family="Arial Bold" font-size="18.00" fill="#000000">jkr.tyhjennysvali</text>
<text text-anchor="start" x="1124.8753" y="-1020.3" font-family="Arial" font-size="14.00" fill="#000000"> </text>
<text text-anchor="start" x="1128.7659" y="-1020.3" font-family="Arial" font-size="14.00" fill="#666666">[BASE TABLE]</text>
<polygon fill="none" stroke="#000000" points="991,-977.5 991,-1007.5 1229,-1007.5 1229,-977.5 991,-977.5"/>
<text text-anchor="start" x="998" y="-988.9" font-family="Arial" font-size="14.00" fill="#000000">id </text>
<text text-anchor="start" x="1012.7798" y="-988.9" font-family="Arial" font-size="14.00" fill="#666666">[integer]</text>
<polygon fill="none" stroke="#000000" points="991,-947.5 991,-977.5 1229,-977.5 1229,-947.5 991,-947.5"/>
<text text-anchor="start" x="998" y="-958.9" font-family="Arial" font-size="14.00" fill="#000000">alkuvko </text>
<text text-anchor="start" x="1049.345" y="-958.9" font-family="Arial" font-size="14.00" fill="#666666">[smallint]</text>
<polygon fill="none" stroke="#000000" points="991,-917.5 991,-947.5 1229,-947.5 1229,-917.5 991,-917.5"/>
<text text-anchor="start" x="998" y="-928.9" font-family="Arial" font-size="14.00" fill="#000000">loppuvko </text>
<text text-anchor="start" x="1057.9102" y="-928.9" font-family="Arial" font-size="14.00" fill="#666666">[smallint]</text>
<polygon fill="none" stroke="#000000" points="991,-887.5 991,-917.5 1229,-917.5 1229,-887.5 991,-887.5"/>
<text text-anchor="start" x="998" y="-898.9" font-family="Arial" font-size="14.00" fill="#000000">tyhjennysvali </text>
<text text-anchor="start" x="1082.014" y="-898.9" font-family="Arial" font-size="14.00" fill="#666666">[smallint]</text>
<polygon fill="none" stroke="#000000" points="991,-857.5 991,-887.5 1229,-887.5 1229,-857.5 991,-857.5"/>
<text text-anchor="start" x="998" y="-868.9" font-family="Arial" font-size="14.00" fill="#000000">sopimus_id </text>
<text text-anchor="start" x="1072.6774" y="-868.9" font-family="Arial" font-size="14.00" fill="#666666">[integer]</text>
</g>
<!-- jkr.tyhjennysvali&#45;&gt;jkr.sopimus -->
<g id="edge3" class="edge">
<title>jkr.tyhjennysvali:sopimus_id&#45;&gt;jkr.sopimus:id</title>
<path fill="none" stroke="#000000" d="M980.958,-871.7577C895.639,-858.3393 985.5735,-667.5 887,-667.5"/>
<polygon fill="#000000" stroke="#000000" points="981.0272,-871.7627 990.6682,-876.9878 986.0136,-872.1314 991,-872.5 991,-872.5 991,-872.5 986.0136,-872.1314 991.3318,-868.0122 981.0272,-871.7627 981.0272,-871.7627"/>
<text text-anchor="start" x="998.2265" y="-856.5" font-family="Arial" font-size="10.00" fill="#000000">FOREIGN KEY (sopimus_id) REFERENCES jkr.sopimus(id) MATCH FULL ON UPDATE CASCADE ON DELETE CASCADE</text>
</g>
</g>
</svg>
