<?xml version="1.0" encoding="UTF-8" standalone="no"?>
<!DOCTYPE svg PUBLIC "-//W3C//DTD SVG 1.1//EN"
 "http://www.w3.org/Graphics/SVG/1.1/DTD/svg11.dtd">
<!-- Generated by graphviz version 2.40.1 (20161225.0304)
 -->
<!-- Title: jkr.ulkoinen_asiakastieto Pages: 1 -->
<svg width="1569pt" height="652pt"
 viewBox="0.00 0.00 1569.00 652.00" xmlns="http://www.w3.org/2000/svg" xmlns:xlink="http://www.w3.org/1999/xlink">
<g id="graph0" class="graph" transform="scale(1 1) rotate(0) translate(4 648)">
<title>jkr.ulkoinen_asiakastieto</title>
<polygon fill="#ffffff" stroke="transparent" points="-4,4 -4,-648 1565,-648 1565,4 -4,4"/>
<!-- jkr.ulkoinen_asiakastieto -->
<g id="node1" class="node">
<title>jkr.ulkoinen_asiakastieto</title>
<polygon fill="#efefef" stroke="transparent" points="705,-562.5 705,-597.5 1012,-597.5 1012,-562.5 705,-562.5"/>
<polygon fill="none" stroke="#000000" points="705,-562.5 705,-597.5 1012,-597.5 1012,-562.5 705,-562.5"/>
<text text-anchor="start" x="711.8541" y="-575.3" font-family="Arial Bold" font-size="18.00" fill="#000000">jkr.ulkoinen_asiakastieto</text>
<text text-anchor="start" x="907.8921" y="-575.3" font-family="Arial" font-size="14.00" fill="#000000"> </text>
<text text-anchor="start" x="911.7827" y="-575.3" font-family="Arial" font-size="14.00" fill="#666666">[BASE TABLE]</text>
<polygon fill="none" stroke="#000000" points="705,-532.5 705,-562.5 1012,-562.5 1012,-532.5 705,-532.5"/>
<text text-anchor="start" x="712" y="-543.9" font-family="Arial" font-size="14.00" fill="#000000">id </text>
<text text-anchor="start" x="726.7798" y="-543.9" font-family="Arial" font-size="14.00" fill="#666666">[integer]</text>
<polygon fill="none" stroke="#000000" points="705,-502.5 705,-532.5 1012,-532.5 1012,-502.5 705,-502.5"/>
<text text-anchor="start" x="712" y="-513.9" font-family="Arial" font-size="14.00" fill="#000000">tiedontuottaja_tunnus </text>
<text text-anchor="start" x="849.7306" y="-513.9" font-family="Arial" font-size="14.00" fill="#666666">[text]</text>
<polygon fill="none" stroke="#000000" points="705,-472.5 705,-502.5 1012,-502.5 1012,-472.5 705,-472.5"/>
<text text-anchor="start" x="712" y="-483.9" font-family="Arial" font-size="14.00" fill="#000000">ulkoinen_id </text>
<text text-anchor="start" x="786.6886" y="-483.9" font-family="Arial" font-size="14.00" fill="#666666">[text]</text>
<polygon fill="none" stroke="#000000" points="705,-442.5 705,-472.5 1012,-472.5 1012,-442.5 705,-442.5"/>
<text text-anchor="start" x="712" y="-453.9" font-family="Arial" font-size="14.00" fill="#000000">kohde_id </text>
<text text-anchor="start" x="772.6928" y="-453.9" font-family="Arial" font-size="14.00" fill="#666666">[integer]</text>
<polygon fill="none" stroke="#000000" points="705,-412.5 705,-442.5 1012,-442.5 1012,-412.5 705,-412.5"/>
<text text-anchor="start" x="712" y="-423.9" font-family="Arial" font-size="14.00" fill="#000000">ulkoinen_asiakastieto </text>
<text text-anchor="start" x="849.7068" y="-423.9" font-family="Arial" font-size="14.00" fill="#666666">[jsonb]</text>
<polygon fill="none" stroke="#000000" stroke-width="3" points="703,-411.5 703,-599.5 1013,-599.5 1013,-411.5 703,-411.5"/>
</g>
<!-- jkr_koodistot.tiedontuottaja -->
<g id="node2" class="node">
<title>jkr_koodistot.tiedontuottaja</title>
<polygon fill="#efefef" stroke="transparent" points="510,-177.5 510,-212.5 835,-212.5 835,-177.5 510,-177.5"/>
<polygon fill="none" stroke="#000000" points="510,-177.5 510,-212.5 835,-212.5 835,-177.5 510,-177.5"/>
<text text-anchor="start" x="516.8406" y="-190.3" font-family="Arial Bold" font-size="18.00" fill="#000000">jkr_koodistot.tiedontuottaja</text>
<text text-anchor="start" x="730.9056" y="-190.3" font-family="Arial" font-size="14.00" fill="#000000"> </text>
<text text-anchor="start" x="734.7962" y="-190.3" font-family="Arial" font-size="14.00" fill="#666666">[BASE TABLE]</text>
<polygon fill="none" stroke="#000000" points="510,-147.5 510,-177.5 835,-177.5 835,-147.5 510,-147.5"/>
<text text-anchor="start" x="517" y="-158.9" font-family="Arial" font-size="14.00" fill="#000000">tunnus </text>
<text text-anchor="start" x="562.9116" y="-158.9" font-family="Arial" font-size="14.00" fill="#666666">[text]</text>
<polygon fill="none" stroke="#000000" points="510,-117.5 510,-147.5 835,-147.5 835,-117.5 510,-117.5"/>
<text text-anchor="start" x="517" y="-128.9" font-family="Arial" font-size="14.00" fill="#000000">nimi </text>
<text text-anchor="start" x="546.547" y="-128.9" font-family="Arial" font-size="14.00" fill="#666666">[text]</text>
</g>
<!-- jkr.ulkoinen_asiakastieto&#45;&gt;jkr_koodistot.tiedontuottaja -->
<g id="edge1" class="edge">
<title>jkr.ulkoinen_asiakastieto:tiedontuottaja_tunnus&#45;&gt;jkr_koodistot.tiedontuottaja:tunnus</title>
<path fill="none" stroke="#000000" d="M694.956,-516.7141C642.3312,-507.7696 678.5239,-424.4209 705,-367 736.8119,-298.0069 803.1881,-324.9931 835,-256 852.4002,-218.2628 876.5556,-162.5 835,-162.5"/>
<polygon fill="#000000" stroke="#000000" points="695.0305,-516.7198 704.6489,-521.9863 700.0152,-517.1099 705,-517.5 705,-517.5 705,-517.5 700.0152,-517.1099 705.3511,-513.0137 695.0305,-516.7198 695.0305,-516.7198"/>
<text text-anchor="start" x="7.4025" y="-527.5" font-family="Arial" font-size="10.00" fill="#000000">FOREIGN KEY (tiedontuottaja_tunnus) REFERENCES jkr_koodistot.tiedontuottaja(tunnus) MATCH FULL ON UPDATE CASCADE ON DELETE CASCADE</text>
</g>
<!-- jkr.kohde -->
<g id="node3" class="node">
<title>jkr.kohde</title>
<polygon fill="#efefef" stroke="transparent" points="939,-252.5 939,-287.5 1152,-287.5 1152,-252.5 939,-252.5"/>
<polygon fill="none" stroke="#000000" points="939,-252.5 939,-287.5 1152,-287.5 1152,-252.5 939,-252.5"/>
<text text-anchor="start" x="960.3664" y="-265.3" font-family="Arial Bold" font-size="18.00" fill="#000000">jkr.kohde</text>
<text text-anchor="start" x="1033.3798" y="-265.3" font-family="Arial" font-size="14.00" fill="#000000"> </text>
<text text-anchor="start" x="1037.2704" y="-265.3" font-family="Arial" font-size="14.00" fill="#666666">[BASE TABLE]</text>
<polygon fill="none" stroke="#000000" points="939,-222.5 939,-252.5 1152,-252.5 1152,-222.5 939,-222.5"/>
<text text-anchor="start" x="946" y="-233.9" font-family="Arial" font-size="14.00" fill="#000000">id </text>
<text text-anchor="start" x="960.7798" y="-233.9" font-family="Arial" font-size="14.00" fill="#666666">[integer]</text>
<polygon fill="none" stroke="#000000" points="939,-192.5 939,-222.5 1152,-222.5 1152,-192.5 939,-192.5"/>
<text text-anchor="start" x="946" y="-203.9" font-family="Arial" font-size="14.00" fill="#000000">nimi </text>
<text text-anchor="start" x="975.547" y="-203.9" font-family="Arial" font-size="14.00" fill="#666666">[text]</text>
<polygon fill="none" stroke="#000000" points="939,-162.5 939,-192.5 1152,-192.5 1152,-162.5 939,-162.5"/>
<text text-anchor="start" x="945.5309" y="-173.9" font-family="Arial" font-size="14.00" fill="#000000">geom </text>
<text text-anchor="start" x="984.4299" y="-173.9" font-family="Arial" font-size="14.00" fill="#666666">[geometry(Polygon,3067)]</text>
<polygon fill="none" stroke="#000000" points="939,-132.5 939,-162.5 1152,-162.5 1152,-132.5 939,-132.5"/>
<text text-anchor="start" x="946" y="-143.9" font-family="Arial" font-size="14.00" fill="#000000">alkupvm </text>
<text text-anchor="start" x="1002.0056" y="-143.9" font-family="Arial" font-size="14.00" fill="#666666">[date]</text>
<polygon fill="none" stroke="#000000" points="939,-102.5 939,-132.5 1152,-132.5 1152,-102.5 939,-102.5"/>
<text text-anchor="start" x="946" y="-113.9" font-family="Arial" font-size="14.00" fill="#000000">loppupvm </text>
<text text-anchor="start" x="1010.5708" y="-113.9" font-family="Arial" font-size="14.00" fill="#666666">[date]</text>
<polygon fill="none" stroke="#000000" points="939,-72.5 939,-102.5 1152,-102.5 1152,-72.5 939,-72.5"/>
<text text-anchor="start" x="946" y="-83.9" font-family="Arial" font-size="14.00" fill="#000000">voimassaolo </text>
<text text-anchor="start" x="1027.6774" y="-83.9" font-family="Arial" font-size="14.00" fill="#666666">[daterange]</text>
<polygon fill="none" stroke="#000000" points="939,-42.5 939,-72.5 1152,-72.5 1152,-42.5 939,-42.5"/>
<text text-anchor="start" x="946" y="-53.9" font-family="Arial" font-size="14.00" fill="#000000">kohdetyyppi_id </text>
<text text-anchor="start" x="1043.2552" y="-53.9" font-family="Arial" font-size="14.00" fill="#666666">[integer]</text>
</g>
<!-- jkr.ulkoinen_asiakastieto&#45;&gt;jkr.kohde -->
<g id="edge2" class="edge">
<title>jkr.ulkoinen_asiakastieto:kohde_id&#45;&gt;jkr.kohde:id</title>
<path fill="none" stroke="#000000" d="M1022.143,-455.9611C1048.4932,-446.7071 1031.1658,-397.8212 1012,-367 992.8971,-336.2799 958.1029,-361.7201 939,-331 917.0559,-295.7109 897.4444,-237.5 939,-237.5"/>
<polygon fill="#000000" stroke="#000000" points="1021.8869,-455.9999 1011.325,-453.0509 1016.9434,-456.75 1012,-457.5 1012,-457.5 1012,-457.5 1016.9434,-456.75 1012.675,-461.9491 1021.8869,-455.9999 1021.8869,-455.9999"/>
<text text-anchor="start" x="1019.2155" y="-467.5" font-family="Arial" font-size="10.00" fill="#000000">FOREIGN KEY (kohde_id) REFERENCES jkr.kohde(id) MATCH FULL ON UPDATE CASCADE ON DELETE CASCADE</text>
</g>
</g>
</svg>
