<?xml version="1.0" encoding="UTF-8" standalone="no"?>
<!DOCTYPE svg PUBLIC "-//W3C//DTD SVG 1.1//EN"
 "http://www.w3.org/Graphics/SVG/1.1/DTD/svg11.dtd">
<!-- Generated by graphviz version 2.40.1 (20161225.0304)
 -->
<!-- Title: jkr.v_keskeytys Pages: 1 -->
<svg width="326pt" height="285pt"
 viewBox="0.00 0.00 326.00 285.00" xmlns="http://www.w3.org/2000/svg" xmlns:xlink="http://www.w3.org/1999/xlink">
<g id="graph0" class="graph" transform="scale(1 1) rotate(0) translate(4 281)">
<title>jkr.v_keskeytys</title>
<polygon fill="#ffffff" stroke="transparent" points="-4,4 -4,-281 322,-281 322,4 -4,4"/>
<!-- jkr.v_keskeytys -->
<g id="node1" class="node">
<title>jkr.v_keskeytys</title>
<polygon fill="#efefef" stroke="transparent" points="46,-195.5 46,-230.5 272,-230.5 272,-195.5 46,-195.5"/>
<polygon fill="none" stroke="#000000" points="46,-195.5 46,-230.5 272,-230.5 272,-195.5 46,-195.5"/>
<text text-anchor="start" x="74.2702" y="-208.3" font-family="Arial Bold" font-size="18.00" fill="#000000">jkr.v_keskeytys</text>
<text text-anchor="start" x="196.2796" y="-208.3" font-family="Arial" font-size="14.00" fill="#000000"> </text>
<text text-anchor="start" x="200.1702" y="-208.3" font-family="Arial" font-size="14.00" fill="#666666">[VIEW]</text>
<polygon fill="none" stroke="#000000" points="46,-165.5 46,-195.5 272,-195.5 272,-165.5 46,-165.5"/>
<text text-anchor="start" x="53" y="-176.9" font-family="Arial" font-size="14.00" fill="#000000">kohde_id </text>
<text text-anchor="start" x="113.6928" y="-176.9" font-family="Arial" font-size="14.00" fill="#666666">[integer]</text>
<polygon fill="none" stroke="#000000" points="46,-135.5 46,-165.5 272,-165.5 272,-135.5 46,-135.5"/>
<text text-anchor="start" x="53" y="-146.9" font-family="Arial" font-size="14.00" fill="#000000">sopimus_id </text>
<text text-anchor="start" x="127.6774" y="-146.9" font-family="Arial" font-size="14.00" fill="#666666">[integer]</text>
<polygon fill="none" stroke="#000000" points="46,-105.5 46,-135.5 272,-135.5 272,-105.5 46,-105.5"/>
<text text-anchor="start" x="52.8072" y="-116.9" font-family="Arial" font-size="14.00" fill="#000000">sopimus_voimassaolo </text>
<text text-anchor="start" x="194.3822" y="-116.9" font-family="Arial" font-size="14.00" fill="#666666">[daterange]</text>
<polygon fill="none" stroke="#000000" points="46,-75.5 46,-105.5 272,-105.5 272,-75.5 46,-75.5"/>
<text text-anchor="start" x="53" y="-86.9" font-family="Arial" font-size="14.00" fill="#000000">jatetyyppi_selite </text>
<text text-anchor="start" x="156.467" y="-86.9" font-family="Arial" font-size="14.00" fill="#666666">[text]</text>
<polygon fill="none" stroke="#000000" points="46,-45.5 46,-75.5 272,-75.5 272,-45.5 46,-45.5"/>
<text text-anchor="start" x="53" y="-56.9" font-family="Arial" font-size="14.00" fill="#000000">keskeytys_voimassa </text>
<text text-anchor="start" x="185.244" y="-56.9" font-family="Arial" font-size="14.00" fill="#666666">[daterange]</text>
<polygon fill="none" stroke="#000000" stroke-width="3" points="44.5,-44.5 44.5,-232.5 273.5,-232.5 273.5,-44.5 44.5,-44.5"/>
</g>
</g>
</svg>
