<?xml version="1.0" encoding="UTF-8" standalone="no"?>
<!DOCTYPE svg PUBLIC "-//W3C//DTD SVG 1.1//EN"
 "http://www.w3.org/Graphics/SVG/1.1/DTD/svg11.dtd">
<!-- Generated by graphviz version 2.40.1 (20161225.0304)
 -->
<!-- Title: jkr_koodistot.sopimustyyppi Pages: 1 -->
<svg width="994pt" height="622pt"
 viewBox="0.00 0.00 993.50 622.00" xmlns="http://www.w3.org/2000/svg" xmlns:xlink="http://www.w3.org/1999/xlink">
<g id="graph0" class="graph" transform="scale(1 1) rotate(0) translate(4 618)">
<title>jkr_koodistot.sopimustyyppi</title>
<polygon fill="#ffffff" stroke="transparent" points="-4,4 -4,-618 989.5,-618 989.5,4 -4,4"/>
<!-- jkr_koodistot.sopimustyyppi -->
<g id="node1" class="node">
<title>jkr_koodistot.sopimustyyppi</title>
<polygon fill="#efefef" stroke="transparent" points="609,-105.5 609,-140.5 940,-140.5 940,-105.5 609,-105.5"/>
<polygon fill="none" stroke="#000000" points="609,-105.5 609,-140.5 940,-140.5 940,-105.5 609,-105.5"/>
<text text-anchor="start" x="615.8571" y="-118.3" font-family="Arial Bold" font-size="18.00" fill="#000000">jkr_koodistot.sopimustyyppi</text>
<text text-anchor="start" x="835.8891" y="-118.3" font-family="Arial" font-size="14.00" fill="#000000"> </text>
<text text-anchor="start" x="839.7797" y="-118.3" font-family="Arial" font-size="14.00" fill="#666666">[BASE TABLE]</text>
<polygon fill="none" stroke="#000000" points="609,-75.5 609,-105.5 940,-105.5 940,-75.5 609,-75.5"/>
<text text-anchor="start" x="616" y="-86.9" font-family="Arial" font-size="14.00" fill="#000000">id </text>
<text text-anchor="start" x="630.7798" y="-86.9" font-family="Arial" font-size="14.00" fill="#666666">[smallint]</text>
<polygon fill="none" stroke="#000000" points="609,-45.5 609,-75.5 940,-75.5 940,-45.5 609,-45.5"/>
<text text-anchor="start" x="616" y="-56.9" font-family="Arial" font-size="14.00" fill="#000000">selite </text>
<text text-anchor="start" x="652.5596" y="-56.9" font-family="Arial" font-size="14.00" fill="#666666">[text]</text>
<polygon fill="none" stroke="#000000" stroke-width="3" points="607,-44.5 607,-142.5 941,-142.5 941,-44.5 607,-44.5"/>
</g>
<!-- jkr.sopimus -->
<g id="node2" class="node">
<title>jkr.sopimus</title>
<polygon fill="#efefef" stroke="transparent" points="667,-535.5 667,-570.5 882,-570.5 882,-535.5 667,-535.5"/>
<polygon fill="none" stroke="#000000" points="667,-535.5 667,-570.5 882,-570.5 882,-535.5 667,-535.5"/>
<text text-anchor="start" x="680.3763" y="-548.3" font-family="Arial Bold" font-size="18.00" fill="#000000">jkr.sopimus</text>
<text text-anchor="start" x="771.3699" y="-548.3" font-family="Arial" font-size="14.00" fill="#000000"> </text>
<text text-anchor="start" x="775.2605" y="-548.3" font-family="Arial" font-size="14.00" fill="#666666">[BASE TABLE]</text>
<polygon fill="none" stroke="#000000" points="667,-505.5 667,-535.5 882,-535.5 882,-505.5 667,-505.5"/>
<text text-anchor="start" x="674" y="-516.9" font-family="Arial" font-size="14.00" fill="#000000">id </text>
<text text-anchor="start" x="688.7798" y="-516.9" font-family="Arial" font-size="14.00" fill="#666666">[integer]</text>
<polygon fill="none" stroke="#000000" points="667,-475.5 667,-505.5 882,-505.5 882,-475.5 667,-475.5"/>
<text text-anchor="start" x="674" y="-486.9" font-family="Arial" font-size="14.00" fill="#000000">alkupvm </text>
<text text-anchor="start" x="730.0056" y="-486.9" font-family="Arial" font-size="14.00" fill="#666666">[date]</text>
<polygon fill="none" stroke="#000000" points="667,-445.5 667,-475.5 882,-475.5 882,-445.5 667,-445.5"/>
<text text-anchor="start" x="674" y="-456.9" font-family="Arial" font-size="14.00" fill="#000000">loppupvm </text>
<text text-anchor="start" x="738.5708" y="-456.9" font-family="Arial" font-size="14.00" fill="#666666">[date]</text>
<polygon fill="none" stroke="#000000" points="667,-415.5 667,-445.5 882,-445.5 882,-415.5 667,-415.5"/>
<text text-anchor="start" x="673.7476" y="-426.9" font-family="Arial" font-size="14.00" fill="#000000">kimppaisanta_kohde_id </text>
<text text-anchor="start" x="824.683" y="-426.9" font-family="Arial" font-size="14.00" fill="#666666">[integer]</text>
<polygon fill="none" stroke="#000000" points="667,-385.5 667,-415.5 882,-415.5 882,-385.5 667,-385.5"/>
<text text-anchor="start" x="674" y="-396.9" font-family="Arial" font-size="14.00" fill="#000000">kohde_id </text>
<text text-anchor="start" x="734.6928" y="-396.9" font-family="Arial" font-size="14.00" fill="#666666">[integer]</text>
<polygon fill="none" stroke="#000000" points="667,-355.5 667,-385.5 882,-385.5 882,-355.5 667,-355.5"/>
<text text-anchor="start" x="674" y="-366.9" font-family="Arial" font-size="14.00" fill="#000000">jatetyyppi_id </text>
<text text-anchor="start" x="755.6872" y="-366.9" font-family="Arial" font-size="14.00" fill="#666666">[integer]</text>
<polygon fill="none" stroke="#000000" points="667,-325.5 667,-355.5 882,-355.5 882,-325.5 667,-325.5"/>
<text text-anchor="start" x="674" y="-336.9" font-family="Arial" font-size="14.00" fill="#000000">voimassaolo </text>
<text text-anchor="start" x="755.6774" y="-336.9" font-family="Arial" font-size="14.00" fill="#666666">[daterange]</text>
<polygon fill="none" stroke="#000000" points="667,-295.5 667,-325.5 882,-325.5 882,-295.5 667,-295.5"/>
<text text-anchor="start" x="674" y="-306.9" font-family="Arial" font-size="14.00" fill="#000000">sopimustyyppi_id </text>
<text text-anchor="start" x="785.2398" y="-306.9" font-family="Arial" font-size="14.00" fill="#666666">[smallint]</text>
<polygon fill="none" stroke="#000000" points="667,-265.5 667,-295.5 882,-295.5 882,-265.5 667,-265.5"/>
<text text-anchor="start" x="674" y="-276.9" font-family="Arial" font-size="14.00" fill="#000000">tiedontuottaja_tunnus </text>
<text text-anchor="start" x="811.7306" y="-276.9" font-family="Arial" font-size="14.00" fill="#666666">[text]</text>
</g>
<!-- jkr.sopimus&#45;&gt;jkr_koodistot.sopimustyyppi -->
<g id="edge1" class="edge">
<title>jkr.sopimus:sopimustyyppi_id&#45;&gt;jkr_koodistot.sopimustyyppi:id</title>
<path fill="none" stroke="#000000" d="M656.7871,-309.7465C562.1024,-295.718 511.3375,-90.5 609,-90.5"/>
<polygon fill="#000000" stroke="#000000" points="657.0271,-309.7641 666.6689,-314.9878 662.0136,-310.1321 667,-310.5 667,-310.5 667,-310.5 662.0136,-310.1321 667.3311,-306.0122 657.0271,-309.7641 657.0271,-309.7641"/>
<text text-anchor="start" x="7.3245" y="-320.5" font-family="Arial" font-size="10.00" fill="#000000">FOREIGN KEY (sopimustyyppi_id) REFERENCES jkr_koodistot.sopimustyyppi(id) MATCH FULL ON UPDATE CASCADE ON DELETE CASCADE</text>
</g>
</g>
</svg>
