<?xml version="1.0" encoding="UTF-8" standalone="no"?>
<!DOCTYPE svg PUBLIC "-//W3C//DTD SVG 1.1//EN"
 "http://www.w3.org/Graphics/SVG/1.1/DTD/svg11.dtd">
<!-- Generated by graphviz version 2.40.1 (20161225.0304)
 -->
<!-- Title: jkr_koodistot.rakennuksenkayttotarkoitus Pages: 1 -->
<svg width="1217pt" height="652pt"
 viewBox="0.00 0.00 1217.00 652.00" xmlns="http://www.w3.org/2000/svg" xmlns:xlink="http://www.w3.org/1999/xlink">
<g id="graph0" class="graph" transform="scale(1 1) rotate(0) translate(4 648)">
<title>jkr_koodistot.rakennuksenkayttotarkoitus</title>
<polygon fill="#ffffff" stroke="transparent" points="-4,4 -4,-648 1213,-648 1213,4 -4,4"/>
<!-- jkr_koodistot.rakennuksenkayttotarkoitus -->
<g id="node1" class="node">
<title>jkr_koodistot.rakennuksenkayttotarkoitus</title>
<polygon fill="#efefef" stroke="transparent" points="46,-105.5 46,-140.5 482,-140.5 482,-105.5 46,-105.5"/>
<polygon fill="none" stroke="#000000" points="46,-105.5 46,-140.5 482,-140.5 482,-105.5 46,-105.5"/>
<text text-anchor="start" x="52.8331" y="-118.3" font-family="Arial Bold" font-size="18.00" fill="#000000">jkr_koodistot.rakennuksenkayttotarkoitus</text>
<text text-anchor="start" x="377.9131" y="-118.3" font-family="Arial" font-size="14.00" fill="#000000"> </text>
<text text-anchor="start" x="381.8037" y="-118.3" font-family="Arial" font-size="14.00" fill="#666666">[BASE TABLE]</text>
<polygon fill="none" stroke="#000000" points="46,-75.5 46,-105.5 482,-105.5 482,-75.5 46,-75.5"/>
<text text-anchor="start" x="53" y="-86.9" font-family="Arial" font-size="14.00" fill="#000000">koodi </text>
<text text-anchor="start" x="90.345" y="-86.9" font-family="Arial" font-size="14.00" fill="#666666">[text]</text>
<polygon fill="none" stroke="#000000" points="46,-45.5 46,-75.5 482,-75.5 482,-45.5 46,-45.5"/>
<text text-anchor="start" x="53" y="-56.9" font-family="Arial" font-size="14.00" fill="#000000">selite </text>
<text text-anchor="start" x="89.5596" y="-56.9" font-family="Arial" font-size="14.00" fill="#666666">[text]</text>
<polygon fill="none" stroke="#000000" stroke-width="3" points="44.5,-44.5 44.5,-142.5 483.5,-142.5 483.5,-44.5 44.5,-44.5"/>
</g>
<!-- jkr.rakennus -->
<g id="node2" class="node">
<title>jkr.rakennus</title>
<polygon fill="#efefef" stroke="transparent" points="134,-565.5 134,-600.5 393,-600.5 393,-565.5 134,-565.5"/>
<polygon fill="none" stroke="#000000" points="134,-565.5 134,-600.5 393,-600.5 393,-565.5 134,-565.5"/>
<text text-anchor="start" x="165.8672" y="-578.3" font-family="Arial Bold" font-size="18.00" fill="#000000">jkr.rakennus</text>
<text text-anchor="start" x="263.879" y="-578.3" font-family="Arial" font-size="14.00" fill="#000000"> </text>
<text text-anchor="start" x="267.7696" y="-578.3" font-family="Arial" font-size="14.00" fill="#666666">[BASE TABLE]</text>
<polygon fill="none" stroke="#000000" points="134,-535.5 134,-565.5 393,-565.5 393,-535.5 134,-535.5"/>
<text text-anchor="start" x="141" y="-546.9" font-family="Arial" font-size="14.00" fill="#000000">id </text>
<text text-anchor="start" x="155.7798" y="-546.9" font-family="Arial" font-size="14.00" fill="#666666">[integer]</text>
<polygon fill="none" stroke="#000000" points="134,-505.5 134,-535.5 393,-535.5 393,-505.5 134,-505.5"/>
<text text-anchor="start" x="141" y="-516.9" font-family="Arial" font-size="14.00" fill="#000000">prt </text>
<text text-anchor="start" x="161.2244" y="-516.9" font-family="Arial" font-size="14.00" fill="#666666">[character(10)]</text>
<polygon fill="none" stroke="#000000" points="134,-475.5 134,-505.5 393,-505.5 393,-475.5 134,-475.5"/>
<text text-anchor="start" x="141" y="-486.9" font-family="Arial" font-size="14.00" fill="#000000">huoneistomaara </text>
<text text-anchor="start" x="245.2524" y="-486.9" font-family="Arial" font-size="14.00" fill="#666666">[smallint]</text>
<polygon fill="none" stroke="#000000" points="134,-445.5 134,-475.5 393,-475.5 393,-445.5 134,-445.5"/>
<text text-anchor="start" x="141" y="-456.9" font-family="Arial" font-size="14.00" fill="#000000">kiinteistotunnus </text>
<text text-anchor="start" x="241.3604" y="-456.9" font-family="Arial" font-size="14.00" fill="#666666">[text]</text>
<polygon fill="none" stroke="#000000" points="134,-415.5 134,-445.5 393,-445.5 393,-415.5 134,-415.5"/>
<text text-anchor="start" x="141" y="-426.9" font-family="Arial" font-size="14.00" fill="#000000">onko_viemari </text>
<text text-anchor="start" x="228.1206" y="-426.9" font-family="Arial" font-size="14.00" fill="#666666">[boolean]</text>
<polygon fill="none" stroke="#000000" points="134,-385.5 134,-415.5 393,-415.5 393,-385.5 134,-385.5"/>
<text text-anchor="start" x="141" y="-396.9" font-family="Arial" font-size="14.00" fill="#000000">geom </text>
<text text-anchor="start" x="179.899" y="-396.9" font-family="Arial" font-size="14.00" fill="#666666">[geometry(Point,3067)]</text>
<polygon fill="none" stroke="#000000" points="134,-355.5 134,-385.5 393,-385.5 393,-355.5 134,-355.5"/>
<text text-anchor="start" x="140.573" y="-366.9" font-family="Arial" font-size="14.00" fill="#000000">rakennuksenkayttotarkoitus_koodi </text>
<text text-anchor="start" x="356.082" y="-366.9" font-family="Arial" font-size="14.00" fill="#666666">[text]</text>
<polygon fill="none" stroke="#000000" points="134,-325.5 134,-355.5 393,-355.5 393,-325.5 134,-325.5"/>
<text text-anchor="start" x="141" y="-336.9" font-family="Arial" font-size="14.00" fill="#000000">rakennuksenolotila_koodi </text>
<text text-anchor="start" x="302.8246" y="-336.9" font-family="Arial" font-size="14.00" fill="#666666">[text]</text>
<polygon fill="none" stroke="#000000" points="134,-295.5 134,-325.5 393,-325.5 393,-295.5 134,-295.5"/>
<text text-anchor="start" x="141" y="-306.9" font-family="Arial" font-size="14.00" fill="#000000">kayttoonotto_pvm </text>
<text text-anchor="start" x="255.3744" y="-306.9" font-family="Arial" font-size="14.00" fill="#666666">[date]</text>
<polygon fill="none" stroke="#000000" points="134,-265.5 134,-295.5 393,-295.5 393,-265.5 134,-265.5"/>
<text text-anchor="start" x="141" y="-276.9" font-family="Arial" font-size="14.00" fill="#000000">kaytostapoisto_pvm </text>
<text text-anchor="start" x="268.5904" y="-276.9" font-family="Arial" font-size="14.00" fill="#666666">[date]</text>
</g>
<!-- jkr.rakennus&#45;&gt;jkr_koodistot.rakennuksenkayttotarkoitus -->
<g id="edge1" class="edge">
<title>jkr.rakennus:rakennuksenkayttotarkoitus_koodi&#45;&gt;jkr_koodistot.rakennuksenkayttotarkoitus:koodi</title>
<path fill="none" stroke="#000000" d="M402.9833,-369.6378C456.1202,-359.8423 434.4973,-269.0252 393,-223 341.087,-165.4226 97.913,-244.5774 46,-187 17.2803,-155.1466 3.1111,-90.5 46,-90.5"/>
<polygon fill="#000000" stroke="#000000" points="402.9629,-369.6395 392.6128,-366.0167 397.9815,-370.0697 393,-370.5 393,-370.5 393,-370.5 397.9815,-370.0697 393.3872,-374.9833 402.9629,-369.6395 402.9629,-369.6395"/>
<text text-anchor="start" x="399.8465" y="-380.5" font-family="Arial" font-size="10.00" fill="#000000">FOREIGN KEY (rakennuksenkayttotarkoitus_koodi) REFERENCES jkr_koodistot.rakennuksenkayttotarkoitus(koodi) MATCH FULL ON UPDATE CASCADE ON DELETE CASCADE</text>
</g>
</g>
</svg>
