<?xml version="1.0" encoding="UTF-8" standalone="no"?>
<!DOCTYPE svg PUBLIC "-//W3C//DTD SVG 1.1//EN"
 "http://www.w3.org/Graphics/SVG/1.1/DTD/svg11.dtd">
<!-- Generated by graphviz version 2.40.1 (20161225.0304)
 -->
<!-- Title: jkr_koodistot.jatetyyppi Pages: 1 -->
<svg width="1665pt" height="682pt"
 viewBox="0.00 0.00 1665.00 682.00" xmlns="http://www.w3.org/2000/svg" xmlns:xlink="http://www.w3.org/1999/xlink">
<g id="graph0" class="graph" transform="scale(1 1) rotate(0) translate(4 678)">
<title>jkr_koodistot.jatetyyppi</title>
<polygon fill="#ffffff" stroke="transparent" points="-4,4 -4,-678 1661,-678 1661,4 -4,4"/>
<!-- jkr_koodistot.jatetyyppi -->
<g id="node1" class="node">
<title>jkr_koodistot.jatetyyppi</title>
<polygon fill="#efefef" stroke="transparent" points="681,-135.5 681,-170.5 974,-170.5 974,-135.5 681,-135.5"/>
<polygon fill="none" stroke="#000000" points="681,-135.5 681,-170.5 974,-170.5 974,-135.5 681,-135.5"/>
<text text-anchor="start" x="687.8552" y="-148.3" font-family="Arial Bold" font-size="18.00" fill="#000000">jkr_koodistot.jatetyyppi</text>
<text text-anchor="start" x="869.891" y="-148.3" font-family="Arial" font-size="14.00" fill="#000000"> </text>
<text text-anchor="start" x="873.7816" y="-148.3" font-family="Arial" font-size="14.00" fill="#666666">[BASE TABLE]</text>
<polygon fill="none" stroke="#000000" points="681,-105.5 681,-135.5 974,-135.5 974,-105.5 681,-105.5"/>
<text text-anchor="start" x="688" y="-116.9" font-family="Arial" font-size="14.00" fill="#000000">id </text>
<text text-anchor="start" x="702.7798" y="-116.9" font-family="Arial" font-size="14.00" fill="#666666">[integer]</text>
<polygon fill="none" stroke="#000000" points="681,-75.5 681,-105.5 974,-105.5 974,-75.5 681,-75.5"/>
<text text-anchor="start" x="688" y="-86.9" font-family="Arial" font-size="14.00" fill="#000000">selite </text>
<text text-anchor="start" x="724.5596" y="-86.9" font-family="Arial" font-size="14.00" fill="#666666">[text]</text>
<polygon fill="none" stroke="#000000" points="681,-45.5 681,-75.5 974,-75.5 974,-45.5 681,-45.5"/>
<text text-anchor="start" x="688" y="-56.9" font-family="Arial" font-size="14.00" fill="#000000">ewc </text>
<text text-anchor="start" x="716.7798" y="-56.9" font-family="Arial" font-size="14.00" fill="#666666">[character(6)]</text>
<polygon fill="none" stroke="#000000" stroke-width="3" points="679,-44.5 679,-172.5 975,-172.5 975,-44.5 679,-44.5"/>
</g>
<!-- jkr.velvoitemalli -->
<g id="node2" class="node">
<title>jkr.velvoitemalli</title>
<polygon fill="#efefef" stroke="transparent" points="393,-565.5 393,-600.5 626,-600.5 626,-565.5 393,-565.5"/>
<polygon fill="none" stroke="#000000" points="393,-565.5 393,-600.5 626,-600.5 626,-565.5 393,-565.5"/>
<text text-anchor="start" x="399.8837" y="-578.3" font-family="Arial Bold" font-size="18.00" fill="#000000">jkr.velvoitemalli</text>
<text text-anchor="start" x="521.8625" y="-578.3" font-family="Arial" font-size="14.00" fill="#000000"> </text>
<text text-anchor="start" x="525.7531" y="-578.3" font-family="Arial" font-size="14.00" fill="#666666">[BASE TABLE]</text>
<polygon fill="none" stroke="#000000" points="393,-535.5 393,-565.5 626,-565.5 626,-535.5 393,-535.5"/>
<text text-anchor="start" x="400" y="-546.9" font-family="Arial" font-size="14.00" fill="#000000">id </text>
<text text-anchor="start" x="414.7798" y="-546.9" font-family="Arial" font-size="14.00" fill="#666666">[integer]</text>
<polygon fill="none" stroke="#000000" points="393,-505.5 393,-535.5 626,-535.5 626,-505.5 393,-505.5"/>
<text text-anchor="start" x="400" y="-516.9" font-family="Arial" font-size="14.00" fill="#000000">selite </text>
<text text-anchor="start" x="436.5596" y="-516.9" font-family="Arial" font-size="14.00" fill="#666666">[text]</text>
<polygon fill="none" stroke="#000000" points="393,-475.5 393,-505.5 626,-505.5 626,-475.5 393,-475.5"/>
<text text-anchor="start" x="400" y="-486.9" font-family="Arial" font-size="14.00" fill="#000000">saanto </text>
<text text-anchor="start" x="445.9116" y="-486.9" font-family="Arial" font-size="14.00" fill="#666666">[text]</text>
<polygon fill="none" stroke="#000000" points="393,-445.5 393,-475.5 626,-475.5 626,-445.5 393,-445.5"/>
<text text-anchor="start" x="400" y="-456.9" font-family="Arial" font-size="14.00" fill="#000000">tayttymissaanto </text>
<text text-anchor="start" x="501.1332" y="-456.9" font-family="Arial" font-size="14.00" fill="#666666">[text]</text>
<polygon fill="none" stroke="#000000" points="393,-415.5 393,-445.5 626,-445.5 626,-415.5 393,-415.5"/>
<text text-anchor="start" x="400" y="-426.9" font-family="Arial" font-size="14.00" fill="#000000">jatetyyppi_id </text>
<text text-anchor="start" x="481.6872" y="-426.9" font-family="Arial" font-size="14.00" fill="#666666">[integer]</text>
<polygon fill="none" stroke="#000000" points="393,-385.5 393,-415.5 626,-415.5 626,-385.5 393,-385.5"/>
<text text-anchor="start" x="400" y="-396.9" font-family="Arial" font-size="14.00" fill="#000000">alkupvm </text>
<text text-anchor="start" x="456.0056" y="-396.9" font-family="Arial" font-size="14.00" fill="#666666">[date]</text>
<polygon fill="none" stroke="#000000" points="393,-355.5 393,-385.5 626,-385.5 626,-355.5 393,-355.5"/>
<text text-anchor="start" x="400" y="-366.9" font-family="Arial" font-size="14.00" fill="#000000">loppupvm </text>
<text text-anchor="start" x="464.5708" y="-366.9" font-family="Arial" font-size="14.00" fill="#666666">[date]</text>
<polygon fill="none" stroke="#000000" points="393,-325.5 393,-355.5 626,-355.5 626,-325.5 393,-325.5"/>
<text text-anchor="start" x="400" y="-336.9" font-family="Arial" font-size="14.00" fill="#000000">voimassaolo </text>
<text text-anchor="start" x="481.6774" y="-336.9" font-family="Arial" font-size="14.00" fill="#666666">[daterange]</text>
</g>
<!-- jkr.velvoitemalli&#45;&gt;jkr_koodistot.jatetyyppi -->
<g id="edge1" class="edge">
<title>jkr.velvoitemalli:jatetyyppi_id&#45;&gt;jkr_koodistot.jatetyyppi:id</title>
<path fill="none" stroke="#000000" d="M636.3212,-429.8648C754.3253,-414.3679 544.7601,-120.5 681,-120.5"/>
<polygon fill="#000000" stroke="#000000" points="635.9811,-429.8856 625.7235,-426.0085 630.9906,-430.1928 626,-430.5 626,-430.5 626,-430.5 630.9906,-430.1928 626.2765,-434.9915 635.9811,-429.8856 635.9811,-429.8856"/>
<text text-anchor="start" x="6.604" y="-440.5" font-family="Arial" font-size="10.00" fill="#000000">FOREIGN KEY (jatetyyppi_id) REFERENCES jkr_koodistot.jatetyyppi(id) MATCH FULL ON UPDATE CASCADE ON DELETE RESTRICT</text>
</g>
<!-- jkr.kuljetus -->
<g id="node3" class="node">
<title>jkr.kuljetus</title>
<polygon fill="#efefef" stroke="transparent" points="730,-595.5 730,-630.5 926,-630.5 926,-595.5 730,-595.5"/>
<polygon fill="none" stroke="#000000" points="730,-595.5 730,-630.5 926,-630.5 926,-595.5 730,-595.5"/>
<text text-anchor="start" x="736.8742" y="-608.3" font-family="Arial Bold" font-size="18.00" fill="#000000">jkr.kuljetus</text>
<text text-anchor="start" x="821.872" y="-608.3" font-family="Arial" font-size="14.00" fill="#000000"> </text>
<text text-anchor="start" x="825.7626" y="-608.3" font-family="Arial" font-size="14.00" fill="#666666">[BASE TABLE]</text>
<polygon fill="none" stroke="#000000" points="730,-565.5 730,-595.5 926,-595.5 926,-565.5 730,-565.5"/>
<text text-anchor="start" x="737" y="-576.9" font-family="Arial" font-size="14.00" fill="#000000">id </text>
<text text-anchor="start" x="751.7798" y="-576.9" font-family="Arial" font-size="14.00" fill="#666666">[integer]</text>
<polygon fill="none" stroke="#000000" points="730,-535.5 730,-565.5 926,-565.5 926,-535.5 730,-535.5"/>
<text text-anchor="start" x="737" y="-546.9" font-family="Arial" font-size="14.00" fill="#000000">alkupvm </text>
<text text-anchor="start" x="793.0056" y="-546.9" font-family="Arial" font-size="14.00" fill="#666666">[date]</text>
<polygon fill="none" stroke="#000000" points="730,-505.5 730,-535.5 926,-535.5 926,-505.5 730,-505.5"/>
<text text-anchor="start" x="737" y="-516.9" font-family="Arial" font-size="14.00" fill="#000000">loppupvm </text>
<text text-anchor="start" x="801.5708" y="-516.9" font-family="Arial" font-size="14.00" fill="#666666">[date]</text>
<polygon fill="none" stroke="#000000" points="730,-475.5 730,-505.5 926,-505.5 926,-475.5 730,-475.5"/>
<text text-anchor="start" x="737" y="-486.9" font-family="Arial" font-size="14.00" fill="#000000">tyhjennyskerrat </text>
<text text-anchor="start" x="835.7952" y="-486.9" font-family="Arial" font-size="14.00" fill="#666666">[smallint]</text>
<polygon fill="none" stroke="#000000" points="730,-445.5 730,-475.5 926,-475.5 926,-445.5 730,-445.5"/>
<text text-anchor="start" x="737" y="-456.9" font-family="Arial" font-size="14.00" fill="#000000">massa </text>
<text text-anchor="start" x="782.1164" y="-456.9" font-family="Arial" font-size="14.00" fill="#666666">[integer]</text>
<polygon fill="none" stroke="#000000" points="730,-415.5 730,-445.5 926,-445.5 926,-415.5 730,-415.5"/>
<text text-anchor="start" x="737" y="-426.9" font-family="Arial" font-size="14.00" fill="#000000">tilavuus </text>
<text text-anchor="start" x="788.3422" y="-426.9" font-family="Arial" font-size="14.00" fill="#666666">[integer]</text>
<polygon fill="none" stroke="#000000" points="730,-385.5 730,-415.5 926,-415.5 926,-385.5 730,-385.5"/>
<text text-anchor="start" x="737" y="-396.9" font-family="Arial" font-size="14.00" fill="#000000">aikavali </text>
<text text-anchor="start" x="787.5582" y="-396.9" font-family="Arial" font-size="14.00" fill="#666666">[daterange]</text>
<polygon fill="none" stroke="#000000" points="730,-355.5 730,-385.5 926,-385.5 926,-355.5 730,-355.5"/>
<text text-anchor="start" x="737" y="-366.9" font-family="Arial" font-size="14.00" fill="#000000">kohde_id </text>
<text text-anchor="start" x="797.6928" y="-366.9" font-family="Arial" font-size="14.00" fill="#666666">[integer]</text>
<polygon fill="none" stroke="#000000" points="730,-325.5 730,-355.5 926,-355.5 926,-325.5 730,-325.5"/>
<text text-anchor="start" x="737" y="-336.9" font-family="Arial" font-size="14.00" fill="#000000">jatetyyppi_id </text>
<text text-anchor="start" x="818.6872" y="-336.9" font-family="Arial" font-size="14.00" fill="#666666">[integer]</text>
<polygon fill="none" stroke="#000000" points="730,-295.5 730,-325.5 926,-325.5 926,-295.5 730,-295.5"/>
<text text-anchor="start" x="737" y="-306.9" font-family="Arial" font-size="14.00" fill="#000000">tiedontuottaja_tunnus </text>
<text text-anchor="start" x="874.7306" y="-306.9" font-family="Arial" font-size="14.00" fill="#666666">[text]</text>
</g>
<!-- jkr.kuljetus&#45;&gt;jkr_koodistot.jatetyyppi -->
<g id="edge2" class="edge">
<title>jkr.kuljetus:jatetyyppi_id&#45;&gt;jkr_koodistot.jatetyyppi:id</title>
<path fill="none" stroke="#000000" d="M720.0673,-338.9195C693.857,-329.4326 707.0691,-279.5624 730,-253 801.6321,-170.0238 902.3679,-299.9762 974,-217 1002.0265,-184.5351 1016.8889,-120.5 974,-120.5"/>
<polygon fill="#000000" stroke="#000000" points="720.1242,-338.9285 729.2928,-344.9441 725.0621,-339.7143 730,-340.5 730,-340.5 730,-340.5 725.0621,-339.7143 730.7072,-336.0559 720.1242,-338.9285 720.1242,-338.9285"/>
<text text-anchor="start" x="737.4335" y="-350.5" font-family="Arial" font-size="10.00" fill="#000000">FOREIGN KEY (jatetyyppi_id) REFERENCES jkr_koodistot.jatetyyppi(id) MATCH FULL ON UPDATE CASCADE ON DELETE CASCADE</text>
</g>
<!-- jkr.sopimus -->
<g id="node4" class="node">
<title>jkr.sopimus</title>
<polygon fill="#efefef" stroke="transparent" points="1031,-580.5 1031,-615.5 1246,-615.5 1246,-580.5 1031,-580.5"/>
<polygon fill="none" stroke="#000000" points="1031,-580.5 1031,-615.5 1246,-615.5 1246,-580.5 1031,-580.5"/>
<text text-anchor="start" x="1044.3763" y="-593.3" font-family="Arial Bold" font-size="18.00" fill="#000000">jkr.sopimus</text>
<text text-anchor="start" x="1135.3699" y="-593.3" font-family="Arial" font-size="14.00" fill="#000000"> </text>
<text text-anchor="start" x="1139.2605" y="-593.3" font-family="Arial" font-size="14.00" fill="#666666">[BASE TABLE]</text>
<polygon fill="none" stroke="#000000" points="1031,-550.5 1031,-580.5 1246,-580.5 1246,-550.5 1031,-550.5"/>
<text text-anchor="start" x="1038" y="-561.9" font-family="Arial" font-size="14.00" fill="#000000">id </text>
<text text-anchor="start" x="1052.7798" y="-561.9" font-family="Arial" font-size="14.00" fill="#666666">[integer]</text>
<polygon fill="none" stroke="#000000" points="1031,-520.5 1031,-550.5 1246,-550.5 1246,-520.5 1031,-520.5"/>
<text text-anchor="start" x="1038" y="-531.9" font-family="Arial" font-size="14.00" fill="#000000">alkupvm </text>
<text text-anchor="start" x="1094.0056" y="-531.9" font-family="Arial" font-size="14.00" fill="#666666">[date]</text>
<polygon fill="none" stroke="#000000" points="1031,-490.5 1031,-520.5 1246,-520.5 1246,-490.5 1031,-490.5"/>
<text text-anchor="start" x="1038" y="-501.9" font-family="Arial" font-size="14.00" fill="#000000">loppupvm </text>
<text text-anchor="start" x="1102.5708" y="-501.9" font-family="Arial" font-size="14.00" fill="#666666">[date]</text>
<polygon fill="none" stroke="#000000" points="1031,-460.5 1031,-490.5 1246,-490.5 1246,-460.5 1031,-460.5"/>
<text text-anchor="start" x="1037.7476" y="-471.9" font-family="Arial" font-size="14.00" fill="#000000">kimppaisanta_kohde_id </text>
<text text-anchor="start" x="1188.683" y="-471.9" font-family="Arial" font-size="14.00" fill="#666666">[integer]</text>
<polygon fill="none" stroke="#000000" points="1031,-430.5 1031,-460.5 1246,-460.5 1246,-430.5 1031,-430.5"/>
<text text-anchor="start" x="1038" y="-441.9" font-family="Arial" font-size="14.00" fill="#000000">kohde_id </text>
<text text-anchor="start" x="1098.6928" y="-441.9" font-family="Arial" font-size="14.00" fill="#666666">[integer]</text>
<polygon fill="none" stroke="#000000" points="1031,-400.5 1031,-430.5 1246,-430.5 1246,-400.5 1031,-400.5"/>
<text text-anchor="start" x="1038" y="-411.9" font-family="Arial" font-size="14.00" fill="#000000">jatetyyppi_id </text>
<text text-anchor="start" x="1119.6872" y="-411.9" font-family="Arial" font-size="14.00" fill="#666666">[integer]</text>
<polygon fill="none" stroke="#000000" points="1031,-370.5 1031,-400.5 1246,-400.5 1246,-370.5 1031,-370.5"/>
<text text-anchor="start" x="1038" y="-381.9" font-family="Arial" font-size="14.00" fill="#000000">voimassaolo </text>
<text text-anchor="start" x="1119.6774" y="-381.9" font-family="Arial" font-size="14.00" fill="#666666">[daterange]</text>
<polygon fill="none" stroke="#000000" points="1031,-340.5 1031,-370.5 1246,-370.5 1246,-340.5 1031,-340.5"/>
<text text-anchor="start" x="1038" y="-351.9" font-family="Arial" font-size="14.00" fill="#000000">sopimustyyppi_id </text>
<text text-anchor="start" x="1149.2398" y="-351.9" font-family="Arial" font-size="14.00" fill="#666666">[smallint]</text>
<polygon fill="none" stroke="#000000" points="1031,-310.5 1031,-340.5 1246,-340.5 1246,-310.5 1031,-310.5"/>
<text text-anchor="start" x="1038" y="-321.9" font-family="Arial" font-size="14.00" fill="#000000">tiedontuottaja_tunnus </text>
<text text-anchor="start" x="1175.7306" y="-321.9" font-family="Arial" font-size="14.00" fill="#666666">[text]</text>
</g>
<!-- jkr.sopimus&#45;&gt;jkr_koodistot.jatetyyppi -->
<g id="edge3" class="edge">
<title>jkr.sopimus:jatetyyppi_id&#45;&gt;jkr_koodistot.jatetyyppi:id</title>
<path fill="none" stroke="#000000" d="M1020.8025,-414.8504C908.6953,-399.5878 1103.8848,-120.5 974,-120.5"/>
<polygon fill="#000000" stroke="#000000" points="1021.0202,-414.8641 1030.7139,-419.9909 1026.0101,-415.1821 1031,-415.5 1031,-415.5 1031,-415.5 1026.0101,-415.1821 1031.2861,-411.0091 1021.0202,-414.8641 1021.0202,-414.8641"/>
<text text-anchor="start" x="1037.604" y="-425.5" font-family="Arial" font-size="10.00" fill="#000000">FOREIGN KEY (jatetyyppi_id) REFERENCES jkr_koodistot.jatetyyppi(id) MATCH FULL ON UPDATE CASCADE ON DELETE RESTRICT</text>
</g>
</g>
</svg>
