<?xml version="1.0" encoding="UTF-8" standalone="no"?>
<!DOCTYPE svg PUBLIC "-//W3C//DTD SVG 1.1//EN"
 "http://www.w3.org/Graphics/SVG/1.1/DTD/svg11.dtd">
<!-- Generated by graphviz version 2.40.1 (20161225.0304)
 -->
<!-- Title: jkr_koodistot.kohdetyyppi Pages: 1 -->
<svg width="861pt" height="562pt"
 viewBox="0.00 0.00 860.50 562.00" xmlns="http://www.w3.org/2000/svg" xmlns:xlink="http://www.w3.org/1999/xlink">
<g id="graph0" class="graph" transform="scale(1 1) rotate(0) translate(4 558)">
<title>jkr_koodistot.kohdetyyppi</title>
<polygon fill="#ffffff" stroke="transparent" points="-4,4 -4,-558 856.5,-558 856.5,4 -4,4"/>
<!-- jkr_koodistot.kohdetyyppi -->
<g id="node1" class="node">
<title>jkr_koodistot.kohdetyyppi</title>
<polygon fill="#efefef" stroke="transparent" points="46.5,-105.5 46.5,-140.5 359.5,-140.5 359.5,-105.5 46.5,-105.5"/>
<polygon fill="none" stroke="#000000" points="46.5,-105.5 46.5,-140.5 359.5,-140.5 359.5,-105.5 46.5,-105.5"/>
<text text-anchor="start" x="53.3472" y="-118.3" font-family="Arial Bold" font-size="18.00" fill="#000000">jkr_koodistot.kohdetyyppi</text>
<text text-anchor="start" x="255.399" y="-118.3" font-family="Arial" font-size="14.00" fill="#000000"> </text>
<text text-anchor="start" x="259.2896" y="-118.3" font-family="Arial" font-size="14.00" fill="#666666">[BASE TABLE]</text>
<polygon fill="none" stroke="#000000" points="46.5,-75.5 46.5,-105.5 359.5,-105.5 359.5,-75.5 46.5,-75.5"/>
<text text-anchor="start" x="53.5" y="-86.9" font-family="Arial" font-size="14.00" fill="#000000">id </text>
<text text-anchor="start" x="68.2798" y="-86.9" font-family="Arial" font-size="14.00" fill="#666666">[integer]</text>
<polygon fill="none" stroke="#000000" points="46.5,-45.5 46.5,-75.5 359.5,-75.5 359.5,-45.5 46.5,-45.5"/>
<text text-anchor="start" x="53.5" y="-56.9" font-family="Arial" font-size="14.00" fill="#000000">selite </text>
<text text-anchor="start" x="90.0596" y="-56.9" font-family="Arial" font-size="14.00" fill="#666666">[text]</text>
<polygon fill="none" stroke="#000000" stroke-width="3" points="44.5,-44.5 44.5,-142.5 360.5,-142.5 360.5,-44.5 44.5,-44.5"/>
</g>
<!-- jkr.kohde -->
<g id="node2" class="node">
<title>jkr.kohde</title>
<polygon fill="#efefef" stroke="transparent" points="96.5,-475.5 96.5,-510.5 309.5,-510.5 309.5,-475.5 96.5,-475.5"/>
<polygon fill="none" stroke="#000000" points="96.5,-475.5 96.5,-510.5 309.5,-510.5 309.5,-475.5 96.5,-475.5"/>
<text text-anchor="start" x="117.8664" y="-488.3" font-family="Arial Bold" font-size="18.00" fill="#000000">jkr.kohde</text>
<text text-anchor="start" x="190.8798" y="-488.3" font-family="Arial" font-size="14.00" fill="#000000"> </text>
<text text-anchor="start" x="194.7704" y="-488.3" font-family="Arial" font-size="14.00" fill="#666666">[BASE TABLE]</text>
<polygon fill="none" stroke="#000000" points="96.5,-445.5 96.5,-475.5 309.5,-475.5 309.5,-445.5 96.5,-445.5"/>
<text text-anchor="start" x="103.5" y="-456.9" font-family="Arial" font-size="14.00" fill="#000000">id </text>
<text text-anchor="start" x="118.2798" y="-456.9" font-family="Arial" font-size="14.00" fill="#666666">[integer]</text>
<polygon fill="none" stroke="#000000" points="96.5,-415.5 96.5,-445.5 309.5,-445.5 309.5,-415.5 96.5,-415.5"/>
<text text-anchor="start" x="103.5" y="-426.9" font-family="Arial" font-size="14.00" fill="#000000">nimi </text>
<text text-anchor="start" x="133.047" y="-426.9" font-family="Arial" font-size="14.00" fill="#666666">[text]</text>
<polygon fill="none" stroke="#000000" points="96.5,-385.5 96.5,-415.5 309.5,-415.5 309.5,-385.5 96.5,-385.5"/>
<text text-anchor="start" x="103.0309" y="-396.9" font-family="Arial" font-size="14.00" fill="#000000">geom </text>
<text text-anchor="start" x="141.9299" y="-396.9" font-family="Arial" font-size="14.00" fill="#666666">[geometry(Polygon,3067)]</text>
<polygon fill="none" stroke="#000000" points="96.5,-355.5 96.5,-385.5 309.5,-385.5 309.5,-355.5 96.5,-355.5"/>
<text text-anchor="start" x="103.5" y="-366.9" font-family="Arial" font-size="14.00" fill="#000000">alkupvm </text>
<text text-anchor="start" x="159.5056" y="-366.9" font-family="Arial" font-size="14.00" fill="#666666">[date]</text>
<polygon fill="none" stroke="#000000" points="96.5,-325.5 96.5,-355.5 309.5,-355.5 309.5,-325.5 96.5,-325.5"/>
<text text-anchor="start" x="103.5" y="-336.9" font-family="Arial" font-size="14.00" fill="#000000">loppupvm </text>
<text text-anchor="start" x="168.0708" y="-336.9" font-family="Arial" font-size="14.00" fill="#666666">[date]</text>
<polygon fill="none" stroke="#000000" points="96.5,-295.5 96.5,-325.5 309.5,-325.5 309.5,-295.5 96.5,-295.5"/>
<text text-anchor="start" x="103.5" y="-306.9" font-family="Arial" font-size="14.00" fill="#000000">voimassaolo </text>
<text text-anchor="start" x="185.1774" y="-306.9" font-family="Arial" font-size="14.00" fill="#666666">[daterange]</text>
<polygon fill="none" stroke="#000000" points="96.5,-265.5 96.5,-295.5 309.5,-295.5 309.5,-265.5 96.5,-265.5"/>
<text text-anchor="start" x="103.5" y="-276.9" font-family="Arial" font-size="14.00" fill="#000000">kohdetyyppi_id </text>
<text text-anchor="start" x="200.7552" y="-276.9" font-family="Arial" font-size="14.00" fill="#666666">[integer]</text>
</g>
<!-- jkr.kohde&#45;&gt;jkr_koodistot.kohdetyyppi -->
<g id="edge1" class="edge">
<title>jkr.kohde:kohdetyyppi_id&#45;&gt;jkr_koodistot.kohdetyyppi:id</title>
<path fill="none" stroke="#000000" d="M202.7551,-255.4493C192.7911,-193.3714 85.5918,-250.2519 46.5,-187 23.952,-150.5165 3.6111,-90.5 46.5,-90.5"/>
<polygon fill="#000000" stroke="#000000" points="202.7608,-255.5274 199.0123,-265.8326 203.1304,-260.5137 203.5,-265.5 203.5,-265.5 203.5,-265.5 203.1304,-260.5137 207.9877,-265.1674 202.7608,-255.5274 202.7608,-255.5274"/>
<text text-anchor="start" x="210.984" y="-275.5" font-family="Arial" font-size="10.00" fill="#000000">FOREIGN KEY (kohdetyyppi_id) REFERENCES jkr_koodistot.kohdetyyppi(id) MATCH FULL ON UPDATE CASCADE ON DELETE RESTRICT</text>
</g>
</g>
</svg>
