<?xml version="1.0" encoding="UTF-8" standalone="no"?>
<!DOCTYPE svg PUBLIC "-//W3C//DTD SVG 1.1//EN"
 "http://www.w3.org/Graphics/SVG/1.1/DTD/svg11.dtd">
<!-- Generated by graphviz version 2.40.1 (20161225.0304)
 -->
<!-- Title: jkr_koodistot.tiedontuottaja Pages: 1 -->
<svg width="1842pt" height="652pt"
 viewBox="0.00 0.00 1842.00 652.00" xmlns="http://www.w3.org/2000/svg" xmlns:xlink="http://www.w3.org/1999/xlink">
<g id="graph0" class="graph" transform="scale(1 1) rotate(0) translate(4 648)">
<title>jkr_koodistot.tiedontuottaja</title>
<polygon fill="#ffffff" stroke="transparent" points="-4,4 -4,-648 1838,-648 1838,4 -4,4"/>
<!-- jkr_koodistot.tiedontuottaja -->
<g id="node1" class="node">
<title>jkr_koodistot.tiedontuottaja</title>
<polygon fill="#efefef" stroke="transparent" points="755,-105.5 755,-140.5 1080,-140.5 1080,-105.5 755,-105.5"/>
<polygon fill="none" stroke="#000000" points="755,-105.5 755,-140.5 1080,-140.5 1080,-105.5 755,-105.5"/>
<text text-anchor="start" x="761.8406" y="-118.3" font-family="Arial Bold" font-size="18.00" fill="#000000">jkr_koodistot.tiedontuottaja</text>
<text text-anchor="start" x="975.9056" y="-118.3" font-family="Arial" font-size="14.00" fill="#000000"> </text>
<text text-anchor="start" x="979.7962" y="-118.3" font-family="Arial" font-size="14.00" fill="#666666">[BASE TABLE]</text>
<polygon fill="none" stroke="#000000" points="755,-75.5 755,-105.5 1080,-105.5 1080,-75.5 755,-75.5"/>
<text text-anchor="start" x="762" y="-86.9" font-family="Arial" font-size="14.00" fill="#000000">tunnus </text>
<text text-anchor="start" x="807.9116" y="-86.9" font-family="Arial" font-size="14.00" fill="#666666">[text]</text>
<polygon fill="none" stroke="#000000" points="755,-45.5 755,-75.5 1080,-75.5 1080,-45.5 755,-45.5"/>
<text text-anchor="start" x="762" y="-56.9" font-family="Arial" font-size="14.00" fill="#000000">nimi </text>
<text text-anchor="start" x="791.547" y="-56.9" font-family="Arial" font-size="14.00" fill="#666666">[text]</text>
<polygon fill="none" stroke="#000000" stroke-width="3" points="753,-44.5 753,-142.5 1081,-142.5 1081,-44.5 753,-44.5"/>
</g>
<!-- jkr.kuljetus -->
<g id="node2" class="node">
<title>jkr.kuljetus</title>
<polygon fill="#efefef" stroke="transparent" points="509,-565.5 509,-600.5 705,-600.5 705,-565.5 509,-565.5"/>
<polygon fill="none" stroke="#000000" points="509,-565.5 509,-600.5 705,-600.5 705,-565.5 509,-565.5"/>
<text text-anchor="start" x="515.8742" y="-578.3" font-family="Arial Bold" font-size="18.00" fill="#000000">jkr.kuljetus</text>
<text text-anchor="start" x="600.872" y="-578.3" font-family="Arial" font-size="14.00" fill="#000000"> </text>
<text text-anchor="start" x="604.7626" y="-578.3" font-family="Arial" font-size="14.00" fill="#666666">[BASE TABLE]</text>
<polygon fill="none" stroke="#000000" points="509,-535.5 509,-565.5 705,-565.5 705,-535.5 509,-535.5"/>
<text text-anchor="start" x="516" y="-546.9" font-family="Arial" font-size="14.00" fill="#000000">id </text>
<text text-anchor="start" x="530.7798" y="-546.9" font-family="Arial" font-size="14.00" fill="#666666">[integer]</text>
<polygon fill="none" stroke="#000000" points="509,-505.5 509,-535.5 705,-535.5 705,-505.5 509,-505.5"/>
<text text-anchor="start" x="516" y="-516.9" font-family="Arial" font-size="14.00" fill="#000000">alkupvm </text>
<text text-anchor="start" x="572.0056" y="-516.9" font-family="Arial" font-size="14.00" fill="#666666">[date]</text>
<polygon fill="none" stroke="#000000" points="509,-475.5 509,-505.5 705,-505.5 705,-475.5 509,-475.5"/>
<text text-anchor="start" x="516" y="-486.9" font-family="Arial" font-size="14.00" fill="#000000">loppupvm </text>
<text text-anchor="start" x="580.5708" y="-486.9" font-family="Arial" font-size="14.00" fill="#666666">[date]</text>
<polygon fill="none" stroke="#000000" points="509,-445.5 509,-475.5 705,-475.5 705,-445.5 509,-445.5"/>
<text text-anchor="start" x="516" y="-456.9" font-family="Arial" font-size="14.00" fill="#000000">tyhjennyskerrat </text>
<text text-anchor="start" x="614.7952" y="-456.9" font-family="Arial" font-size="14.00" fill="#666666">[smallint]</text>
<polygon fill="none" stroke="#000000" points="509,-415.5 509,-445.5 705,-445.5 705,-415.5 509,-415.5"/>
<text text-anchor="start" x="516" y="-426.9" font-family="Arial" font-size="14.00" fill="#000000">massa </text>
<text text-anchor="start" x="561.1164" y="-426.9" font-family="Arial" font-size="14.00" fill="#666666">[integer]</text>
<polygon fill="none" stroke="#000000" points="509,-385.5 509,-415.5 705,-415.5 705,-385.5 509,-385.5"/>
<text text-anchor="start" x="516" y="-396.9" font-family="Arial" font-size="14.00" fill="#000000">tilavuus </text>
<text text-anchor="start" x="567.3422" y="-396.9" font-family="Arial" font-size="14.00" fill="#666666">[integer]</text>
<polygon fill="none" stroke="#000000" points="509,-355.5 509,-385.5 705,-385.5 705,-355.5 509,-355.5"/>
<text text-anchor="start" x="516" y="-366.9" font-family="Arial" font-size="14.00" fill="#000000">aikavali </text>
<text text-anchor="start" x="566.5582" y="-366.9" font-family="Arial" font-size="14.00" fill="#666666">[daterange]</text>
<polygon fill="none" stroke="#000000" points="509,-325.5 509,-355.5 705,-355.5 705,-325.5 509,-325.5"/>
<text text-anchor="start" x="516" y="-336.9" font-family="Arial" font-size="14.00" fill="#000000">kohde_id </text>
<text text-anchor="start" x="576.6928" y="-336.9" font-family="Arial" font-size="14.00" fill="#666666">[integer]</text>
<polygon fill="none" stroke="#000000" points="509,-295.5 509,-325.5 705,-325.5 705,-295.5 509,-295.5"/>
<text text-anchor="start" x="516" y="-306.9" font-family="Arial" font-size="14.00" fill="#000000">jatetyyppi_id </text>
<text text-anchor="start" x="597.6872" y="-306.9" font-family="Arial" font-size="14.00" fill="#666666">[integer]</text>
<polygon fill="none" stroke="#000000" points="509,-265.5 509,-295.5 705,-295.5 705,-265.5 509,-265.5"/>
<text text-anchor="start" x="516" y="-276.9" font-family="Arial" font-size="14.00" fill="#000000">tiedontuottaja_tunnus </text>
<text text-anchor="start" x="653.7306" y="-276.9" font-family="Arial" font-size="14.00" fill="#666666">[text]</text>
</g>
<!-- jkr.kuljetus&#45;&gt;jkr_koodistot.tiedontuottaja -->
<g id="edge1" class="edge">
<title>jkr.kuljetus:tiedontuottaja_tunnus&#45;&gt;jkr_koodistot.tiedontuottaja:tunnus</title>
<path fill="none" stroke="#000000" d="M715.1156,-279.4777C781.9997,-264.5227 671.4325,-90.5 755,-90.5"/>
<polygon fill="#000000" stroke="#000000" points="714.9493,-279.4945 704.5475,-276.0228 709.9747,-279.9972 705,-280.5 705,-280.5 705,-280.5 709.9747,-279.9972 705.4525,-284.9772 714.9493,-279.4945 714.9493,-279.4945"/>
<text text-anchor="start" x="7.4025" y="-290.5" font-family="Arial" font-size="10.00" fill="#000000">FOREIGN KEY (tiedontuottaja_tunnus) REFERENCES jkr_koodistot.tiedontuottaja(tunnus) MATCH FULL ON UPDATE CASCADE ON DELETE CASCADE</text>
</g>
<!-- jkr.sopimus -->
<g id="node3" class="node">
<title>jkr.sopimus</title>
<polygon fill="#efefef" stroke="transparent" points="810,-550.5 810,-585.5 1025,-585.5 1025,-550.5 810,-550.5"/>
<polygon fill="none" stroke="#000000" points="810,-550.5 810,-585.5 1025,-585.5 1025,-550.5 810,-550.5"/>
<text text-anchor="start" x="823.3763" y="-563.3" font-family="Arial Bold" font-size="18.00" fill="#000000">jkr.sopimus</text>
<text text-anchor="start" x="914.3699" y="-563.3" font-family="Arial" font-size="14.00" fill="#000000"> </text>
<text text-anchor="start" x="918.2605" y="-563.3" font-family="Arial" font-size="14.00" fill="#666666">[BASE TABLE]</text>
<polygon fill="none" stroke="#000000" points="810,-520.5 810,-550.5 1025,-550.5 1025,-520.5 810,-520.5"/>
<text text-anchor="start" x="817" y="-531.9" font-family="Arial" font-size="14.00" fill="#000000">id </text>
<text text-anchor="start" x="831.7798" y="-531.9" font-family="Arial" font-size="14.00" fill="#666666">[integer]</text>
<polygon fill="none" stroke="#000000" points="810,-490.5 810,-520.5 1025,-520.5 1025,-490.5 810,-490.5"/>
<text text-anchor="start" x="817" y="-501.9" font-family="Arial" font-size="14.00" fill="#000000">alkupvm </text>
<text text-anchor="start" x="873.0056" y="-501.9" font-family="Arial" font-size="14.00" fill="#666666">[date]</text>
<polygon fill="none" stroke="#000000" points="810,-460.5 810,-490.5 1025,-490.5 1025,-460.5 810,-460.5"/>
<text text-anchor="start" x="817" y="-471.9" font-family="Arial" font-size="14.00" fill="#000000">loppupvm </text>
<text text-anchor="start" x="881.5708" y="-471.9" font-family="Arial" font-size="14.00" fill="#666666">[date]</text>
<polygon fill="none" stroke="#000000" points="810,-430.5 810,-460.5 1025,-460.5 1025,-430.5 810,-430.5"/>
<text text-anchor="start" x="816.7476" y="-441.9" font-family="Arial" font-size="14.00" fill="#000000">kimppaisanta_kohde_id </text>
<text text-anchor="start" x="967.683" y="-441.9" font-family="Arial" font-size="14.00" fill="#666666">[integer]</text>
<polygon fill="none" stroke="#000000" points="810,-400.5 810,-430.5 1025,-430.5 1025,-400.5 810,-400.5"/>
<text text-anchor="start" x="817" y="-411.9" font-family="Arial" font-size="14.00" fill="#000000">kohde_id </text>
<text text-anchor="start" x="877.6928" y="-411.9" font-family="Arial" font-size="14.00" fill="#666666">[integer]</text>
<polygon fill="none" stroke="#000000" points="810,-370.5 810,-400.5 1025,-400.5 1025,-370.5 810,-370.5"/>
<text text-anchor="start" x="817" y="-381.9" font-family="Arial" font-size="14.00" fill="#000000">jatetyyppi_id </text>
<text text-anchor="start" x="898.6872" y="-381.9" font-family="Arial" font-size="14.00" fill="#666666">[integer]</text>
<polygon fill="none" stroke="#000000" points="810,-340.5 810,-370.5 1025,-370.5 1025,-340.5 810,-340.5"/>
<text text-anchor="start" x="817" y="-351.9" font-family="Arial" font-size="14.00" fill="#000000">voimassaolo </text>
<text text-anchor="start" x="898.6774" y="-351.9" font-family="Arial" font-size="14.00" fill="#666666">[daterange]</text>
<polygon fill="none" stroke="#000000" points="810,-310.5 810,-340.5 1025,-340.5 1025,-310.5 810,-310.5"/>
<text text-anchor="start" x="817" y="-321.9" font-family="Arial" font-size="14.00" fill="#000000">sopimustyyppi_id </text>
<text text-anchor="start" x="928.2398" y="-321.9" font-family="Arial" font-size="14.00" fill="#666666">[smallint]</text>
<polygon fill="none" stroke="#000000" points="810,-280.5 810,-310.5 1025,-310.5 1025,-280.5 810,-280.5"/>
<text text-anchor="start" x="817" y="-291.9" font-family="Arial" font-size="14.00" fill="#000000">tiedontuottaja_tunnus </text>
<text text-anchor="start" x="954.7306" y="-291.9" font-family="Arial" font-size="14.00" fill="#666666">[text]</text>
</g>
<!-- jkr.sopimus&#45;&gt;jkr_koodistot.tiedontuottaja -->
<g id="edge2" class="edge">
<title>jkr.sopimus:tiedontuottaja_tunnus&#45;&gt;jkr_koodistot.tiedontuottaja:tunnus</title>
<path fill="none" stroke="#000000" d="M917.3449,-270.5195C907.7359,-202.0874 795.0611,-256.1638 755,-187 733.5035,-149.8872 712.1111,-90.5 755,-90.5"/>
<polygon fill="#000000" stroke="#000000" points="917.3449,-270.5215 913.5097,-280.7948 917.6725,-275.5107 918,-280.5 918,-280.5 918,-280.5 917.6725,-275.5107 922.4903,-280.2052 917.3449,-270.5215 917.3449,-270.5215"/>
<text text-anchor="start" x="924.573" y="-264.5" font-family="Arial" font-size="10.00" fill="#000000">FOREIGN KEY (tiedontuottaja_tunnus) REFERENCES jkr_koodistot.tiedontuottaja(tunnus) MATCH FULL ON UPDATE CASCADE ON DELETE RESTRICT</text>
</g>
<!-- jkr.ulkoinen_asiakastieto -->
<g id="node4" class="node">
<title>jkr.ulkoinen_asiakastieto</title>
<polygon fill="#efefef" stroke="transparent" points="1129,-490.5 1129,-525.5 1436,-525.5 1436,-490.5 1129,-490.5"/>
<polygon fill="none" stroke="#000000" points="1129,-490.5 1129,-525.5 1436,-525.5 1436,-490.5 1129,-490.5"/>
<text text-anchor="start" x="1135.8541" y="-503.3" font-family="Arial Bold" font-size="18.00" fill="#000000">jkr.ulkoinen_asiakastieto</text>
<text text-anchor="start" x="1331.8921" y="-503.3" font-family="Arial" font-size="14.00" fill="#000000"> </text>
<text text-anchor="start" x="1335.7827" y="-503.3" font-family="Arial" font-size="14.00" fill="#666666">[BASE TABLE]</text>
<polygon fill="none" stroke="#000000" points="1129,-460.5 1129,-490.5 1436,-490.5 1436,-460.5 1129,-460.5"/>
<text text-anchor="start" x="1136" y="-471.9" font-family="Arial" font-size="14.00" fill="#000000">id </text>
<text text-anchor="start" x="1150.7798" y="-471.9" font-family="Arial" font-size="14.00" fill="#666666">[integer]</text>
<polygon fill="none" stroke="#000000" points="1129,-430.5 1129,-460.5 1436,-460.5 1436,-430.5 1129,-430.5"/>
<text text-anchor="start" x="1136" y="-441.9" font-family="Arial" font-size="14.00" fill="#000000">tiedontuottaja_tunnus </text>
<text text-anchor="start" x="1273.7306" y="-441.9" font-family="Arial" font-size="14.00" fill="#666666">[text]</text>
<polygon fill="none" stroke="#000000" points="1129,-400.5 1129,-430.5 1436,-430.5 1436,-400.5 1129,-400.5"/>
<text text-anchor="start" x="1136" y="-411.9" font-family="Arial" font-size="14.00" fill="#000000">ulkoinen_id </text>
<text text-anchor="start" x="1210.6886" y="-411.9" font-family="Arial" font-size="14.00" fill="#666666">[text]</text>
<polygon fill="none" stroke="#000000" points="1129,-370.5 1129,-400.5 1436,-400.5 1436,-370.5 1129,-370.5"/>
<text text-anchor="start" x="1136" y="-381.9" font-family="Arial" font-size="14.00" fill="#000000">kohde_id </text>
<text text-anchor="start" x="1196.6928" y="-381.9" font-family="Arial" font-size="14.00" fill="#666666">[integer]</text>
<polygon fill="none" stroke="#000000" points="1129,-340.5 1129,-370.5 1436,-370.5 1436,-340.5 1129,-340.5"/>
<text text-anchor="start" x="1136" y="-351.9" font-family="Arial" font-size="14.00" fill="#000000">ulkoinen_asiakastieto </text>
<text text-anchor="start" x="1273.7068" y="-351.9" font-family="Arial" font-size="14.00" fill="#666666">[jsonb]</text>
</g>
<!-- jkr.ulkoinen_asiakastieto&#45;&gt;jkr_koodistot.tiedontuottaja -->
<g id="edge3" class="edge">
<title>jkr.ulkoinen_asiakastieto:tiedontuottaja_tunnus&#45;&gt;jkr_koodistot.tiedontuottaja:tunnus</title>
<path fill="none" stroke="#000000" d="M1119.0138,-443.233C1059.284,-412.9988 1155.9039,-90.5 1080,-90.5"/>
<polygon fill="#000000" stroke="#000000" points="1119.2481,-443.2862 1128.0038,-449.8883 1124.1241,-444.3931 1129,-445.5 1129,-445.5 1129,-445.5 1124.1241,-444.3931 1129.9962,-441.1117 1119.2481,-443.2862 1119.2481,-443.2862"/>
<text text-anchor="start" x="1136.4025" y="-455.5" font-family="Arial" font-size="10.00" fill="#000000">FOREIGN KEY (tiedontuottaja_tunnus) REFERENCES jkr_koodistot.tiedontuottaja(tunnus) MATCH FULL ON UPDATE CASCADE ON DELETE CASCADE</text>
</g>
</g>
</svg>
