<?xml version="1.0" encoding="UTF-8" standalone="no"?>
<!DOCTYPE svg PUBLIC "-//W3C//DTD SVG 1.1//EN"
 "http://www.w3.org/Graphics/SVG/1.1/DTD/svg11.dtd">
<!-- Generated by graphviz version 2.40.1 (20161225.0304)
 -->
<!-- Title: jkr_osoite.kunta Pages: 1 -->
<svg width="1330pt" height="502pt"
 viewBox="0.00 0.00 1330.00 502.00" xmlns="http://www.w3.org/2000/svg" xmlns:xlink="http://www.w3.org/1999/xlink">
<g id="graph0" class="graph" transform="scale(1 1) rotate(0) translate(4 498)">
<title>jkr_osoite.kunta</title>
<polygon fill="#ffffff" stroke="transparent" points="-4,4 -4,-498 1326,-498 1326,4 -4,4"/>
<!-- jkr_osoite.kunta -->
<g id="node1" class="node">
<title>jkr_osoite.kunta</title>
<polygon fill="#efefef" stroke="transparent" points="544,-135.5 544,-170.5 781,-170.5 781,-135.5 544,-135.5"/>
<polygon fill="none" stroke="#000000" points="544,-135.5 544,-170.5 781,-170.5 781,-135.5 544,-135.5"/>
<text text-anchor="start" x="550.8578" y="-148.3" font-family="Arial Bold" font-size="18.00" fill="#000000">jkr_osoite.kunta</text>
<text text-anchor="start" x="676.8884" y="-148.3" font-family="Arial" font-size="14.00" fill="#000000"> </text>
<text text-anchor="start" x="680.779" y="-148.3" font-family="Arial" font-size="14.00" fill="#666666">[BASE TABLE]</text>
<polygon fill="none" stroke="#000000" points="544,-105.5 544,-135.5 781,-135.5 781,-105.5 544,-105.5"/>
<text text-anchor="start" x="551" y="-116.9" font-family="Arial" font-size="14.00" fill="#000000">koodi </text>
<text text-anchor="start" x="588.345" y="-116.9" font-family="Arial" font-size="14.00" fill="#666666">[character(3)]</text>
<polygon fill="none" stroke="#000000" points="544,-75.5 544,-105.5 781,-105.5 781,-75.5 544,-75.5"/>
<text text-anchor="start" x="551" y="-86.9" font-family="Arial" font-size="14.00" fill="#000000">nimi_fi </text>
<text text-anchor="start" x="595.3268" y="-86.9" font-family="Arial" font-size="14.00" fill="#666666">[text]</text>
<polygon fill="none" stroke="#000000" points="544,-45.5 544,-75.5 781,-75.5 781,-45.5 544,-45.5"/>
<text text-anchor="start" x="551" y="-56.9" font-family="Arial" font-size="14.00" fill="#000000">nimi_sv </text>
<text text-anchor="start" x="602.3296" y="-56.9" font-family="Arial" font-size="14.00" fill="#666666">[text]</text>
<polygon fill="none" stroke="#000000" stroke-width="3" points="542,-44.5 542,-172.5 782,-172.5 782,-44.5 542,-44.5"/>
</g>
<!-- jkr_osoite.katu -->
<g id="node2" class="node">
<title>jkr_osoite.katu</title>
<polygon fill="#efefef" stroke="transparent" points="383,-415.5 383,-450.5 610,-450.5 610,-415.5 383,-415.5"/>
<polygon fill="none" stroke="#000000" points="383,-415.5 383,-450.5 610,-450.5 610,-415.5 383,-415.5"/>
<text text-anchor="start" x="389.8609" y="-428.3" font-family="Arial Bold" font-size="18.00" fill="#000000">jkr_osoite.katu</text>
<text text-anchor="start" x="505.8853" y="-428.3" font-family="Arial" font-size="14.00" fill="#000000"> </text>
<text text-anchor="start" x="509.7759" y="-428.3" font-family="Arial" font-size="14.00" fill="#666666">[BASE TABLE]</text>
<polygon fill="none" stroke="#000000" points="383,-385.5 383,-415.5 610,-415.5 610,-385.5 383,-385.5"/>
<text text-anchor="start" x="390" y="-396.9" font-family="Arial" font-size="14.00" fill="#000000">id </text>
<text text-anchor="start" x="404.7798" y="-396.9" font-family="Arial" font-size="14.00" fill="#666666">[integer]</text>
<polygon fill="none" stroke="#000000" points="383,-355.5 383,-385.5 610,-385.5 610,-355.5 383,-355.5"/>
<text text-anchor="start" x="390" y="-366.9" font-family="Arial" font-size="14.00" fill="#000000">katunimi_fi </text>
<text text-anchor="start" x="460.7826" y="-366.9" font-family="Arial" font-size="14.00" fill="#666666">[text]</text>
<polygon fill="none" stroke="#000000" points="383,-325.5 383,-355.5 610,-355.5 610,-325.5 383,-325.5"/>
<text text-anchor="start" x="390" y="-336.9" font-family="Arial" font-size="14.00" fill="#000000">katunimi_sv </text>
<text text-anchor="start" x="467.7854" y="-336.9" font-family="Arial" font-size="14.00" fill="#666666">[text]</text>
<polygon fill="none" stroke="#000000" points="383,-295.5 383,-325.5 610,-325.5 610,-295.5 383,-295.5"/>
<text text-anchor="start" x="390" y="-306.9" font-family="Arial" font-size="14.00" fill="#000000">kunta_koodi </text>
<text text-anchor="start" x="469.366" y="-306.9" font-family="Arial" font-size="14.00" fill="#666666">[character(3)]</text>
</g>
<!-- jkr_osoite.katu&#45;&gt;jkr_osoite.kunta -->
<g id="edge1" class="edge">
<title>jkr_osoite.katu:kunta_koodi&#45;&gt;jkr_osoite.kunta:koodi</title>
<path fill="none" stroke="#000000" d="M619.6701,-307.8481C631.4362,-299.2081 620.905,-271.3699 610,-253 592.9437,-224.268 561.0563,-245.732 544,-217 522.1067,-180.1199 501.1111,-120.5 544,-120.5"/>
<polygon fill="#000000" stroke="#000000" points="619.6439,-307.8552 608.8098,-306.1602 614.822,-309.1776 610,-310.5 610,-310.5 610,-310.5 614.822,-309.1776 611.1902,-314.8398 619.6439,-307.8552 619.6439,-307.8552"/>
<text text-anchor="start" x="6.931" y="-320.5" font-family="Arial" font-size="10.00" fill="#000000">FOREIGN KEY (kunta_koodi) REFERENCES jkr_osoite.kunta(koodi) MATCH FULL ON UPDATE CASCADE ON DELETE RESTRICT</text>
</g>
<!-- jkr_osoite.posti -->
<g id="node3" class="node">
<title>jkr_osoite.posti</title>
<polygon fill="#efefef" stroke="transparent" points="714,-415.5 714,-450.5 945,-450.5 945,-415.5 714,-415.5"/>
<polygon fill="none" stroke="#000000" points="714,-415.5 714,-450.5 945,-450.5 945,-415.5 714,-415.5"/>
<text text-anchor="start" x="720.8638" y="-428.3" font-family="Arial Bold" font-size="18.00" fill="#000000">jkr_osoite.posti</text>
<text text-anchor="start" x="840.8824" y="-428.3" font-family="Arial" font-size="14.00" fill="#000000"> </text>
<text text-anchor="start" x="844.773" y="-428.3" font-family="Arial" font-size="14.00" fill="#666666">[BASE TABLE]</text>
<polygon fill="none" stroke="#000000" points="714,-385.5 714,-415.5 945,-415.5 945,-385.5 714,-385.5"/>
<text text-anchor="start" x="721" y="-396.9" font-family="Arial" font-size="14.00" fill="#000000">numero </text>
<text text-anchor="start" x="772.3422" y="-396.9" font-family="Arial" font-size="14.00" fill="#666666">[character(5)]</text>
<polygon fill="none" stroke="#000000" points="714,-355.5 714,-385.5 945,-385.5 945,-355.5 714,-355.5"/>
<text text-anchor="start" x="721" y="-366.9" font-family="Arial" font-size="14.00" fill="#000000">nimi_fi </text>
<text text-anchor="start" x="765.3268" y="-366.9" font-family="Arial" font-size="14.00" fill="#666666">[text]</text>
<polygon fill="none" stroke="#000000" points="714,-325.5 714,-355.5 945,-355.5 945,-325.5 714,-325.5"/>
<text text-anchor="start" x="721" y="-336.9" font-family="Arial" font-size="14.00" fill="#000000">nimi_se </text>
<text text-anchor="start" x="773.1122" y="-336.9" font-family="Arial" font-size="14.00" fill="#666666">[text]</text>
<polygon fill="none" stroke="#000000" points="714,-295.5 714,-325.5 945,-325.5 945,-295.5 714,-295.5"/>
<text text-anchor="start" x="721" y="-306.9" font-family="Arial" font-size="14.00" fill="#000000">kunta_koodi </text>
<text text-anchor="start" x="800.366" y="-306.9" font-family="Arial" font-size="14.00" fill="#666666">[character(3)]</text>
</g>
<!-- jkr_osoite.posti&#45;&gt;jkr_osoite.kunta -->
<g id="edge2" class="edge">
<title>jkr_osoite.posti:kunta_koodi&#45;&gt;jkr_osoite.kunta:koodi</title>
<path fill="none" stroke="#000000" d="M704.3253,-307.8453C692.5448,-299.1968 703.0373,-271.3355 714,-253 731.3472,-223.9864 763.6528,-246.0136 781,-217 803.0092,-180.189 823.8889,-120.5 781,-120.5"/>
<polygon fill="#000000" stroke="#000000" points="704.3564,-307.8538 712.8092,-314.8396 709.1782,-309.1769 714,-310.5 714,-310.5 714,-310.5 709.1782,-309.1769 715.1908,-306.1604 704.3564,-307.8538 704.3564,-307.8538"/>
<text text-anchor="start" x="720.7605" y="-320.5" font-family="Arial" font-size="10.00" fill="#000000">FOREIGN KEY (kunta_koodi) REFERENCES jkr_osoite.kunta(koodi) MATCH FULL ON UPDATE CASCADE ON DELETE CASCADE</text>
</g>
</g>
</svg>
