<?xml version="1.0" encoding="UTF-8" standalone="no"?>
<!DOCTYPE svg PUBLIC "-//W3C//DTD SVG 1.1//EN"
 "http://www.w3.org/Graphics/SVG/1.1/DTD/svg11.dtd">
<!-- Generated by graphviz version 2.40.1 (20161225.0304)
 -->
<!-- Title: jkr_qgis_projektit.qgis_projects Pages: 1 -->
<svg width="457pt" height="225pt"
 viewBox="0.00 0.00 457.00 225.00" xmlns="http://www.w3.org/2000/svg" xmlns:xlink="http://www.w3.org/1999/xlink">
<g id="graph0" class="graph" transform="scale(1 1) rotate(0) translate(4 221)">
<title>jkr_qgis_projektit.qgis_projects</title>
<polygon fill="#ffffff" stroke="transparent" points="-4,4 -4,-221 453,-221 453,4 -4,4"/>
<!-- jkr_qgis_projektit.qgis_projects -->
<g id="node1" class="node">
<title>jkr_qgis_projektit.qgis_projects</title>
<polygon fill="#efefef" stroke="transparent" points="46.5,-135.5 46.5,-170.5 403.5,-170.5 403.5,-135.5 46.5,-135.5"/>
<polygon fill="none" stroke="#000000" points="46.5,-135.5 46.5,-170.5 403.5,-170.5 403.5,-135.5 46.5,-135.5"/>
<text text-anchor="start" x="53.3575" y="-148.3" font-family="Arial Bold" font-size="18.00" fill="#000000">jkr_qgis_projektit.qgis_projects</text>
<text text-anchor="start" x="299.3887" y="-148.3" font-family="Arial" font-size="14.00" fill="#000000"> </text>
<text text-anchor="start" x="303.2793" y="-148.3" font-family="Arial" font-size="14.00" fill="#666666">[BASE TABLE]</text>
<polygon fill="none" stroke="#000000" points="46.5,-105.5 46.5,-135.5 403.5,-135.5 403.5,-105.5 46.5,-105.5"/>
<text text-anchor="start" x="53.5" y="-116.9" font-family="Arial" font-size="14.00" fill="#000000">name </text>
<text text-anchor="start" x="92.399" y="-116.9" font-family="Arial" font-size="14.00" fill="#666666">[text]</text>
<polygon fill="none" stroke="#000000" points="46.5,-75.5 46.5,-105.5 403.5,-105.5 403.5,-75.5 46.5,-75.5"/>
<text text-anchor="start" x="53.5" y="-86.9" font-family="Arial" font-size="14.00" fill="#000000">metadata </text>
<text text-anchor="start" x="115.7454" y="-86.9" font-family="Arial" font-size="14.00" fill="#666666">[jsonb]</text>
<polygon fill="none" stroke="#000000" points="46.5,-45.5 46.5,-75.5 403.5,-75.5 403.5,-45.5 46.5,-45.5"/>
<text text-anchor="start" x="53.5" y="-56.9" font-family="Arial" font-size="14.00" fill="#000000">content </text>
<text text-anchor="start" x="103.3022" y="-56.9" font-family="Arial" font-size="14.00" fill="#666666">[bytea]</text>
<polygon fill="none" stroke="#000000" stroke-width="3" points="44.5,-44.5 44.5,-172.5 404.5,-172.5 404.5,-44.5 44.5,-44.5"/>
</g>
</g>
</svg>
