<?xml version="1.0" encoding="UTF-8" standalone="no"?>
<!DOCTYPE svg PUBLIC "-//W3C//DTD SVG 1.1//EN"
 "http://www.w3.org/Graphics/SVG/1.1/DTD/svg11.dtd">
<!-- Generated by graphviz version 2.40.1 (20161225.0304)
 -->
<!-- Title: jkr_osoite.posti Pages: 1 -->
<svg width="792pt" height="809pt"
 viewBox="0.00 0.00 791.50 809.00" xmlns="http://www.w3.org/2000/svg" xmlns:xlink="http://www.w3.org/1999/xlink">
<g id="graph0" class="graph" transform="scale(1 1) rotate(0) translate(4 805)">
<title>jkr_osoite.posti</title>
<polygon fill="#ffffff" stroke="transparent" points="-4,4 -4,-805 787.5,-805 787.5,4 -4,4"/>
<!-- jkr_osoite.posti -->
<g id="node1" class="node">
<title>jkr_osoite.posti</title>
<polygon fill="#efefef" stroke="transparent" points="46.5,-412.5 46.5,-447.5 277.5,-447.5 277.5,-412.5 46.5,-412.5"/>
<polygon fill="none" stroke="#000000" points="46.5,-412.5 46.5,-447.5 277.5,-447.5 277.5,-412.5 46.5,-412.5"/>
<text text-anchor="start" x="53.3638" y="-425.3" font-family="Arial Bold" font-size="18.00" fill="#000000">jkr_osoite.posti</text>
<text text-anchor="start" x="173.3824" y="-425.3" font-family="Arial" font-size="14.00" fill="#000000"> </text>
<text text-anchor="start" x="177.273" y="-425.3" font-family="Arial" font-size="14.00" fill="#666666">[BASE TABLE]</text>
<polygon fill="none" stroke="#000000" points="46.5,-382.5 46.5,-412.5 277.5,-412.5 277.5,-382.5 46.5,-382.5"/>
<text text-anchor="start" x="53.5" y="-393.9" font-family="Arial" font-size="14.00" fill="#000000">numero </text>
<text text-anchor="start" x="104.8422" y="-393.9" font-family="Arial" font-size="14.00" fill="#666666">[character(5)]</text>
<polygon fill="none" stroke="#000000" points="46.5,-352.5 46.5,-382.5 277.5,-382.5 277.5,-352.5 46.5,-352.5"/>
<text text-anchor="start" x="53.5" y="-363.9" font-family="Arial" font-size="14.00" fill="#000000">nimi_fi </text>
<text text-anchor="start" x="97.8268" y="-363.9" font-family="Arial" font-size="14.00" fill="#666666">[text]</text>
<polygon fill="none" stroke="#000000" points="46.5,-322.5 46.5,-352.5 277.5,-352.5 277.5,-322.5 46.5,-322.5"/>
<text text-anchor="start" x="53.5" y="-333.9" font-family="Arial" font-size="14.00" fill="#000000">nimi_se </text>
<text text-anchor="start" x="105.6122" y="-333.9" font-family="Arial" font-size="14.00" fill="#666666">[text]</text>
<polygon fill="none" stroke="#000000" points="46.5,-292.5 46.5,-322.5 277.5,-322.5 277.5,-292.5 46.5,-292.5"/>
<text text-anchor="start" x="53.5" y="-303.9" font-family="Arial" font-size="14.00" fill="#000000">kunta_koodi </text>
<text text-anchor="start" x="132.866" y="-303.9" font-family="Arial" font-size="14.00" fill="#666666">[character(3)]</text>
<polygon fill="none" stroke="#000000" stroke-width="3" points="44.5,-291.5 44.5,-449.5 278.5,-449.5 278.5,-291.5 44.5,-291.5"/>
</g>
<!-- jkr_osoite.kunta -->
<g id="node3" class="node">
<title>jkr_osoite.kunta</title>
<polygon fill="#efefef" stroke="transparent" points="43.5,-132.5 43.5,-167.5 280.5,-167.5 280.5,-132.5 43.5,-132.5"/>
<polygon fill="none" stroke="#000000" points="43.5,-132.5 43.5,-167.5 280.5,-167.5 280.5,-132.5 43.5,-132.5"/>
<text text-anchor="start" x="50.3578" y="-145.3" font-family="Arial Bold" font-size="18.00" fill="#000000">jkr_osoite.kunta</text>
<text text-anchor="start" x="176.3884" y="-145.3" font-family="Arial" font-size="14.00" fill="#000000"> </text>
<text text-anchor="start" x="180.279" y="-145.3" font-family="Arial" font-size="14.00" fill="#666666">[BASE TABLE]</text>
<polygon fill="none" stroke="#000000" points="43.5,-102.5 43.5,-132.5 280.5,-132.5 280.5,-102.5 43.5,-102.5"/>
<text text-anchor="start" x="50.5" y="-113.9" font-family="Arial" font-size="14.00" fill="#000000">koodi </text>
<text text-anchor="start" x="87.845" y="-113.9" font-family="Arial" font-size="14.00" fill="#666666">[character(3)]</text>
<polygon fill="none" stroke="#000000" points="43.5,-72.5 43.5,-102.5 280.5,-102.5 280.5,-72.5 43.5,-72.5"/>
<text text-anchor="start" x="50.5" y="-83.9" font-family="Arial" font-size="14.00" fill="#000000">nimi_fi </text>
<text text-anchor="start" x="94.8268" y="-83.9" font-family="Arial" font-size="14.00" fill="#666666">[text]</text>
<polygon fill="none" stroke="#000000" points="43.5,-42.5 43.5,-72.5 280.5,-72.5 280.5,-42.5 43.5,-42.5"/>
<text text-anchor="start" x="50.5" y="-53.9" font-family="Arial" font-size="14.00" fill="#000000">nimi_sv </text>
<text text-anchor="start" x="101.8296" y="-53.9" font-family="Arial" font-size="14.00" fill="#666666">[text]</text>
</g>
<!-- jkr_osoite.posti&#45;&gt;jkr_osoite.kunta -->
<g id="edge2" class="edge">
<title>jkr_osoite.posti:kunta_koodi&#45;&gt;jkr_osoite.kunta:koodi</title>
<path fill="none" stroke="#000000" d="M161.6121,-282.2568C152.2612,-232.6733 71.6424,-264.3839 43.5,-211 24.121,-174.2397 1.9444,-117.5 43.5,-117.5"/>
<polygon fill="#000000" stroke="#000000" points="161.6363,-282.5374 158.0168,-292.8887 162.0682,-287.5187 162.5,-292.5 162.5,-292.5 162.5,-292.5 162.0682,-287.5187 166.9832,-292.1113 161.6363,-282.5374 161.6363,-282.5374"/>
<text text-anchor="start" x="169.2605" y="-302.5" font-family="Arial" font-size="10.00" fill="#000000">FOREIGN KEY (kunta_koodi) REFERENCES jkr_osoite.kunta(koodi) MATCH FULL ON UPDATE CASCADE ON DELETE CASCADE</text>
</g>
<!-- jkr.osoite -->
<g id="node2" class="node">
<title>jkr.osoite</title>
<polygon fill="#efefef" stroke="transparent" points="69.5,-722.5 69.5,-757.5 254.5,-757.5 254.5,-722.5 69.5,-722.5"/>
<polygon fill="none" stroke="#000000" points="69.5,-722.5 69.5,-757.5 254.5,-757.5 254.5,-722.5 69.5,-722.5"/>
<text text-anchor="start" x="77.3713" y="-735.3" font-family="Arial Bold" font-size="18.00" fill="#000000">jkr.osoite</text>
<text text-anchor="start" x="149.3749" y="-735.3" font-family="Arial" font-size="14.00" fill="#000000"> </text>
<text text-anchor="start" x="153.2655" y="-735.3" font-family="Arial" font-size="14.00" fill="#666666">[BASE TABLE]</text>
<polygon fill="none" stroke="#000000" points="69.5,-692.5 69.5,-722.5 254.5,-722.5 254.5,-692.5 69.5,-692.5"/>
<text text-anchor="start" x="76.5" y="-703.9" font-family="Arial" font-size="14.00" fill="#000000">id </text>
<text text-anchor="start" x="91.2798" y="-703.9" font-family="Arial" font-size="14.00" fill="#666666">[integer]</text>
<polygon fill="none" stroke="#000000" points="69.5,-662.5 69.5,-692.5 254.5,-692.5 254.5,-662.5 69.5,-662.5"/>
<text text-anchor="start" x="76.5" y="-673.9" font-family="Arial" font-size="14.00" fill="#000000">osoitenumero </text>
<text text-anchor="start" x="165.1872" y="-673.9" font-family="Arial" font-size="14.00" fill="#666666">[text]</text>
<polygon fill="none" stroke="#000000" points="69.5,-632.5 69.5,-662.5 254.5,-662.5 254.5,-632.5 69.5,-632.5"/>
<text text-anchor="start" x="76.5" y="-643.9" font-family="Arial" font-size="14.00" fill="#000000">katu_id </text>
<text text-anchor="start" x="125.5182" y="-643.9" font-family="Arial" font-size="14.00" fill="#666666">[integer]</text>
<polygon fill="none" stroke="#000000" points="69.5,-602.5 69.5,-632.5 254.5,-632.5 254.5,-602.5 69.5,-602.5"/>
<text text-anchor="start" x="76.5" y="-613.9" font-family="Arial" font-size="14.00" fill="#000000">rakennus_id </text>
<text text-anchor="start" x="156.636" y="-613.9" font-family="Arial" font-size="14.00" fill="#666666">[integer]</text>
<polygon fill="none" stroke="#000000" points="69.5,-572.5 69.5,-602.5 254.5,-602.5 254.5,-572.5 69.5,-572.5"/>
<text text-anchor="start" x="76.0428" y="-583.9" font-family="Arial" font-size="14.00" fill="#000000">posti_numero </text>
<text text-anchor="start" x="164.73" y="-583.9" font-family="Arial" font-size="14.00" fill="#666666">[character(5)]</text>
</g>
<!-- jkr.osoite&#45;&gt;jkr_osoite.posti -->
<g id="edge1" class="edge">
<title>jkr.osoite:posti_numero&#45;&gt;jkr_osoite.posti:numero</title>
<path fill="none" stroke="#000000" d="M161.5773,-562.2601C152.1983,-514.5961 73.9164,-545.6575 46.5,-494 26.3937,-456.1161 3.6111,-397.5 46.5,-397.5"/>
<polygon fill="#000000" stroke="#000000" points="161.6024,-562.5404 158.0182,-572.9039 162.0512,-567.5202 162.5,-572.5 162.5,-572.5 162.5,-572.5 162.0512,-567.5202 166.9818,-572.0961 161.6024,-562.5404 161.6024,-562.5404"/>
<text text-anchor="start" x="169.6025" y="-582.5" font-family="Arial" font-size="10.00" fill="#000000">FOREIGN KEY (posti_numero) REFERENCES jkr_osoite.posti(numero) MATCH FULL ON UPDATE CASCADE ON DELETE CASCADE</text>
</g>
</g>
</svg>
