<?xml version="1.0" encoding="UTF-8" standalone="no"?>
<!DOCTYPE svg PUBLIC "-//W3C//DTD SVG 1.1//EN"
 "http://www.w3.org/Graphics/SVG/1.1/DTD/svg11.dtd">
<!-- Generated by graphviz version 2.40.1 (20161225.0304)
 -->
<!-- Title: jkr_osoite.katu Pages: 1 -->
<svg width="1277pt" height="809pt"
 viewBox="0.00 0.00 1277.00 809.00" xmlns="http://www.w3.org/2000/svg" xmlns:xlink="http://www.w3.org/1999/xlink">
<g id="graph0" class="graph" transform="scale(1 1) rotate(0) translate(4 805)">
<title>jkr_osoite.katu</title>
<polygon fill="#ffffff" stroke="transparent" points="-4,4 -4,-805 1273,-805 1273,4 -4,4"/>
<!-- jkr_osoite.katu -->
<g id="node1" class="node">
<title>jkr_osoite.katu</title>
<polygon fill="#efefef" stroke="transparent" points="545,-412.5 545,-447.5 772,-447.5 772,-412.5 545,-412.5"/>
<polygon fill="none" stroke="#000000" points="545,-412.5 545,-447.5 772,-447.5 772,-412.5 545,-412.5"/>
<text text-anchor="start" x="551.8609" y="-425.3" font-family="Arial Bold" font-size="18.00" fill="#000000">jkr_osoite.katu</text>
<text text-anchor="start" x="667.8853" y="-425.3" font-family="Arial" font-size="14.00" fill="#000000"> </text>
<text text-anchor="start" x="671.7759" y="-425.3" font-family="Arial" font-size="14.00" fill="#666666">[BASE TABLE]</text>
<polygon fill="none" stroke="#000000" points="545,-382.5 545,-412.5 772,-412.5 772,-382.5 545,-382.5"/>
<text text-anchor="start" x="552" y="-393.9" font-family="Arial" font-size="14.00" fill="#000000">id </text>
<text text-anchor="start" x="566.7798" y="-393.9" font-family="Arial" font-size="14.00" fill="#666666">[integer]</text>
<polygon fill="none" stroke="#000000" points="545,-352.5 545,-382.5 772,-382.5 772,-352.5 545,-352.5"/>
<text text-anchor="start" x="552" y="-363.9" font-family="Arial" font-size="14.00" fill="#000000">katunimi_fi </text>
<text text-anchor="start" x="622.7826" y="-363.9" font-family="Arial" font-size="14.00" fill="#666666">[text]</text>
<polygon fill="none" stroke="#000000" points="545,-322.5 545,-352.5 772,-352.5 772,-322.5 545,-322.5"/>
<text text-anchor="start" x="552" y="-333.9" font-family="Arial" font-size="14.00" fill="#000000">katunimi_sv </text>
<text text-anchor="start" x="629.7854" y="-333.9" font-family="Arial" font-size="14.00" fill="#666666">[text]</text>
<polygon fill="none" stroke="#000000" points="545,-292.5 545,-322.5 772,-322.5 772,-292.5 545,-292.5"/>
<text text-anchor="start" x="552" y="-303.9" font-family="Arial" font-size="14.00" fill="#000000">kunta_koodi </text>
<text text-anchor="start" x="631.366" y="-303.9" font-family="Arial" font-size="14.00" fill="#666666">[character(3)]</text>
<polygon fill="none" stroke="#000000" stroke-width="3" points="543,-291.5 543,-449.5 773,-449.5 773,-291.5 543,-291.5"/>
</g>
<!-- jkr_osoite.kunta -->
<g id="node3" class="node">
<title>jkr_osoite.kunta</title>
<polygon fill="#efefef" stroke="transparent" points="540,-132.5 540,-167.5 777,-167.5 777,-132.5 540,-132.5"/>
<polygon fill="none" stroke="#000000" points="540,-132.5 540,-167.5 777,-167.5 777,-132.5 540,-132.5"/>
<text text-anchor="start" x="546.8578" y="-145.3" font-family="Arial Bold" font-size="18.00" fill="#000000">jkr_osoite.kunta</text>
<text text-anchor="start" x="672.8884" y="-145.3" font-family="Arial" font-size="14.00" fill="#000000"> </text>
<text text-anchor="start" x="676.779" y="-145.3" font-family="Arial" font-size="14.00" fill="#666666">[BASE TABLE]</text>
<polygon fill="none" stroke="#000000" points="540,-102.5 540,-132.5 777,-132.5 777,-102.5 540,-102.5"/>
<text text-anchor="start" x="547" y="-113.9" font-family="Arial" font-size="14.00" fill="#000000">koodi </text>
<text text-anchor="start" x="584.345" y="-113.9" font-family="Arial" font-size="14.00" fill="#666666">[character(3)]</text>
<polygon fill="none" stroke="#000000" points="540,-72.5 540,-102.5 777,-102.5 777,-72.5 540,-72.5"/>
<text text-anchor="start" x="547" y="-83.9" font-family="Arial" font-size="14.00" fill="#000000">nimi_fi </text>
<text text-anchor="start" x="591.3268" y="-83.9" font-family="Arial" font-size="14.00" fill="#666666">[text]</text>
<polygon fill="none" stroke="#000000" points="540,-42.5 540,-72.5 777,-72.5 777,-42.5 540,-42.5"/>
<text text-anchor="start" x="547" y="-53.9" font-family="Arial" font-size="14.00" fill="#000000">nimi_sv </text>
<text text-anchor="start" x="598.3296" y="-53.9" font-family="Arial" font-size="14.00" fill="#666666">[text]</text>
</g>
<!-- jkr_osoite.katu&#45;&gt;jkr_osoite.kunta -->
<g id="edge2" class="edge">
<title>jkr_osoite.katu:kunta_koodi&#45;&gt;jkr_osoite.kunta:koodi</title>
<path fill="none" stroke="#000000" d="M658.1121,-282.2568C648.7612,-232.6733 568.1424,-264.3839 540,-211 520.621,-174.2397 498.4444,-117.5 540,-117.5"/>
<polygon fill="#000000" stroke="#000000" points="658.1363,-282.5374 654.5168,-292.8887 658.5682,-287.5187 659,-292.5 659,-292.5 659,-292.5 658.5682,-287.5187 663.4832,-292.1113 658.1363,-282.5374 658.1363,-282.5374"/>
<text text-anchor="start" x="665.931" y="-302.5" font-family="Arial" font-size="10.00" fill="#000000">FOREIGN KEY (kunta_koodi) REFERENCES jkr_osoite.kunta(koodi) MATCH FULL ON UPDATE CASCADE ON DELETE RESTRICT</text>
</g>
<!-- jkr.osoite -->
<g id="node2" class="node">
<title>jkr.osoite</title>
<polygon fill="#efefef" stroke="transparent" points="566,-722.5 566,-757.5 751,-757.5 751,-722.5 566,-722.5"/>
<polygon fill="none" stroke="#000000" points="566,-722.5 566,-757.5 751,-757.5 751,-722.5 566,-722.5"/>
<text text-anchor="start" x="573.8713" y="-735.3" font-family="Arial Bold" font-size="18.00" fill="#000000">jkr.osoite</text>
<text text-anchor="start" x="645.8749" y="-735.3" font-family="Arial" font-size="14.00" fill="#000000"> </text>
<text text-anchor="start" x="649.7655" y="-735.3" font-family="Arial" font-size="14.00" fill="#666666">[BASE TABLE]</text>
<polygon fill="none" stroke="#000000" points="566,-692.5 566,-722.5 751,-722.5 751,-692.5 566,-692.5"/>
<text text-anchor="start" x="573" y="-703.9" font-family="Arial" font-size="14.00" fill="#000000">id </text>
<text text-anchor="start" x="587.7798" y="-703.9" font-family="Arial" font-size="14.00" fill="#666666">[integer]</text>
<polygon fill="none" stroke="#000000" points="566,-662.5 566,-692.5 751,-692.5 751,-662.5 566,-662.5"/>
<text text-anchor="start" x="573" y="-673.9" font-family="Arial" font-size="14.00" fill="#000000">osoitenumero </text>
<text text-anchor="start" x="661.6872" y="-673.9" font-family="Arial" font-size="14.00" fill="#666666">[text]</text>
<polygon fill="none" stroke="#000000" points="566,-632.5 566,-662.5 751,-662.5 751,-632.5 566,-632.5"/>
<text text-anchor="start" x="573" y="-643.9" font-family="Arial" font-size="14.00" fill="#000000">katu_id </text>
<text text-anchor="start" x="622.0182" y="-643.9" font-family="Arial" font-size="14.00" fill="#666666">[integer]</text>
<polygon fill="none" stroke="#000000" points="566,-602.5 566,-632.5 751,-632.5 751,-602.5 566,-602.5"/>
<text text-anchor="start" x="573" y="-613.9" font-family="Arial" font-size="14.00" fill="#000000">rakennus_id </text>
<text text-anchor="start" x="653.136" y="-613.9" font-family="Arial" font-size="14.00" fill="#666666">[integer]</text>
<polygon fill="none" stroke="#000000" points="566,-572.5 566,-602.5 751,-602.5 751,-572.5 566,-572.5"/>
<text text-anchor="start" x="572.5428" y="-583.9" font-family="Arial" font-size="14.00" fill="#000000">posti_numero </text>
<text text-anchor="start" x="661.23" y="-583.9" font-family="Arial" font-size="14.00" fill="#666666">[character(5)]</text>
</g>
<!-- jkr.osoite&#45;&gt;jkr_osoite.katu -->
<g id="edge1" class="edge">
<title>jkr.osoite:katu_id&#45;&gt;jkr_osoite.katu:id</title>
<path fill="none" stroke="#000000" d="M555.8131,-646.7828C453.3145,-632.1191 436.982,-397.5 545,-397.5"/>
<polygon fill="#000000" stroke="#000000" points="556.0247,-646.7976 565.6839,-651.9889 561.0123,-647.1488 566,-647.5 566,-647.5 566,-647.5 561.0123,-647.1488 566.3161,-643.0111 556.0247,-646.7976 556.0247,-646.7976"/>
<text text-anchor="start" x="6.608" y="-657.5" font-family="Arial" font-size="10.00" fill="#000000">FOREIGN KEY (katu_id) REFERENCES jkr_osoite.katu(id) MATCH FULL ON UPDATE CASCADE ON DELETE RESTRICT</text>
</g>
</g>
</svg>
