<?xml version="1.0" encoding="UTF-8" standalone="no"?>
<!DOCTYPE svg PUBLIC "-//W3C//DTD SVG 1.1//EN"
 "http://www.w3.org/Graphics/SVG/1.1/DTD/svg11.dtd">
<!-- Generated by graphviz version 2.40.1 (20161225.0304)
 -->
<!-- Title: jkr_koodistot.rakennuksenolotila Pages: 1 -->
<svg width="1106pt" height="652pt"
 viewBox="0.00 0.00 1105.50 652.00" xmlns="http://www.w3.org/2000/svg" xmlns:xlink="http://www.w3.org/1999/xlink">
<g id="graph0" class="graph" transform="scale(1 1) rotate(0) translate(4 648)">
<title>jkr_koodistot.rakennuksenolotila</title>
<polygon fill="#ffffff" stroke="transparent" points="-4,4 -4,-648 1101.5,-648 1101.5,4 -4,4"/>
<!-- jkr_koodistot.rakennuksenolotila -->
<g id="node1" class="node">
<title>jkr_koodistot.rakennuksenolotila</title>
<polygon fill="#efefef" stroke="transparent" points="685,-105.5 685,-140.5 1052,-140.5 1052,-105.5 685,-105.5"/>
<polygon fill="none" stroke="#000000" points="685,-105.5 685,-140.5 1052,-140.5 1052,-105.5 685,-105.5"/>
<text text-anchor="start" x="691.8445" y="-118.3" font-family="Arial Bold" font-size="18.00" fill="#000000">jkr_koodistot.rakennuksenolotila</text>
<text text-anchor="start" x="947.9017" y="-118.3" font-family="Arial" font-size="14.00" fill="#000000"> </text>
<text text-anchor="start" x="951.7923" y="-118.3" font-family="Arial" font-size="14.00" fill="#666666">[BASE TABLE]</text>
<polygon fill="none" stroke="#000000" points="685,-75.5 685,-105.5 1052,-105.5 1052,-75.5 685,-75.5"/>
<text text-anchor="start" x="692" y="-86.9" font-family="Arial" font-size="14.00" fill="#000000">koodi </text>
<text text-anchor="start" x="729.345" y="-86.9" font-family="Arial" font-size="14.00" fill="#666666">[text]</text>
<polygon fill="none" stroke="#000000" points="685,-45.5 685,-75.5 1052,-75.5 1052,-45.5 685,-45.5"/>
<text text-anchor="start" x="692" y="-56.9" font-family="Arial" font-size="14.00" fill="#000000">selite </text>
<text text-anchor="start" x="728.5596" y="-56.9" font-family="Arial" font-size="14.00" fill="#666666">[text]</text>
<polygon fill="none" stroke="#000000" stroke-width="3" points="683,-44.5 683,-142.5 1053,-142.5 1053,-44.5 683,-44.5"/>
</g>
<!-- jkr.rakennus -->
<g id="node2" class="node">
<title>jkr.rakennus</title>
<polygon fill="#efefef" stroke="transparent" points="739,-565.5 739,-600.5 998,-600.5 998,-565.5 739,-565.5"/>
<polygon fill="none" stroke="#000000" points="739,-565.5 739,-600.5 998,-600.5 998,-565.5 739,-565.5"/>
<text text-anchor="start" x="770.8672" y="-578.3" font-family="Arial Bold" font-size="18.00" fill="#000000">jkr.rakennus</text>
<text text-anchor="start" x="868.879" y="-578.3" font-family="Arial" font-size="14.00" fill="#000000"> </text>
<text text-anchor="start" x="872.7696" y="-578.3" font-family="Arial" font-size="14.00" fill="#666666">[BASE TABLE]</text>
<polygon fill="none" stroke="#000000" points="739,-535.5 739,-565.5 998,-565.5 998,-535.5 739,-535.5"/>
<text text-anchor="start" x="746" y="-546.9" font-family="Arial" font-size="14.00" fill="#000000">id </text>
<text text-anchor="start" x="760.7798" y="-546.9" font-family="Arial" font-size="14.00" fill="#666666">[integer]</text>
<polygon fill="none" stroke="#000000" points="739,-505.5 739,-535.5 998,-535.5 998,-505.5 739,-505.5"/>
<text text-anchor="start" x="746" y="-516.9" font-family="Arial" font-size="14.00" fill="#000000">prt </text>
<text text-anchor="start" x="766.2244" y="-516.9" font-family="Arial" font-size="14.00" fill="#666666">[character(10)]</text>
<polygon fill="none" stroke="#000000" points="739,-475.5 739,-505.5 998,-505.5 998,-475.5 739,-475.5"/>
<text text-anchor="start" x="746" y="-486.9" font-family="Arial" font-size="14.00" fill="#000000">huoneistomaara </text>
<text text-anchor="start" x="850.2524" y="-486.9" font-family="Arial" font-size="14.00" fill="#666666">[smallint]</text>
<polygon fill="none" stroke="#000000" points="739,-445.5 739,-475.5 998,-475.5 998,-445.5 739,-445.5"/>
<text text-anchor="start" x="746" y="-456.9" font-family="Arial" font-size="14.00" fill="#000000">kiinteistotunnus </text>
<text text-anchor="start" x="846.3604" y="-456.9" font-family="Arial" font-size="14.00" fill="#666666">[text]</text>
<polygon fill="none" stroke="#000000" points="739,-415.5 739,-445.5 998,-445.5 998,-415.5 739,-415.5"/>
<text text-anchor="start" x="746" y="-426.9" font-family="Arial" font-size="14.00" fill="#000000">onko_viemari </text>
<text text-anchor="start" x="833.1206" y="-426.9" font-family="Arial" font-size="14.00" fill="#666666">[boolean]</text>
<polygon fill="none" stroke="#000000" points="739,-385.5 739,-415.5 998,-415.5 998,-385.5 739,-385.5"/>
<text text-anchor="start" x="746" y="-396.9" font-family="Arial" font-size="14.00" fill="#000000">geom </text>
<text text-anchor="start" x="784.899" y="-396.9" font-family="Arial" font-size="14.00" fill="#666666">[geometry(Point,3067)]</text>
<polygon fill="none" stroke="#000000" points="739,-355.5 739,-385.5 998,-385.5 998,-355.5 739,-355.5"/>
<text text-anchor="start" x="745.573" y="-366.9" font-family="Arial" font-size="14.00" fill="#000000">rakennuksenkayttotarkoitus_koodi </text>
<text text-anchor="start" x="961.082" y="-366.9" font-family="Arial" font-size="14.00" fill="#666666">[text]</text>
<polygon fill="none" stroke="#000000" points="739,-325.5 739,-355.5 998,-355.5 998,-325.5 739,-325.5"/>
<text text-anchor="start" x="746" y="-336.9" font-family="Arial" font-size="14.00" fill="#000000">rakennuksenolotila_koodi </text>
<text text-anchor="start" x="907.8246" y="-336.9" font-family="Arial" font-size="14.00" fill="#666666">[text]</text>
<polygon fill="none" stroke="#000000" points="739,-295.5 739,-325.5 998,-325.5 998,-295.5 739,-295.5"/>
<text text-anchor="start" x="746" y="-306.9" font-family="Arial" font-size="14.00" fill="#000000">kayttoonotto_pvm </text>
<text text-anchor="start" x="860.3744" y="-306.9" font-family="Arial" font-size="14.00" fill="#666666">[date]</text>
<polygon fill="none" stroke="#000000" points="739,-265.5 739,-295.5 998,-295.5 998,-265.5 739,-265.5"/>
<text text-anchor="start" x="746" y="-276.9" font-family="Arial" font-size="14.00" fill="#000000">kaytostapoisto_pvm </text>
<text text-anchor="start" x="873.5904" y="-276.9" font-family="Arial" font-size="14.00" fill="#666666">[date]</text>
</g>
<!-- jkr.rakennus&#45;&gt;jkr_koodistot.rakennuksenolotila -->
<g id="edge1" class="edge">
<title>jkr.rakennus:rakennuksenolotila_koodi&#45;&gt;jkr_koodistot.rakennuksenolotila:koodi</title>
<path fill="none" stroke="#000000" d="M729.0601,-338.0257C676.2156,-312.0614 631.4935,-90.5 685,-90.5"/>
<polygon fill="#000000" stroke="#000000" points="729.2961,-338.0843 737.913,-344.8667 734.1481,-339.2922 739,-340.5 739,-340.5 739,-340.5 734.1481,-339.2922 740.087,-336.1333 729.2961,-338.0843 729.2961,-338.0843"/>
<text text-anchor="start" x="7.1925" y="-350.5" font-family="Arial" font-size="10.00" fill="#000000">FOREIGN KEY (rakennuksenolotila_koodi) REFERENCES jkr_koodistot.rakennuksenolotila(koodi) MATCH FULL ON UPDATE CASCADE ON DELETE CASCADE</text>
</g>
</g>
</svg>
