<?xml version="1.0" encoding="UTF-8" standalone="no"?>
<!DOCTYPE svg PUBLIC "-//W3C//DTD SVG 1.1//EN"
 "http://www.w3.org/Graphics/SVG/1.1/DTD/svg11.dtd">
<!-- Generated by graphviz version 2.40.1 (20161225.0304)
 -->
<!-- Title: jkr_koodistot.osapuolenrooli Pages: 1 -->
<svg width="891pt" height="442pt"
 viewBox="0.00 0.00 891.00 442.00" xmlns="http://www.w3.org/2000/svg" xmlns:xlink="http://www.w3.org/1999/xlink">
<g id="graph0" class="graph" transform="scale(1 1) rotate(0) translate(4 438)">
<title>jkr_koodistot.osapuolenrooli</title>
<polygon fill="#ffffff" stroke="transparent" points="-4,4 -4,-438 887,-438 887,4 -4,4"/>
<!-- jkr_koodistot.osapuolenrooli -->
<g id="node1" class="node">
<title>jkr_koodistot.osapuolenrooli</title>
<polygon fill="#efefef" stroke="transparent" points="46,-105.5 46,-140.5 380,-140.5 380,-105.5 46,-105.5"/>
<polygon fill="none" stroke="#000000" points="46,-105.5 46,-140.5 380,-140.5 380,-105.5 46,-105.5"/>
<text text-anchor="start" x="52.8487" y="-118.3" font-family="Arial Bold" font-size="18.00" fill="#000000">jkr_koodistot.osapuolenrooli</text>
<text text-anchor="start" x="275.8975" y="-118.3" font-family="Arial" font-size="14.00" fill="#000000"> </text>
<text text-anchor="start" x="279.7881" y="-118.3" font-family="Arial" font-size="14.00" fill="#666666">[BASE TABLE]</text>
<polygon fill="none" stroke="#000000" points="46,-75.5 46,-105.5 380,-105.5 380,-75.5 46,-75.5"/>
<text text-anchor="start" x="53" y="-86.9" font-family="Arial" font-size="14.00" fill="#000000">id </text>
<text text-anchor="start" x="67.7798" y="-86.9" font-family="Arial" font-size="14.00" fill="#666666">[smallint]</text>
<polygon fill="none" stroke="#000000" points="46,-45.5 46,-75.5 380,-75.5 380,-45.5 46,-45.5"/>
<text text-anchor="start" x="53" y="-56.9" font-family="Arial" font-size="14.00" fill="#000000">selite </text>
<text text-anchor="start" x="89.5596" y="-56.9" font-family="Arial" font-size="14.00" fill="#666666">[text]</text>
<polygon fill="none" stroke="#000000" stroke-width="3" points="44.5,-44.5 44.5,-142.5 381.5,-142.5 381.5,-44.5 44.5,-44.5"/>
</g>
<!-- jkr.kohteen_osapuolet -->
<g id="node2" class="node">
<title>jkr.kohteen_osapuolet</title>
<polygon fill="#efefef" stroke="transparent" points="69,-355.5 69,-390.5 356,-390.5 356,-355.5 69,-355.5"/>
<polygon fill="none" stroke="#000000" points="69,-355.5 69,-390.5 356,-390.5 356,-355.5 69,-355.5"/>
<text text-anchor="start" x="75.8423" y="-368.3" font-family="Arial Bold" font-size="18.00" fill="#000000">jkr.kohteen_osapuolet</text>
<text text-anchor="start" x="251.9039" y="-368.3" font-family="Arial" font-size="14.00" fill="#000000"> </text>
<text text-anchor="start" x="255.7945" y="-368.3" font-family="Arial" font-size="14.00" fill="#666666">[BASE TABLE]</text>
<polygon fill="none" stroke="#000000" points="69,-325.5 69,-355.5 356,-355.5 356,-325.5 69,-325.5"/>
<text text-anchor="start" x="76" y="-336.9" font-family="Arial" font-size="14.00" fill="#000000">kohde_id </text>
<text text-anchor="start" x="136.6928" y="-336.9" font-family="Arial" font-size="14.00" fill="#666666">[integer]</text>
<polygon fill="none" stroke="#000000" points="69,-295.5 69,-325.5 356,-325.5 356,-295.5 69,-295.5"/>
<text text-anchor="start" x="76" y="-306.9" font-family="Arial" font-size="14.00" fill="#000000">osapuoli_id </text>
<text text-anchor="start" x="150.6886" y="-306.9" font-family="Arial" font-size="14.00" fill="#666666">[integer]</text>
<polygon fill="none" stroke="#000000" points="69,-265.5 69,-295.5 356,-295.5 356,-265.5 69,-265.5"/>
<text text-anchor="start" x="76" y="-276.9" font-family="Arial" font-size="14.00" fill="#000000">osapuolenrooli_id </text>
<text text-anchor="start" x="189.5862" y="-276.9" font-family="Arial" font-size="14.00" fill="#666666">[smallint]</text>
</g>
<!-- jkr.kohteen_osapuolet&#45;&gt;jkr_koodistot.osapuolenrooli -->
<g id="edge1" class="edge">
<title>jkr.kohteen_osapuolet:osapuolenrooli_id&#45;&gt;jkr_koodistot.osapuolenrooli:id</title>
<path fill="none" stroke="#000000" d="M212.2734,-255.3575C202.1051,-189.7364 87.9845,-253.1267 46,-187 23.0115,-150.7925 3.1111,-90.5 46,-90.5"/>
<polygon fill="#000000" stroke="#000000" points="212.2854,-255.5256 208.5115,-265.8216 212.6427,-260.5128 213,-265.5 213,-265.5 213,-265.5 212.6427,-260.5128 217.4885,-265.1784 212.2854,-255.5256 212.2854,-255.5256"/>
<text text-anchor="start" x="219.6485" y="-275.5" font-family="Arial" font-size="10.00" fill="#000000">FOREIGN KEY (osapuolenrooli_id) REFERENCES jkr_koodistot.osapuolenrooli(id) MATCH FULL ON UPDATE CASCADE ON DELETE CASCADE</text>
</g>
</g>
</svg>
