<?xml version="1.0" encoding="UTF-8" standalone="no"?>
<!DOCTYPE svg PUBLIC "-//W3C//DTD SVG 1.1//EN"
 "http://www.w3.org/Graphics/SVG/1.1/DTD/svg11.dtd">
<!-- Generated by graphviz version 2.40.1 (20161225.0304)
 -->
<!-- Title: jkr_koodistot.tapahtumalaji Pages: 1 -->
<svg width="424pt" height="195pt"
 viewBox="0.00 0.00 424.00 195.00" xmlns="http://www.w3.org/2000/svg" xmlns:xlink="http://www.w3.org/1999/xlink">
<g id="graph0" class="graph" transform="scale(1 1) rotate(0) translate(4 191)">
<title>jkr_koodistot.tapahtumalaji</title>
<polygon fill="#ffffff" stroke="transparent" points="-4,4 -4,-191 420,-191 420,4 -4,4"/>
<!-- jkr_koodistot.tapahtumalaji -->
<g id="node1" class="node">
<title>jkr_koodistot.tapahtumalaji</title>
<polygon fill="#efefef" stroke="transparent" points="46,-105.5 46,-140.5 370,-140.5 370,-105.5 46,-105.5"/>
<polygon fill="none" stroke="#000000" points="46,-105.5 46,-140.5 370,-140.5 370,-105.5 46,-105.5"/>
<text text-anchor="start" x="52.8527" y="-118.3" font-family="Arial Bold" font-size="18.00" fill="#000000">jkr_koodistot.tapahtumalaji</text>
<text text-anchor="start" x="265.8935" y="-118.3" font-family="Arial" font-size="14.00" fill="#000000"> </text>
<text text-anchor="start" x="269.7841" y="-118.3" font-family="Arial" font-size="14.00" fill="#666666">[BASE TABLE]</text>
<polygon fill="none" stroke="#000000" points="46,-75.5 46,-105.5 370,-105.5 370,-75.5 46,-75.5"/>
<text text-anchor="start" x="53" y="-86.9" font-family="Arial" font-size="14.00" fill="#000000">koodi </text>
<text text-anchor="start" x="90.345" y="-86.9" font-family="Arial" font-size="14.00" fill="#666666">[text]</text>
<polygon fill="none" stroke="#000000" points="46,-45.5 46,-75.5 370,-75.5 370,-45.5 46,-45.5"/>
<text text-anchor="start" x="53" y="-56.9" font-family="Arial" font-size="14.00" fill="#000000">selite </text>
<text text-anchor="start" x="89.5596" y="-56.9" font-family="Arial" font-size="14.00" fill="#666666">[text]</text>
<polygon fill="none" stroke="#000000" stroke-width="3" points="44.5,-44.5 44.5,-142.5 371.5,-142.5 371.5,-44.5 44.5,-44.5"/>
</g>
</g>
</svg>
