<?xml version="1.0" encoding="UTF-8" standalone="no"?>
<!DOCTYPE svg PUBLIC "-//W3C//DTD SVG 1.1//EN"
 "http://www.w3.org/Graphics/SVG/1.1/DTD/svg11.dtd">
<!-- Generated by graphviz version 2.40.1 (20161225.0304)
 -->
<!-- Title: jkr_koodistot.osapuolenlaji Pages: 1 -->
<svg width="1005pt" height="652pt"
 viewBox="0.00 0.00 1005.00 652.00" xmlns="http://www.w3.org/2000/svg" xmlns:xlink="http://www.w3.org/1999/xlink">
<g id="graph0" class="graph" transform="scale(1 1) rotate(0) translate(4 648)">
<title>jkr_koodistot.osapuolenlaji</title>
<polygon fill="#ffffff" stroke="transparent" points="-4,4 -4,-648 1001,-648 1001,4 -4,4"/>
<!-- jkr_koodistot.osapuolenlaji -->
<g id="node1" class="node">
<title>jkr_koodistot.osapuolenlaji</title>
<polygon fill="#efefef" stroke="transparent" points="46,-105.5 46,-140.5 368,-140.5 368,-105.5 46,-105.5"/>
<polygon fill="none" stroke="#000000" points="46,-105.5 46,-140.5 368,-140.5 368,-105.5 46,-105.5"/>
<text text-anchor="start" x="52.8508" y="-118.3" font-family="Arial Bold" font-size="18.00" fill="#000000">jkr_koodistot.osapuolenlaji</text>
<text text-anchor="start" x="263.8954" y="-118.3" font-family="Arial" font-size="14.00" fill="#000000"> </text>
<text text-anchor="start" x="267.786" y="-118.3" font-family="Arial" font-size="14.00" fill="#666666">[BASE TABLE]</text>
<polygon fill="none" stroke="#000000" points="46,-75.5 46,-105.5 368,-105.5 368,-75.5 46,-75.5"/>
<text text-anchor="start" x="53" y="-86.9" font-family="Arial" font-size="14.00" fill="#000000">koodi </text>
<text text-anchor="start" x="90.345" y="-86.9" font-family="Arial" font-size="14.00" fill="#666666">[text]</text>
<polygon fill="none" stroke="#000000" points="46,-45.5 46,-75.5 368,-75.5 368,-45.5 46,-45.5"/>
<text text-anchor="start" x="53" y="-56.9" font-family="Arial" font-size="14.00" fill="#000000">selite </text>
<text text-anchor="start" x="89.5596" y="-56.9" font-family="Arial" font-size="14.00" fill="#666666">[text]</text>
<polygon fill="none" stroke="#000000" stroke-width="3" points="44.5,-44.5 44.5,-142.5 369.5,-142.5 369.5,-44.5 44.5,-44.5"/>
</g>
<!-- jkr.osapuoli -->
<g id="node2" class="node">
<title>jkr.osapuoli</title>
<polygon fill="#efefef" stroke="transparent" points="106,-565.5 106,-600.5 308,-600.5 308,-565.5 106,-565.5"/>
<polygon fill="none" stroke="#000000" points="106,-565.5 106,-600.5 308,-600.5 308,-565.5 106,-565.5"/>
<text text-anchor="start" x="112.8691" y="-578.3" font-family="Arial Bold" font-size="18.00" fill="#000000">jkr.osapuoli</text>
<text text-anchor="start" x="203.8771" y="-578.3" font-family="Arial" font-size="14.00" fill="#000000"> </text>
<text text-anchor="start" x="207.7677" y="-578.3" font-family="Arial" font-size="14.00" fill="#666666">[BASE TABLE]</text>
<polygon fill="none" stroke="#000000" points="106,-535.5 106,-565.5 308,-565.5 308,-535.5 106,-535.5"/>
<text text-anchor="start" x="113" y="-546.9" font-family="Arial" font-size="14.00" fill="#000000">id </text>
<text text-anchor="start" x="127.7798" y="-546.9" font-family="Arial" font-size="14.00" fill="#666666">[integer]</text>
<polygon fill="none" stroke="#000000" points="106,-505.5 106,-535.5 308,-535.5 308,-505.5 106,-505.5"/>
<text text-anchor="start" x="113" y="-516.9" font-family="Arial" font-size="14.00" fill="#000000">katuosoite </text>
<text text-anchor="start" x="180.6914" y="-516.9" font-family="Arial" font-size="14.00" fill="#666666">[text]</text>
<polygon fill="none" stroke="#000000" points="106,-475.5 106,-505.5 308,-505.5 308,-475.5 106,-475.5"/>
<text text-anchor="start" x="113" y="-486.9" font-family="Arial" font-size="14.00" fill="#000000">postitoimipaikka </text>
<text text-anchor="start" x="216.4544" y="-486.9" font-family="Arial" font-size="14.00" fill="#666666">[text]</text>
<polygon fill="none" stroke="#000000" points="106,-445.5 106,-475.5 308,-475.5 308,-445.5 106,-445.5"/>
<text text-anchor="start" x="113" y="-456.9" font-family="Arial" font-size="14.00" fill="#000000">erikoisosoite </text>
<text text-anchor="start" x="194.6746" y="-456.9" font-family="Arial" font-size="14.00" fill="#666666">[text]</text>
<polygon fill="none" stroke="#000000" points="106,-415.5 106,-445.5 308,-445.5 308,-415.5 106,-415.5"/>
<text text-anchor="start" x="113" y="-426.9" font-family="Arial" font-size="14.00" fill="#000000">ytunnus </text>
<text text-anchor="start" x="165.9116" y="-426.9" font-family="Arial" font-size="14.00" fill="#666666">[text]</text>
<polygon fill="none" stroke="#000000" points="106,-385.5 106,-415.5 308,-415.5 308,-385.5 106,-385.5"/>
<text text-anchor="start" x="113" y="-396.9" font-family="Arial" font-size="14.00" fill="#000000">ulkoinen_id </text>
<text text-anchor="start" x="187.6886" y="-396.9" font-family="Arial" font-size="14.00" fill="#666666">[bigint]</text>
<polygon fill="none" stroke="#000000" points="106,-355.5 106,-385.5 308,-385.5 308,-355.5 106,-355.5"/>
<text text-anchor="start" x="113" y="-366.9" font-family="Arial" font-size="14.00" fill="#000000">postinumero </text>
<text text-anchor="start" x="193.9046" y="-366.9" font-family="Arial" font-size="14.00" fill="#666666">[text]</text>
<polygon fill="none" stroke="#000000" points="106,-325.5 106,-355.5 308,-355.5 308,-325.5 106,-325.5"/>
<text text-anchor="start" x="113" y="-336.9" font-family="Arial" font-size="14.00" fill="#000000">osapuolenlaji_koodi </text>
<text text-anchor="start" x="239.8148" y="-336.9" font-family="Arial" font-size="14.00" fill="#666666">[text]</text>
<polygon fill="none" stroke="#000000" points="106,-295.5 106,-325.5 308,-325.5 308,-295.5 106,-295.5"/>
<text text-anchor="start" x="113" y="-306.9" font-family="Arial" font-size="14.00" fill="#000000">nimi </text>
<text text-anchor="start" x="142.547" y="-306.9" font-family="Arial" font-size="14.00" fill="#666666">[text]</text>
<polygon fill="none" stroke="#000000" points="106,-265.5 106,-295.5 308,-295.5 308,-265.5 106,-265.5"/>
<text text-anchor="start" x="113" y="-276.9" font-family="Arial" font-size="14.00" fill="#000000">kunta </text>
<text text-anchor="start" x="151.129" y="-276.9" font-family="Arial" font-size="14.00" fill="#666666">[text]</text>
</g>
<!-- jkr.osapuoli&#45;&gt;jkr_koodistot.osapuolenlaji -->
<g id="edge1" class="edge">
<title>jkr.osapuoli:osapuolenlaji_koodi&#45;&gt;jkr_koodistot.osapuolenlaji:koodi</title>
<path fill="none" stroke="#000000" d="M318.2252,-339.8265C425.7394,-325.5924 478.8071,-90.5 368,-90.5"/>
<polygon fill="#000000" stroke="#000000" points="317.9784,-339.8427 307.7042,-336.0097 312.9892,-340.1713 308,-340.5 308,-340.5 308,-340.5 312.9892,-340.1713 308.2958,-344.9903 317.9784,-339.8427 317.9784,-339.8427"/>
<text text-anchor="start" x="315.1995" y="-350.5" font-family="Arial" font-size="10.00" fill="#000000">FOREIGN KEY (osapuolenlaji_koodi) REFERENCES jkr_koodistot.osapuolenlaji(koodi) MATCH FULL ON UPDATE CASCADE ON DELETE CASCADE</text>
</g>
</g>
</svg>
