<?xml version="1.0" encoding="UTF-8" standalone="no"?>
<!DOCTYPE svg PUBLIC "-//W3C//DTD SVG 1.1//EN"
 "http://www.w3.org/Graphics/SVG/1.1/DTD/svg11.dtd">
<!-- Generated by graphviz version 2.40.1 (20161225.0304)
 -->
<!-- Title: jkr_koodistot.keraysvalinetyyppi Pages: 1 -->
<svg width="941pt" height="532pt"
 viewBox="0.00 0.00 941.00 532.00" xmlns="http://www.w3.org/2000/svg" xmlns:xlink="http://www.w3.org/1999/xlink">
<g id="graph0" class="graph" transform="scale(1 1) rotate(0) translate(4 528)">
<title>jkr_koodistot.keraysvalinetyyppi</title>
<polygon fill="#ffffff" stroke="transparent" points="-4,4 -4,-528 937,-528 937,4 -4,4"/>
<!-- jkr_koodistot.keraysvalinetyyppi -->
<g id="node1" class="node">
<title>jkr_koodistot.keraysvalinetyyppi</title>
<polygon fill="#efefef" stroke="transparent" points="46,-105.5 46,-140.5 410,-140.5 410,-105.5 46,-105.5"/>
<polygon fill="none" stroke="#000000" points="46,-105.5 46,-140.5 410,-140.5 410,-105.5 46,-105.5"/>
<text text-anchor="start" x="52.8538" y="-118.3" font-family="Arial Bold" font-size="18.00" fill="#000000">jkr_koodistot.keraysvalinetyyppi</text>
<text text-anchor="start" x="305.8924" y="-118.3" font-family="Arial" font-size="14.00" fill="#000000"> </text>
<text text-anchor="start" x="309.783" y="-118.3" font-family="Arial" font-size="14.00" fill="#666666">[BASE TABLE]</text>
<polygon fill="none" stroke="#000000" points="46,-75.5 46,-105.5 410,-105.5 410,-75.5 46,-75.5"/>
<text text-anchor="start" x="53" y="-86.9" font-family="Arial" font-size="14.00" fill="#000000">id </text>
<text text-anchor="start" x="67.7798" y="-86.9" font-family="Arial" font-size="14.00" fill="#666666">[smallint]</text>
<polygon fill="none" stroke="#000000" points="46,-45.5 46,-75.5 410,-75.5 410,-45.5 46,-45.5"/>
<text text-anchor="start" x="53" y="-56.9" font-family="Arial" font-size="14.00" fill="#000000">selite </text>
<text text-anchor="start" x="89.5596" y="-56.9" font-family="Arial" font-size="14.00" fill="#666666">[text]</text>
<polygon fill="none" stroke="#000000" stroke-width="3" points="44.5,-44.5 44.5,-142.5 411.5,-142.5 411.5,-44.5 44.5,-44.5"/>
</g>
<!-- jkr.keraysvaline -->
<g id="node2" class="node">
<title>jkr.keraysvaline</title>
<polygon fill="#efefef" stroke="transparent" points="110,-445.5 110,-480.5 345,-480.5 345,-445.5 110,-445.5"/>
<polygon fill="none" stroke="#000000" points="110,-445.5 110,-480.5 345,-480.5 345,-445.5 110,-445.5"/>
<text text-anchor="start" x="116.873" y="-458.3" font-family="Arial Bold" font-size="18.00" fill="#000000">jkr.keraysvaline</text>
<text text-anchor="start" x="240.8732" y="-458.3" font-family="Arial" font-size="14.00" fill="#000000"> </text>
<text text-anchor="start" x="244.7638" y="-458.3" font-family="Arial" font-size="14.00" fill="#666666">[BASE TABLE]</text>
<polygon fill="none" stroke="#000000" points="110,-415.5 110,-445.5 345,-445.5 345,-415.5 110,-415.5"/>
<text text-anchor="start" x="117" y="-426.9" font-family="Arial" font-size="14.00" fill="#000000">id </text>
<text text-anchor="start" x="131.7798" y="-426.9" font-family="Arial" font-size="14.00" fill="#666666">[integer]</text>
<polygon fill="none" stroke="#000000" points="110,-385.5 110,-415.5 345,-415.5 345,-385.5 110,-385.5"/>
<text text-anchor="start" x="117" y="-396.9" font-family="Arial" font-size="14.00" fill="#000000">pvm </text>
<text text-anchor="start" x="147.3338" y="-396.9" font-family="Arial" font-size="14.00" fill="#666666">[date]</text>
<polygon fill="none" stroke="#000000" points="110,-355.5 110,-385.5 345,-385.5 345,-355.5 110,-355.5"/>
<text text-anchor="start" x="117" y="-366.9" font-family="Arial" font-size="14.00" fill="#000000">tilavuus </text>
<text text-anchor="start" x="168.3422" y="-366.9" font-family="Arial" font-size="14.00" fill="#666666">[integer]</text>
<polygon fill="none" stroke="#000000" points="110,-325.5 110,-355.5 345,-355.5 345,-325.5 110,-325.5"/>
<text text-anchor="start" x="117" y="-336.9" font-family="Arial" font-size="14.00" fill="#000000">maara </text>
<text text-anchor="start" x="160.5596" y="-336.9" font-family="Arial" font-size="14.00" fill="#666666">[smallint]</text>
<polygon fill="none" stroke="#000000" points="110,-295.5 110,-325.5 345,-325.5 345,-295.5 110,-295.5"/>
<text text-anchor="start" x="117" y="-306.9" font-family="Arial" font-size="14.00" fill="#000000">sopimus_id </text>
<text text-anchor="start" x="191.6774" y="-306.9" font-family="Arial" font-size="14.00" fill="#666666">[integer]</text>
<polygon fill="none" stroke="#000000" points="110,-265.5 110,-295.5 345,-295.5 345,-265.5 110,-265.5"/>
<text text-anchor="start" x="117" y="-276.9" font-family="Arial" font-size="14.00" fill="#000000">keraysvalinetyyppi_id </text>
<text text-anchor="start" x="253.9116" y="-276.9" font-family="Arial" font-size="14.00" fill="#666666">[smallint]</text>
</g>
<!-- jkr.keraysvaline&#45;&gt;jkr_koodistot.keraysvalinetyyppi -->
<g id="edge1" class="edge">
<title>jkr.keraysvaline:keraysvalinetyyppi_id&#45;&gt;jkr_koodistot.keraysvalinetyyppi:id</title>
<path fill="none" stroke="#000000" d="M227.3409,-255.5023C217.1846,-183.9683 92.4232,-257.5805 46,-187 22.4316,-151.1672 3.1111,-90.5 46,-90.5"/>
<polygon fill="#000000" stroke="#000000" points="227.3421,-255.5217 223.5097,-265.7961 227.671,-260.5108 228,-265.5 228,-265.5 228,-265.5 227.671,-260.5108 232.4903,-265.2039 227.3421,-255.5217 227.3421,-255.5217"/>
<text text-anchor="start" x="235.158" y="-275.5" font-family="Arial" font-size="10.00" fill="#000000">FOREIGN KEY (keraysvalinetyyppi_id) REFERENCES jkr_koodistot.keraysvalinetyyppi(id) MATCH FULL ON UPDATE CASCADE ON DELETE RESTRICT</text>
</g>
</g>
</svg>
